<?xml version="1.0" encoding="utf-8"?>
<!-- Generator: Adobe Illustrator 19.2.1, SVG Export Plug-In . SVG Version: 6.00 Build 0)  -->
<svg version="1.1" id="Layer_1" xmlns="http://www.w3.org/2000/svg" xmlns:xlink="http://www.w3.org/1999/xlink" x="0px" y="0px"
	 viewBox="0 0 1299 226.9" style="enable-background:new 0 0 1299 226.9;" xml:space="preserve">
<path d="M1299,163h-6v-2h-3v-1.4l0,0l0,0V159h-0.7c-2.2,0-3.3,0-4.3-0.2l0,0c-1-0.2-1.4-0.2-2.2-0.2c-1,0-2,0.1-2.8,0.4
	c-1.6,0.2-3,0.4-5,0.5v4.5l-5,0.7V188h-4v-1h-3v-23.2h-0.2l-0.8-0.2v0.4l0,0v-1.7h-0.1l-0.6-0.3h-0.1h-2.2v-1.4h0.2l-0.5-0.2v-0.2
	V160l0,0l0,0h-4.8v2h-2v2h-2v27h-1v-1h-5v-10l0,0v-2h-3v-3h-5v2.6c-3,0.2-4.5,1.4-4.6,2.4h-0.4v-0.3l0,0l0,0V190h-4l0,0h-5.7v-1.5
	l-1.2-1.5h-2v-3h-9v1l0,0v-1h-2v6h-4l0,0h-2v-2h-3v-10h-2v-2h-1l0,0h-4l0,0h-2l0,0l0,0v-1h-3v1h-3l0,0l0,0v2h-2v16l0,0v6h-2v-6h-1
	v-1h-4v3h-2l0,0h1v-1h-1v-1h1l0,0h-1v-1h1v-1h-1l0,0h1v-1h-1v-1h1v-1h-1l0,0h1v-1h-1v-1h1l0,0h-1v-1h1v-1h-1v-2l0,0v-1h-5v-2h-1v-1
	l0,0v-1h-10l0,0h-8v1h-8v32h-4v-8h-2v-70h-7.3l-12.7,0.1V122l0,0v-5h-1v5l0,0v12.7l-7,0.2v-2.4l-0.3-5.9l-0.5,5.5h-0.2v2.9h-1v18h-1
	l0,0h-0.4l-1,24h-0.6v-1l0,0v-1l0,0v-1l0,0v-1l0,0v-1l0,0l0,0l0,0v-2l0,0l0,0l0,0v-1l0,0v-1l0,0v-1l0,0v-1l0,0v-1l0,0v-1l0,0v-1l0,0
	v-1l0,0v-1l0,0v-1l0,0v-1l0,0l0,0l0,0v-2l0,0l0,0l0,0v-1l0,0v-1l0,0v-1l0,0v-1l0,0v-1l0,0v-1l0,0v-1l0,0v-1l0,0v-1l0,0v-1l0,0v-1
	l0,0l0,0l0,0v-1l0,0v-1l0,0v-1l0,0v-1l0,0v-1l0,0v-1l0,0v-1l0,0v-1l0,0v-1l0,0v-1l0,0v-1l0,0l0,0l0,0v-2l0,0l0,0l0,0v-1l0,0v-1l0,0
	v-0.7l-0.4-0.3h0.4v-1h-0.4v-1.7h0.7l-0.7-1l-2.3-1.4l-3.6,0.1l-0.1-1l-1.9-2.9l-36,1.3l0.1,7.5h-3.9v46.8l-0.2-0.8h-1.7l-0.8,2
	h-0.3v-1h1v-1h-1v-1h1l0,0h-1v-1h1v-4h-1l0,0h-2v-1l0,0l0,0l0,0l0,0h-1v-1h-3l0,0h-4v1h-1v-95h-0.2v-1.3l-6.1-4.3l-2.3,0.1l-0.6-0.3
	h-0.4h0.1v-1l-1.6-0.7l-4.4,0.3l-0.1-4.9l0.6-0.7l0.3-2.6l-0.4-0.4l-0.1-1.1h-1.2v3.8l0.3,0.9l0.1,5l-8.5,0.5l0.1,2.1l-7.5,0.6h0.1
	v115h-2v5h-4v1h-6v-2h-1v-52l0,0v-2l0,0v-2h-1v-2l0,0v-2l0,0v-2h-0.9l-0.4-3.4l0.2,0.1l0.2,0.1v0.2h-0.3l-7.7-11.4v-0.1V112l0,0v-4
	h-1v-4l0,0v-3l0,0v3l0,0v4l0,0v4h-1v0.5l-7.6,13.3l-0.2-0.3l-0.1,1.4H974v2h-1v2l0,0v2h-1v2l0,0v2h-1v30.9l-2.2-0.9H962l0,0h2v-13
	l0,0v-14h-1v-19l0,0v0.4c0-0.1,0.4-0.3,0.4-0.5s-0.4-0.5-0.4-0.5V120l0,0v-1l0,0l0,0l0,0v-1l0,0l0,0l0,0v-1l0,0v1l0,0l0,0l0,0v1l0,0
	l0,0l0,0v1l0,0v0.3c0,0-0.4,0.3-0.4,0.5s0.4,0.5,0.4,0.5V121h-1v19l0,0v13.7v0.9v6.7l-2-0.8v-0.7l0,0V159h-1.2c0-1,0-0.7-0.2-0.7
	c-0.3-0.1-0.7,0-1,0.6c-0.3,0.5-0.3,0.9-0.1,1.1H957v-1h-0.4c0,0,0.1-0.1,0.1-0.2c0-0.5-0.6-0.8-1.1-0.7c-0.6,0.1-1,0.4-1,0.9
	c0,0.1,0,0.1,0.1,0.1l0,0c0,0,0,0,0-0.1c-0.1-0.3-0.6-0.2-0.9,0c-0.4,0.2-0.8,0.6-0.6,0.9c0.1,0.1,0.1,0.2,0.1,0.2l0,0h-0.7l0.1-0.1
	c0-0.2-0.2-0.4-0.4-0.4c-0.3,0-0.4,0.1-0.4,0.4c0,0.1,0,0.1,0.1,0.1l0,0v0.6l-13.3,0.5l-0.1,7l-0.4-0.3V193h-0.3l-0.1-0.4l-0.4-0.2
	l-0.2-23l-3-0.4H931v-44l0,0v-13h-1v-8l0,0c-0.4,0-2-0.5-3-0.7V99h-1V80l0,0v19h-1v4.2c-2-0.1-4.2,0.4-4.2,1.2l0.2,0.1v2.2
	c-1-0.1-1.4-0.2-2.2-0.2c-2.9,0-5.3,0.5-5.3,1.5h0.4v28l0,0v55.1l-4,3.1v5.7h-3v7l0,0l-0.3-24.8l-3.8-3.4V170h0.4l-10.4-2.6V167l0,0
	l-1.4-2.6v2.1l-1.3,0.1l-0.1-2l-0.4,1.4h-4.9l0.1,1h-7v24l0,0v1l0,0v-1h-1v-1l0,0v-5l0,0v-2h-1v1h-1v-2h0.4c0-1-0.4-1.5-1.4-1.8V179
	h-1v1.2c-1,0.3-1.8,1.1-1.8,2.1h-0.2v1.6h-1v-1l0,0v2h-1v5l0,0v1h-2v3.8v0.5V210h-1l0,0l0,0v-1h-0.1l0,0h0.1v-1h-0.1l0,0h0.1v-1
	h-0.1l0,0h0.1v-1h-0.1v-1h0.1l0,0h-0.1v-1h0.1l0,0h-0.1v-1h0.1l0,0h-0.1v-1h0.1l0,0h-0.1v-1h0.1l0,0h-0.1v-1h0.1l0,0h-0.1v-1h0.1
	l0,0h-0.1v-1h0.1l0,0h-0.1v-1h0.1v-1h-0.1l0,0h0.1v-1h-0.1l0,0h0.1v-1h-0.1l0,0h0.1v-1h-0.1l0,0h0.2v-1h-0.2l0,0h0.2v-1h-0.2l0,0
	h0.2v-1h-0.2l0,0h0.2v-1h-0.2v-1h0.2l0,0h-0.2l-0.1-32.4l-7.5-1.6H856v0.9l-0.8-0.2l-0.2,0.1v0.3h-4v3.6v0.3l0,0h-1l0,0h-4v22h-4v1
	h-3v-2h-1v-2h-2v1l0,0v-1h-3v-2h-1.6v-4.7l0.1-0.3l-0.7,0.1h-0.3l-3.1-5H827v-1l0,0l0,0h-1l0,0h-1v1h0.2l-3.9,5.1l-0.4-0.3l-0.4,0.4
	l0.1,4.7H820v-1h-0.3v-1h0.3l0,0h-0.3v-1h0.3v-1h-0.3v-4v-1l0.2-0.4l-3.8-0.5V165h1l0,0h-1l0,0h1v-1h-1l0,0l0,0v2.1l-2.8-0.4
	l-4.7-0.8h-7.7v0.5h-8l0.3,0.5l-0.1,1.3v3.8l0,0v1l0,0v1l0,0l0,0l0,0v1l0,0v1l0,0v1l0,0v1l0,0v1l0,0l0,0l0,0v2l0,0l0,0l0,0v1l0,0v1
	l0,0v1l0,0v1l0,0v1l0,0v1l0,0v1l0,0l0,0l0,0v2l0,0l0,0l0,0v1l0,0v1l0,0v1l0,0v1l0,0v1l0,0l0,0l0,0v2l0,0l0,0l0,0v1l0,0v1l0,0v1l0,0
	v1l0,0v1l0,0l0,0l0,0v1h-1.2l0.3-92.4L790,109l-0.1-6.6l-1.6-0.3L769,105l-0.1,32.5H766v27.9l-3,2.4v-21.4l-17.9-3.4l-0.1-2.3
	l-10.5-2.2l-6-0.1l-0.1,2l-18.3,1.5v20.8l-8,0.4v-3H702l-0.2-0.3l-10.7-1.4V156H691c-0.1,0-0.4,0-0.9,0l0,0v-4.7c0,0,0.3,0,0.3-0.1
	c0-0.7-1.3-1.2-1.3-1.3v-0.2c0,0-0.1-0.1-0.1-0.2c0-0.1-0.2-0.2-0.3-0.2s-0.4,0.1-0.4,0.2c0,0.1-0.2,0.1-0.2,0.2v0.3h0.4
	c-0.9,0-1.6,0.4-1.6,1.1V151h0.2v5h-0.3c-0.4,0-0.8,0-0.9,0H685v2l0,0v1l0,0v1h-1v0.1h-2.3L679,160l0,0h-4v-8.8l-0.2-0.1l0.4-0.8
	l-0.3-0.6H674l-0.4-0.5l0.1-1.1l-0.1-0.6l-0.5-0.1v-1.2l-1.1-0.3l-1.9-0.1v-1.2l-0.1-0.5l-0.8-0.3l-0.1-0.4v-0.7l-0.4-0.4l-1.5-0.4
	l0.1-1.1l-0.3-0.4l-0.9-0.3v-0.4l-1-0.4l0.1-20.4l-4.1-0.6l-1-0.8v-1v-2l-0.4-0.1l0.3,2.1l-1-0.4l-1.6-0.3l-0.8,0.4l-0.1,1.8
	l-2.5,0.2l0.1,0.6l-2.6-0.4h-2.4v0.9l-1.2-1.1H647v-0.6l-16-2.5v-0.8l-3.8-0.7l0.1,0.8l-0.4-0.1v-0.7l-4.1-0.8l0.1,0.8l-0.7-0.1
	v-0.9l-4-0.8v0.9l-3-0.5l-19,2.8l-0.2,64l0,0v-1h-2v-1h-1v1l0,0v-2l0,0v2l0,0v-2h-1v1l0,0v-1h-1v1l0,0v-1l0,0v1h-1v1l0,0v1h-3v-35
	h-1v-7h-0.4l-0.1-0.1l-7.4-0.7l0,0l-25,4.9v0.1V159h-3v3h-1v2h-1v-11l0,0v-1h-1.3l-10.2-1l0.1-1.6l-2.5-0.2V148l0,0v1.1l-3.1-0.3
	v0.1l-4.9,0.5V149h-1v0.5l-1,0.2V149l0,0v-1h-1v1l0,0v0.7l-2.8,0.3l0.3,1.8L510,153h-1v0.4h-0.1l0.1,0.7v6.8l-5.4,0.3L500,161v-23
	l0,0v-4l0,0v-4l0,0v-1h-1v1h-1v-1h-1v1h-1v-1l0,0v-4h-1v-1l0,0v-1h-1v1l0,0v-14h-1v-4l0,0v4l0,0v14h-1v-14l0,0v-4l0,0v4h-1v14l0,0
	v1.2V125h-5l0,0l0,0v-1h-1v1l0,0v-1h-1v1h-1v-1l0,0v-1h-1v-5h-1v-5l0,0v-5l0,0v5l0,0v5l0,0v6h-1v-6l0,0v-6l0,0v-4l0,0v4h-1v6l0,0v7
	h-2v6h-1v-1l0,0v1h-1l0,0l0,0l0,0h-1v-1l0,0l0,0h-1v1l0,0v5l0,0v3h-1v20h0.1c-0.2,0-0.5,0.2-0.7,0.2c-3,0-5.4,0.8-5.4,1.6v0.2l0,0v4
	h-1v-7h-2v-1h-3v1h-1v-1h-3l0,0h-1v-1h-3v1h-2.2l-12,1.7l0.2,3.7l-6-6.5V155l0,0l0,0h-1v-6l0,0l0,0l0,0l0,0h-1v6h-1l0,0h1v1l-7.2,7
	h-0.1l4.3-5.5v-31.1l-5-0.6V81.2l-2-0.4V79l-6-0.8V44v-0.5v-0.3l-2-0.3V23l0,0v9h-3V22l0,0v-7l0,0V6h-1V0l0,0v6h-1v9l0,0v7l0,0v18
	h-2.9l-0.1,0.2V26h-1v8l0,0V22l0,0v-9h-1V2h-1v11l0,0v9l0,0v12h-2v-9h-1v19.6l-0.3,0.1l-2.7,1V79l-3,0.9v46.8l-5,0.3v42l-1,0.1v-1
	h-1l0,0h-1l0,0l0,0V166l-12-0.5V150l0,0v0.6h-1V150l0,0v0.6h-1V150h-1v0.5l-2-0.1V150l0,0v0.4h-1V150l0,0v0.4h-1V117h-1v-3h-1v-3h-3
	v-1l0,0v-4h-0.4c-0.4,0-7.3-0.5-8.5-0.2c-0.4,0.1-0.5,2.2-0.5,4.2h-0.2c-0.6,0-2.6-0.1-3,0.2c-0.1,0.1-0.2,1-0.2,2.2
	c-0.3-0.1-0.8-0.2-0.9,0c-0.1,0.1-0.1,2.5-0.1,4.5h-0.6c-0.4,0-0.6,1-0.6,1v30.7l-3,0.4v8.9h-9V155h0.1l0.9-0.2l0.2-0.6H333v-7.5
	h0.1l0.9-0.2l0.2-0.6H333v-2.2l-2-0.1v-1.4l-2-0.4v0.3h-2v1.2l-8-0.6v0.4h0.3l0,0l-0.1-0.2l-4.2-0.1V140h-1v2.7l-6.6,0.1l2.6-0.1
	l-1.1-1.7h-1.6l-1.2,1.9H305v3h-1l0.2,0.6l0.6,0.2l0.2,0.2v9.7l-5,0.1v-1h0.3l1.9-1.7h-11.9l0,0l0,0l0,0v-0.2l-6.2,1.4l1.2,0.7
	l0.7,0.1v4.9h-3l0,0l-4,0.7v1.3h-5v-0.1l-4,0.7v0.4h-4v0.4l-4,0.7v1.7h-1.1l0.1,0.6l0.6,0.2l0.5,0.4V191h-13v-7h2.2h0.8v-2h-3v-3
	h-10.9l-4.8,1H229v-1h-2v-1h-5h-0.9h-1.3H217v-3v-3h0.5h0.5v-1h-1v-2h0.5h0.5v-2h-1v-2h0.5h0.5v-2h-1v-2v-3h0.5h0.5v-1h-1v-4h-1v-2
	v-3h-3v-4h-3v-1l1.7-0.4l-3.1-4.8h-0.5l0,0l-3-0.1V136h-1h-3v1.5h-1V136h-1v1.4l-2-0.1l0,0l-9.1-0.4h0.1L184,138l-2.2,5.1h1.4v1.5
	l-3.3,0.6v-0.3H179v3.2l-0.4-0.2l0,0l-0.5,0.6v2.4l-1,0.6v25.1v8.3h-8v-6h-11v-34.8v-7.6l-1-2.4v-0.5v-5.8l-1-4.4v-2.1v-1.2v-10.8
	l-1.2-3.4h2.2v-1h-1v-1h-1.9l-1.1,0.2V104h-1v-2h-1v-0.5V100h-1.4H148v-0.6v-0.3v-1.5v-0.2V96h-0.9l-0.8-1.5l-0.8,1.5H144v1.3v0.2
	v0.4h-1v2h-1v1h-2v1h-1v2.3l-3,0.1v0.6v13.4v4.6h-1v9h-1v77h-3v1h-1v-0.3v-0.5v-0.3l-1-0.4v1.5h-0.6H126h-1v-1.2V197v-1.3v-2.6V192
	v-10.4v-1.3v-3.9v-1.3v-2.6v-1.3v-6.5v-1.3v-7.8V153v-13v-3.1l0,0v-3.2c0-0.4-0.6-0.7-1-1.2c-1.3-1.3-2.5-2.6-3.4-2.6H120v-1.2
	l-3-5.2V96.3v-4.9V88h-1V75h-2l0,0c-2-0.1-4.9,0.4-7.8,1.8c-5.4,2.6-8.8,7.1-8.8,10.8c-0.9,0.7-1.4,1.6-1.6,2.5
	c-0.1,0.2,0,0.8,0,0.8H96v3c-2,0.1-4,0.3-5,0.5v1.5v32.6c-1,0.1-3,0.2-5,0.4v1.5v36c0,0-0.4,0-1.1,0c-2.8,0-5.9,0.2-5.9,0.6v1.8l0,0
	v23.5c0,0.1-1,0.1-2,0.2v1.9V207h-9v-2l0,0v2h-2v-2h-1v2h-7v-2h-1v2h-5v-2h-1v2h-4v-21l-5-2l0,0H23v-2h-2v2h-2v-2h-1v2h-5v25H0v29.7
	v23.8v3.5h1299v-12l0,0V163z M981.2,116.3L981.2,116.3L981.2,116.3L981.2,116.3z M850.1,159.1L850.1,159.1L850.1,159.1L850.1,159.1z
	 M482.7,123.7v1.6h-1.1v-1.6H482.7z M412,32v10.7l-2-0.2V42h-1V32H412z M403,35v5.5v0.2V35L403,35z M399,35h2v6.8l-1,0.5v1.6l-1,0.3
	V35z M347.1,117.2L347.1,117.2L347.1,117.2L347.1,117.2z M299.6,156.7h-0.5v-1.1h0.5V156.7z M298.3,155.6h0.4v1.1h-0.6L298.3,155.6z
	 M286.6,156.1h1.2l-0.2,4.9h-1.2L286.6,156.1z"/>
</svg>
