<?xml version="1.0" encoding="utf-8"?>
<!-- Generator: Adobe Illustrator 19.2.1, SVG Export Plug-In . SVG Version: 6.00 Build 0)  -->
<svg version="1.1" id="Layer_1" xmlns="http://www.w3.org/2000/svg" xmlns:xlink="http://www.w3.org/1999/xlink" x="0px" y="0px"
	 viewBox="0 0 379 67.3" style="enable-background:new 0 0 379 67.3;" xml:space="preserve">
<style type="text/css">
	.st0{fill:#C8C298;}
</style>
<g>
	<path class="st0" d="M15.4,46.2c-0.2,0-0.6-0.8-0.6-1.3c0-0.2,0.1-0.4,0.2-0.4c10.4-5.1,14.2-10.1,14.2-20.3c0-2.6-0.7-4.1-2.1-4.1
		c-2.6,0-4.4,5.3-4.4,9.3c0,1.3,0.6,2,1.5,2c0.4,0,0.9-0.2,1.3-0.5c0.2-0.1,0.6,0.2,0.8,0.5c0.2,0.2,0.4,0.8,0.2,0.9
		c-0.8,0.9-2.4,1.5-4.1,1.5c-3.3,0-5.8-2-5.8-6c0-5.7,5-9.6,10.3-9.6c5.2,0,8.4,3.1,8.4,8.4C35.4,35.1,24.6,43.9,15.4,46.2z"/>
	<path class="st0" d="M38.9,44c-2,0-3.6-1.7-3.6-3.6c0-2,1.6-3.6,3.6-3.6c2,0,3.6,1.6,3.6,3.6C42.6,42.4,40.9,44,38.9,44z"/>
	<path class="st0" d="M80.1,26.7c-1.8,0-3.4-1.4-3.4-3.1c0-2.3,2.2-2.8,2.2-4c0-1.4-0.9-2.6-3-2.6c-2.7,0-4.6,1.5-4.6,4.2
		c0,5,6.8,12.3,6.8,20.2c0,5.8-5.1,12.8-14.1,12.8c-7.3,0-11.7-3.6-11.7-8.7c0-3.8,3.6-8.1,8.5-8.1c3.3,0,6.5,2.4,6.5,5.4
		c0,3.1-1.9,5.9-4.7,5.9c-1.5,0-2.8-1-2.8-2.6c0-2.2,3.9-3,3.9-4.8c0-1.4-1.4-2-2.9-2c-2.6,0-4.5,2.4-4.5,5.8c0,3.6,2.6,7.1,7.7,7.1
		c4.7,0,6.9-3.2,6.9-8c0-6.5-6.5-13.2-6.5-19.4c0-4.7,4.1-9.8,11-9.8c5.2,0,7.8,3.9,7.8,7.3C83.4,25.2,82,26.7,80.1,26.7z"/>
	<path class="st0" d="M103.9,27.4c0,0.7-0.1,2.5-0.1,3.2c0,0.2-0.6,0.3-0.8,0.3c-0.3,0-0.8-0.1-0.8-0.3c-0.1-2.2-1.9-4.6-4.6-4.6
		h-0.6c-0.9,0-1.7,0.4-2.1,2.1l-1,4.3h1c1.5,0,3.1-0.4,3.8-2.5c0-0.1,0.5-0.2,0.8-0.2c0.3,0,0.8,0.1,0.7,0.2c-0.4,1.5-0.6,2-0.9,3.5
		c-0.4,1.4-0.5,2.4-0.8,3.9c0,0.2-0.5,0.2-0.7,0.2c-0.4,0-0.8-0.1-0.8-0.2c0.3-2.2-0.6-3.1-2.5-3.1h-1l-1.1,4.7
		c-0.1,0.5-0.2,1.2-0.2,1.5c0,0.8,0.4,1.2,1.3,1.2h1c3.3,0,6.2-2.6,6.9-5.2c0-0.1,0.4,0,0.6,0c0.4,0,1,0.4,1,0.6
		c-0.5,1.8-1.1,4.7-1.6,6.7c-2-0.1-5.1-0.2-7.4-0.2c-2.2,0-9.8,0.1-11.5,0.2c-0.1,0-0.2-0.4-0.2-0.7c0-0.3,0.2-0.9,0.4-1
		c2.4-0.3,2.6-1.2,3.1-3l2.4-10.2c0.1-0.5,0.2-1,0.2-1.3c0-0.9-0.5-1.5-2.1-1.7c-0.1,0-0.1-0.5-0.1-0.6c0-0.5,0.2-1,0.3-1
		c1.5,0.1,8.8,0.2,10.7,0.2c1.9,0,5.2-0.1,7-0.2C104.1,25.1,103.9,26.5,103.9,27.4z"/>
	<path class="st0" d="M118.2,36.1c-1.4,0-2.2-0.1-3.1-0.2l-0.8,3c-0.1,0.5-0.2,1-0.2,1.3c0,1,0.5,1.5,2,1.7c0.1,0,0.2,0.5,0.2,0.6
		c0,0.3-0.2,1-0.3,1c-1.9,0-4-0.2-5.9-0.2c-1.8,0-4,0.2-5.7,0.2c0,0-0.1-0.4-0.1-0.7c0-0.3,0.2-0.9,0.3-1c2.4-0.3,2.7-1.2,3.1-3
		l2.4-10.2c0.1-0.5,0.2-1,0.2-1.3c0-0.9-0.5-1.5-2-1.7c-0.1,0-0.2-0.5-0.2-0.6c0-0.4,0.2-1,0.4-1c1.8,0,3.7,0.2,5.5,0.2
		c1.6,0,4.3-0.2,6-0.2c4.6,0,7.3,2,7.3,5.4C127.4,33.3,123.2,36.1,118.2,36.1z M119,25.8c-1.1,0-1.6,0.4-2,2.1l-1.2,5
		c-0.2,1,0.2,1.4,1.3,1.4c2.1,0,3.9-2.4,3.9-5.8C121,26.7,120.3,25.8,119,25.8z"/>
	<path class="st0" d="M150.3,31.5c0,0.2-0.6,0.3-0.8,0.3c-0.2,0-0.8-0.1-0.8-0.3c0.1-2.6-1.8-5.5-3.3-5.5h-0.1
		c-0.9,0-1.3,0.4-1.5,1.3L141,38.8c-0.1,0.5-0.2,0.9-0.2,1.2c0,1,0.5,1.5,2.5,1.8c0.1,0,0.1,0.5,0.1,0.6c0,0.3-0.1,1-0.3,1
		c-1.9,0-4.4-0.2-6.4-0.2c-1.8,0-4.2,0.2-5.8,0.2c-0.1,0-0.2-0.4-0.2-0.7c0-0.3,0.2-0.9,0.3-1c2.8-0.4,2.8-1.2,3.3-3l2.8-11.5
		c0.2-0.9-0.2-1.3-1.1-1.3h-0.2c-1.5,0-4.7,3.4-5.6,5.5c0,0.2-0.5,0.3-0.8,0.3c-0.4,0-0.8-0.2-0.8-0.3c0.7-2.2,1.7-5.6,2.2-7.8
		c1.4,0.3,3.8,0.5,10.3,0.5c6.4,0,9-0.2,10.4-0.5C151.1,25.7,150.5,29.6,150.3,31.5z"/>
	<path class="st0" d="M171.3,27.4c0,0.7-0.1,2.5-0.1,3.2c0,0.2-0.6,0.3-0.8,0.3c-0.3,0-0.8-0.1-0.8-0.3c-0.1-2.2-1.9-4.6-4.6-4.6
		h-0.6c-0.9,0-1.7,0.4-2.1,2.1l-1,4.3h1c1.5,0,3.1-0.4,3.8-2.5c0-0.1,0.5-0.2,0.8-0.2c0.3,0,0.8,0.1,0.7,0.2c-0.4,1.5-0.6,2-0.9,3.5
		c-0.4,1.4-0.5,2.4-0.8,3.9c0,0.2-0.5,0.2-0.7,0.2c-0.4,0-0.8-0.1-0.8-0.2c0.3-2.2-0.6-3.1-2.5-3.1h-1l-1.1,4.7
		c-0.1,0.5-0.2,1.2-0.2,1.5c0,0.8,0.4,1.2,1.3,1.2h1c3.3,0,6.2-2.6,6.9-5.2c0-0.1,0.4,0,0.6,0c0.4,0,1,0.4,1,0.6
		c-0.5,1.8-1.1,4.7-1.6,6.7c-2-0.1-5.1-0.2-7.4-0.2c-2.2,0-9.8,0.1-11.5,0.2c-0.1,0-0.2-0.4-0.2-0.7c0-0.3,0.2-0.9,0.4-1
		c2.4-0.3,2.6-1.2,3.1-3l2.4-10.2c0.1-0.5,0.2-1,0.2-1.3c0-0.9-0.5-1.5-2.1-1.7c-0.1,0-0.1-0.5-0.1-0.6c0-0.5,0.2-1,0.3-1
		c1.5,0.1,8.8,0.2,10.7,0.2c1.9,0,5.2-0.1,7-0.2C171.5,25.1,171.4,26.5,171.3,27.4z"/>
	<path class="st0" d="M203.9,25.6c-2.4,0.3-3.3,0.4-3.4,2.4l-0.8,10.8c-0.2,2.1,0,2.6,2.6,3c0.1,0,0.1,0.5,0.1,0.6
		c0,0.3-0.2,1-0.3,1c-1.9,0-4-0.2-6.2-0.2c-2.2,0-4.2,0.2-6.1,0.2c-0.1,0-0.2-0.4-0.2-0.7c0-0.3,0.2-0.9,0.4-1c2.1-0.3,3-0.8,3.2-3
		l0.9-9.9l-8.5,14.8c-0.1,0.1-0.5,0.3-1.1,0.3c-0.7,0-1-0.2-1-0.3l-2.9-14.5l-3.4,9.6c-0.7,1.9-0.1,2.6,2.4,3c0.1,0,0.2,0.5,0.2,0.6
		c0,0.3-0.2,1-0.4,1c-1.4,0-2.5-0.2-4.2-0.2s-3.1,0.2-4.4,0.2c-0.1,0-0.2-0.4-0.2-0.7c0-0.3,0.2-0.9,0.3-1c2-0.3,3-1.2,3.8-3L179,28
		c0.8-1.9,0-2-2.6-2.4c-0.1,0-0.2-0.5-0.2-0.6c0-0.4,0.2-1,0.4-1c0.7,0,3.2,0.2,4.2,0.2c1.2,0,4-0.2,5.3-0.2l2,10.7l6.7-10.7
		c1.4,0,3.4,0.2,4.6,0.2c1.5,0,3.3-0.2,4.6-0.2c0.1,0,0.2,0.4,0.2,0.7C204.2,25,204.1,25.6,203.9,25.6z"/>
	<path class="st0" d="M220,32.9c4,0.3,5.6,1.8,5.6,4.5c0,3.2-3,6-10.2,6c-1.8,0-3.4-0.2-5.3-0.2c-2.2,0-4.2,0.2-6,0.2
		c-0.1,0-0.1-0.4-0.1-0.7c0-0.3,0.2-0.9,0.3-1c2.4-0.3,2.7-1.2,3.1-3l2.4-10.2c0.1-0.5,0.2-1,0.2-1.3c0-0.9-0.5-1.5-2-1.7
		c-0.1,0-0.2-0.5-0.2-0.6c0-0.4,0.2-1,0.3-1c1.9,0,4.6,0.2,6.2,0.2c1.4,0,4-0.2,5.2-0.2c5.4,0,7.3,1.9,7.3,4.5
		C226.9,30.8,224.4,32.7,220,32.9z M216.7,34.2h-1.6l-1.4,5.8c-0.3,1.3,0,1.6,0.8,1.6c3.4,0,4.5-2.4,4.5-4.9
		C219.1,35.1,218.5,34.2,216.7,34.2z M218.2,25.8c-0.9,0-1.2,0.3-1.4,1.5l-1.2,5h1.7c2.4,0,3.3-2.1,3.3-4
		C220.6,26.6,219.7,25.8,218.2,25.8z"/>
	<path class="st0" d="M248.2,27.4c0,0.7-0.1,2.5-0.1,3.2c0,0.2-0.6,0.3-0.8,0.3c-0.3,0-0.8-0.1-0.8-0.3c-0.1-2.2-1.9-4.6-4.6-4.6
		h-0.6c-0.9,0-1.7,0.4-2.1,2.1l-1,4.3h1c1.5,0,3.1-0.4,3.8-2.5c0-0.1,0.5-0.2,0.8-0.2c0.3,0,0.8,0.1,0.7,0.2c-0.4,1.5-0.6,2-0.9,3.5
		c-0.4,1.4-0.5,2.4-0.8,3.9c0,0.2-0.5,0.2-0.7,0.2c-0.4,0-0.8-0.1-0.8-0.2c0.3-2.2-0.6-3.1-2.5-3.1h-1l-1.1,4.7
		c-0.1,0.5-0.2,1.2-0.2,1.5c0,0.8,0.4,1.2,1.3,1.2h1c3.3,0,6.2-2.6,6.9-5.2c0-0.1,0.4,0,0.6,0c0.4,0,1,0.4,1,0.6
		c-0.5,1.8-1.1,4.7-1.6,6.7c-2-0.1-5.1-0.2-7.4-0.2c-2.2,0-9.8,0.1-11.5,0.2c-0.1,0-0.2-0.4-0.2-0.7c0-0.3,0.2-0.9,0.4-1
		c2.4-0.3,2.6-1.2,3.1-3l2.4-10.2c0.1-0.5,0.2-1,0.2-1.3c0-0.9-0.5-1.5-2.1-1.7c-0.1,0-0.1-0.5-0.1-0.6c0-0.5,0.2-1,0.3-1
		c1.5,0.1,8.8,0.2,10.7,0.2c1.9,0,5.2-0.1,7-0.2C248.4,25.1,248.3,26.5,248.2,27.4z"/>
	<path class="st0" d="M271.7,44c-1.4-0.4-5.2-0.6-7.6-0.6l-2.8-7.3c-0.3-0.7-0.8-0.9-1.6-0.9l-0.9,3.6c-0.1,0.5-0.2,1-0.2,1.3
		c0,1,0.5,1.5,2.1,1.7c0.1,0,0.1,0.5,0.1,0.6c0,0.3-0.2,1-0.3,1c-1.9,0-4-0.2-5.9-0.2c-1.8,0-4,0.2-5.7,0.2c-0.1,0-0.2-0.4-0.2-0.7
		c0-0.3,0.2-0.9,0.3-1c2.4-0.3,2.7-1.2,3.1-3l2.4-10.2c0.1-0.5,0.2-1,0.2-1.3c0-0.9-0.5-1.5-2-1.7c-0.1,0-0.2-0.5-0.2-0.6
		c0-0.4,0.2-1,0.4-1c1.8,0,3.4,0.2,5.2,0.2c1.6,0,4.3-0.2,6-0.2c4.6,0,7.6,1.7,7.6,5c0,2.6-2.8,4.3-5.1,4.8l2.1,4.9
		c0.7,1.6,1.4,2.9,3.8,3.6c0.2,0,0.2,0.2,0.2,0.4C272.6,43.4,272,44,271.7,44z M263.1,25.8c-1,0-1.4,0.4-1.6,1.5l-1.6,6.4h1
		c2.4,0,4.1-2.8,4.1-5.7C265,26.6,264.4,25.8,263.1,25.8z"/>
	<path class="st0" d="M291.5,38.8l5.5-0.2c1.8-0.1,2.4-0.8,3.6-2.5c0.1-0.2,0.7-0.1,1,0c0.3,0.1,0.8,0.4,0.7,0.6
		c-0.7,1.4-2.4,5-2.9,6.7c-0.9-0.2-3.3-0.2-7-0.2c-3.2,0-6.8,0-7.7,0.2c-0.2,0-0.4-0.5-0.4-0.8c0-0.2,0-0.3,0.1-0.4
		c5.3-4.1,10.3-7.4,10.3-11.2c0-1.4-0.8-2.6-2.4-2.6c-1.5,0-2.5,0.7-3.6,1.9c-0.1,0.1-0.3,0.2-0.4,0.2c-0.3,0-1.2-0.8-1.2-1
		c0-0.1,0-0.2,0.1-0.2c2.3-2.8,5.1-5.2,8.2-5.2c3.7,0,5.7,2.6,5.7,5.4C301.1,32.7,297.8,35.8,291.5,38.8z"/>
	<path class="st0" d="M312.9,44.1c-4.5,0-7-3.3-7-7.1c0-6,4.6-12.8,12.3-12.8c4.5,0,7,3.2,7,7.1C325.2,37.2,320.7,44.1,312.9,44.1z
		 M317.9,26.1c-3,0-5.9,10-5.9,14.3c0,1.1,0.4,1.7,1.2,1.7c3,0,5.9-10,5.9-14.4C319.2,26.8,318.8,26.1,317.9,26.1z"/>
	<path class="st0" d="M343.9,26.5c-2.4,0.3-3.6,0.2-4.2,3.2l-2.1,8.7c-0.2,0.6-0.2,1.1-0.2,1.5c0,1.5,1.2,1.5,2.9,1.7
		c0.2,0,0.2,0.5,0.2,0.7c0,0.4-0.2,1.1-0.4,1.1c-1.7,0-4.9-0.2-6.8-0.2c-1.9,0-5,0.2-6.7,0.2c-0.1,0-0.2-0.4-0.2-0.7
		c0-0.3,0.2-1,0.5-1.1c2.4-0.2,3.5-0.2,4.2-3.2l2.1-8.7c0.2-0.6,0.2-1.2,0.2-1.5c0-1.5-1.2-1.5-3-1.7c-0.1,0-0.2-0.5-0.2-0.6
		c0-0.4,0.2-1.1,0.5-1.1c1.7,0,4.9,0.2,6.8,0.2c1.9,0,5-0.2,6.7-0.2c0.1,0,0.2,0.4,0.2,0.7C344.4,25.8,344.1,26.5,343.9,26.5z"/>
	<path class="st0" d="M366,17.7c-9.5,4.6-14.2,11-14.2,19.7c0,3.5,0.9,4.8,2.5,4.8c2.4,0,4.2-5.7,4.2-10.3c0-1-0.5-1.6-1.2-1.6
		c-0.4,0-0.9,0.2-1.3,0.5c-0.1,0.1-0.6-0.2-0.8-0.5c-0.2-0.2-0.4-0.8-0.2-0.9c0.9-1,2.1-1.5,4.1-1.5c3.3,0,5.6,2.4,5.6,6.3
		c0,5.2-5.6,9.9-11.1,9.9c-4.5,0-8.1-3-8.1-8c0-10,10.9-17.8,20-20.1c0.2,0,0.6,0.8,0.6,1.3C366.2,17.4,366.1,17.6,366,17.7z"/>
</g>
</svg>
