<?xml version="1.0" encoding="utf-8"?>
<!-- Generator: Adobe Illustrator 19.2.1, SVG Export Plug-In . SVG Version: 6.00 Build 0)  -->
<svg version="1.1" id="Layer_1" xmlns="http://www.w3.org/2000/svg" xmlns:xlink="http://www.w3.org/1999/xlink" x="0px" y="0px"
	 viewBox="0 0 1862 100.9" style="enable-background:new 0 0 1862 100.9;" xml:space="preserve">
<style type="text/css">
	.st0{fill:none;stroke:#221F1F;stroke-width:1.4;stroke-linecap:round;stroke-linejoin:round;stroke-miterlimit:10;}
	.st1{fill:#CFD87A;}
	.st2{fill:#B9DEBC;}
	.st3{fill:#231F20;stroke:#221F1F;stroke-width:0.4;stroke-miterlimit:10;}
</style>
<line class="st0" x1="937" y1="65.1" x2="1862" y2="64.9"/>
<line class="st0" x1="0" y1="65.1" x2="872" y2="64.9"/>
<g>
	<path class="st1" d="M761.1,38.8c-1.3,0-2.6-0.3-3.9-0.7l-3.6,14.8c-0.1,0.5-0.2,1-0.2,1.4c0,1.1,0.6,1.7,3.4,2
		c0.2,0,0.2,0.5,0.2,0.7c0,0.4-0.2,1.1-0.5,1.1c-2.6,0-5.9-0.2-8-0.2s-5.1,0.2-7.5,0.2c-0.1,0-0.2-0.4-0.2-0.7s0.2-1,0.5-1.1
		c3.3-0.4,3.8-0.5,4.4-3.4l4.2-17.6c-1.6-0.4-3.4-0.8-5.3-0.8c-3.1,0-4.5,1.1-4.5,2.6c0,3.8,4.1,1.4,4.1,4.7c0,1.1-1.1,2.5-2.2,2.5
		c-2.4,0-4.8-2.2-4.8-5.1c0-4.8,5-9.6,10.9-9.6c5,0,13.2,4.1,16.6,4.1c1.4,0,1.8-0.7,1.8-1.6c0-1-3.4-1.8-3.4-3.8c0-1.7,1.1-3,3-3
		c1.7,0,3.4,2,3.4,5.6C769.6,34.5,767.3,38.8,761.1,38.8z"/>
	<path class="st1" d="M769.4,58.6c-5.7,0-9-3.1-9-7.7c0-6.8,6.7-12.9,13.4-12.9c5.7,0,9,3.1,9,7.7C782.8,52.5,776.1,58.6,769.4,58.6
		z M773.9,39.7c-3.4,0-6.9,7.3-6.9,13.9c0,2.1,0.8,3.2,2.3,3.2c3.4,0,6.9-7.3,6.9-14C776.2,40.8,775.4,39.7,773.9,39.7z"/>
	<path class="st1" d="M798.7,47.5c4,0.3,5.6,1.8,5.6,4.5c0,3.2-3,6-10.2,6c-1.8,0-3.4-0.2-5.3-0.2c-2.2,0-4.2,0.2-6,0.2
		c-0.1,0-0.1-0.4-0.1-0.7s0.2-0.9,0.3-1c2.4-0.3,2.7-1.2,3.1-3l2.4-10.2c0.1-0.5,0.2-1,0.2-1.3c0-0.9-0.5-1.5-2-1.7
		c-0.1,0-0.2-0.5-0.2-0.6c0-0.4,0.2-1,0.3-1c1.9,0,4.6,0.2,6.2,0.2c1.4,0,4-0.2,5.2-0.2c5.4,0,7.3,1.9,7.3,4.5
		C805.5,45.4,803,47.3,798.7,47.5z M795.4,48.8h-1.6l-1.4,5.8c-0.3,1.3,0,1.6,0.8,1.6c3.4,0,4.5-2.4,4.5-4.9
		C797.7,49.7,797.1,48.8,795.4,48.8z M796.8,40.5c-0.9,0-1.2,0.3-1.4,1.5l-1.2,5h1.7c2.4,0,3.3-2.1,3.3-4
		C799.2,41.2,798.3,40.5,796.8,40.5z"/>
	<path class="st1" d="M820.9,40.3c-2.4,0.3-2.6,1.2-3.1,3l-2.4,10.2c-0.1,0.5-0.2,1-0.2,1.3c0,1,0.5,1.5,2.1,1.7
		c0.1,0,0.1,0.5,0.1,0.6c0,0.3-0.2,1-0.3,1c-1.9,0-4-0.2-5.9-0.2c-1.8,0-4,0.2-5.7,0.2c-0.1,0-0.2-0.4-0.2-0.7s0.2-0.9,0.3-1
		c2.4-0.3,2.7-1.2,3.1-3l2.4-10.2c0.1-0.5,0.2-1,0.2-1.3c0-0.9-0.5-1.5-2-1.7c-0.1,0-0.2-0.5-0.2-0.6c0-0.4,0.2-1,0.4-1
		c1.8,0,4.3,0.2,6.2,0.2c1.8,0,3.7-0.2,5.4-0.2c0.1,0,0.2,0.4,0.2,0.7S821.1,40.2,820.9,40.3z"/>
	<path class="st1" d="M841.9,58.1c-1.9,0-3.3-0.2-5.3-0.2c-2.2,0-4.4,0.2-6.3,0.2c-0.1,0-0.2-0.5-0.2-0.8s0-0.8,0.2-0.8
		c2-0.2,2.2-0.7,2.1-2c0-0.3-0.1-0.6-0.2-1l-0.1-0.7h-6.2l-0.2,0.3c-0.4,0.6-0.8,1.5-0.8,2c0,0.9,0.4,1.3,1.6,1.4
		c0.1,0,0.2,0.5,0.2,0.8c0,0.4-0.1,0.9-0.2,0.9c-1.6,0-2.6-0.2-4.6-0.2c-1.6,0-1.7,0.2-3,0.2c-0.1,0-0.2-0.4-0.2-0.9
		c0-0.3,0.1-0.8,0.2-0.8c1.3-0.2,2.7-1.2,4.3-3.6l10.3-14.5c0.1-0.2,0.6-0.3,1.1-0.3c0.4,0,1,0.1,1,0.3l3.2,14.7
		c0.5,2.4,1,3,3.1,3.3c0.1,0,0.2,0.5,0.2,0.8S842,58.1,841.9,58.1z M830.6,45.6l-3.5,5.3h4.6L830.6,45.6z"/>
	<path class="st1" d="M859.2,44.1c0,0.2-0.6,0.3-0.8,0.3s-0.8-0.1-0.8-0.3c-0.2-2.5-1.7-4.4-3.4-4.4c-1.5,0-2.3,0.6-2.3,2.1
		c0,3.2,6,5.7,6,10.2c0,4.2-3.6,6.6-8.5,6.6c-2.9,0-4.2-1.2-6.2-1.2c0.2-1.8,0.3-4.4,0.3-6c0-0.2,0.6-0.2,0.9-0.2
		c0.2,0,0.7,0.1,0.7,0.2c0.5,3.3,2.1,5.5,4.5,5.5c1.6,0,2.4-1,2.4-2.6c0-3-6.1-5.6-6.1-9.8c0-3.6,3.6-6.4,8.4-6.4
		c2,0,3.4,0.6,4.9,0.6C859.3,40.5,859.2,42.2,859.2,44.1z"/>
</g>
<g>
	<path class="st2" d="M1010,58.2c-2.6,0-5.1-0.2-7.4-0.2c-2.5,0-5.5,0.2-8.1,0.2c-0.1,0-0.2-0.4-0.2-0.7s0.2-1,0.5-1.1
		c3.6-0.2,3.8-1.1,4-3.4l0.3-2.7h-6.4c-5.2,5.6-10.6,9.5-16.8,9.5c-6.6,0-11.1-3.8-11.1-9c0-5.3,4-9.1,8.2-9.1c3.9,0,6.5,2.8,6.5,6
		c0,2.3-1.2,5-4,5c-1.6,0-2.8-1.3-2.8-2.6c0-2.8,3.2-1.8,3.2-3.8c0-1.4-1.4-2.6-2.9-2.6c-2.5,0-4.8,2.4-4.8,6.2
		c0,3.6,2.8,6.8,8.4,6.8c8.1,0,17.4-9.7,30.2-26.5c0.3-0.4,0.6-0.6,1.2-0.6c0.7,0,1.2,0.4,1.2,1.2c0,0.6-0.5,2.1-0.6,3.8l-1.6,18.2
		c-0.2,2.8,0.3,3.4,3.4,3.7c0.2,0,0.2,0.5,0.2,0.7C1010.5,57.4,1010.3,58.2,1010,58.2z M994.5,48.3h4.8l0.6-6.7
		C998.3,43.7,996.1,46.4,994.5,48.3z"/>
	<path class="st2" d="M1037.5,40.4c-2.1,0.3-2.7,1.2-3,3l-2.6,15c0,0.1-0.4,0.3-1,0.3c-0.7,0-1-0.2-1-0.3l-10.4-12.8l-1.4,8
		c-0.3,1.8,0,2.7,2.1,3c0.1,0,0.2,0.5,0.2,0.6c0,0.3-0.2,1-0.4,1c-1.2,0-2.4-0.2-3.9-0.2c-1.4,0-2.7,0.2-3.7,0.2
		c-0.1,0-0.2-0.4-0.2-0.7s0.2-0.9,0.3-1c2.1-0.3,2.8-1.2,3.2-3l2-9.3c0-0.4,0.1-0.7,0.1-1c0-1.3-0.6-2.5-2.6-2.8
		c-0.1,0-0.2-0.5-0.2-0.6c0-0.4,0.2-1,0.3-1c0.8,0,1.8,0.1,2.7,0.1c1,0,3-0.1,4.1-0.1l9,11.5l1-6.8c0.2-1.6-0.2-2.6-2.4-3
		c-0.1,0-0.2-0.4-0.2-0.6c0-0.3,0.1-1,0.3-1c1.2,0,2.1,0.2,3.7,0.2c1.5,0,2.8-0.2,3.9-0.2c0.1,0,0.2,0.4,0.2,0.7
		C1037.8,39.7,1037.6,40.4,1037.5,40.4z"/>
	<path class="st2" d="M1051.6,40.4c-2.4,0.3-2.6,1.2-3.1,3l-2.4,10.2c-0.1,0.5-0.2,1-0.2,1.3c0,1,0.5,1.5,2.1,1.7
		c0.1,0,0.1,0.5,0.1,0.6c0,0.3-0.2,1-0.3,1c-1.9,0-4-0.2-5.9-0.2c-1.8,0-4,0.2-5.7,0.2c-0.1,0-0.2-0.4-0.2-0.7s0.2-0.9,0.3-1
		c2.4-0.3,2.7-1.2,3.1-3l2.4-10.2c0.1-0.5,0.2-1,0.2-1.3c0-0.9-0.5-1.5-2-1.7c-0.1,0-0.2-0.5-0.2-0.6c0-0.4,0.2-1,0.4-1
		c1.8,0,4.3,0.2,6.2,0.2c1.8,0,3.7-0.2,5.4-0.2c0.1,0,0.2,0.4,0.2,0.7S1051.8,40.3,1051.6,40.4z"/>
	<path class="st2" d="M1076.7,40.4c-1.5,0.1-2.6,0.8-4.2,2.1l-4.8,3.9l3.4,7.1c0.9,1.9,2.1,3,4,3.6c0.2,0,0.2,0.2,0.2,0.4
		c0,0.6-0.6,1.3-0.8,1.2c-1.4-0.4-5.6-0.6-8.1-0.6l-3.3-7.5c-0.2-0.6-0.5-0.8-1.5-0.8l-0.9,3.6c-0.1,0.5-0.2,1.1-0.2,1.4
		c0,1,0.2,1.3,1.7,1.6c0.1,0,0.2,0.5,0.2,0.6c0,0.3-0.2,1-0.3,1c-1.9,0-3.6-0.2-5.5-0.2c-1.8,0-4,0.2-5.7,0.2
		c-0.1,0-0.2-0.4-0.2-0.7s0.2-0.9,0.3-1c2.4-0.3,2.7-1.2,3.1-3l2.4-10.2c0.1-0.5,0.2-1,0.2-1.3c0-0.9-0.5-1.5-2-1.7
		c-0.1,0-0.1-0.5-0.1-0.6c0-0.4,0.1-1,0.3-1c1.8,0,4.3,0.2,6.2,0.2c1.8,0,3.4-0.2,5.1-0.2c0,0,0.1,0.4,0.1,0.7s-0.2,0.9-0.3,1
		c-2.1,0.3-2.4,1.3-2.8,3l-1.1,4.6c0.7,0,1.2-0.3,2.1-1.1l4.9-4.1c0.6-0.5,0.9-1,0.9-1.4c0-0.5-0.4-0.8-1.5-1
		c-0.1,0-0.2-0.5-0.2-0.6c0-0.4,0.2-1,0.3-1c1.4,0,1.8,0.2,3.7,0.2c1.8,0,3.7-0.2,4.6-0.2c0.1,0,0.1,0.4,0.1,0.7
		C1077,39.7,1076.8,40.4,1076.7,40.4z"/>
	<path class="st2" d="M1100.2,58.2c-1.9,0-3.3-0.2-5.3-0.2c-2.2,0-4.4,0.2-6.3,0.2c-0.1,0-0.2-0.5-0.2-0.8s0-0.8,0.2-0.8
		c2-0.2,2.2-0.7,2.1-2c0-0.3-0.1-0.6-0.2-1l-0.1-0.7h-6.2l-0.2,0.3c-0.4,0.6-0.8,1.5-0.8,2c0,0.9,0.4,1.3,1.6,1.4
		c0.1,0,0.2,0.5,0.2,0.8c0,0.4-0.1,0.9-0.2,0.9c-1.6,0-2.6-0.2-4.6-0.2c-1.6,0-1.7,0.2-3,0.2c-0.1,0-0.2-0.4-0.2-0.9
		c0-0.3,0.1-0.8,0.2-0.8c1.3-0.2,2.7-1.2,4.3-3.6l10.3-14.5c0.1-0.2,0.6-0.3,1.1-0.3c0.4,0,1,0.1,1,0.3l3.2,14.7
		c0.5,2.4,1,3,3.1,3.3c0.1,0,0.2,0.5,0.2,0.8C1100.4,57.6,1100.3,58.2,1100.2,58.2z M1088.9,45.7l-3.5,5.3h4.6L1088.9,45.7z"/>
</g>
<g>
	<path class="st3" d="M949.3,51.5c1.6-4.8,0.3-9.7-3.6-13.5c-0.2-0.1-0.5-0.2-0.8,0.1c-0.1,0.1-0.2,0.3-0.2,0.4s0.1,0.3,0.2,0.4
		c5.4,5.2,4.5,12.2,0.8,16.5c-3.1,3.5-8.7,5.6-13.8,1.9l-0.7-0.4c-5.2-4.7-11.5-7.2-18-7.2c-11.5,0-20.5,7.7-20.5,17.4
		c0,7.5,4.3,15.5,13.6,15.5c9,0,13.8-3,17.2-10.9c0-0.1,0-0.2,0-0.4c-0.1-0.1-0.2-0.3-0.3-0.3c-0.1-0.1-0.3-0.1-0.5,0
		c-0.1,0-0.2,0.1-0.3,0.2c-2.7,6.1-6.4,10.2-16.1,10.2c-7.4,0-12.4-5.8-12.4-14.3c0-6.6,6.5-16.2,18.2-16.2
		c12.1,0,25.2,8.3,25.2,21.6c0,13.5-10,27.1-32.4,27.1c-20.9,0-31.8-16.6-31.8-33.1c0-13.5,7.3-22,13.4-26.7
		c10.2-7.8,23.2-10.2,28.3-8.9c0.3,0.1,0.6-0.1,0.8-0.4c0-0.4-0.3-0.7-0.5-0.8c-1.3-0.3-3.2-0.4-5.1-0.3l0,0c-1.2,0-2.2-0.6-2.6-1.6
		c-1.2-2.6-1.9-5.2-2-7.6c-0.6-9.6,5.4-17.7,14-18.8c4.5-0.6,8.8,0.4,12.1,2.9c3,2.3,4.8,5.5,5.3,9.4c0,0.1,0.1,0.3,0.3,0.4
		c0.1,0.1,0.2,0.1,0.3,0.1h0.2c0.2,0,0.3-0.1,0.4-0.2s0.1-0.2,0.1-0.3C937,5.7,930.3,0,921.9,0c-0.9,0-1.8,0.1-2.7,0.2
		c-8.9,1.2-15.5,10.1-14.9,20.1c0.1,2,0.6,4.2,1.4,6.5v0.1c0.5,1.1,1.2,2.5,1.2,2.5l0.1,0.2l-0.2,0.1c-0.3,0.1-3.1,0.8-3.2,0.8
		c-6.5,1.6-12.9,4.6-17.9,8.5c-6.3,4.9-13.8,13.7-13.8,27.6c0,17,11.3,34.3,32.9,34.3c23.2,0,33.5-14.2,33.5-28.3
		c0-3-0.6-5.7-1.6-8.2v-0.1c-0.7-1.8-2.2-4-2.3-4l-0.3-0.4l0.5,0.2c0,0,2.1,0.7,4.7,0.4l0,0l0,0C943.8,59.5,947.7,56.1,949.3,51.5z"
		/>
</g>
</svg>
