<?xml version="1.0" encoding="utf-8"?>
<!-- Generator: Adobe Illustrator 19.2.1, SVG Export Plug-In . SVG Version: 6.00 Build 0)  -->
<svg version="1.1" id="Layer_1" xmlns="http://www.w3.org/2000/svg" xmlns:xlink="http://www.w3.org/1999/xlink" x="0px" y="0px"
	 viewBox="0 0 83.5 88.5" style="enable-background:new 0 0 83.5 88.5;" xml:space="preserve">
<style type="text/css">
	.st0{stroke:#000000;stroke-linecap:round;stroke-linejoin:round;stroke-miterlimit:10;}
	.st1{fill:#FFFFFF;stroke:#000000;stroke-linecap:round;stroke-linejoin:round;stroke-miterlimit:10;}
	.st2{fill:#D4A07F;stroke:#000000;stroke-linecap:round;stroke-linejoin:round;stroke-miterlimit:10;}
	.st3{fill:#A77F43;stroke:#000000;stroke-linecap:round;stroke-linejoin:round;stroke-miterlimit:10;}
	.st4{fill:#B9DEBD;stroke:#000000;stroke-linecap:round;stroke-linejoin:round;stroke-miterlimit:10;}
	.st5{fill:#C5A359;stroke:#000000;stroke-linecap:round;stroke-linejoin:round;stroke-miterlimit:10;}
	.st6{fill:#FFFFFF;}
	.st7{fill:#CFD87A;stroke:#000000;stroke-linecap:round;stroke-linejoin:round;stroke-miterlimit:10;}
	.st8{fill:none;stroke:#000000;stroke-linecap:round;stroke-linejoin:round;stroke-miterlimit:10;}
</style>
<g>
	<path class="st0" d="M77.2,58.5c0,0,5.7,23.1,5.4,25.8c-0.3,2.7-9.9,1-9.9,1L77.2,58.5z"/>
	<path class="st1" d="M21.5,26c0,0,0.4,0,1.5,0.1c1.1,0.1,1.9,1.2,1.9,1.2l-1,1.8L21.5,26z"/>
	<path class="st2" d="M20.6,29.6c0,0,3.2-5.2,3-8c-0.2-2.8,12.4,1.6,12.4,1.6s-1.5,6.8-0.7,9.5C36.2,35.3,20.6,29.6,20.6,29.6z"/>
	<path class="st3" d="M32.4,1.9c-0.7,0-2.3-2-5.1-1.1s-6.8,6-7.3,10.4c-0.3,2-1.4,4.2-1.5,5.3c-0.1,1.2,1.2,5.6,2.8,6.2
		c1.6,0.5,5.2,5.1,6.8,5.5s2.6-2,3.7-2.1c1.1-0.1,4.2-1.4,5.4-2.8c1.2-1.3,5.9-7.1,5.8-10.8c-0.2-3.7-1.6-8.9-5-10.6
		C35.9,0.7,33.1,1.9,32.4,1.9z"/>
	<path class="st0" d="M49.3,80.1c0,0,0.5,6.7,8.1,7.6s12.8-0.5,15.2-2s2.6-2.7,3.4-5.8c0.8-3.1,3.6-18.9,3-20.5s-7.2-5.6-7.2-5.6
		L49.3,80.1z"/>
	<path class="st4" d="M41.1,60.7c0,0,4.6,19.7,10.6,22.6c6,2.9,18.7,1.3,21.4-3.8c2.6-5.1,3-7.8,2.1-16.4c0,0,2.9,1.5,4.8,0.6
		c2.8-1.2,0.9-6.3,0.6-7.6c-0.3-1.3-4.7-14.3-8.3-16.9s-13-5-13-5L41.1,60.7z"/>
	<path class="st5" d="M10.7,80.5c0,0-0.2,5.2,4.1,6.3c4.3,1.1,15.4,1.2,19.8,0.6c4.4-0.6,8-2.2,7.9-6.9L10.7,80.5z"/>
	<g>
		<path class="st6" d="M28.9,34.3c-0.5,0-0.9,0-1.2-0.1c-3.2-0.4-8.8-3.9-9.1-4c-0.2-0.1-0.3-0.5-0.2-0.7c2.4-3.8,2.7-3.9,2.9-4
			c0,0,0.1,0,0.1,0c0.3,0,0.5,0.2,1.1,0.7c0.9,0.8,2.7,2.2,4.7,2.4c0.3,0,0.5,0,0.9,0c3.4,0,10-1.6,10.1-1.6c0,0,0.1,0,0.1,0
			c0.1,0,0.2,0,0.3,0.1c0.1,0.1,0.2,0.3,0.2,0.4l-0.3,5c0,0.2-0.2,0.4-0.4,0.5C37.9,33.1,32.4,34.3,28.9,34.3z"/>
		<path d="M21.5,26c0.4,0,2.7,2.7,5.8,3.1c0.3,0,0.6,0,0.9,0c3.5,0,10.2-1.6,10.2-1.6l-0.3,5c0,0-5.7,1.2-9.2,1.2
			c-0.4,0-0.8,0-1.1-0.1c-3.1-0.4-8.9-3.9-8.9-3.9S21.1,26.1,21.5,26C21.5,26,21.5,26,21.5,26 M38.4,27.5L38.4,27.5 M21.5,25
			c-0.1,0-0.2,0-0.3,0c-0.4,0.1-0.8,0.2-3.2,4.2c-0.3,0.5-0.1,1.1,0.3,1.4c0.2,0.1,6,3.7,9.3,4.1c0.4,0,0.8,0.1,1.3,0.1
			c3.5,0,9.2-1.2,9.4-1.3c0.4-0.1,0.8-0.5,0.8-0.9l0.3-4.9c0,0,0-0.1,0-0.1c0-0.6-0.4-1-1-1h0c0,0,0,0,0,0c0,0,0,0,0,0
			c-0.1,0-0.2,0-0.2,0c-0.4,0.1-6.7,1.6-10,1.6c-0.3,0-0.6,0-0.8,0c-1.9-0.2-3.5-1.5-4.5-2.3C22.3,25.3,22,25,21.5,25L21.5,25z"/>
	</g>
	<path class="st7" d="M20.3,27.6c-1.8,1-6.4,3.2-11.2,3.6c-4.9,0.4-7.4,13.2-7.9,19.5S0.6,60.9,1.3,63.5c0.7,2.6,2.4,4.2,2.9,4.8
		C4.8,68.9,8,69,8,69c0,0.8,0,2.3,0,2.9c0,0.6,0,3.1,0,5.9s1.6,5.6,3.3,5.4c1.8-0.8,7.4-0.4,9.6-0.3s6-0.2,8.1-0.3s6,0,8.2-0.1
		c2.2-0.1,5.2-0.8,5.2-0.8c3-3.2,3.4-49.8,1.6-52.4s-6.4-1-6.4-1c-0.8,0.9-5.2,3.2-9.6,2.8s-7.3-3.6-7.3-3.6"/>
	<path class="st5" d="M36.3,18.5c2.4-2.9,6.9-2.5,8.8-1.7c1.9,0.8,9.3,5.9,11.3,7.7c2,1.9,2.6,5.4,4.6,6.8c2.1,1.4,5,1.7,6.2,3.5
		c1.2,1.8,7.5,14.5,7.1,17.7c0,0-2-3.9-3.8-5.3s-3.9-4.7-3.9-4.7s2.9,12.4,2.3,13.7c0,0-3.9-8.5-6.7-11.1c0,0,3.4,9.9-1.1,15.2
		c0,0-2.1-7.6-3.3-8.5c0,0-6,9.6-6.2,13c-0.2,3.4-0.2,4.1-0.5,4.4c0,0,0.1-3-2.1-5.9c0,0-1.5,6.5-1.4,7.6c0,0-2.5-7.7-2.9-8.2
		c0,0-4.4,14.4-5.7,15.4c0,0,0.3-10.6-0.9-12.5c0,0-3.1,4.8-3.2,6.9c0,0-0.2-13.9-2-15.8c-1.8-1.9-0.2-10.1,1.2-12.4
		c1.5-2.3,2.9-8.4,2.4-10.7s-3.7-5.9-3.3-8.3C33.5,23,35.4,19.6,36.3,18.5z"/>
	<path class="st8" d="M8,69c0,0,1.1-15.5,0.9-21.8"/>
	<path class="st8" d="M76.1,64c-1.5,0-2.3-5.1-4-7.1"/>
</g>
</svg>
