<?xml version="1.0" encoding="UTF-8"?>
<!DOCTYPE svg PUBLIC "-//W3C//DTD SVG 1.1//EN" "http://www.w3.org/Graphics/SVG/1.1/DTD/svg11.dtd">
<svg version="1.1" xmlns="http://www.w3.org/2000/svg" xmlns:xlink="http://www.w3.org/1999/xlink" width="256" height="47"  xml:space="preserve">
    <g id="danke" fill="white">
        <path d="M 144.3,29.7 C 144.2,29.6 144.1,29.4 144,29.4 143.9,29.3 143.7,29.3 143.4,29.3 143.1,29.4 142.9,29.5 142.9,29.7 142.4,30.5 141.9,31.2 141.3,31.9 140.7,32.6 140.2,33.3 139.6,34 139,34.7 138.4,35.4 137.7,36 137.1,36.6 136.4,37.1 135.6,37.6 134.9,38 134.1,38.3 133.3,38.4 132.5,38.5 131.8,38.4 131,38.1 L 129.8,37.6 C 129.7,37.5 129.6,37.5 129.5,37.4 L 129.1,37 C 128.8,36.7 128.6,36.3 128.5,35.8 128.7,35.6 129,35.4 129.2,35.2 129.5,34.9 129.8,34.6 130.1,34.3 130.8,33.6 131.4,32.8 131.9,31.9 132.2,31.4 132.4,31 132.7,30.6 132.9,30.2 133.1,29.7 133.3,29.2 133.5,28.6 133.6,28 133.6,27.5 133.6,27.2 133.6,26.9 133.5,26.5 133.4,26 133.1,25.6 132.6,25.4 132.2,25.2 131.7,25.1 131.3,25.2 130.9,25.3 130.6,25.4 130.2,25.5 129.7,25.8 129.2,26.2 128.9,26.6 128.5,27 128.2,27.5 127.9,27.9 127.6,28.3 127.3,28.8 127.1,29.2 127,29.5 126.9,29.7 126.7,30 126.2,30.9 125.7,31.7 125.1,32.4 124.5,33.3 123.7,34.1 122.9,34.8 121.2,36.3 119.3,37.2 117.2,37.6 116.1,37.8 115.1,37.8 114,37.7 112.9,37.5 111.9,37.3 110.9,36.9 110.4,36.7 109.8,36.5 109.3,36.3 108.9,36.1 108.5,35.9 108,35.7 108,35.6 108,35.5 108,35.4 108,35.3 108,35.3 108,35.2 108.4,35.1 108.9,35.1 109.3,35 109.9,34.9 110.5,34.8 111.1,34.6 111.6,34.4 112.2,34.3 112.7,34.1 113.3,33.9 113.8,33.6 114.4,33.3 114.9,33 115.4,32.5 115.9,32 116.4,31.4 116.7,30.7 116.8,29.9 116.9,29.1 116.7,28.3 116.2,27.6 115.7,26.9 115.2,26.4 114.5,26.1 113.9,25.8 113.2,25.6 112.4,25.7 111.6,25.7 110.9,25.9 110.3,26.3 109.7,26.6 109.2,27 108.7,27.5 108.3,28 108,28.5 107.7,29.1 107.4,29.7 107.2,30.2 107.1,30.8 107,31.3 106.9,31.9 106.7,32.4 106.7,32.7 106.6,32.9 106.6,33.1 106.6,33.2 106.6,33.3 106.6,33.3 106.3,33.3 106,33.4 105.7,33.4 L 104.4,33.5 C 104.1,33.5 103.9,33.6 103.7,33.8 L 103.6,34 C 103.3,34.6 103.6,35 103.8,35.2 104.5,35.8 105.3,36.3 106.2,36.8 L 106,38.8 C 106,39.1 105.9,39.4 105.9,39.6 105.9,39.8 105.8,40 105.8,40.3 105.7,40.7 105.7,41.1 105.6,41.4 105.5,41.4 105.5,41.4 105.5,41.4 105.4,41.4 105.3,41.3 105.2,41.3 105,41.2 104.9,41.1 104.7,41 104.5,40.9 104.4,40.7 104.3,40.6 103.7,39.8 103.2,39 102.8,38.1 102.4,37.2 102.1,36.2 101.8,35.2 101.3,33.4 101,31.6 100.8,29.7 101.8,28.2 102.7,26.6 103.6,25 104.1,24 104.6,23.1 105.1,22.1 105.6,21.1 106,20.1 106.4,19.1 106.8,18.1 107.2,17 107.5,16 107.8,15 108.1,13.9 108.3,12.8 108.5,11.6 108.5,10.4 108.4,9.3 108.3,8.7 108.1,8.1 107.8,7.5 107.5,6.8 107,6.3 106.4,6 106.1,5.7 105.7,5.6 105.2,5.5 104.8,5.5 104.3,5.5 104,5.6 103.6,5.7 103.3,5.9 103,6.2 102.8,6.4 102.6,6.6 102.3,6.8 101.9,7.3 101.5,7.8 101.2,8.3 100.9,8.8 100.6,9.3 100.4,9.9 100,10.9 99.6,12 99.2,13 98.9,14 98.5,15.1 98.3,16.1 98,17.2 97.8,18.3 97.7,19.4 97.6,20.5 97.5,21.6 97.5,22.8 97.5,25 97.7,27.2 98,29.4 98,29.5 98,29.6 98.1,29.7 97.5,30.8 96.7,31.9 95.7,33.1 94.8,34.3 93.7,35.5 92.7,36.7 91.6,37.9 90.5,39 89.4,40 88.3,41 87.3,41.9 86.3,42.6 85.7,43 85.5,42.9 85.5,42.9 85.5,42.9 85.4,42.9 85.3,42.7 85.2,42.5 85.1,42.4 85,42.2 84.5,40.9 84.3,39.5 84.3,38 84.3,36.5 84.3,35 84.4,33.7 84.4,33.4 84.5,33 84.5,32.6 L 84.5,31.6 C 84.5,31.1 84.4,30.6 84.3,30 84.2,29.8 84.1,29.5 84,29.2 83.9,28.8 83.6,28.5 83.2,28.2 82.5,27.7 81.7,27.6 81,27.8 80.3,28 79.8,28.3 79.5,28.7 78.8,29.4 78.2,30 77.6,30.7 77.1,31.4 76.6,32.1 76,32.8 75.7,33.1 75.5,33.5 75.2,33.8 75.2,33.3 75.2,32.9 75.3,32.4 75.3,31.8 75.3,31.2 75.3,30.7 75.3,30.1 75.2,29.8 75.1,29.5 L 75,29.4 C 74.9,29.2 74.8,29 74.6,28.9 74.4,28.8 74.2,28.7 73.8,28.8 73.5,28.9 73.2,29 73.1,29.3 72.4,30.2 71.8,31.2 71.1,32.1 70.4,33 69.7,33.9 69,34.8 68.3,35.7 67.5,36.6 66.7,37.4 65.9,38.2 65.1,38.9 64.1,39.5 63.4,39.9 62.9,40.1 62.6,40 62.3,39.9 62,39.7 61.8,39.3 61.6,38.8 61.4,38.2 61.2,37.5 61.1,36.7 60.9,36 60.8,35.2 60.7,34.4 60.6,33.7 60.5,33 60.4,32.3 60.1,31.7 59.8,31.4 L 59.7,31.3 C 59.5,31.1 59.2,31.1 58.9,31.2 58.8,31.2 58.6,31.3 58.5,31.3 58.4,31.3 58.3,31.4 58.2,31.5 58.2,31.5 58.1,31.6 58,31.6 57.9,31.7 57.7,31.8 57.6,31.9 57.5,32 57.3,32.1 57.2,32.2 56.3,33 55.4,33.8 54.6,34.7 53.8,35.5 53,36.2 52,36.8 51.6,37.1 51.1,37.3 50.7,37.3 50.3,37.4 50,37.3 49.8,37.1 49.4,36.7 49.2,36.2 49.3,35.6 49.4,34.9 49.6,34.2 50,33.4 50.4,32.6 50.8,31.9 51.3,31.3 51.8,30.6 52.3,30.2 52.6,29.9 53,29.6 53.4,29.3 53.8,29 54.2,28.7 54.7,28.6 55.1,28.5 55.5,28.4 55.9,28.4 56.3,28.6 56.7,28.8 57,29 57.3,29.4 57.5,29.7 57.7,29.8 57.8,29.8 58,29.9 58.3,29.8 58.6,29.6 58.8,29.4 58.9,29.1 58.9,28.9 58.9,28.8 58.9,28.7 58.8,28.6 L 58.7,28.4 C 58.2,27.8 57.6,27.3 57,27.1 56,26.6 54.9,26.5 53.8,26.9 52.8,27.2 51.8,27.7 51.1,28.2 50.7,28.5 50.3,28.8 49.8,29.2 L 49.7,29.3 49.5,29.5 C 49.5,29.5 49.5,29.6 49.4,29.6 49.3,29.7 49.2,29.8 49.1,29.9 48.5,30.6 47.9,31.3 47.5,32.1 47.5,32.2 47.4,32.3 47.4,32.4 46.8,33.2 46.1,34 45.3,34.8 44.5,35.6 43.6,36.4 42.7,37.1 41.8,37.8 40.9,38.4 39.9,38.9 38.9,39.4 37.9,39.6 37,39.6 36,39.5 35.2,39.2 34.4,38.6 34.2,38.4 34,38.2 33.8,38 33.6,37.8 33.4,37.6 33.3,37.5 L 32.8,36.8 C 32.7,36.7 32.7,36.6 32.6,36.5 32.5,36.4 32.5,36.2 32.4,36.1 32.3,35.9 32.2,35.7 32.1,35.5 32,35.4 32,35.2 31.9,35.1 32.3,34.6 32.6,34.1 33,33.6 33.4,33 33.7,32.4 34,31.8 34.3,31.2 34.5,30.6 34.7,30 34.8,29.4 35,28.9 35.2,28.3 35.4,27.7 35.5,27.2 35.7,26.6 35.8,26 36,25.4 36.1,24.9 36.3,23.7 36.5,22.5 36.7,21.4 36.9,20.2 37,19 37.1,17.9 37.2,16.7 37.2,15.5 37.2,14.3 37.2,13.1 37,11.8 36.7,10.6 36.6,10 36.4,9.4 36.2,8.8 36,8.2 35.7,7.6 35.2,6.9 35,6.6 34.8,6.4 34.5,6.1 34.2,5.8 33.9,5.6 33.6,5.4 32.9,5 32.1,4.8 31.3,4.9 L 31.1,5 31.1,5 C 30.6,5.1 30.3,5.3 29.9,5.6 29.6,5.9 29.3,6.2 29.1,6.5 28.9,6.8 28.7,7.1 28.6,7.4 28.5,7.7 28.3,8 28.2,8.3 28,8.9 27.8,9.5 27.6,10.2 27.5,10.8 27.3,11.4 27.3,12 27.1,13.3 27,14.5 26.9,15.7 26.9,16.9 26.8,18.1 26.8,19.3 26.8,20.5 26.9,21.8 27,23 27.1,24.2 27.3,25.4 27.5,26.6 27.7,27.8 27.9,29 28.2,30.2 28.4,31.4 28.8,32.6 29.2,33.7 29.3,34 29.4,34.4 29.5,34.7 29.6,34.9 29.7,35.1 29.7,35.3 29.6,35.4 29.5,35.5 29.3,35.6 29,35.8 28.8,36 28.7,36.2 27.7,36.9 26.8,37.3 25.8,37.4 24.8,37.6 23.8,37.5 22.8,37.1 22.4,36.9 22.1,36.7 22,36.4 21.8,36 21.7,35.6 21.6,35.1 21.5,34.7 21.5,34.2 21.6,33.8 21.7,33.3 21.8,32.9 22,32.5 22.2,32.1 22.4,31.6 22.7,31.2 23,30.8 23.3,30.6 23.7,30.3 24.5,29.8 25.3,29.7 26.3,30 26.4,30.1 26.5,30.1 26.7,30.1 26.9,30.1 27.1,29.9 27.2,29.7 27.3,29.5 27.3,29.3 27.3,29.1 27.2,28.9 27.1,28.8 26.9,28.7 L 26.8,28.7 C 26.2,28.4 25.6,28.2 24.9,28.1 24.2,28 23.4,28.2 22.7,28.5 22,28.8 21.4,29.2 20.9,29.7 20.4,30.2 20,30.8 19.7,31.5 19.4,32.1 19.2,32.8 19.1,33.5 19,34.3 19,35 19.2,35.8 19.4,36.5 19.8,37.1 20.4,37.8 20.9,38.3 21.5,38.7 22.3,39 22.9,39.2 23.5,39.4 24.2,39.4 24.9,39.5 25.6,39.4 26.2,39.3 26.9,39.2 27.5,39 28.1,38.7 28.7,38.4 29.2,38.1 29.7,37.7 29.9,37.5 30.1,37.4 30.3,37.2 30.4,37.2 30.4,37.1 30.5,37.1 30.8,37.6 31.1,38.1 31.4,38.6 31.9,39.3 32.5,39.9 33.2,40.5 33.8,41 34.4,41.3 35.1,41.6 35.7,41.8 36.3,41.9 37,41.9 37.1,41.9 37.2,41.9 37.3,41.9 38,41.9 38.7,41.8 39.4,41.6 40,41.4 40.6,41.2 41.2,40.9 42.3,40.3 43.4,39.6 44.4,38.7 45.3,37.9 46.2,37 47,36.1 47.1,36.5 47.2,36.9 47.3,37.2 47.6,37.9 48,38.4 48.6,38.7 49.1,39 49.6,39.2 50.2,39.3 50.8,39.4 51.3,39.3 51.9,39.2 52.5,39 53,38.8 53.4,38.5 54.5,37.8 55.4,37 56.2,36.1 57,35.2 57.8,34.4 58.6,33.7 58.7,33.6 58.9,33.5 59.2,33.3 59.3,33.7 59.3,34.3 59.3,34.9 59.3,36 59.4,37.1 59.5,38.2 59.7,39.3 60,40.3 60.5,41.1 60.8,41.6 61.5,42.2 62.6,42.2 62.8,42.2 63.1,42.2 63.4,42.1 64,42 64.7,41.7 65.4,41.2 66.5,40.5 67.4,39.7 68.2,38.8 69,37.9 69.8,37 70.5,36.1 71.3,35.2 72,34.2 72.6,33.2 72.8,32.9 73,32.5 73.3,32.2 73.3,32.9 73.3,33.5 73.3,34.2 73.3,34.9 73.2,35.5 73.1,36 73,36.6 72.9,36.9 72.8,37.1 L 72.8,37.2 C 72.7,37.7 72.8,38.1 73.3,38.4 73.9,38.7 74.4,38.6 74.7,38.2 74.7,38.2 74.8,38.1 74.9,37.9 L 75,37.8 75,38 C 75.3,37.3 75.6,36.6 76.1,36.1 76.6,35.5 77.1,34.8 77.6,34.2 78.2,33.5 78.7,32.9 79.3,32.3 79.9,31.7 80.5,31.2 81.1,30.7 L 81.6,30.4 C 81.7,30.4 81.8,30.4 81.8,30.4 81.9,30.4 82,30.4 82.1,30.4 82.1,30.4 82.2,30.5 82.2,30.8 82.3,31.1 82.3,31.5 82.3,31.9 82.4,33.4 82.4,34.9 82.4,36.5 82.4,38.1 82.5,39.7 82.8,41.3 82.9,42 83.1,42.6 83.4,43.3 83.5,43.6 83.7,43.9 84,44.3 84.3,44.7 84.7,45 85.3,45.2 85.5,45.3 85.8,45.3 86,45.3 86.3,45.3 86.6,45.2 86.8,45.1 87.2,44.9 87.5,44.7 87.8,44.5 88.7,43.9 89.8,43 90.9,41.8 92.1,40.6 93.2,39.4 94.4,38 95.5,36.7 96.6,35.3 97.5,34 98,33.3 98.4,32.7 98.8,32.1 98.8,32.3 98.9,32.5 98.9,32.8 99.1,33.9 99.5,35 99.8,36 100.1,37 100.5,38.1 101,39.2 L 101.8,40.6 C 102.1,41.1 102.5,41.6 102.9,42 103.1,42.2 103.3,42.4 103.6,42.6 103.9,42.8 104.2,43 104.5,43.2 104.7,43.3 105.1,43.4 105.6,43.5 L 105.8,43.5 105.9,43.5 105.9,43.5 C 106,43.5 106.1,43.5 106.2,43.4 106.5,43.3 106.7,43.2 106.8,43 106.9,42.9 106.9,42.8 107,42.7 107.2,42.3 107.3,42 107.3,41.7 107.3,41.5 107.4,41.2 107.5,40.9 L 107.7,39.3 C 107.7,39 107.8,38.6 107.8,38.2 107.8,38.1 107.8,38 107.8,37.9 108.6,38.3 109.4,38.6 110.2,38.8 111.3,39.2 112.5,39.5 113.8,39.6 115,39.7 116.2,39.7 117.5,39.5 118.7,39.3 119.9,38.9 121,38.3 122.1,37.7 123.1,37 124,36.2 124.6,35.6 125.2,35 125.7,34.4 125.7,34.8 125.7,35.2 125.7,35.6 125.8,36.2 125.9,36.7 126.1,37.3 126.3,37.9 126.6,38.4 127,38.9 127.4,39.3 127.9,39.7 128.6,40.1 L 130.1,40.6 C 130.7,40.8 131.3,40.8 131.9,40.8 132.4,40.8 132.9,40.7 133.4,40.6 134.5,40.3 135.5,39.9 136.3,39.3 137.2,38.7 137.9,38.1 138.6,37.4 139.2,36.8 139.9,36.1 140.5,35.3 141.1,34.6 141.7,33.8 142.2,33 142.8,32.2 143.3,31.3 144,30.4 144.4,30.1 144.4,29.9 144.3,29.7 Z M 129,32.6 C 128.8,32.8 128.6,33 128.4,33.2 128.4,33 128.4,32.9 128.5,32.7 L 128.5,32.7 C 128.6,32.3 128.7,31.8 128.8,31.4 128.9,31 129.1,30.6 129.3,30.2 129.5,29.8 129.7,29.4 129.9,29 130.1,28.6 130.3,28.3 130.5,28 130.7,27.7 131,27.5 131.4,27.2 131.6,27.1 131.6,27.1 131.7,27.1 L 131.7,27.1 C 131.7,27.1 131.7,27.2 131.7,27.5 131.7,27.7 131.7,27.9 131.6,28 131.6,28.2 131.5,28.4 131.4,28.6 131.1,29.4 130.7,30.2 130.3,30.9 130,31.6 129.5,32.1 129,32.6 Z M 111.5,28.5 C 111.9,28.4 112.2,28.3 112.5,28.3 112.9,28.3 113.2,28.4 113.5,28.5 113.8,28.7 114.1,28.9 114.3,29.1 114.5,29.3 114.5,29.5 114.5,29.8 114.5,30.1 114.4,30.3 114.2,30.6 114,30.9 113.7,31.2 113.3,31.4 112.9,31.7 112.5,31.9 112.1,32 111.7,32.2 111.2,32.3 110.7,32.5 110,32.7 109.2,32.9 108.4,33.1 108.4,33 108.4,32.9 108.5,32.8 L 108.5,32.8 C 108.7,31.8 109.1,30.9 109.6,30.1 110.1,29.4 110.8,28.8 111.5,28.5 Z M 105.7,7.7 C 106,7.9 106.2,8.1 106.4,8.4 106.6,8.8 106.7,9.2 106.8,9.7 106.9,10.1 106.9,10.6 106.9,11.1 106.9,11.6 106.8,12.1 106.8,12.6 106.6,13.6 106.4,14.6 106.1,15.6 105.8,16.6 105.5,17.6 105.1,18.6 104.4,20.3 103.7,22 102.8,23.7 102.2,24.9 101.5,26.1 100.8,27.2 100.8,26.7 100.7,26.3 100.7,25.8 100.6,24.8 100.6,23.9 100.6,22.9 100.6,21.9 100.7,20.9 100.8,19.8 100.9,18.8 101,17.8 101.2,16.7 101.6,14.6 102.1,12.6 102.8,10.8 103,10.3 103.2,9.9 103.4,9.4 103.6,9 103.9,8.6 104.2,8.2 104.5,7.9 104.8,7.6 105.1,7.5 105.1,7.4 105.3,7.4 105.7,7.7 Z M 33.5,29.7 C 33.3,30.2 33.2,30.8 32.9,31.3 32.5,32.1 32.1,32.8 31.7,33.5 L 31.6,33.3 C 30.9,31.1 30.5,28.8 30.2,26.5 29.9,24.2 29.7,21.9 29.6,19.5 29.6,18.4 29.6,17.2 29.6,16 29.6,14.8 29.7,13.7 29.9,12.5 30,11.9 30.1,11.4 30.2,10.8 30.3,10.3 30.4,9.7 30.6,9.2 30.8,8.7 31,8.3 31.3,7.8 31.5,7.5 31.7,7.3 31.9,7.3 32,7.3 32.1,7.3 32.2,7.3 32.9,7.3 33.4,7.6 33.9,8.3 34.2,8.7 34.4,9.1 34.6,9.6 34.8,10.1 34.9,10.6 35.1,11.1 35.4,12.2 35.5,13.3 35.6,14.4 35.7,15.5 35.7,16.6 35.6,17.8 35.6,18.9 35.5,20.1 35.3,21.2 35.2,22.3 35,23.5 34.8,24.6 L 34.4,26.3 C 34.3,26.9 34.1,27.4 34,27.9 L 33.5,29.7 Z M 33.5,29.7" />
    </g>
</svg>
