<?xml version="1.0" encoding="UTF-8"?>
<!DOCTYPE svg PUBLIC "-//W3C//DTD SVG 1.1//EN" "http://www.w3.org/Graphics/SVG/1.1/DTD/svg11.dtd">
<svg version="1.1" xmlns="http://www.w3.org/2000/svg" xmlns:xlink="http://www.w3.org/1999/xlink" width="256" height="47"  xml:space="preserve">
    <g id="danke" fill="white">
        <path d="M 125.3,25.7 C 125.2,25.6 125.1,25.4 125,25.4 124.9,25.3 124.7,25.3 124.4,25.3 124.1,25.4 123.9,25.5 123.9,25.7 123.4,26.5 122.9,27.2 122.3,27.9 121.7,28.6 121.2,29.3 120.6,30 120,30.7 119.4,31.4 118.7,32 118.1,32.6 117.4,33.1 116.6,33.6 115.9,34 115.1,34.3 114.3,34.4 113.5,34.5 112.8,34.4 112,34.1 L 110.8,33.6 C 110.7,33.5 110.6,33.5 110.5,33.4 L 110.1,33 C 109.8,32.7 109.6,32.3 109.5,31.8 109.7,31.6 110,31.4 110.2,31.2 110.5,30.9 110.8,30.6 111.1,30.3 111.8,29.6 112.4,28.8 112.9,27.9 113.2,27.4 113.4,27 113.7,26.6 113.9,26.2 114.1,25.7 114.3,25.2 114.5,24.6 114.6,24 114.6,23.5 114.6,23.2 114.6,22.9 114.5,22.5 114.4,22 114.1,21.6 113.6,21.4 113.2,21.2 112.7,21.1 112.3,21.2 111.9,21.3 111.6,21.4 111.2,21.5 110.7,21.8 110.2,22.2 109.9,22.6 109.5,23 109.2,23.5 108.9,23.9 108.6,24.3 108.3,24.8 108.1,25.2 108,25.5 107.9,25.7 107.7,26 107.2,26.9 106.7,27.7 106.1,28.4 105.5,29.3 104.7,30.1 103.9,30.8 102.2,32.3 100.3,33.2 98.2,33.6 97.1,33.8 96.1,33.8 95,33.7 93.9,33.5 92.9,33.3 91.9,32.9 91.4,32.7 90.8,32.5 90.3,32.3 89.9,32.1 89.5,31.9 89,31.7 89,31.6 89,31.5 89,31.4 89,31.3 89,31.3 89,31.2 89.4,31.1 89.9,31.1 90.3,31 90.9,30.9 91.5,30.8 92.1,30.6 92.6,30.4 93.2,30.3 93.7,30.1 94.3,29.9 94.8,29.6 95.4,29.3 95.9,29 96.4,28.5 96.9,28 97.4,27.4 97.7,26.7 97.8,25.9 97.9,25.1 97.7,24.3 97.2,23.6 96.7,22.9 96.2,22.4 95.5,22.1 94.9,21.8 94.2,21.6 93.4,21.7 92.6,21.7 91.9,21.9 91.3,22.3 90.7,22.6 90.2,23 89.7,23.5 89.3,24 89,24.5 88.7,25.1 88.4,25.7 88.2,26.2 88.1,26.8 88,27.3 87.9,27.9 87.7,28.4 87.7,28.7 87.6,28.9 87.6,29.1 87.6,29.2 87.6,29.3 87.6,29.3 87.3,29.3 87,29.4 86.7,29.4 L 85.4,29.5 C 85.1,29.5 84.9,29.6 84.7,29.8 L 84.6,30 C 84.3,30.6 84.6,31 84.8,31.2 85.5,31.8 86.3,32.3 87.2,32.8 L 87,34.8 C 87,35.1 86.9,35.4 86.9,35.6 86.9,35.8 86.8,36 86.8,36.3 86.7,36.7 86.7,37.1 86.6,37.4 86.5,37.4 86.5,37.4 86.5,37.4 86.4,37.4 86.3,37.3 86.2,37.3 86,37.2 85.9,37.1 85.7,37 85.5,36.9 85.4,36.7 85.3,36.6 84.7,35.8 84.2,35 83.8,34.1 83.4,33.2 83.1,32.2 82.8,31.2 82.3,29.4 82,27.6 81.8,25.7 82.8,24.2 83.7,22.6 84.6,21 85.1,20 85.6,19.1 86.1,18.1 86.6,17.1 87,16.1 87.4,15.1 87.8,14.1 88.2,13 88.5,12 88.8,11 89.1,9.9 89.3,8.8 89.5,7.6 89.5,6.4 89.4,5.3 89.3,4.7 89.1,4.1 88.8,3.5 88.5,2.8 88,2.3 87.4,2 87.1,1.7 86.7,1.6 86.2,1.5 85.8,1.5 85.3,1.5 85,1.6 84.6,1.7 84.3,1.9 84,2.2 83.8,2.4 83.6,2.6 83.3,2.8 82.9,3.3 82.5,3.8 82.2,4.3 81.9,4.8 81.6,5.3 81.4,5.9 81,6.9 80.6,8 80.2,9 79.9,10 79.5,11.1 79.3,12.1 79,13.2 78.8,14.3 78.7,15.4 78.6,16.5 78.5,17.6 78.5,18.8 78.5,21 78.7,23.2 79,25.4 79,25.5 79,25.6 79.1,25.7 78.5,26.8 77.7,27.9 76.7,29.1 75.8,30.3 74.7,31.5 73.7,32.7 72.6,33.9 71.5,35 70.4,36 69.3,37 68.3,37.9 67.3,38.6 66.7,39 66.5,38.9 66.5,38.9 66.5,38.9 66.4,38.9 66.3,38.7 66.2,38.5 66.1,38.4 66,38.2 65.5,36.9 65.3,35.5 65.3,34 65.3,32.5 65.3,31 65.4,29.7 65.4,29.4 65.5,29 65.5,28.6 L 65.5,27.6 C 65.5,27.1 65.4,26.6 65.3,26 65.2,25.8 65.1,25.5 65,25.2 64.9,24.8 64.6,24.5 64.2,24.2 63.5,23.7 62.7,23.6 62,23.8 61.3,24 60.8,24.3 60.5,24.7 59.8,25.4 59.2,26 58.6,26.7 58.1,27.4 57.6,28.1 57,28.8 56.7,29.1 56.5,29.5 56.2,29.8 56.2,29.3 56.2,28.9 56.3,28.4 56.3,27.8 56.3,27.2 56.3,26.7 56.3,26.1 56.2,25.8 56.1,25.5 L 56,25.4 C 55.9,25.2 55.8,25 55.6,24.9 55.4,24.8 55.2,24.7 54.8,24.8 54.5,24.9 54.2,25 54.1,25.3 53.4,26.2 52.8,27.2 52.1,28.1 51.4,29 50.7,29.9 50,30.8 49.3,31.7 48.5,32.6 47.7,33.4 46.9,34.2 46.1,34.9 45.1,35.5 44.4,35.9 43.9,36.1 43.6,36 43.3,35.9 43,35.7 42.8,35.3 42.6,34.8 42.4,34.2 42.2,33.5 42.1,32.7 41.9,32 41.8,31.2 41.7,30.4 41.6,29.7 41.5,29 41.4,28.3 41.1,27.7 40.8,27.4 L 40.7,27.3 C 40.5,27.1 40.2,27.1 39.9,27.2 39.8,27.2 39.6,27.3 39.5,27.3 39.4,27.3 39.3,27.4 39.2,27.5 39.2,27.5 39.1,27.6 39,27.6 38.9,27.7 38.7,27.8 38.6,27.9 38.5,28 38.3,28.1 38.2,28.2 37.3,29 36.4,29.8 35.6,30.7 34.8,31.5 34,32.2 33,32.8 32.6,33.1 32.1,33.3 31.7,33.3 31.3,33.4 31,33.3 30.8,33.1 30.4,32.7 30.2,32.2 30.3,31.6 30.4,30.9 30.6,30.2 31,29.4 31.4,28.6 31.8,27.9 32.3,27.3 32.8,26.6 33.3,26.2 33.6,25.9 34,25.6 34.4,25.3 34.8,25 35.2,24.7 35.7,24.6 36.1,24.5 36.5,24.4 36.9,24.4 37.3,24.6 37.7,24.8 38,25 38.3,25.4 38.5,25.7 38.7,25.8 38.8,25.8 39,25.9 39.3,25.8 39.6,25.6 39.8,25.4 39.9,25.1 39.9,24.9 39.9,24.8 39.9,24.7 39.8,24.6 L 39.7,24.4 C 39.2,23.8 38.6,23.3 38,23.1 37,22.6 35.9,22.5 34.8,22.9 33.8,23.2 32.8,23.7 32.1,24.2 31.7,24.5 31.3,24.8 30.8,25.2 L 30.7,25.3 30.5,25.5 C 30.5,25.5 30.5,25.6 30.4,25.6 30.3,25.7 30.2,25.8 30.1,25.9 29.5,26.6 28.9,27.3 28.5,28.1 28.5,28.2 28.4,28.3 28.4,28.4 27.8,29.2 27.1,30 26.3,30.8 25.5,31.6 24.6,32.4 23.7,33.1 22.8,33.8 21.9,34.4 20.9,34.9 19.9,35.4 18.9,35.6 18,35.6 17,35.5 16.2,35.2 15.4,34.6 15.2,34.4 15,34.2 14.8,34 14.6,33.8 14.4,33.6 14.3,33.5 L 13.8,32.8 C 13.7,32.7 13.7,32.6 13.6,32.5 13.5,32.4 13.5,32.2 13.4,32.1 13.3,31.9 13.2,31.7 13.1,31.5 13,31.4 13,31.2 12.9,31.1 13.3,30.6 13.6,30.1 14,29.6 14.4,29 14.7,28.4 15,27.8 15.3,27.2 15.5,26.6 15.7,26 15.8,25.4 16,24.9 16.2,24.3 16.4,23.7 16.5,23.2 16.7,22.6 16.8,22 17,21.4 17.1,20.9 17.3,19.7 17.5,18.5 17.7,17.4 17.9,16.2 18,15 18.1,13.9 18.2,12.7 18.2,11.5 18.2,10.3 18.2,9.1 18,7.8 17.7,6.6 17.6,6 17.4,5.4 17.2,4.8 17,4.2 16.7,3.6 16.2,2.9 16,2.6 15.8,2.4 15.5,2.1 15.2,1.8 14.9,1.6 14.6,1.4 13.9,1 13.1,0.8 12.3,0.9 L 12.1,1 12.1,1 C 11.6,1.1 11.3,1.3 10.9,1.6 10.6,1.9 10.3,2.2 10.1,2.5 9.9,2.8 9.7,3.1 9.6,3.4 9.5,3.7 9.3,4 9.2,4.3 9,4.9 8.8,5.5 8.6,6.2 8.5,6.8 8.3,7.4 8.3,8 8.1,9.3 8,10.5 7.9,11.7 7.9,12.9 7.8,14.1 7.8,15.3 7.8,16.5 7.9,17.8 8,19 8.1,20.2 8.3,21.4 8.5,22.6 8.7,23.8 8.9,25 9.2,26.2 9.4,27.4 9.8,28.6 10.2,29.7 10.3,30 10.4,30.4 10.5,30.7 10.6,30.9 10.7,31.1 10.7,31.3 10.6,31.4 10.5,31.5 10.3,31.6 10,31.8 9.8,32 9.7,32.2 8.7,32.9 7.8,33.3 6.8,33.4 5.8,33.6 4.8,33.5 3.8,33.1 3.4,32.9 3.1,32.7 3,32.4 2.8,32 2.7,31.6 2.6,31.1 2.5,30.7 2.5,30.2 2.6,29.8 2.7,29.3 2.8,28.9 3,28.5 3.2,28.1 3.4,27.6 3.7,27.2 4,26.8 4.3,26.6 4.7,26.3 5.5,25.8 6.3,25.7 7.3,26 7.4,26.1 7.5,26.1 7.7,26.1 7.9,26.1 8.1,25.9 8.2,25.7 8.3,25.5 8.3,25.3 8.3,25.1 8.2,24.9 8.1,24.8 7.9,24.7 L 7.8,24.7 C 7.2,24.4 6.6,24.2 5.9,24.1 5.2,24 4.4,24.2 3.7,24.5 3,24.8 2.4,25.2 1.9,25.7 1.4,26.2 1,26.8 0.7,27.5 0.4,28.1 0.2,28.8 0.1,29.5 -0,30.3 -0,31 0.2,31.8 0.4,32.5 0.8,33.1 1.4,33.8 1.9,34.3 2.5,34.7 3.3,35 3.9,35.2 4.5,35.4 5.2,35.4 5.9,35.5 6.6,35.4 7.2,35.3 7.9,35.2 8.5,35 9.1,34.7 9.7,34.4 10.2,34.1 10.7,33.7 10.9,33.5 11.1,33.4 11.3,33.2 11.4,33.2 11.4,33.1 11.5,33.1 11.8,33.6 12.1,34.1 12.4,34.6 12.9,35.3 13.5,35.9 14.2,36.5 14.8,37 15.4,37.3 16.1,37.6 16.7,37.8 17.3,37.9 18,37.9 18.1,37.9 18.2,37.9 18.3,37.9 19,37.9 19.7,37.8 20.4,37.6 21,37.4 21.6,37.2 22.2,36.9 23.3,36.3 24.4,35.6 25.4,34.7 26.3,33.9 27.2,33 28,32.1 28.1,32.5 28.2,32.9 28.3,33.2 28.6,33.9 29,34.4 29.6,34.7 30.1,35 30.6,35.2 31.2,35.3 31.8,35.4 32.3,35.3 32.9,35.2 33.5,35 34,34.8 34.4,34.5 35.5,33.8 36.4,33 37.2,32.1 38,31.2 38.8,30.4 39.6,29.7 39.7,29.6 39.9,29.5 40.2,29.3 40.3,29.7 40.3,30.3 40.3,30.9 40.3,32 40.4,33.1 40.5,34.2 40.7,35.3 41,36.3 41.5,37.1 41.8,37.6 42.5,38.2 43.6,38.2 43.8,38.2 44.1,38.2 44.4,38.1 45,38 45.7,37.7 46.4,37.2 47.5,36.5 48.4,35.7 49.2,34.8 50,33.9 50.8,33 51.5,32.1 52.3,31.2 53,30.2 53.6,29.2 53.8,28.9 54,28.5 54.3,28.2 54.3,28.9 54.3,29.5 54.3,30.2 54.3,30.9 54.2,31.5 54.1,32 54,32.6 53.9,32.9 53.8,33.1 L 53.8,33.2 C 53.7,33.7 53.8,34.1 54.3,34.4 54.9,34.7 55.4,34.6 55.7,34.2 55.7,34.2 55.8,34.1 55.9,33.9 L 56,33.8 56,34 C 56.3,33.3 56.6,32.6 57.1,32.1 57.6,31.5 58.1,30.8 58.6,30.2 59.2,29.5 59.7,28.9 60.3,28.3 60.9,27.7 61.5,27.2 62.1,26.7 L 62.6,26.4 C 62.7,26.4 62.8,26.4 62.8,26.4 62.9,26.4 63,26.4 63.1,26.4 63.1,26.4 63.2,26.5 63.2,26.8 63.3,27.1 63.3,27.5 63.3,27.9 63.4,29.4 63.4,30.9 63.4,32.5 63.4,34.1 63.5,35.7 63.8,37.3 63.9,38 64.1,38.6 64.4,39.3 64.5,39.6 64.7,39.9 65,40.3 65.3,40.7 65.7,41 66.3,41.2 66.5,41.3 66.8,41.3 67,41.3 67.3,41.3 67.6,41.2 67.8,41.1 68.2,40.9 68.5,40.7 68.8,40.5 69.7,39.9 70.8,39 71.9,37.8 73.1,36.6 74.2,35.4 75.4,34 76.5,32.7 77.6,31.3 78.5,30 79,29.3 79.4,28.7 79.8,28.1 79.8,28.3 79.9,28.5 79.9,28.8 80.1,29.9 80.5,31 80.8,32 81.1,33 81.5,34.1 82,35.2 L 82.8,36.6 C 83.1,37.1 83.5,37.6 83.9,38 84.1,38.2 84.3,38.4 84.6,38.6 84.9,38.8 85.2,39 85.5,39.2 85.7,39.3 86.1,39.4 86.6,39.5 L 86.8,39.5 86.9,39.5 86.9,39.5 C 87,39.5 87.1,39.5 87.2,39.4 87.5,39.3 87.7,39.2 87.8,39 87.9,38.9 87.9,38.8 88,38.7 88.2,38.3 88.3,38 88.3,37.7 88.3,37.5 88.4,37.2 88.5,36.9 L 88.7,35.3 C 88.7,35 88.8,34.6 88.8,34.2 88.8,34.1 88.8,34 88.8,33.9 89.6,34.3 90.4,34.6 91.2,34.8 92.3,35.2 93.5,35.5 94.8,35.6 96,35.7 97.2,35.7 98.5,35.5 99.7,35.3 100.9,34.9 102,34.3 103.1,33.7 104.1,33 105,32.2 105.6,31.6 106.2,31 106.7,30.4 106.7,30.8 106.7,31.2 106.7,31.6 106.8,32.2 106.9,32.7 107.1,33.3 107.3,33.9 107.6,34.4 108,34.9 108.4,35.3 108.9,35.7 109.6,36.1 L 111.1,36.6 C 111.7,36.8 112.3,36.8 112.9,36.8 113.4,36.8 113.9,36.7 114.4,36.6 115.5,36.3 116.5,35.9 117.3,35.3 118.2,34.7 118.9,34.1 119.6,33.4 120.2,32.8 120.9,32.1 121.5,31.3 122.1,30.6 122.7,29.8 123.2,29 123.8,28.2 124.3,27.3 125,26.4 125.4,26.1 125.4,25.9 125.3,25.7 Z M 110,28.6 C 109.8,28.8 109.6,29 109.4,29.2 109.4,29 109.4,28.9 109.5,28.7 L 109.5,28.7 C 109.6,28.3 109.7,27.8 109.8,27.4 109.9,27 110.1,26.6 110.3,26.2 110.5,25.8 110.7,25.4 110.9,25 111.1,24.6 111.3,24.3 111.5,24 111.7,23.7 112,23.5 112.4,23.2 112.6,23.1 112.6,23.1 112.7,23.1 L 112.7,23.1 C 112.7,23.1 112.7,23.2 112.7,23.5 112.7,23.7 112.7,23.9 112.6,24 112.6,24.2 112.5,24.4 112.4,24.6 112.1,25.4 111.7,26.2 111.3,26.9 111,27.6 110.5,28.1 110,28.6 Z M 92.5,24.5 C 92.9,24.4 93.2,24.3 93.5,24.3 93.9,24.3 94.2,24.4 94.5,24.5 94.8,24.7 95.1,24.9 95.3,25.1 95.5,25.3 95.5,25.5 95.5,25.8 95.5,26.1 95.4,26.3 95.2,26.6 95,26.9 94.7,27.2 94.3,27.4 93.9,27.7 93.5,27.9 93.1,28 92.7,28.2 92.2,28.3 91.7,28.5 91,28.7 90.2,28.9 89.4,29.1 89.4,29 89.4,28.9 89.5,28.8 L 89.5,28.8 C 89.7,27.8 90.1,26.9 90.6,26.1 91.1,25.4 91.8,24.8 92.5,24.5 Z M 86.7,3.7 C 87,3.9 87.2,4.1 87.4,4.4 87.6,4.8 87.7,5.2 87.8,5.7 87.9,6.1 87.9,6.6 87.9,7.1 87.9,7.6 87.8,8.1 87.8,8.6 87.6,9.6 87.4,10.6 87.1,11.6 86.8,12.6 86.5,13.6 86.1,14.6 85.4,16.3 84.7,18 83.8,19.7 83.2,20.9 82.5,22.1 81.8,23.2 81.8,22.7 81.7,22.3 81.7,21.8 81.6,20.8 81.6,19.9 81.6,18.9 81.6,17.9 81.7,16.9 81.8,15.8 81.9,14.8 82,13.8 82.2,12.7 82.6,10.6 83.1,8.6 83.8,6.8 84,6.3 84.2,5.9 84.4,5.4 84.6,5 84.9,4.6 85.2,4.2 85.5,3.9 85.8,3.6 86.1,3.5 86.1,3.4 86.3,3.4 86.7,3.7 Z M 14.5,25.7 C 14.3,26.2 14.2,26.8 13.9,27.3 13.5,28.1 13.1,28.8 12.7,29.5 L 12.6,29.3 C 11.9,27.1 11.5,24.8 11.2,22.5 10.9,20.2 10.7,17.9 10.6,15.5 10.6,14.4 10.6,13.2 10.6,12 10.6,10.8 10.7,9.7 10.9,8.5 11,7.9 11.1,7.4 11.2,6.8 11.3,6.3 11.4,5.7 11.6,5.2 11.8,4.7 12,4.3 12.3,3.8 12.5,3.5 12.7,3.3 12.9,3.3 13,3.3 13.1,3.3 13.2,3.3 13.9,3.3 14.4,3.6 14.9,4.3 15.2,4.7 15.4,5.1 15.6,5.6 15.8,6.1 15.9,6.6 16.1,7.1 16.4,8.2 16.5,9.3 16.6,10.4 16.7,11.5 16.7,12.6 16.6,13.8 16.6,14.9 16.5,16.1 16.3,17.2 16.2,18.3 16,19.5 15.8,20.6 L 15.4,22.3 C 15.3,22.9 15.1,23.4 15,23.9 L 14.5,25.7 Z M 14.5,25.7" />
    </g>
</svg>
