<?xml version="1.0" encoding="utf-8"?>
<!-- Generator: Adobe Illustrator 19.2.1, SVG Export Plug-In . SVG Version: 6.00 Build 0)  -->
<svg version="1.1" id="Layer_1" xmlns="http://www.w3.org/2000/svg" xmlns:xlink="http://www.w3.org/1999/xlink" x="0px" y="0px"
	 viewBox="0 0 262.3 67.3" style="enable-background:new 0 0 262.3 67.3;" xml:space="preserve">
<style type="text/css">
	.st0{fill:#C8C298;}
</style>
<path class="st0" d="M32.2,26.7c-1.8,0-3.4-1.4-3.4-3.1c0-2.3,2.2-2.8,2.2-4c0-1.4-0.9-2.6-3-2.6c-2.7,0-4.6,1.5-4.6,4.2
	c0,5,6.8,12.3,6.8,20.2c0,5.8-5.1,12.8-14.1,12.8c-7.3,0-11.7-3.6-11.7-8.7c0-3.8,3.6-8.1,8.5-8.1c3.3,0,6.5,2.4,6.5,5.4
	c0,3.1-1.9,5.9-4.7,5.9c-1.5,0-2.8-1-2.8-2.6c0-2.2,3.9-3,3.9-4.8c0-1.4-1.4-2-2.9-2c-2.6,0-4.5,2.4-4.5,5.8c0,3.6,2.6,7.1,7.7,7.1
	c4.7,0,6.9-3.2,6.9-8c0-6.5-6.5-13.2-6.5-19.4c0-4.7,4.1-9.8,11-9.8c5.2,0,7.8,3.9,7.8,7.3C35.6,25.2,34.2,26.7,32.2,26.7z"/>
<path class="st0" d="M57.2,27.4c0,0.7-0.1,2.5-0.1,3.2c0,0.2-0.6,0.3-0.8,0.3c-0.3,0-0.8-0.1-0.8-0.3c-0.1-2.2-1.9-4.6-4.6-4.6h-0.6
	c-0.9,0-1.7,0.4-2.1,2.1l-1,4.3h1c1.5,0,3.1-0.4,3.8-2.5c0-0.1,0.5-0.2,0.8-0.2s0.8,0.1,0.7,0.2c-0.4,1.5-0.6,2-0.9,3.5
	c-0.4,1.4-0.5,2.4-0.8,3.9c0,0.2-0.5,0.2-0.7,0.2c-0.4,0-0.8-0.1-0.8-0.2c0.3-2.2-0.6-3.1-2.5-3.1h-1l-1.1,4.7
	c-0.1,0.5-0.2,1.2-0.2,1.5c0,0.8,0.4,1.2,1.3,1.2h1c3.3,0,6.2-2.6,6.9-5.2c0-0.1,0.4,0,0.6,0c0.4,0,1,0.4,1,0.6
	c-0.5,1.8-1.1,4.7-1.6,6.7c-2-0.1-5.1-0.2-7.4-0.2c-2.2,0-9.8,0.1-11.5,0.2c-0.1,0-0.2-0.4-0.2-0.7s0.2-0.9,0.4-1
	c2.4-0.3,2.6-1.2,3.1-3l2.4-10.2c0.1-0.5,0.2-1,0.2-1.3c0-0.9-0.5-1.5-2.1-1.7c-0.1,0-0.1-0.5-0.1-0.6c0-0.5,0.2-1,0.3-1
	c1.5,0.1,8.8,0.2,10.7,0.2s5.2-0.1,7-0.2C57.3,25.1,57.2,26.5,57.2,27.4z"/>
<path class="st0" d="M72.1,36.1c-1.4,0-2.2-0.1-3.1-0.2l-0.8,3c-0.1,0.5-0.2,1-0.2,1.3c0,1,0.5,1.5,2,1.7c0.1,0,0.2,0.5,0.2,0.6
	c0,0.3-0.2,1-0.3,1c-1.9,0-4-0.2-5.9-0.2c-1.8,0-4,0.2-5.7,0.2c0,0-0.1-0.4-0.1-0.7s0.2-0.9,0.3-1c2.4-0.3,2.7-1.2,3.1-3L64,28.6
	c0.1-0.5,0.2-1,0.2-1.3c0-0.9-0.5-1.5-2-1.7c-0.1,0-0.2-0.5-0.2-0.6c0-0.4,0.2-1,0.4-1c1.8,0,3.7,0.2,5.5,0.2c1.6,0,4.3-0.2,6-0.2
	c4.6,0,7.3,2,7.3,5.4C81.3,33.3,77.1,36.1,72.1,36.1z M72.9,25.8c-1.1,0-1.6,0.4-2,2.1l-1.2,5c-0.2,1,0.2,1.4,1.3,1.4
	c2.1,0,3.9-2.4,3.9-5.8C74.8,26.7,74.2,25.8,72.9,25.8z"/>
<path class="st0" d="M103.9,31.5c0,0.2-0.6,0.3-0.8,0.3c-0.2,0-0.8-0.1-0.8-0.3c0.1-2.6-1.8-5.5-3.3-5.5h-0.1
	c-0.9,0-1.3,0.4-1.5,1.3l-2.7,11.5c-0.1,0.5-0.2,0.9-0.2,1.2c0,1,0.5,1.5,2.5,1.8c0.1,0,0.1,0.5,0.1,0.6c0,0.3-0.1,1-0.3,1
	c-1.9,0-4.4-0.2-6.4-0.2c-1.8,0-4.2,0.2-5.8,0.2c-0.1,0-0.2-0.4-0.2-0.7s0.2-0.9,0.3-1c2.8-0.4,2.8-1.2,3.3-3l2.8-11.5
	c0.2-0.9-0.2-1.3-1.1-1.3h-0.2c-1.5,0-4.7,3.4-5.6,5.5c0,0.2-0.5,0.3-0.8,0.3c-0.4,0-0.8-0.2-0.8-0.3c0.7-2.2,1.7-5.6,2.2-7.8
	c1.4,0.3,3.8,0.5,10.3,0.5c6.4,0,9-0.2,10.4-0.5C104.7,25.7,104.1,29.6,103.9,31.5z"/>
<path class="st0" d="M125.5,27.4c0,0.7-0.1,2.5-0.1,3.2c0,0.2-0.6,0.3-0.8,0.3c-0.3,0-0.8-0.1-0.8-0.3c-0.1-2.2-1.9-4.6-4.6-4.6
	h-0.6c-0.9,0-1.7,0.4-2.1,2.1l-1,4.3h1c1.5,0,3.1-0.4,3.8-2.5c0-0.1,0.5-0.2,0.8-0.2s0.8,0.1,0.7,0.2c-0.4,1.5-0.6,2-0.9,3.5
	c-0.4,1.4-0.5,2.4-0.8,3.9c0,0.2-0.5,0.2-0.7,0.2c-0.4,0-0.8-0.1-0.8-0.2c0.3-2.2-0.6-3.1-2.5-3.1h-1l-1.1,4.7
	c-0.1,0.5-0.2,1.2-0.2,1.5c0,0.8,0.4,1.2,1.3,1.2h1c3.3,0,6.2-2.6,6.9-5.2c0-0.1,0.4,0,0.6,0c0.4,0,1,0.4,1,0.6
	c-0.5,1.8-1.1,4.7-1.6,6.7c-2-0.1-5.1-0.2-7.4-0.2c-2.2,0-9.8,0.1-11.5,0.2c-0.1,0-0.2-0.4-0.2-0.7s0.2-0.9,0.4-1
	c2.4-0.3,2.6-1.2,3.1-3l2.4-10.2c0.1-0.5,0.2-1,0.2-1.3c0-0.9-0.5-1.5-2.1-1.7c-0.1,0-0.1-0.5-0.1-0.6c0-0.5,0.2-1,0.3-1
	c1.5,0.1,8.8,0.2,10.7,0.2c1.9,0,5.2-0.1,7-0.2C125.7,25.1,125.5,26.5,125.5,27.4z"/>
<path class="st0" d="M157.7,25.6c-2.4,0.3-3.3,0.4-3.4,2.4l-0.8,10.8c-0.2,2.1,0,2.6,2.6,3c0.1,0,0.1,0.5,0.1,0.6c0,0.3-0.2,1-0.3,1
	c-1.9,0-4-0.2-6.2-0.2s-4.2,0.2-6.1,0.2c-0.1,0-0.2-0.4-0.2-0.7s0.2-0.9,0.4-1c2.1-0.3,3-0.8,3.2-3l0.9-9.9l-8.5,14.8
	c-0.1,0.1-0.5,0.3-1.1,0.3c-0.7,0-1-0.2-1-0.3l-2.9-14.5l-3.4,9.6c-0.7,1.9-0.1,2.6,2.4,3c0.1,0,0.2,0.5,0.2,0.6c0,0.3-0.2,1-0.4,1
	c-1.4,0-2.5-0.2-4.2-0.2s-3.1,0.2-4.4,0.2c-0.1,0-0.2-0.4-0.2-0.7s0.2-0.9,0.3-1c2-0.3,3-1.2,3.8-3l4.3-10.8c0.8-1.9,0-2-2.6-2.4
	c-0.1,0-0.2-0.5-0.2-0.6c0-0.4,0.2-1,0.4-1c0.7,0,3.2,0.2,4.2,0.2c1.2,0,4-0.2,5.3-0.2l2,10.7l6.7-10.7c1.4,0,3.4,0.2,4.6,0.2
	c1.5,0,3.3-0.2,4.6-0.2c0.1,0,0.2,0.4,0.2,0.7C158.1,25,157.9,25.6,157.7,25.6z"/>
<path class="st0" d="M173.9,32.9c4,0.3,5.6,1.8,5.6,4.5c0,3.2-3,6-10.2,6c-1.8,0-3.4-0.2-5.3-0.2c-2.2,0-4.2,0.2-6,0.2
	c-0.1,0-0.1-0.4-0.1-0.7s0.2-0.9,0.3-1c2.4-0.3,2.7-1.2,3.1-3l2.4-10.2c0.1-0.5,0.2-1,0.2-1.3c0-0.9-0.5-1.5-2-1.7
	c-0.1,0-0.2-0.5-0.2-0.6c0-0.4,0.2-1,0.3-1c1.9,0,4.6,0.2,6.2,0.2c1.4,0,4-0.2,5.2-0.2c5.4,0,7.3,1.9,7.3,4.5
	C180.8,30.8,178.3,32.7,173.9,32.9z M170.7,34.2h-1.6l-1.4,5.8c-0.3,1.3,0,1.6,0.8,1.6c3.4,0,4.5-2.4,4.5-4.9
	C173,35.1,172.4,34.2,170.7,34.2z M172.1,25.8c-0.9,0-1.2,0.3-1.4,1.5l-1.2,5h1.7c2.4,0,3.3-2.1,3.3-4
	C174.5,26.6,173.6,25.8,172.1,25.8z"/>
<path class="st0" d="M202.7,27.4c0,0.7-0.1,2.5-0.1,3.2c0,0.2-0.6,0.3-0.8,0.3c-0.3,0-0.8-0.1-0.8-0.3c-0.1-2.2-1.9-4.6-4.6-4.6
	h-0.6c-0.9,0-1.7,0.4-2.1,2.1l-1,4.3h1c1.5,0,3.1-0.4,3.8-2.5c0-0.1,0.5-0.2,0.8-0.2s0.8,0.1,0.7,0.2c-0.4,1.5-0.6,2-0.9,3.5
	c-0.4,1.4-0.5,2.4-0.8,3.9c0,0.2-0.5,0.2-0.7,0.2c-0.4,0-0.8-0.1-0.8-0.2c0.3-2.2-0.6-3.1-2.5-3.1h-1l-1.1,4.7
	c-0.1,0.5-0.2,1.2-0.2,1.5c0,0.8,0.4,1.2,1.3,1.2h1c3.3,0,6.2-2.6,6.9-5.2c0-0.1,0.4,0,0.6,0c0.4,0,1,0.4,1,0.6
	c-0.5,1.8-1.1,4.7-1.6,6.7c-2-0.1-5.1-0.2-7.4-0.2c-2.2,0-9.8,0.1-11.5,0.2c-0.1,0-0.2-0.4-0.2-0.7s0.2-0.9,0.4-1
	c2.4-0.3,2.6-1.2,3.1-3l2.4-10.2c0.1-0.5,0.2-1,0.2-1.3c0-0.9-0.5-1.5-2.1-1.7c-0.1,0-0.1-0.5-0.1-0.6c0-0.5,0.2-1,0.3-1
	c1.5,0.1,8.8,0.2,10.7,0.2s5.2-0.1,7-0.2C202.9,25.1,202.7,26.5,202.7,27.4z"/>
<path class="st0" d="M226.8,44c-1.4-0.4-5.2-0.6-7.6-0.6l-2.8-7.3c-0.3-0.7-0.8-0.9-1.6-0.9l-0.9,3.6c-0.1,0.5-0.2,1-0.2,1.3
	c0,1,0.5,1.5,2.1,1.7c0.1,0,0.1,0.5,0.1,0.6c0,0.3-0.2,1-0.3,1c-1.9,0-4-0.2-5.9-0.2c-1.8,0-4,0.2-5.7,0.2c-0.1,0-0.2-0.4-0.2-0.7
	s0.2-0.9,0.3-1c2.4-0.3,2.7-1.2,3.1-3l2.4-10.2c0.1-0.5,0.2-1,0.2-1.3c0-0.9-0.5-1.5-2-1.7c-0.1,0-0.2-0.5-0.2-0.6
	c0-0.4,0.2-1,0.4-1c1.8,0,3.4,0.2,5.2,0.2c1.6,0,4.3-0.2,6-0.2c4.6,0,7.6,1.7,7.6,5c0,2.6-2.8,4.3-5.1,4.8l2.1,4.9
	c0.7,1.6,1.4,2.9,3.8,3.6c0.2,0,0.2,0.2,0.2,0.4C227.6,43.4,227,44,226.8,44z M218.1,25.8c-1,0-1.4,0.4-1.6,1.5l-1.6,6.4h1
	c2.4,0,4.1-2.8,4.1-5.7C220,26.6,219.5,25.8,218.1,25.8z"/>
<path class="st0" d="M239.1,47.2c-0.2,0-0.6-0.8-0.6-1.3c0-0.2,0.1-0.4,0.2-0.4c10.4-5.1,14.2-10.1,14.2-20.3c0-2.6-0.7-4.1-2.1-4.1
	c-2.6,0-4.4,5.3-4.4,9.3c0,1.3,0.6,2,1.5,2c0.4,0,0.9-0.2,1.3-0.5c0.2-0.1,0.6,0.2,0.8,0.5c0.2,0.2,0.4,0.8,0.2,0.9
	c-0.8,0.9-2.4,1.5-4.1,1.5c-3.3,0-5.8-2-5.8-6c0-5.7,5-9.6,10.3-9.6c5.2,0,8.4,3.1,8.4,8.4C259.2,36.1,248.4,44.9,239.1,47.2z"/>
</svg>
