<?xml version="1.0" encoding="UTF-8"?>
<!DOCTYPE svg PUBLIC "-//W3C//DTD SVG 1.1//EN" "http://www.w3.org/Graphics/SVG/1.1/DTD/svg11.dtd">
<svg version="1.1" xmlns="http://www.w3.org/2000/svg" xmlns:xlink="http://www.w3.org/1999/xlink" width="168" height="129"  xml:space="preserve">
    <g id="pink-flower-group">
        <g id="pink-flower">
            <path fill="rgb(69, 69, 69)" d="M 33,102 C 33,101.7 33,101.4 33,101.1 32.6,101.2 32.2,101.3 31.8,101.4 31,101.6 18.9,102 18.1,102.1 16.4,102.4 14.6,102.7 12.9,102.9 9.9,103.2 7,103.3 4,103.1 4,102.9 4,102.8 4,102.6 3.9,101.8 3.1,101.2 2.3,101.3 1.5,101.4 0.9,102.2 1,103 1.1,103.8 1.9,104.4 2.7,104.3 3.2,104.2 3.7,103.9 3.9,103.4 9.9,104 27.1,103.3 33,102 Z M 33,102" />
            <path fill="rgb(69, 69, 69)" d="M 6.8,99.2 C 11.9,99.4 27.6,98.7 32.5,97.7 32.5,97.4 32.4,97.2 32.4,96.9 32.1,97 31.7,97.1 31.5,97.1 29.5,97.5 17,97.9 15,98.2 12.3,98.5 9.5,98.6 6.8,98.7 6.6,97.7 5.7,97 4.7,97.2 3.7,97.4 3,98.3 3.1,99.3 3.3,100.3 4.2,101 5.2,100.9 6.1,100.6 6.7,100 6.8,99.2 Z M 6.8,99.2" />
            <path fill="rgb(69, 69, 69)" d="M 5.1,94.7 L 5.1,94.7 C 10.5,93.6 27.1,93.3 32.6,94.3 32.6,94 32.5,93.7 32.5,93.4 27.1,92.5 10.3,92.8 4.9,94.1 4.6,93.6 4,93.3 3.4,93.4 2.6,93.5 2,94.3 2.1,95.1 2.2,95.9 3,96.5 3.8,96.4 4.6,96.3 5.2,95.5 5.1,94.7 Z M 5.1,94.7" />
            <path fill="rgb(69, 69, 69)" d="M 4.4,91.3 C 6.9,90.6 9.3,90 11.9,89.9 13.4,89.8 15,89.9 16.5,90.1 17.3,90.2 28.3,90.6 29.1,90.7 29.1,90.7 29.9,90.8 30.4,90.8 30.3,90.6 30.3,90.3 30.2,90.1 30.1,90.1 30,90.1 29.9,90.1 28.1,89.9 16,89.3 14.1,89.2 10.8,89.1 7.3,89.5 4.2,90.7 3.9,90 3.2,89.5 2.3,89.6 1.3,89.7 0.6,90.6 0.7,91.6 0.8,92.6 1.7,93.3 2.7,93.2 3.7,93.1 4.4,92.3 4.4,91.3 Z M 4.4,91.3" />
            <path fill="rgb(69, 69, 69)" d="M 32.9,105.4 C 32.9,105 32.9,104.6 32.9,104.2 30.3,104.9 16.5,105.9 13.7,106.3 10.7,106.7 7.5,106.9 4.4,106.5 L 4.4,106.4 C 4.2,105.3 3.2,104.6 2.2,104.7 1.1,104.9 0.4,105.9 0.5,106.9 0.7,108 1.7,108.7 2.7,108.6 3.5,108.5 4.2,107.8 4.3,107 6.8,107.4 9.5,107.3 12,107.1 15.2,107 29.8,106.4 32.9,105.4 Z M 32.9,105.4" />
            <path fill="rgb(69, 69, 69)" d="M 33.1,107.9 C 33.1,107.5 33,107.2 33,106.8 30.6,107.7 17.8,109.5 15.3,110 12.5,110.6 9.6,111 6.7,110.8 L 6.7,110.7 C 6.5,109.7 5.5,109.1 4.5,109.3 3.5,109.5 2.9,110.5 3.1,111.5 3.3,112.5 4.3,113.1 5.3,112.9 6.1,112.7 6.6,112.1 6.7,111.3 9.1,111.5 11.5,111.2 13.9,110.9 16.6,110.7 30.2,109.1 33.1,107.9 Z M 33.1,107.9" />
            <path fill="rgb(220, 82, 99)" d="M 33.5,83.2 C 29,79.5 23.2,77.5 17.5,79.7 16.2,80.2 14.2,81.6 14.4,83.3 14.6,85.1 16.2,86.3 16.6,88.1 17.3,90.9 14,93.2 12.4,94.9 8.1,99.4 12.2,103.3 16,106.1 23.4,111.6 11.9,119.6 17.8,124.5 21.7,127.8 29.9,125.4 33.7,123.2 38.5,120.4 43,115.9 45.9,110.9 53.7,96.6 39.5,88 33.5,83.2 Z M 33.5,83.2" />
            <path fill="rgb(247, 178, 179)" d="M 17.5,79.6 C 16.2,80.1 14.2,81.5 14.4,83.2 14.6,85 16.2,86.2 16.6,88 17.3,90.8 14,93.1 12.4,94.8 8.1,99.3 12.2,103.2 16,106 23.4,111.5 11.9,119.5 17.8,124.4 21.7,127.7 29.9,125.3 33.7,123.1 38.5,120.3 43,115.8 45.9,110.8 47.1,108.6 47.8,106.5 48.1,104.6 46.5,107.2 44.3,109.6 42.3,111.6 38.7,115.1 34.2,118.4 29.2,119.8 29,119.9 28.8,119.5 29.1,119.4 34,117.4 38.3,114.6 42.1,110.9 43.5,109.6 44.6,108.2 45.7,106.7 40.4,111.6 32.9,114.7 26.1,115 25.9,115 25.9,114.8 26.1,114.8 31.3,114.3 36.3,112.7 40.7,109.8 43.8,107.7 46.2,105.3 48.3,102.5 48.3,102.4 48.3,102.4 48.3,102.3 L 48.2,102.2 C 45.5,103.9 42.2,104.7 39.2,105.2 34.4,106 29.6,106 24.7,106 24.6,106 24.5,105.8 24.7,105.8 32.5,104.9 40.1,105.4 47,101.9 39.3,99.6 30.6,98.8 22.7,99.1 22.4,99.1 22.4,98.7 22.7,98.7 27.6,98.3 32.5,98.8 37.3,99.5 40.1,99.9 43.2,100.1 46,100.9 43.1,99 40.2,97.4 36.8,96.3 32.3,94.8 27.7,94.1 22.9,94.2 22.7,94.2 22.6,93.9 22.9,93.8 27.6,93.2 32.6,94.3 37,95.8 40.7,97 44.9,98.8 48,101.4 48.1,101.4 48.1,101.3 48.2,101.3 48.1,100.8 48,100.3 47.9,99.9 45.3,96.6 42.4,93.7 38.8,91.2 34.2,88 29,84.9 23.2,85 23,85 22.9,84.7 23.2,84.6 28.7,83.9 34.2,87.4 38.5,90.3 41.5,92.4 44.6,94.8 47.1,97.7 44.4,91.2 37.4,86.6 33.6,83.5 29,79.5 23.2,77.5 17.5,79.6 Z M 17.5,79.6" />
            <path fill="rgb(232, 123, 126)" d="M 19.7,88.5 C 17.5,89.6 15.8,91.2 13.9,92.7 13.4,93.3 12.8,93.9 12.4,94.4 8.2,99.6 12.4,104.2 16.2,107.6 17.1,108.4 28.7,115.3 37.3,109.5 39.5,108 46.5,105.5 47.7,102.1 45.1,103.6 41.9,104.4 39,104.9 34.2,105.7 29.4,105.7 24.5,105.7 24.4,105.7 24.3,105.5 24.5,105.5 32.3,104.6 39.9,105.1 46.8,101.6 39.1,99.3 30.4,98.5 22.5,98.8 22.2,98.8 22.2,98.4 22.5,98.4 27.4,98 32.3,98.5 37.1,99.2 39.9,99.6 43,99.8 45.8,100.6 42.9,98.7 40,97.1 36.6,96 32.1,94.5 27.5,93.8 22.7,93.9 22.5,93.9 22.4,93.6 22.7,93.5 27.4,92.9 32.4,94 36.8,95.5 40.5,96.7 44.7,98.5 47.8,101.1 47.7,100.2 47.2,99.2 46,98.2 41.1,94.1 36,89.5 30,88 26.7,87.1 22.9,87 19.7,88.5 Z M 19.7,88.5" />
        </g>
        <g id="pink-flower-leaves">
            <g>
                <path fill="rgb(174, 173, 86)" d="M 33.2,79.5 C 41,78.8 49.4,78.3 55.8,83.5 58.6,85.7 60.7,88.7 62,92.1 62.6,93.8 63,95.5 63.2,97.3 63.3,98.7 63.2,100 63.8,101.2 56.8,103.6 48.8,103.8 42.7,99 37.1,94.4 35.1,86.2 33.2,79.5 Z M 33.2,79.5" />
                <path fill="rgb(124, 120, 43)" d="M 63.6,94.7 C 63.2,93.1 62.7,91.5 61.9,90 60.4,86.9 57.9,84.4 55.3,82.2 46.9,75.2 32.2,79.1 32.2,79.3 34.4,86.5 36.5,95.6 43.1,100.2 49.2,104.4 57.2,104.2 63.9,101.6 64.1,101.6 64.1,96.7 63.6,94.7 Z M 59.6,87.5 C 59.8,89.6 60.1,91.6 60,93.8 59.9,95.7 59.5,97.5 59.1,99.3 57.8,98.9 56.6,98.3 55.5,97.8 57.4,93.5 57.8,88.7 56.6,84.2 57.7,85.2 58.7,86.3 59.6,87.5 Z M 55.8,83.5 L 55.8,83.5 C 55.8,83.6 55.8,83.6 55.9,83.7 57.2,88.4 56.9,93.1 55.1,97.6 53.9,97 52.8,96.3 51.6,95.6 52.6,93.1 52.8,90.5 52.8,87.9 52.8,85.9 53,83.3 52.3,81.3 53.5,81.9 54.7,82.6 55.8,83.5 Z M 51.6,81 C 52.8,85.5 52.7,91 51.3,95.4 50.4,94.8 49.6,94.2 48.8,93.5 49.9,89.1 49.9,84.3 48.8,80 49.7,80.3 50.7,80.6 51.6,81 Z M 48.2,79.8 C 49.1,84.3 49.2,88.6 48.3,93.2 47.9,92.9 47.5,92.5 47,92.1 46.5,91.6 46,91.2 45.5,90.7 45.4,88 45.1,85.3 44.9,82.5 44.8,81.3 44.7,80.1 44,79.1 45.5,79.3 46.9,79.5 48.2,79.8 Z M 43.4,79.1 C 44.8,80.5 44.6,83.1 44.8,84.8 45,86.7 45.1,88.5 45.3,90.4 44.4,89.5 43.4,88.6 42.5,87.7 42.7,86 42.4,84.2 42.1,82.6 41.9,81.4 41.7,80.1 41.2,79 41.9,79.1 42.6,79.1 43.4,79.1 Z M 40.6,79.1 C 41.7,81.9 41.3,84.3 41.9,87.2 41.1,86.4 40.7,86 39.9,85.2 39.5,84.8 39,84.3 38.6,83.9 38.8,83.8 37.9,80.5 37.3,79.2 38.4,79.1 39.5,79.1 40.6,79.1 Z M 33.2,79.5 C 34.4,79.4 35.6,79.3 36.8,79.2 37.2,80.5 37.6,81.7 37.8,83.1 36.3,81.7 34.9,80.3 33.2,79.5 L 33.2,79.5 Z M 33.4,80.1 C 35,81.1 36.4,82.4 37.7,83.8 37.3,84 36.8,84.1 36.3,84.2 35.7,84.3 35.1,84.2 34.5,84.1 34.1,82.8 33.7,81.4 33.4,80.1 Z M 34.6,84.5 C 35.7,84.8 37,84.6 38,84.1 38.8,84.9 39.6,85.8 40.5,86.6 40.6,86.7 40.7,86.8 40.8,86.9 40,86.9 39.2,87 38.4,86.9 37.4,86.9 36.4,86.7 35.4,86.6 35.1,85.9 34.9,85.2 34.6,84.5 Z M 35.5,87.1 C 37.2,87.5 39.5,87.8 41.2,87.3 42.1,88.2 43,89 43.9,89.9 41.5,90.1 39,90.4 36.7,90.2 36.2,89.2 35.8,88.1 35.5,87.1 Z M 36.8,90.5 C 37.7,90.7 38.7,90.6 39.7,90.6 41.2,90.6 42.8,90.5 44.3,90.3 L 44.3,90.3 C 45.1,91 45.8,91.8 46.6,92.5 43.8,92.9 40.9,93.1 38,93.1 37.6,92.3 37.2,91.4 36.8,90.5 Z M 38.3,93.5 C 41.2,93.6 44.2,93.4 47.1,92.9 47.5,93.2 47.9,93.6 48.2,93.9 48.7,94.3 49.2,94.7 49.6,95 46.3,95.3 43.2,95.8 39.9,96 39.3,95.2 38.8,94.4 38.3,93.5 Z M 40.2,96.3 C 43.4,96.4 47,96.2 50.1,95.3 51.2,96.1 52.3,96.8 53.5,97.5 51.7,97.8 49.9,98.1 48,98.3 46.1,98.5 44.2,98.5 42.3,98.5 41.5,97.8 40.8,97.1 40.2,96.3 Z M 42.8,98.9 C 42.7,98.9 42.7,98.9 42.8,98.9 46.4,99 50.5,98.8 54.1,97.8 54.4,98 54.7,98.1 55,98.2 55,98.2 55.1,98.2 55.1,98.3 56.2,98.8 57.2,99.3 58.3,99.7 54.1,100.5 49.9,100.7 45.6,100.8 44.6,100.2 43.7,99.6 42.8,98.9 Z M 46.3,101.1 C 50.6,101.4 55,101 59.1,100.1 59.2,100.1 59.2,100.1 59.2,100 60.6,100.5 62,100.9 63.5,101.2 57.9,103.1 51.7,103.5 46.3,101.1 Z M 59.6,99.5 C 60.7,96 60.9,91.7 60,88.1 60.8,89.4 61.5,90.7 62.1,92.1 62.7,93.8 63.1,95.5 63.3,97.3 63.4,98.5 63.4,99.6 63.7,100.7 62.2,100.3 60.9,99.9 59.6,99.5 Z M 59.6,99.5" />
            </g>
            <g>
                <path fill="rgb(174, 173, 86)" d="M 45,127.9 C 50.8,127 57,125.7 60.7,120.8 62.3,118.7 63.3,116.1 63.6,113.4 63.8,112.1 63.7,110.7 63.5,109.4 63.3,108.4 63,107.5 63.2,106.5 57.7,106 51.8,107.4 48.3,112 45.1,116.3 45.2,122.7 45,127.9 Z M 45,127.9" />
                <path fill="rgb(124, 120, 43)" d="M 64.2,111.2 C 64.1,109.7 63.2,106.1 63.2,106.2 57.8,105.6 52,106.9 48.3,111.1 44.3,115.6 44.5,122.6 44.3,128.3 44.3,128.5 55.7,128.6 60.5,121.9 62,119.8 63.3,117.5 63.8,115 64.2,113.7 64.3,112.4 64.2,111.2 Z M 63,106.5 C 62,107 61,107.6 60.1,108.2 L 60,108.2 C 56.8,108.4 53.5,108.8 50.5,109.9 53.9,107 58.5,106.1 63,106.5 Z M 48.3,112 C 48.8,111.3 49.4,110.7 50,110.2 53.1,109.5 56.2,108.8 59.4,108.6 58.7,109.1 58,109.6 57.3,110.2 57.3,110.2 57.2,110.2 57.2,110.3 57,110.5 56.8,110.6 56.7,110.8 53.9,110.7 50.9,111.2 48.3,112 48.3,112.1 48.3,112 48.3,112 Z M 48,112.4 C 49.4,112.1 50.8,111.7 52.2,111.5 53.6,111.3 55,111.2 56.3,111.1 55.6,111.8 54.9,112.5 54.2,113.3 51.8,113.2 49.1,113.7 46.8,114.4 47.2,113.7 47.6,113.1 48,112.4 Z M 46.8,114.7 C 49.2,114.2 51.6,114 54,113.6 53.7,114 53.4,114.3 53.2,114.7 53,115 52.8,115.3 52.6,115.6 50.4,115.8 48.2,116.2 46.1,116.8 46.3,116.1 46.5,115.3 46.8,114.7 Z M 46,117.1 C 48.1,116.6 50.2,116.2 52.3,116 51.9,116.7 51.4,117.3 51,118 L 51,118 C 49.9,118.2 48.7,118.4 47.6,118.7 46.9,118.9 46.2,119 45.5,119.3 45.7,118.5 45.8,117.8 46,117.1 Z M 45.5,119.5 C 47.2,118.9 49,118.6 50.8,118.3 50.3,119.1 49.8,119.9 49.3,120.7 48,120.7 46.4,121.3 45.2,121.9 45.3,121.1 45.4,120.3 45.5,119.5 Z M 45.2,122.3 C 45.9,122 46.6,121.7 47.3,121.5 47.9,121.3 48.5,121.2 49.1,121.1 49.1,121.2 49,121.3 49,121.3 48.6,122 48.1,122.8 47.7,123.5 46.9,123.3 45.9,123.4 45.2,123.9 45.1,123.4 45.2,122.9 45.2,122.3 Z M 45.1,124.3 C 45.5,124.1 45.9,124 46.4,123.9 46.8,123.9 47.1,123.9 47.5,123.9 46.8,125.1 46,126.3 45,127.4 45,126.4 45,125.3 45.1,124.3 Z M 47.6,127.4 C 46.7,127.6 45.8,127.7 45,127.9 L 45,127.9 C 46.1,127 46.9,125.7 47.6,124.5 47.7,125.5 47.7,126.4 47.6,127.4 Z M 50.4,126.8 C 49.6,127 48.8,127.2 47.9,127.3 48.1,126.2 48.1,123.7 48,123.6 48.2,123.2 48.5,122.8 48.7,122.4 49.1,121.7 49.4,121.3 49.8,120.6 50,122.9 50.7,124.6 50.4,126.8 Z M 52.4,126.3 C 51.9,126.5 51.3,126.6 50.8,126.8 51,125.9 50.9,124.9 50.8,124 50.7,122.7 50.6,121.4 50.1,120.2 50.6,119.4 51.1,118.6 51.6,117.8 51.8,119.2 52,120.6 52.3,121.9 52.6,123.1 53.2,125 52.4,126.3 Z M 53,126.1 C 53.3,125.3 53.2,124.4 53,123.5 52.6,121.5 52.3,119.5 51.9,117.5 52.2,117.1 52.4,116.6 52.7,116.2 52.9,115.9 53.2,115.5 53.4,115.2 54.9,118.3 55.6,121.5 55.8,124.9 54.9,125.3 54,125.7 53,126.1 Z M 56.2,124.6 C 56.2,121.2 55.2,117.8 53.6,114.8 54.1,114.2 54.6,113.6 55.1,113 56.9,116 58.1,119.9 58,123.4 57.5,123.9 56.8,124.3 56.2,124.6 Z M 60.6,120.8 C 60,121.7 59.2,122.4 58.4,123.1 58.6,121.5 57.9,119.7 57.5,118.2 57,116.3 56.4,114.4 55.2,112.8 55.9,112.1 56.6,111.4 57.3,110.7 59.5,113.6 60.5,117 60.5,120.7 60.6,120.7 60.7,120.7 60.6,120.8 60.7,120.7 60.6,120.8 60.6,120.8 Z M 61.1,120.2 C 61.1,116.7 59.9,113.3 57.7,110.5 58.5,109.9 59.2,109.3 60.1,108.7 60.7,110 61.3,111.2 61.8,112.6 62.3,114.1 62.5,115.7 62.7,117.2 62.2,118.2 61.7,119.2 61.1,120.2 Z M 63.5,113.4 C 63.4,114.5 63.1,115.6 62.7,116.7 62.7,113.9 61.7,110.8 60.3,108.5 61.2,107.9 62.1,107.4 63,106.9 62.9,107.7 63.2,108.5 63.3,109.4 63.7,110.7 63.7,112.1 63.5,113.4 Z M 63.5,113.4" />
            </g>
            <g>
                <path fill="rgb(174, 173, 86)" d="M 36.1,113.5 C 42.2,115.5 48.8,117.3 54.9,114.3 57.5,113 59.8,111 61.4,108.5 62.2,107.3 62.8,106 63.3,104.6 63.6,103.5 63.8,102.5 64.5,101.6 59.3,98.4 52.9,96.8 47.2,99.6 41.9,102.3 38.9,108.5 36.1,113.5 Z M 36.1,113.5" />
                <path fill="rgb(124, 120, 43)" d="M 47.9,98.7 C 41.8,101.2 38.5,108 35.5,113.5 35.4,113.7 46.5,119.4 54.5,115.3 57,114 59.4,112.4 61.2,110.2 62.1,109.1 62.8,108 63.4,106.7 64.1,105.2 65,101.3 64.9,101.3 59.9,98 53.5,96.4 47.9,98.7 Z M 64.3,101.5 C 63.1,101.5 61.9,101.6 60.6,101.7 L 60.5,101.6 C 57.3,100.2 53.9,99 50.4,98.5 55.2,97.5 60.2,99 64.3,101.5 Z M 47.3,99.6 C 48.1,99.2 49,98.9 49.9,98.6 53.3,99.4 56.6,100.3 59.9,101.7 58.9,101.8 58,102 57.1,102.2 L 57,102.2 C 56.7,102.3 56.5,102.3 56.2,102.4 53.4,101.1 50.2,100.2 47.3,99.6 47.2,99.7 47.2,99.7 47.3,99.6 Z M 46.8,99.9 C 48.3,100.3 49.8,100.6 51.3,101.1 52.8,101.6 54.1,102.2 55.6,102.7 54.5,103 53.5,103.4 52.5,103.8 50.2,102.5 47.3,101.7 44.7,101.3 45.3,100.8 46,100.3 46.8,99.9 Z M 44.5,101.5 C 47.1,102.2 49.6,103.2 52.1,104 51.6,104.2 51.2,104.4 50.7,104.7 50.3,104.9 50,105.1 49.6,105.3 47.4,104.4 45,103.7 42.6,103.3 43.3,102.6 43.9,102 44.5,101.5 Z M 42.5,103.4 C 44.8,103.9 47,104.6 49.2,105.4 48.4,105.8 47.7,106.3 47,106.7 L 47,106.7 C 45.8,106.3 44.6,106 43.4,105.7 42.6,105.5 41.9,105.3 41.1,105.3 41.5,104.7 42,104 42.5,103.4 Z M 40.8,105.5 C 42.7,105.7 44.7,106.4 46.6,107 45.7,107.5 44.8,108.1 44,108.6 42.7,107.9 40.8,107.8 39.4,107.8 39.8,107 40.3,106.3 40.8,105.5 Z M 39.1,108.1 C 39.9,108.2 40.8,108.3 41.6,108.4 42.2,108.5 42.9,108.7 43.5,108.9 43.4,109 43.3,109 43.2,109.1 42.4,109.6 41.6,110.1 40.8,110.6 40.1,110 39.1,109.7 38.1,109.7 38.5,109.2 38.8,108.7 39.1,108.1 Z M 38,110 C 38.5,110.1 39,110.1 39.4,110.3 39.8,110.4 40.1,110.6 40.4,110.9 39.1,111.7 37.7,112.5 36.3,113.1 36.9,112 37.5,111 38,110 Z M 36.1,113.5 L 36.1,113.5 C 37.6,113.1 39,112.3 40.4,111.5 40,112.5 39.5,113.5 38.9,114.4 38,114.1 37,113.8 36.1,113.5 Z M 39.3,114.5 C 40,113.5 41.3,111.1 41.2,110.9 41.6,110.6 42,110.3 42.5,110.1 43.3,109.6 43.7,109.4 44.5,108.9 43.6,111.1 43.4,113.1 42.1,115.2 41.1,115 40.2,114.7 39.3,114.5 Z M 44.2,115.6 C 43.6,115.5 43,115.4 42.4,115.3 43,114.5 43.4,113.5 43.8,112.6 44.3,111.3 44.9,109.9 45,108.5 45.9,107.9 46.8,107.4 47.7,106.9 47.2,108.3 46.8,109.8 46.3,111.3 45.9,112.6 45.6,114.8 44.2,115.6 Z M 44.9,115.7 C 45.6,115.1 45.9,114.1 46.2,113.1 46.8,111 47.5,108.8 48.1,106.7 48.6,106.4 49.1,106.1 49.5,105.9 49.9,105.7 50.3,105.5 50.7,105.3 50.6,109.1 49.7,112.5 48.2,116 47.1,115.9 46,115.8 44.9,115.7 Z M 48.7,115.9 C 50.4,112.6 51.2,108.7 51.1,105 51.9,104.6 52.7,104.3 53.5,104 53.8,107.8 53,112.2 51.2,115.6 50.3,115.7 49.5,115.8 48.7,115.9 Z M 55,114.3 L 55,114.3 C 53.9,114.9 52.8,115.2 51.7,115.5 52.7,114 52.9,111.9 53.3,110.3 53.8,108.2 54.1,106 53.7,103.9 54.7,103.5 55.8,103.2 56.8,102.9 57.5,106.8 56.8,110.7 55,114.2 55,114.2 55,114.2 55,114.3 Z M 55.7,113.9 C 57.5,110.5 58,106.5 57.2,102.8 58.3,102.5 59.3,102.3 60.4,102.2 60.4,103.7 60.4,105.3 60.1,106.8 59.8,108.5 59.2,110.1 58.7,111.8 57.8,112.6 56.8,113.3 55.7,113.9 Z M 63.3,104.6 C 62.9,106 62.2,107.3 61.4,108.5 60.7,109.5 59.9,110.5 59,111.3 60.4,108.5 61,105.1 60.7,102.1 61.8,102 63,101.9 64.2,101.9 63.8,102.8 63.6,103.7 63.3,104.6 Z M 63.3,104.6" />
            </g>
        </g>
    </g>
    <g id="branch-group">
        <g>
            <path fill="rgb(235, 139, 172)" d="M 27.6,59.6 C 27.6,59.6 27.1,58.8 26.3,58.4 25.6,57.8 24.6,57.7 23.7,57.6 L 23.6,57.5 C 23.1,57.4 22.6,57.4 22.1,57.4 21,57.5 19.8,57.7 18.8,58.2 17.9,58.6 17.2,59.2 16.2,59.3 15.6,59.4 15.1,59.2 14.4,59.4 14.2,59.5 14,59.5 13.8,59.6 13.8,59.6 13.7,59.6 13.7,59.7 13.1,60.1 13.7,61.8 13.9,62.2 14.1,62.7 14.5,63.1 14.9,63.5 15.2,63.8 14.9,64.5 15,64.9 15.1,65.4 15.5,65.7 15.9,66 15.9,66 16.2,66.1 16.2,66.2 16.2,66.3 16.2,66.4 16.2,66.4 16.2,66.6 16.2,66.8 16.3,67 16.5,67.9 17.2,68.7 18.1,68.9 18.2,69 18.4,69 18.5,68.9 18.9,68.5 19.4,68.1 20,67.8 21.3,67.2 22.6,67.2 23.9,66.7 27,65.8 29.3,62.7 27.6,59.6 Z M 27.6,59.6" />
            <path fill="rgb(220, 90, 132)" d="M 16.2,59.4 C 17.1,59.3 17.9,58.7 18.8,58.3 19.8,57.8 21,57.6 22.1,57.5 22.6,57.5 23.1,57.5 23.6,57.6 23.8,57.6 23.8,57.8 23.6,57.9 22.7,58.3 21.8,59.1 21.1,59.7 20.4,60.4 19.9,61.2 19.5,62.1 L 19.4,62.2 C 17.9,62.9 15.7,61.7 15.6,61.7 14.9,61.3 14.2,60.7 13.7,60 13.6,59.9 13.7,59.8 13.8,59.8 14,59.8 14.2,59.7 14.4,59.6 15.1,59.3 15.6,59.5 16.2,59.4 Z M 16.2,59.4" />
            <path fill="rgb(69, 69, 69)" d="M 22.1,63 C 22.1,62.9 22.1,62.9 22,62.8 21.9,62.9 21.8,62.9 21.7,63 21.5,63.1 18.7,64 18.5,64.1 18.1,64.3 17.7,64.5 17.3,64.6 16.6,64.9 15.9,65.1 15.2,65.3 L 15.2,65.2 C 15.1,65 14.9,64.9 14.7,65 14.5,65.1 14.4,65.3 14.5,65.5 14.6,65.7 14.8,65.8 15,65.7 15.1,65.6 15.2,65.5 15.2,65.4 16.7,65 20.8,63.7 22.1,63 Z M 22.1,63" />
            <path fill="rgb(69, 69, 69)" d="M 15.7,64.1 C 16.9,63.8 20.6,62.5 21.7,62 21.7,61.9 21.6,61.9 21.6,61.8 21.5,61.8 21.5,61.9 21.4,61.9 21,62.1 18,63.1 17.5,63.3 16.9,63.6 16.2,63.8 15.6,64 15.5,63.8 15.2,63.7 15,63.8 14.8,63.9 14.7,64.2 14.8,64.4 14.9,64.6 15.2,64.7 15.4,64.6 15.6,64.5 15.7,64.3 15.7,64.1 Z M 15.7,64.1" />
            <path fill="rgb(69, 69, 69)" d="M 15,63.2 C 14.9,63.2 14.9,63.2 15,63.2 16.2,62.6 20.2,61.4 21.5,61.2 21.5,61.1 21.4,61.1 21.4,61 20,61.2 16,62.4 14.9,63.1 14.8,63 14.6,63 14.5,63 14.3,63.1 14.2,63.3 14.3,63.5 14.4,63.7 14.6,63.8 14.8,63.7 15,63.6 15,63.4 15,63.2 Z M 15,63.2" />
            <path fill="rgb(69, 69, 69)" d="M 14.6,62.4 C 15.1,62.1 15.7,61.8 16.3,61.5 16.7,61.4 17,61.3 17.4,61.2 17.6,61.2 20.3,60.5 20.4,60.5 20.4,60.5 20.6,60.5 20.7,60.4 20.7,60.3 20.6,60.3 20.6,60.2 20.6,60.2 20.6,60.2 20.5,60.2 20,60.3 17.1,61 16.7,61.1 15.9,61.3 15.1,61.6 14.4,62.1 14.3,61.9 14.1,61.9 13.9,62 13.7,62.1 13.6,62.4 13.7,62.6 13.8,62.8 14.1,62.9 14.3,62.8 14.5,62.9 14.6,62.6 14.6,62.4 Z M 14.6,62.4" />
            <path fill="rgb(69, 69, 69)" d="M 22.3,63.8 C 22.3,63.7 22.2,63.6 22.2,63.5 21.6,63.9 18.4,65 17.8,65.3 17.1,65.6 16.4,65.9 15.6,66 L 15.6,66 C 15.5,65.8 15.2,65.6 15,65.8 14.8,65.9 14.6,66.2 14.8,66.4 15,66.6 15.2,66.8 15.4,66.6 15.6,66.5 15.7,66.3 15.7,66.1 16.3,66 17,65.8 17.5,65.6 18.2,65.4 21.7,64.3 22.3,63.8 Z M 22.3,63.8" />
            <path fill="rgb(69, 69, 69)" d="M 22.5,64.4 C 22.5,64.3 22.4,64.2 22.4,64.2 21.9,64.6 19,65.9 18.4,66.2 17.8,66.5 17.1,66.8 16.4,67 L 16.4,67 C 16.3,66.8 16,66.7 15.8,66.8 15.6,66.9 15.5,67.2 15.6,67.4 15.7,67.6 16,67.7 16.2,67.6 16.4,67.5 16.5,67.3 16.4,67.1 17,67 17.5,66.8 18.1,66.5 18.8,66.2 21.9,64.9 22.5,64.4 Z M 22.5,64.4" />
            <path fill="rgb(204, 68, 111)" d="M 27.6,59.6 C 29.4,62.7 27,65.8 24.1,66.9 22.8,67.4 21.4,67.4 20.2,68 19.6,68.3 19.1,68.6 18.7,69.1 18.5,69.3 18.1,69.1 18.2,68.8 18.4,67.9 18.9,67 19.3,66.1 19.9,65 19.1,63.5 19.6,62.2 20.2,60.7 20.8,59.3 22.1,58.4 24.8,56.3 27.5,59.5 27.6,59.6 Z M 27.6,59.6" />
        </g>
        <g>
            <path fill="rgb(235, 139, 172)" d="M 21.5,35.2 C 21.4,35.1 21.2,34.9 21.1,34.8 L 21,34.8 C 20.4,34.4 19.3,35.8 19.1,36.1 18.8,36.5 18.6,37 18.5,37.5 18.4,37.9 17.7,38 17.4,38.3 17.1,38.6 16.9,39 16.9,39.5 16.9,39.5 17,39.8 16.9,39.9 16.8,39.9 16.8,40 16.7,40 16.5,40.1 16.4,40.2 16.3,40.3 15.7,40.9 15.4,41.8 15.6,42.6 15.6,42.7 15.6,42.9 15.8,43 16.4,43.1 16.9,43.4 17.4,43.7 18.4,44.4 19.1,45.5 20,46.3 22.2,48.2 25.7,48.7 27.4,45.8 27.4,45.8 27.8,45.1 27.8,44.2 28,43.4 27.6,42.5 27.2,41.8 L 27.2,41.7 C 27,41.3 26.8,40.9 26.6,40.5 26,39.6 25.3,38.8 24.5,38.2 23.8,37.7 23,37.4 22.4,36.7 22.1,36.1 22,35.6 21.5,35.2 Z M 21.5,35.2" />
            <path fill="rgb(220, 90, 132)" d="M 22.4,36.5 C 22.9,37.2 23.8,37.5 24.5,38 25.4,38.6 26,39.4 26.6,40.3 26.9,40.7 27.1,41.1 27.2,41.5 27.3,41.6 27.1,41.7 27,41.7 26.2,41.1 25.3,40.8 24.4,40.6 23.5,40.3 22.6,40.3 21.7,40.4 L 21.6,40.4 C 20.4,39.5 20.4,37.2 20.3,37.1 20.3,36.3 20.5,35.5 20.8,34.8 20.8,34.7 21,34.7 21,34.8 21.1,34.9 21.3,35.1 21.4,35.2 22,35.6 22.1,36.1 22.4,36.5 Z M 22.4,36.5" />
            <path fill="rgb(69, 69, 69)" d="M 22.2,42.9 L 22.3,42.8 C 22.2,42.8 22.1,42.7 22.1,42.7 21.9,42.6 19.9,40.7 19.7,40.6 19.4,40.4 19,40.1 18.7,39.9 18.2,39.5 17.7,39 17.2,38.5 17.2,38.5 17.3,38.5 17.3,38.4 17.4,38.2 17.4,38 17.2,37.9 17,37.8 16.8,37.8 16.7,38 16.6,38.2 16.6,38.4 16.8,38.5 16.9,38.6 17,38.6 17.1,38.5 18.1,39.5 21,42.1 22.2,42.9 Z M 22.2,42.9" />
            <path fill="rgb(69, 69, 69)" d="M 18.4,38.2 C 19.2,39 21.9,41.5 22.8,42.1 L 22.9,42 C 22.8,42 22.8,41.9 22.7,41.9 22.3,41.6 20.2,39.7 19.8,39.4 19.4,39 19,38.5 18.4,38.2 18.6,37.9 18.6,37.7 18.4,37.5 18.2,37.4 17.9,37.4 17.8,37.6 17.7,37.8 17.7,38.1 17.9,38.2 18.1,38.3 18.3,38.3 18.4,38.2 Z M 18.4,38.2" />
            <path fill="rgb(69, 69, 69)" d="M 18.8,37.2 L 18.8,37.2 C 19.9,37.9 22.6,40.5 23.3,41.5 23.3,41.4 23.4,41.4 23.4,41.3 22.7,40.3 19.9,37.6 18.8,37 18.8,36.9 18.8,36.7 18.7,36.7 18.5,36.6 18.3,36.6 18.2,36.8 18.1,37 18.1,37.2 18.3,37.3 18.5,37.4 18.7,37.4 18.8,37.2 Z M 18.8,37.2" />
            <path fill="rgb(69, 69, 69)" d="M 19.3,36.5 C 19.8,36.8 20.3,37.1 20.8,37.5 21.1,37.7 21.3,38 21.5,38.3 21.6,38.4 23.3,40.3 23.4,40.4 23.4,40.4 23.5,40.5 23.6,40.6 L 23.7,40.5 23.7,40.5 C 23.4,40.2 21.6,38.1 21.3,37.8 20.8,37.3 20.1,36.8 19.4,36.5 19.5,36.3 19.4,36.1 19.3,36 19.1,35.9 18.9,35.9 18.7,36.1 18.6,36.3 18.6,36.5 18.8,36.7 18.9,36.7 19.1,36.7 19.3,36.5 Z M 19.3,36.5" />
            <path fill="rgb(69, 69, 69)" d="M 21.7,43.4 C 21.8,43.3 21.8,43.3 21.9,43.2 21.4,42.9 19,40.8 18.4,40.5 17.8,40.1 17.3,39.6 16.9,39 L 16.9,39 C 17,38.8 17,38.5 16.8,38.4 16.6,38.3 16.3,38.3 16.2,38.5 16.1,38.7 16.1,39 16.3,39.1 16.5,39.2 16.7,39.2 16.8,39.1 17.1,39.6 17.6,40 18,40.4 18.5,40.8 21,43.1 21.7,43.4 Z M 21.7,43.4" />
            <path fill="rgb(69, 69, 69)" d="M 21.3,43.8 C 21.3,43.7 21.4,43.7 21.5,43.6 21,43.4 18.6,41.6 18.1,41.3 17.5,41 17,40.5 16.6,40.1 L 16.6,40.1 C 16.7,39.9 16.7,39.6 16.5,39.5 16.3,39.4 16,39.4 15.9,39.6 15.8,39.8 15.8,40.1 16,40.2 16.2,40.3 16.3,40.3 16.5,40.2 16.8,40.6 17.3,41 17.7,41.3 18.2,41.7 20.6,43.6 21.3,43.8 Z M 21.3,43.8" />
            <path fill="rgb(204, 68, 111)" d="M 27.4,45.7 C 25.7,48.5 22.2,48.1 20,46.2 19,45.4 18.4,44.3 17.4,43.6 16.9,43.3 16.4,43 15.8,42.9 15.5,42.8 15.5,42.4 15.8,42.4 16.6,42.1 17.5,42.1 18.5,42.1 19.7,42 20.5,40.8 21.7,40.6 23.1,40.4 24.6,40.2 25.9,40.8 28.7,42 27.4,45.6 27.4,45.7 Z M 27.4,45.7" />
        </g>
        <g id="blossom3">
            <path fill="rgb(235, 139, 172)" d="M 39.3,21.3 L 39.3,21.2 C 39.1,20.8 39,20.4 38.7,20 38.1,19.1 37.5,18.3 36.7,17.6 36,17.1 35.2,16.7 34.7,16 34.4,15.5 34.3,15.1 33.9,14.6 33.8,14.5 33.6,14.3 33.5,14.2 L 33.4,14.2 C 32.8,13.8 31.7,15.1 31.4,15.4 31.1,15.8 30.9,16.3 30.8,16.7 30.7,17.1 30,17.1 29.7,17.4 29.4,17.7 29.2,18.1 29.2,18.5 29.2,18.5 29.2,18.8 29.2,18.9 29.1,18.9 29.1,19 29,19 28.8,19.1 28.7,19.2 28.5,19.3 27.8,19.8 27.5,20.7 27.7,21.6 27.7,21.7 27.7,21.9 27.9,22 28.4,22.2 29,22.4 29.4,22.8 30.4,23.6 31,24.7 31.9,25.6 34,27.6 37.5,28.2 39.3,25.4 39.3,25.4 39.7,24.7 39.8,23.8 39.9,23 39.6,22.1 39.3,21.3 Z M 39.3,21.3" />
            <path fill="rgb(220, 90, 132)" d="M 34.7,15.9 C 35.2,16.6 36,17 36.7,17.5 37.5,18.2 38.2,19 38.7,19.9 39,20.3 39.1,20.7 39.3,21.1 39.3,21.2 39.2,21.3 39.1,21.3 38.3,20.7 37.4,20.3 36.6,20.1 35.7,19.8 34.8,19.7 34,19.8 L 33.9,19.8 C 32.7,18.9 32.8,16.6 32.7,16.5 32.7,15.7 33,14.9 33.3,14.2 33.3,14.1 33.5,14.1 33.5,14.2 33.6,14.3 33.7,14.5 33.9,14.6 34.3,15 34.3,15.5 34.7,15.9 Z M 34.7,15.9" />
            <path fill="rgb(69, 69, 69)" d="M 34.2,22.3 L 34.3,22.2 C 34.2,22.2 34.1,22.1 34.1,22.1 33.9,22 32,20 31.8,19.9 31.5,19.7 31.2,19.4 30.9,19.2 30.4,18.8 29.9,18.3 29.5,17.8 29.5,17.8 29.6,17.8 29.6,17.7 29.7,17.6 29.7,17.3 29.5,17.2 29.4,17.1 29.1,17.1 29,17.3 28.9,17.4 28.9,17.7 29.1,17.8 29.2,17.9 29.3,17.9 29.4,17.9 30.2,18.7 33,21.5 34.2,22.3 Z M 34.2,22.3" />
            <path fill="rgb(69, 69, 69)" d="M 30.6,17.5 C 31.4,18.4 33.9,20.9 34.9,21.6 L 35,21.5 C 34.9,21.5 34.9,21.4 34.8,21.4 34.4,21 32.4,19 32,18.7 31.5,18.3 31.1,17.8 30.6,17.5 30.8,17.2 30.8,17 30.6,16.8 30.4,16.7 30.2,16.7 30,16.9 29.8,17.1 29.9,17.3 30.1,17.5 30.2,17.6 30.4,17.6 30.6,17.5 Z M 30.6,17.5" />
            <path fill="rgb(69, 69, 69)" d="M 31,16.5 L 31,16.5 C 32,17.2 34.7,20 35.4,21 35.4,20.9 35.5,20.9 35.5,20.8 34.8,19.8 32.1,17 31.1,16.3 31.1,16.2 31.1,16 31,15.9 30.9,15.8 30.6,15.8 30.5,16 30.4,16.1 30.4,16.4 30.6,16.5 30.7,16.7 30.9,16.6 31,16.5 Z M 31,16.5" />
            <path fill="rgb(69, 69, 69)" d="M 31.5,15.8 C 32,16.1 32.5,16.4 32.9,16.8 33.2,17 33.4,17.3 33.6,17.6 33.7,17.7 35.4,19.6 35.5,19.8 35.5,19.8 35.6,19.9 35.7,20 L 35.8,19.9 C 35.8,19.9 35.8,19.9 35.8,19.8 35.6,19.5 33.8,17.3 33.5,17 33,16.4 32.4,15.9 31.7,15.6 31.8,15.4 31.7,15.2 31.6,15.1 31.4,15 31.2,15 31,15.1 30.9,15.3 30.9,15.5 31,15.7 31.1,16 31.3,16 31.5,15.8 Z M 31.5,15.8" />
            <path fill="rgb(69, 69, 69)" d="M 33.6,22.8 C 33.7,22.7 33.7,22.7 33.8,22.6 33.3,22.3 31,20.1 30.5,19.7 30,19.3 29.4,18.8 29,18.2 L 29,18.2 C 29.2,18 29.1,17.7 28.9,17.6 28.7,17.4 28.4,17.5 28.3,17.7 28.1,17.9 28.2,18.2 28.4,18.3 28.6,18.4 28.8,18.4 28.9,18.3 29.2,18.8 29.7,19.2 30.1,19.6 30.6,20.1 32.9,22.4 33.6,22.8 Z M 33.6,22.8" />
            <path fill="rgb(69, 69, 69)" d="M 33.2,23.2 C 33.3,23.1 33.3,23.1 33.4,23 32.9,22.7 30.6,20.9 30.1,20.5 29.6,20.1 29,19.7 28.6,19.2 L 28.6,19.2 C 28.7,19 28.7,18.7 28.5,18.6 28.3,18.5 28,18.5 27.9,18.7 27.8,18.9 27.8,19.2 28,19.3 28.2,19.4 28.3,19.4 28.5,19.3 28.8,19.7 29.3,20.1 29.7,20.4 30.2,20.9 32.6,22.9 33.2,23.2 Z M 33.2,23.2" />
            <path fill="rgb(204, 68, 111)" d="M 39.2,25.3 C 37.4,28.1 33.9,27.4 31.8,25.5 30.9,24.6 30.3,23.5 29.3,22.7 28.8,22.3 28.3,22.1 27.8,21.9 27.5,21.8 27.5,21.4 27.8,21.4 28.7,21.1 29.5,21.2 30.5,21.2 31.7,21.2 32.6,19.9 33.8,19.8 35.3,19.6 36.7,19.6 38,20.2 40.7,21.7 39.3,25.2 39.2,25.3 Z M 39.2,25.3" />
        </g>
        <g id="blossom2">
            <path fill="rgb(235, 139, 172)" d="M 58.3,6.1 C 58.2,5.4 56.5,5.3 56.1,5.3 55.6,5.3 55.1,5.4 54.6,5.6 54.2,5.8 53.8,5.3 53.3,5.2 52.9,5.1 52.4,5.3 52.1,5.5 52.1,5.5 51.9,5.7 51.8,5.7 51.7,5.7 51.7,5.6 51.6,5.6 51.4,5.5 51.3,5.5 51.1,5.4 50.3,5.2 49.4,5.5 48.8,6.1 48.7,6.2 48.6,6.3 48.6,6.5 48.8,7 48.9,7.6 48.9,8.2 48.9,9.5 48.4,10.6 48.3,11.9 48,14.8 49.7,17.9 53,17.7 53.1,17.7 53.8,17.6 54.5,17.1 55.2,16.8 55.8,16 56.1,15.2 56.1,15.2 56.2,15.2 56.2,15.1 56.4,14.7 56.7,14.3 56.8,13.9 57.2,12.9 57.4,11.9 57.4,10.8 57.4,9.9 57.2,9.1 57.5,8.2 57.7,7.6 58,7.3 58.1,6.7 58.3,6.6 58.3,6.4 58.3,6.1 58.3,6.2 58.3,6.2 58.3,6.1 Z M 58.3,6.1" />
            <path fill="rgb(220, 90, 132)" d="M 57.7,8.3 C 57.4,9.1 57.6,10 57.6,10.9 57.6,12 57.3,13 57,14 56.8,14.4 56.6,14.8 56.4,15.2 56.3,15.3 56.1,15.3 56.1,15.1 56.1,14.1 55.8,13.1 55.5,12.3 55.2,11.4 54.7,10.7 54.1,10 L 54.1,9.9 C 54.1,8.4 56,7 56,6.9 56.6,6.5 57.4,6.2 58.2,6 58.3,6 58.4,6.1 58.4,6.2 58.4,6.4 58.3,6.6 58.3,6.8 58.2,7.4 57.8,7.7 57.7,8.3 Z M 57.7,8.3" />
            <path fill="rgb(69, 69, 69)" d="M 52.4,11.8 C 52.5,11.8 52.5,11.8 52.6,11.8 52.6,11.7 52.6,11.6 52.6,11.5 52.6,11.3 52.9,8.6 52.9,8.4 52.9,8 52.9,7.6 52.9,7.2 52.9,6.5 53,5.8 53.2,5.2 L 53.3,5.2 C 53.5,5.2 53.6,5 53.6,4.9 53.6,4.7 53.4,4.6 53.3,4.6 53.2,4.6 53,4.8 53,4.9 53,5 53.1,5.1 53.2,5.2 52.8,6.5 52.3,10.4 52.4,11.8 Z M 52.4,11.8" />
            <path fill="rgb(69, 69, 69)" d="M 53.9,6 C 53.7,7.1 53.3,10.7 53.3,11.9 53.4,11.9 53.4,11.9 53.5,11.9 53.5,11.8 53.5,11.7 53.5,11.7 53.5,11.2 53.8,8.4 53.9,7.9 53.9,7.3 54,6.7 54.1,6 54.3,6 54.5,5.8 54.5,5.6 54.5,5.4 54.3,5.2 54.1,5.2 53.9,5.2 53.7,5.4 53.7,5.6 53.6,5.8 53.8,6 53.9,6 Z M 53.9,6" />
            <path fill="rgb(69, 69, 69)" d="M 55,5.8 L 55,5.8 C 55,7.1 54.5,10.8 54.1,12 54.2,12 54.2,12 54.3,12 54.7,10.8 55.2,7 55.1,5.7 55.2,5.6 55.3,5.5 55.3,5.4 55.3,5.2 55.1,5.1 55,5.1 54.8,5.1 54.7,5.3 54.7,5.4 54.7,5.6 54.8,5.8 55,5.8 Z M 55,5.8" />
            <path fill="rgb(69, 69, 69)" d="M 55.8,5.7 C 55.9,6.3 55.9,6.9 55.9,7.4 55.9,7.8 55.8,8.1 55.7,8.4 55.7,8.6 55.2,11 55.1,11.2 55.1,11.2 55,11.4 55,11.5 55.1,11.5 55.1,11.5 55.2,11.5 55.2,11.5 55.2,11.5 55.2,11.4 55.3,11 55.9,8.3 56,7.9 56.1,7.1 56.2,6.4 56,5.6 56.2,5.6 56.3,5.4 56.3,5.2 56.3,5 56.1,4.8 55.9,4.8 55.7,4.8 55.5,5 55.5,5.2 55.4,5.5 55.6,5.7 55.8,5.7 Z M 55.8,5.7" />
            <path fill="rgb(69, 69, 69)" d="M 51.6,11.7 C 51.7,11.7 51.8,11.7 51.9,11.7 51.8,11.1 52.1,7.9 52.1,7.3 52.1,6.6 52.2,5.9 52.4,5.2 L 52.4,5.2 C 52.6,5.2 52.9,5 52.9,4.8 52.9,4.6 52.7,4.3 52.5,4.3 52.3,4.3 52,4.5 52,4.7 52,4.9 52.1,5.1 52.3,5.1 52.1,5.7 52,6.3 52,6.8 51.9,7.6 51.5,10.9 51.6,11.7 Z M 51.6,11.7" />
            <path fill="rgb(69, 69, 69)" d="M 51,11.6 C 51.1,11.6 51.2,11.6 51.2,11.6 51.1,11 51.1,8.1 51.1,7.5 51.1,6.8 51.1,6.2 51.2,5.5 L 51.2,5.5 C 51.4,5.5 51.6,5.3 51.6,5.1 51.6,4.9 51.4,4.7 51.2,4.7 51,4.7 50.8,4.9 50.8,5.1 50.8,5.3 50.9,5.4 51.1,5.5 51,6 51,6.6 51,7.1 51,7.8 50.9,10.9 51,11.6 Z M 51,11.6" />
            <path fill="rgb(204, 68, 111)" d="M 53.1,17.7 C 49.8,18 48.1,14.8 48.4,11.9 48.5,10.6 49,9.5 49,8.2 49,7.6 48.9,7.1 48.7,6.5 48.6,6.2 48.9,6 49.1,6.2 49.8,6.7 50.3,7.4 50.9,8.2 51.6,9.1 53.2,9.1 54,9.9 55,10.9 56,12 56.2,13.4 56.9,16.6 53.2,17.7 53.1,17.7 Z M 53.1,17.7" />
        </g>
        <g id="blossom1">
            <path fill="rgb(235, 139, 172)" d="M 71.5,13.1 C 71.1,12.8 70.7,12.5 70.2,12.3 69.8,12.1 69.8,11.5 69.6,11.1 69.4,10.7 68.9,10.5 68.5,10.4 68.5,10.4 68.2,10.4 68.2,10.3 68.2,10.2 68.2,10.2 68.1,10.1 68,9.9 67.9,9.8 67.8,9.6 67.3,8.9 66.5,8.5 65.7,8.5 65.6,8.4 65.4,8.5 65.3,8.6 65.1,9.1 64.8,9.6 64.4,10 63.5,10.9 62.3,11.4 61.4,12.2 59.2,14.1 58.2,17.5 60.7,19.6 60.7,19.6 61.4,20.1 62.2,20.3 63,20.6 63.9,20.4 64.7,20.1 64.7,20.1 64.8,20.2 64.8,20.1 65.2,20 65.7,19.9 66.1,19.7 67,19.3 68,18.7 68.7,17.9 69.3,17.3 69.8,16.5 70.6,16.1 71.1,15.8 71.6,15.8 72.1,15.4 72.2,15.3 72.4,15.2 72.5,15.1 72.5,15.1 72.5,15.1 72.6,15 73,14.7 71.9,13.4 71.5,13.1 Z M 71.5,13.1" />
            <path fill="rgb(220, 90, 132)" d="M 70.6,16.3 C 69.8,16.7 69.4,17.5 68.7,18.1 67.9,18.8 67,19.4 66.1,19.9 65.7,20.1 65.2,20.2 64.8,20.3 64.7,20.3 64.6,20.2 64.7,20.1 65.4,19.4 65.9,18.5 66.2,17.7 66.6,16.9 66.8,16 66.8,15.1 66.8,15.1 66.8,15 66.9,15 67.9,13.9 70.2,14.3 70.3,14.2 71.1,14.3 71.8,14.6 72.5,15.1 72.6,15.2 72.6,15.3 72.5,15.3 72.3,15.4 72.2,15.5 72.1,15.6 71.6,16.1 71.1,16.1 70.6,16.3 Z M 70.6,16.3" />
            <path fill="rgb(69, 69, 69)" d="M 64.3,15.1 C 64.3,15.2 64.4,15.2 64.4,15.3 64.5,15.2 64.5,15.2 64.6,15.1 64.7,14.9 66.9,13.3 67,13.1 67.3,12.8 67.6,12.5 67.9,12.3 68.4,11.8 68.9,11.4 69.5,11.1 69.5,11.1 69.5,11.2 69.6,11.2 69.7,11.3 70,11.3 70.1,11.2 70.2,11.1 70.2,10.8 70.1,10.7 70,10.6 69.7,10.6 69.6,10.7 69.5,10.8 69.5,10.9 69.5,11 68.3,11.6 65.2,14.1 64.3,15.1 Z M 64.3,15.1" />
            <path fill="rgb(69, 69, 69)" d="M 69.5,12.1 C 68.5,12.7 65.7,15 65,15.9 L 65.1,16 C 65.1,15.9 65.2,15.9 65.2,15.8 65.5,15.5 67.8,13.7 68.1,13.4 68.6,13 69.1,12.6 69.5,12.2 69.7,12.4 69.9,12.4 70.1,12.2 70.3,12 70.3,11.8 70.1,11.6 69.9,11.4 69.7,11.4 69.5,11.6 69.5,11.7 69.4,11.9 69.5,12.1 Z M 69.5,12.1" />
            <path fill="rgb(69, 69, 69)" d="M 70.5,12.7 L 70.5,12.7 C 69.6,13.6 66.6,15.9 65.5,16.5 65.5,16.5 65.6,16.6 65.6,16.7 66.7,16.1 69.8,13.8 70.6,12.8 70.7,12.8 70.9,12.8 71,12.7 71.1,12.6 71.1,12.3 71,12.2 70.9,12.1 70.6,12.1 70.5,12.2 70.3,12.3 70.3,12.5 70.5,12.7 Z M 70.5,12.7" />
            <path fill="rgb(69, 69, 69)" d="M 71,13.2 C 70.6,13.7 70.3,14.1 69.8,14.5 69.5,14.7 69.2,14.9 68.9,15.1 68.7,15.2 66.7,16.6 66.5,16.7 66.5,16.7 66.3,16.8 66.2,16.9 L 66.3,17 C 66.3,17 66.3,17 66.4,17 66.8,16.8 69.1,15.3 69.4,15 70,14.6 70.6,14 71,13.4 71.2,13.5 71.4,13.5 71.5,13.4 71.7,13.2 71.7,13 71.5,12.8 71.3,12.6 71.1,12.6 70.9,12.8 70.9,12.8 70.9,13 71,13.2 Z M 71,13.2" />
            <path fill="rgb(69, 69, 69)" d="M 63.9,14.5 C 64,14.6 64,14.6 64.1,14.7 64.5,14.2 66.9,12.2 67.3,11.7 67.8,11.2 68.4,10.7 69,10.4 L 69,10.4 C 69.2,10.6 69.5,10.6 69.6,10.4 69.8,10.2 69.8,9.9 69.6,9.8 69.4,9.6 69.1,9.6 69,9.8 68.9,9.9 68.8,10.1 68.9,10.3 68.4,10.6 67.9,10.9 67.5,11.3 66.9,11.8 64.3,13.9 63.9,14.5 Z M 63.9,14.5" />
            <path fill="rgb(69, 69, 69)" d="M 63.5,14 C 63.6,14.1 63.6,14.1 63.7,14.2 64,13.7 66.1,11.6 66.5,11.2 66.9,10.7 67.4,10.2 68,9.9 L 68,9.9 C 68.2,10.1 68.4,10 68.6,9.9 68.8,9.7 68.7,9.5 68.6,9.3 68.4,9.1 68.2,9.2 68,9.3 67.9,9.4 67.9,9.6 68,9.8 67.5,10.1 67.1,10.5 66.7,10.8 66.2,11.3 63.9,13.4 63.5,14 Z M 63.5,14" />
            <path fill="rgb(204, 68, 111)" d="M 60.7,19.8 C 58.2,17.7 59.2,14.3 61.4,12.4 62.4,11.6 63.5,11.1 64.4,10.2 64.8,9.8 65.1,9.3 65.3,8.8 65.4,8.5 65.8,8.6 65.8,8.9 65.9,9.8 65.8,10.6 65.7,11.6 65.6,12.8 66.7,13.8 66.7,15 66.7,16.5 66.6,17.9 65.8,19.1 64.2,21.7 60.8,19.8 60.7,19.8 Z M 60.7,19.8" />
        </g>
        <g id="branch">
            <path fill="rgb(69, 69, 69)" d="M 58.6,57.4 C 57.5,55.6 56.9,52.4 56.2,50 55.1,46.3 54.6,44 54.1,40.4 54.3,37.5 54.3,35.2 55,32.4 55.9,28.8 57.3,23.7 59.1,20.5 59.3,20.4 59.4,20.3 59.6,20.3 60.4,20.1 61.1,20.3 62.2,21 62.7,20.6 62.5,19.8 62.5,19.2 62.5,18.6 62.1,18.1 61.5,18.1 61.7,17.4 61.7,16.7 61.3,16.3 60.9,15.9 60.2,15.9 59.6,16.4 59.5,15.8 59.1,15.4 58.6,15.4 58.1,15.4 57.4,15.7 57.1,16.2 57.6,17 58.3,18.1 58.4,19.3 L 58.3,19.2 C 55.6,23.8 53.5,33.1 52.9,38.1 52.6,33.7 51.1,26.7 51.6,20.4 51.8,19.9 52.1,19.5 52.5,19.2 53.3,18.5 54.2,18.5 55.7,18.7 56,18 55.5,17.2 55.1,16.5 54.8,15.8 54.1,15.5 53.4,15.7 53.3,14.8 52.9,14 52.2,13.7 51.6,13.4 50.7,13.8 50.4,14.7 50,14.1 49.4,13.8 48.8,14 48.2,14.2 47.7,14.9 47.5,15.7 48.5,16.4 49.8,17.2 50.6,18.5 49.8,24.5 50.3,31 51.3,37.3 48.5,33 44.9,29.6 41,26.4 40.1,24.7 40.9,22.8 41.2,21.5 40.6,21 39.8,20.8 39.3,21 38.7,21.2 38.4,21.8 38.5,22.4 37.8,22 37,22.2 36.6,22.8 36.3,23.4 36.5,24.2 36.9,24.9 36.3,25.1 36,25.8 36.2,26.4 36.3,27.1 36.4,27.9 37.1,28.3 38.1,27.3 38.7,26.8 39.7,26.8 40.1,26.8 40.6,26.9 41,27.1 45.1,31.1 48.6,35.7 51.5,40.7 51.5,41 53.7,48.4 54.6,51.6 54.9,52.5 57.3,59.7 57.4,59.9 56.8,59.7 56.1,59.5 55.5,59.4 47.2,57.2 34.5,51.5 29.8,47.9 29.5,47.5 29.1,47 29.1,46.6 29,45.6 29.4,44.9 30.3,43.8 29.9,43.2 29,43.2 28.3,43.1 27.6,43 27,43.4 26.8,44 26,43.6 25.2,43.6 24.7,43.9 24.2,44.3 24.1,45.1 24.6,45.8 23.9,45.8 23.4,46.2 23.2,46.8 23.1,47.4 23.4,48.2 23.9,48.7 24.9,48.3 26.3,47.6 27.7,47.7 32.1,51.4 37.5,54.3 43,56.7 38.2,56.7 33.7,57.9 29.1,59.4 27.3,59.2 26.2,57.7 25.3,56.7 24.6,56.9 24.1,57.4 23.9,58 23.8,58.5 24.1,59.1 24.6,59.3 23.9,59.7 23.7,60.4 23.9,60.9 24.1,61.4 24.9,61.7 25.7,61.7 25.6,62.3 25.9,62.8 26.5,63 27.1,63.2 27.8,63.6 28.4,63.3 28.1,62 28,61.2 28.5,60.5 28.7,60.2 29.1,59.9 29.4,59.6 34.7,58.4 40,57.9 45.5,58.1 45.7,58.2 52.7,60.3 55.7,61.1 56.9,61.4 58.2,61.8 59.5,62.1 63.3,66.5 67,70.9 70.7,75.5 L 70.7,72.3 C 66.6,66.8 59.6,59.1 58.6,57.4 Z M 58.6,57.4" />
        </g>
        <g id="leaves3">
            <path fill="rgb(181, 172, 76)" d="M 54.8,70 C 53.9,68.2 52.1,67 50.2,66.6 48.3,66.2 46.3,66.6 44.5,67.3 42.7,68 41.1,69.1 39.4,70.2 42.1,71.7 44.9,73.3 47.9,73.2 50.5,73.2 53,71.9 54.8,70 Z M 54.8,70" />
            <path fill="rgb(69, 69, 69)" d="M 62.6,63.3 C 60.4,65.3 57.3,68.3 56.4,68.7 55.4,69.2 54.4,69.3 53.4,69.4 52.1,69.6 50.9,69.6 49.6,69.5 49.5,69.6 49.4,69.7 49.4,69.8 L 49.4,69.9 C 51.5,70.5 54.7,70.2 56,69.7 57.2,69.2 58.2,68.6 63.7,63.6 L 62.6,63.3 Z M 62.6,63.3" />
        </g>
        <g id="leaves2">
            <path fill="rgb(181, 172, 76)" d="M 40.5,65.5 C 38.6,64 36,63.7 33.7,64.3 31.4,64.9 29.4,66.4 27.9,68.2 26.4,70 25.1,72 24,74.1 27.6,74.3 31.5,74.4 34.7,72.8 37.6,71.3 39.6,68.6 40.5,65.5 Z M 40.5,65.5" />
            <path fill="rgb(181, 172, 76)" d="M 44.2,63 C 44.5,61.1 43.6,59.2 42.3,57.9 41,56.6 39.2,55.8 37.4,55.5 35.6,55.1 33.8,55.1 31.9,55.1 33.2,57.7 34.6,60.4 37,61.9 39.2,63.3 41.8,63.6 44.2,63 Z M 44.2,63" />
            <path fill="rgb(69, 69, 69)" d="M 61.7,62.5 C 57,61.1 51.9,61.3 45.9,63.4 45.2,62.7 44.2,62.4 43.3,61.9 42.2,61.3 41.2,60.8 40.3,60 40.2,60 40,60.1 39.9,60.1 39.9,60.1 39.9,60.1 39.8,60.2 41.2,61.7 43.2,62.5 45,63.6 42.1,64.4 38.3,65.9 35.6,67.1 35.8,67.4 35.6,67.6 35.7,67.8 42.3,65 52.3,61.1 62.6,63.4 L 61.7,62.5 Z M 61.7,62.5" />
        </g>
        <g id="leaves1">
            <path fill="rgb(181, 172, 76)" d="M 42.6,37.1 C 42.9,34.6 41.7,32.1 39.8,30.4 37.9,28.7 35.5,27.8 33,27.4 30.5,27 28,27.1 25.5,27.2 27.4,30.6 29.4,34.1 32.7,36.1 35.7,37.7 39.3,37.9 42.6,37.1 Z M 42.6,37.1" />
            <path fill="rgb(181, 172, 76)" d="M 46.9,38.9 C 48.7,38.1 50,36.3 50.4,34.3 50.8,32.4 50.5,30.4 49.8,28.5 49.1,26.7 48.1,25 47,23.4 45.4,26 43.8,28.8 43.8,31.8 43.8,34.6 45.1,37.1 46.9,38.9 Z M 46.9,38.9" />
            <path fill="rgb(181, 172, 76)" d="M 53.5,51.5 C 52.6,49.4 50.8,47.7 48.8,46.6 47.9,46.1 46.8,45.7 45.8,45.7 44.6,45.6 43.4,46 42.3,46.4 40.4,47.1 38.7,48.1 37.1,49.3 38.6,51.1 40.4,52.7 42.4,53.9 44.2,55 46.2,55.9 48.3,55.6 50.2,55.3 51.7,54 53.2,52.8 53.4,52.6 53.7,52.4 53.7,52.1 53.7,52 53.6,51.7 53.5,51.5 Z M 53.5,51.5" />
            <path fill="rgb(69, 69, 69)" d="M 47.5,40.6 C 47.7,39.6 47.5,38.5 47.4,37.5 47.3,36.2 47.2,35 47.4,33.7 47.3,33.6 47.2,33.5 47.1,33.4 L 47,33.4 C 46.4,35.5 46.9,37.8 46.9,40 44.6,37.9 41,35.3 38.4,33.5 38.2,33.8 38,33.7 37.8,34 44.1,38.4 51.9,46.1 54.9,51.3 54.7,51.4 47.8,50.6 47.8,50.6 47.7,50.6 47.5,50.7 47.4,50.7 47.5,50.9 47.6,51.1 47.7,51.3 49.7,51.6 55.8,52.3 56.3,52.2 54.8,49.1 50.7,43.6 47.5,40.6 Z M 47.5,40.6" />
        </g>
    </g>
    <g id="rose-group">
        <g id="rose-leaves">
            <path fill="rgb(174, 173, 86)" d="M 91.1,8.6 C 90.9,8.5 90.7,8.2 90.5,8.4 90.2,8.5 89.9,8.7 89.6,8.8 89,6.5 86.2,1 84.5,3.8 83.5,2.5 81.2,0.2 80.5,0.3 78.8,0.6 77.7,3.3 77.5,5 77.3,6.6 77.4,8.3 76.9,8.1 76.7,8 76,7.8 75.8,8.4 75.5,10.1 75.9,11.7 76.3,13.4 76.5,14.2 76.9,15 77.3,15.7 77.7,16.4 78.6,17.1 78.2,17.1 77.9,17.2 77.5,17.6 77.5,17.9 78.7,22.3 88.2,23.8 88.3,23.6 88.6,23.6 95.3,12 91.1,8.6 Z M 91.1,8.6" />
            <path fill="rgb(174, 173, 86)" d="M 122.1,48.2 C 124.6,47.2 120.5,44.1 118.7,43.2 118.9,43 119,42.8 119.2,42.5 119.3,42.3 119.2,42.2 119.1,42 116.9,38 106.3,41.8 106.3,41.9 106.2,42 106,50.1 109.4,51.7 109.6,51.8 110,51.5 110.1,51.3 110.2,51 110.6,51.8 111.1,52.3 111.6,52.8 112.2,53.1 112.8,53.5 114.1,54.1 115.4,54.7 116.8,54.7 117.3,54.7 117.2,54 117.2,53.9 117.1,53.5 118.5,53.8 119.9,53.9 121.3,53.9 123.7,53.5 124.2,52.1 124.6,51.5 123,49.3 122.1,48.2 Z M 122.1,48.2" />
            <path fill="rgb(174, 173, 86)" d="M 136,28.8 C 135.8,26.9 133,25.6 131.2,25.2 129.5,24.8 127.6,24.8 127.9,24.4 128,24.2 128.3,23.4 127.7,23.2 125.9,22.7 124.1,23 122.3,23.4 121.4,23.6 120.6,23.9 119.8,24.3 119,24.7 118.2,25.6 118.2,25.2 118.2,24.8 117.7,24.4 117.4,24.4 112.6,25.3 110.3,35.5 110.4,35.7 110.4,35.8 122.4,43.9 126.4,39.6 126.6,39.4 126.8,39.2 126.7,39 126.6,38.7 126.4,38.4 126.3,38 128.8,37.5 134.9,34.9 132,32.9 133.4,31.9 136.1,29.6 136,28.8 Z M 136,28.8" />
            <path fill="rgb(174, 173, 86)" d="M 118.3,10.5 C 119.2,8.5 120.6,4.4 120.1,3.6 118.7,1.7 114.8,2.1 112.7,2.8 110.7,3.5 108.6,4.6 108.6,4 108.6,3.7 108.4,2.7 107.6,2.9 105.4,3.5 103.6,5 101.9,6.6 101.1,7.4 100.4,8.2 99.8,9.2 99.2,10.1 98.9,11.5 98.6,11.2 98.3,10.8 97.6,10.6 97.3,10.9 92.7,14.9 96.7,27.4 96.9,27.4 97,27.6 114.9,28.6 116.5,21.5 116.6,21.2 116.7,20.9 116.5,20.7 116.2,20.4 115.8,20.2 115.5,19.9 117.7,17.6 122.7,10.9 118.3,10.5 Z M 118.3,10.5" />
            <path fill="rgb(124, 120, 43)" d="M 119.8,31.4 C 119.8,31.4 119.6,31.5 119.3,31.7 119,31.8 118.5,31.9 117.9,32.1 117.3,32.2 116.6,32.5 115.8,32.7 115,33 114,33.2 113.1,33.6 112.6,33.8 112.1,34 111.5,34.2 111,34.4 110.4,34.6 109.9,34.9 108.8,35.3 107.6,35.9 106.4,36.5 105.8,36.8 105.2,37.1 104.6,37.5 104,37.8 103.4,38.2 102.8,38.6 102.2,39 101.6,39.3 101,39.7 100.4,40.1 99.8,40.5 99.3,40.9 98.3,41.7 97.3,42.5 96.4,43.3 96.3,43.3 96.3,43.3 96.3,43.3 L 96.3,43.4 C 96.2,43.5 96.2,43.5 96.1,43.6 95,44.5 94.1,45.5 93.2,46.5 92.8,47 92.4,47.5 91.9,48 91.7,48.2 91.5,48.5 91.3,48.7 91.1,49 90.9,49.2 90.8,49.5 90.4,50 90.1,50.5 89.8,51 89.5,51.5 89.2,52 88.9,52.4 88.8,52.5 88.8,52.6 88.7,52.7 88.9,51.6 89.1,50.4 89.2,49.3 89.5,47 89.9,44.7 90,42.4 90,42.2 90,41.9 90,41.7 L 90,41.7 C 90,41.7 90.1,41.3 90.4,40.5 90.5,40.1 90.7,39.7 90.8,39.2 91,38.7 91.2,38.1 91.4,37.5 91.6,36.9 91.9,36.2 92.2,35.5 92.5,34.8 92.9,34.1 93.2,33.3 94,31.8 94.8,30.2 95.8,28.7 96.3,27.9 96.8,27.2 97.3,26.5 97.8,25.8 98.3,25.1 98.8,24.4 99.8,23.1 100.9,21.9 101.8,20.9 102.3,20.4 102.7,20 103.1,19.6 103.5,19.2 103.8,18.9 104.1,18.6 104.4,18.3 104.6,18.1 104.8,18 105,17.9 105.2,17.9 105.2,17.9 L 104.4,17 C 104.4,17 104.4,17.2 104.3,17.4 104.2,17.6 103.9,17.8 103.6,18 103.3,18.3 102.9,18.6 102.5,19 102.1,19.4 101.6,19.8 101.2,20.3 100.2,21.3 99.2,22.5 98.1,23.8 97.6,24.5 97,25.2 96.5,25.9 96,26.6 95.4,27.4 94.9,28.1 93.9,29.6 92.9,31.2 92.1,32.7 91.3,34.2 90.6,35.7 90,36.9 90,37 89.9,37 89.9,37.1 89.9,36.6 89.9,36.2 89.9,35.7 89.9,31.4 89.4,27.3 88.7,23.9 88.3,22.2 87.9,20.7 87.5,19.3 87.1,17.9 86.6,16.8 86.3,15.8 85.9,14.9 85.6,14.1 85.3,13.6 85.1,13.1 84.9,12.9 84.9,12.9 L 83.9,13.4 C 83.9,13.4 84,13.7 84.3,14.1 84.6,14.6 84.9,15.3 85.3,16.2 86.1,18 87,20.7 87.7,24 88.4,27.3 88.7,31.3 88.6,35.6 88.6,37.2 87.6,47.5 87.4,48.9 87,50.9 86.7,52.9 86.2,54.9 L 88.5,54.9 C 88.6,54.7 88.7,54.5 88.8,54.2 89,53.8 89.3,53.4 89.5,52.9 89.8,52.5 90,52 90.3,51.5 90.6,51 90.9,50.6 91.3,50.1 91.5,49.9 91.6,49.6 91.8,49.4 92,49.2 92.2,48.9 92.4,48.7 92.8,48.2 93.2,47.7 93.6,47.2 94.5,46.3 95.3,45.3 96.3,44.4 L 96.3,44.4 C 96.3,44.4 96.6,44.3 97.2,44.1 97.5,44 97.8,43.9 98.2,43.8 98.6,43.7 99,43.6 99.6,43.5 99.9,43.5 100.1,43.4 100.4,43.4 100.7,43.4 101,43.4 101.2,43.3 101.8,43.2 102.4,43.3 103,43.3 103.6,43.3 104.3,43.3 105,43.4 105.3,43.4 105.7,43.5 106,43.5 L 107,43.7 C 107.7,43.8 108.3,44 109,44.1 109.6,44.3 110.3,44.5 110.9,44.7 111.5,44.9 112.1,45.1 112.6,45.3 113.1,45.5 113.7,45.7 114.1,46 114.6,46.2 115,46.4 115.3,46.6 115.7,46.8 116,47 116.2,47.1 116.7,47.4 117,47.6 117,47.6 L 117.5,46.8 C 117.5,46.8 117.2,46.6 116.7,46.3 116.5,46.1 116.1,46 115.7,45.7 115.3,45.5 114.9,45.3 114.4,45 113.9,44.8 113.4,44.5 112.8,44.3 112.2,44.1 111.6,43.8 111,43.6 110.4,43.4 109.7,43.2 109,43 108.3,42.8 107.6,42.7 106.9,42.5 L 105.9,42.3 C 105.5,42.3 105.2,42.2 104.9,42.2 104.2,42.1 103.5,42.1 102.9,42 102.2,42 101.6,42 101,42 100.7,42 100.4,42 100.1,42.1 99.8,42.1 99.5,42.2 99.3,42.2 98.9,42.2 98.5,42.3 98.1,42.4 98.6,42 99,41.7 99.5,41.3 100.6,40.5 101.7,39.7 102.9,38.9 103.5,38.5 104.1,38.2 104.6,37.9 105.2,37.6 105.8,37.3 106.3,36.9 107.5,36.3 108.6,35.7 109.7,35.3 110.3,35.1 110.8,34.8 111.3,34.6 111.8,34.4 112.3,34.2 112.8,34 113.8,33.6 114.7,33.3 115.5,33.1 116.3,32.8 117,32.6 117.6,32.5 118.2,32.3 118.6,32.2 119,32.2 119.3,32.2 119.5,32.2 119.5,32.2 L 119.8,31.4 Z M 119.8,31.4" />
        </g>
        <g id="yellow-rose">
            <path fill="rgb(255, 233, 175)" d="M 110.2,30.9 C 108.6,26 103.2,19.3 97.4,19.4 97.4,19.3 97.3,19.3 97.2,19.2 86.8,13.3 72.2,14.4 65.3,25 59.8,29.1 57.6,36.4 58.6,43 59.7,50.8 63.5,58.1 71.6,60 76.9,65.7 86.3,66.6 93.5,64.9 101.9,62.9 108.8,55.6 108.8,46.7 108.8,46.6 108.8,46.6 108.8,46.5 110.8,42 111.8,35.8 110.2,30.9 Z M 110.2,30.9" />
            <path fill="rgb(254, 214, 92)" d="M 92.6,53 C 90.7,54.7 87.9,55.4 85.2,54.9 82.9,54.5 81,52.8 79.3,51.2 83.9,51.2 87.7,50.8 91.2,48 93.2,46.4 95.1,43.5 95.2,40.8 95.2,40.8 95.2,40.8 95.2,40.9 97.7,45 95.9,49.9 92.6,53 Z M 92.6,53" />
            <path fill="rgb(254, 214, 92)" d="M 98,42.5 C 94.2,36.2 87.4,30.4 79.7,31.3 83,27.8 89.4,27.9 93.5,29.9 98.5,32.3 99.2,37.7 98,42.5 Z M 98,42.5" />
            <path fill="rgb(254, 214, 92)" d="M 78.4,52.5 C 73.1,51.1 69.6,46.5 69.2,40.9 68.9,35.4 73.2,30.7 78.5,30.1 75.9,33.8 74.9,38.1 75.3,42.7 75.5,45.1 76.2,47.5 77.1,49.7 77.2,50.1 78.3,52.3 78.4,52.5 Z M 78.4,52.5" />
            <path fill="rgb(254, 214, 92)" d="M 91.3,24.4 C 84.8,23 78.6,23.8 73.2,28 74.4,24.1 76.5,21.4 80.3,20 84.3,18.4 89.9,19.5 91.3,24.4 Z M 91.3,24.4" />
            <path fill="rgb(254, 214, 92)" d="M 72.6,55.1 C 70.8,54.6 68.5,54.5 67,53 65,51 63.5,48.6 62.6,46.1 61.3,42.5 61.7,34.6 69.2,30.9 63.8,39.1 66,48.6 72.6,55.1 Z M 72.6,55.1" />
            <path fill="rgb(254, 214, 92)" d="M 101,50.1 C 100.9,52.5 99.3,56 97.5,58 95.5,60.2 92.3,61.1 89.4,61.4 85.2,61.9 80,61.3 76.3,59 80,59.5 85.7,58.1 87.6,57.7 90.9,56.9 94,55.3 97,53.7 98.1,53.1 100.1,51.1 101,50.1 Z M 101,50.1" />
            <path fill="rgb(254, 214, 92)" d="M 102.1,45.2 C 102.5,41.2 101.9,37.2 100.3,33.5 99.3,31.2 97.9,28 95.8,25.7 103.2,25.8 110.1,35.5 102.1,45.2 Z M 102.1,45.2" />
            <path fill="rgb(121, 109, 57)" d="M 81.3,37.3 C 80,37.3 80,39.3 81.3,39.3 82.6,39.3 82.6,37.3 81.3,37.3 Z M 81.3,37.3" />
            <path fill="rgb(121, 109, 57)" d="M 84.3,36.8 C 83,36.8 83,38.9 84.3,38.9 85.6,38.8 85.6,36.8 84.3,36.8 Z M 84.3,36.8" />
            <path fill="rgb(121, 109, 57)" d="M 87.2,37.5 C 86,37.5 86,39.4 87.2,39.4 88.4,39.4 88.4,37.5 87.2,37.5 Z M 87.2,37.5" />
            <path fill="rgb(121, 109, 57)" d="M 88.7,40.4 C 87.5,40.4 87.5,42.3 88.7,42.3 89.9,42.3 89.9,40.4 88.7,40.4 Z M 88.7,40.4" />
            <path fill="rgb(121, 109, 57)" d="M 88.7,43.1 C 87.5,43.1 87.5,45 88.7,45 89.9,45 90,43.1 88.7,43.1 Z M 88.7,43.1" />
            <path fill="rgb(121, 109, 57)" d="M 84.3,46 C 83.1,46 83.1,47.9 84.3,47.9 85.5,47.9 85.5,46 84.3,46 Z M 84.3,46" />
            <path fill="rgb(121, 109, 57)" d="M 81.3,44.9 C 80,44.9 80,46.9 81.3,46.9 82.6,47 82.6,44.9 81.3,44.9 Z M 81.3,44.9" />
            <path fill="rgb(121, 109, 57)" d="M 80,42.2 C 78.8,42.2 78.8,44.1 80,44.1 81.2,44.1 81.2,42.2 80,42.2 Z M 80,42.2" />
            <path fill="rgb(121, 109, 57)" d="M 79.6,39.5 C 78.5,39.5 78.5,41.2 79.6,41.2 80.7,41.3 80.7,39.5 79.6,39.5 Z M 79.6,39.5" />
            <path fill="rgb(121, 109, 57)" d="M 82.6,40.4 C 81.4,40.4 81.4,42.2 82.6,42.2 83.8,42.2 83.7,40.4 82.6,40.4 Z M 82.6,40.4" />
            <path fill="rgb(121, 109, 57)" d="M 85.6,39.9 C 84.4,39.9 84.4,41.7 85.6,41.7 86.8,41.8 86.8,39.9 85.6,39.9 Z M 85.6,39.9" />
            <path fill="rgb(121, 109, 57)" d="M 83.1,43.1 C 82,43.1 82,44.9 83.1,44.9 84.3,44.8 84.3,43.1 83.1,43.1 Z M 83.1,43.1" />
            <path fill="rgb(121, 109, 57)" d="M 85.6,42.8 C 84.4,42.8 84.4,44.7 85.6,44.7 86.8,44.7 86.8,42.8 85.6,42.8 Z M 85.6,42.8" />
            <path fill="rgb(121, 109, 57)" d="M 87.2,45.4 C 86.1,45.4 86.1,47.1 87.2,47.1 88.3,47.1 88.3,45.4 87.2,45.4 Z M 87.2,45.4" />
        </g>
    </g>
    <g id="blue-flower-group">
        <g id="yellow-berries">
            <path fill="rgb(254, 214, 92)" d="M 137,7.7 C 136.3,9.5 134.2,10.4 132.3,9.7 130.5,9 129.6,6.9 130.3,5 131,3.2 133.1,2.3 135,3 136.9,3.8 137.8,5.9 137,7.7 Z M 137,7.7" />
            <path fill="rgb(254, 214, 92)" d="M 151.1,20.3 C 150.4,22.1 148.3,23 146.4,22.3 144.6,21.5 143.7,19.5 144.4,17.6 145.1,15.8 147.2,14.9 149.1,15.6 151,16.4 151.9,18.5 151.1,20.3 Z M 151.1,20.3" />
            <path fill="rgb(254, 214, 92)" d="M 154.7,30.9 C 151.2,31.8 149,28.7 150,26.1 150.7,24.3 152.8,23.4 154.7,24.1 157.3,25.2 158,29 154.7,30.9 Z M 154.7,30.9" />
            <path fill="rgb(254, 214, 92)" d="M 144.1,26.7 C 143.3,27.8 141.9,28.3 140.7,28.1 138.4,27.7 137.1,25.3 138,23.2 138.7,21.4 140.8,20.5 142.7,21.2 144.7,22.1 145.6,24.7 144.1,26.7 Z M 144.1,26.7" />
            <path fill="rgb(254, 214, 92)" d="M 144.5,14.4 C 143.8,16.2 141.7,17.1 139.8,16.4 138,15.7 137.1,13.6 137.8,11.7 138.6,9.9 140.6,9 142.5,9.7 144.4,10.5 145.3,12.6 144.5,14.4 Z M 144.5,14.4" />
            <path fill="rgb(254, 214, 92)" d="M 127.6,17.7 C 124.1,18.6 121.9,15.5 122.9,12.9 123.6,11.1 125.7,10.2 127.6,10.9 130.2,12 130.9,15.9 127.6,17.7 Z M 127.6,17.7" />
            <path fill="rgb(69, 69, 69)" d="M 153.4,27.3 C 153.4,27.3 153.3,27.5 153.1,27.8 152.9,28.1 152.7,28.4 152.3,28.9 151.6,29.8 150.4,30.8 149.2,31.6 147.9,32.4 146.5,33.1 145.5,33.6 145.4,33.7 145.3,33.7 145.1,33.8 145.5,32.7 145.8,31.5 146.1,30.3 146.5,28.6 146.8,26.9 147,25.2 147.1,24.4 147.2,23.6 147.3,22.8 147.4,22.1 147.4,21.3 147.4,20.7 147.5,19.4 147.5,18.3 147.4,17.5 147.4,16.7 147.4,16.3 147.4,16.3 L 146.5,16.3 C 146.5,16.3 146.5,16.7 146.5,17.5 146.5,18.3 146.5,19.3 146.4,20.6 146.4,21.2 146.3,21.9 146.2,22.7 146.1,23.4 146,24.2 145.9,25 145.6,26.6 145.3,28.3 144.8,29.9 144.7,30.3 144.6,30.6 144.5,31 142.6,29.4 142.1,26.6 141.8,23.9 L 140.9,24 C 141.3,26.9 141.8,30 144,31.8 144.1,31.9 144.2,31.9 144.3,31.9 144,32.8 143.7,33.8 143.4,34.7 143.1,35.4 142.8,36.2 142.5,36.8 142.2,37.5 141.9,38.1 141.6,38.7 141.2,39.5 140.8,40.2 140.5,40.8 140,39 139.5,37.3 139.1,35.6 138.6,33.6 138.1,31.5 137.6,29.6 137.2,27.6 136.7,25.7 136.4,23.9 136.3,23.5 136.2,23.1 136.2,22.7 136.4,22.5 136.8,22.1 137.3,21.6 138,20.8 138.8,19.7 139.4,18.6 140.1,17.4 140.5,16.1 140.8,15.2 141,14.5 141.1,14 141.2,13.7 141,13.6 140.9,13.6 140.7,13.5 140.6,13.4 140.5,13.4 140.4,13.3 L 140.3,13.3 C 140.3,13.3 140.2,14 139.9,14.8 139.6,15.7 139.1,16.9 138.5,18 137.8,19.1 137.1,20.1 136.4,20.8 136.2,21 136.1,21.1 136,21.3 135.8,20.5 135.7,19.7 135.6,18.9 135.3,17.3 135.1,15.9 134.9,14.6 134.7,13.3 134.5,12.2 134.4,11.2 134.1,9.3 134,8.3 134,8.3 L 133.1,8.4 C 133.1,8.4 133.2,9.5 133.4,11.3 133.5,12.2 133.7,13.4 133.8,14.7 134,16 134.2,17.4 134.4,18.9 134.2,18.9 134,18.8 133.8,18.7 132.8,18.4 131.5,17.8 130.3,17 129.1,16.2 128.1,15.2 127.5,14.4 127.3,14.2 127.1,13.9 127,13.7 126.8,14 126.6,14.3 126.5,14.7 126.6,14.8 126.6,14.9 126.7,15 127.4,15.9 128.4,17.1 129.6,18 130.8,18.9 132.2,19.7 133.3,20.1 133.8,20.3 134.3,20.4 134.7,20.5 L 134.7,20.5 C 134.9,21.7 135.1,22.9 135.3,24.2 135.6,26 136,27.9 136.4,29.9 136.7,31.2 137.7,35.8 137.8,36 138.3,38.1 138.9,40.2 139.4,42.3 139.6,42.9 139.7,43.4 139.9,44 L 141.5,44 C 141.4,43.8 141.4,43.5 141.3,43.3 141.4,43.1 141.5,42.9 141.7,42.5 142.1,41.8 142.6,40.8 143.1,39.6 143.4,39 143.7,38.3 143.9,37.6 144.2,36.9 144.5,36.2 144.7,35.4 144.7,35.3 144.7,35.2 144.8,35.2 144.9,35.2 145,35.1 145.2,35 145.4,34.9 145.7,34.8 145.9,34.7 147,34.2 148.4,33.5 149.7,32.6 151,31.7 152.3,30.7 153,29.7 153.4,29.2 153.7,28.8 153.9,28.5 154.1,28.2 154.2,28 154.2,28 L 153.4,27.3 Z M 153.4,27.3" />
        </g>
        <g id="dark-leaves">
            <path fill="rgb(124, 120, 43)" d="M 152.7,44.5 C 157.4,44.3 160.9,44.9 164.4,41.2 167.6,37.9 168.1,28.5 167.8,28.6 163.3,29.4 158.3,30.2 154.9,33.6 151.9,36.5 151.2,40.6 151.3,44.6 151.3,44.7 151.3,44.7 151.4,44.7 149.9,46.4 148.4,48.2 147,50 147.1,48.6 147.1,47.3 147.2,45.9 147.3,45.9 147.5,45.8 147.6,45.7 149,43.4 151,40.9 151.1,38.1 151.2,35 147.8,28.1 147.5,28.4 145.9,30.9 144.2,33.5 143.9,36.6 143.6,39.9 145.2,43.1 146.6,46 146.3,47.5 146.1,49.1 146.5,50.5 L 146.5,50.5 C 143.4,54.5 140.7,58.8 138.3,63.3 138.2,61.6 138.4,59.9 138.5,58.1 138.5,58.1 138.5,58.1 138.6,58.1 141,55.6 143.1,53 142.7,49.4 142.2,45.1 135.8,37 135.6,37.3 133.9,40.8 132.2,44.4 132.4,48.4 132.5,49.9 132.8,51.4 133.5,52.8 134.6,55 137.1,56.3 137.7,58.9 137.7,59 137.8,59 137.8,59 137.8,59.4 137.7,59.8 137.7,60.2 137.6,61.6 137,63.2 137.7,64.4 137.2,65.3 136.8,66.2 136.4,67.1 L 137.4,67.1 C 137.8,66.1 138.3,65.2 138.8,64.3 140.1,62.5 141.1,60.6 142.8,59 143.9,58 145.1,57.2 146.4,56.5 146.5,56.6 146.5,56.6 146.6,56.7 150.2,58.6 154.1,59.8 158,57.9 161.4,56.3 164.5,49 164.1,48.9 156.5,46.9 149.8,47.9 146.6,55.5 146.5,55.5 146.4,55.6 146.4,55.7 144.8,56.3 143.2,57.4 141.9,58.6 144.9,53.6 148.4,48.8 152.3,44.3 152.4,44.5 152.5,44.5 152.7,44.5 Z M 152.7,44.5" />
        </g>
        <g id="bluef-lower">
            <path fill="rgb(143, 184, 189)" d="M 156.6,45.4 C 155.8,43 152.1,40.7 149.5,40.4 151.8,39.8 154.3,38.9 154.1,36.1 154,35 153.7,33.8 152.8,33.1 152.3,32.7 151.8,32.4 151.1,32.1 150.4,31.8 150.3,30.8 149.9,30.2 149.7,30 149.4,29.9 149.1,29.8 148.7,29.7 148.1,28.2 147.8,27.8 147.1,27 145.6,26.8 144.6,27.1 141.6,28.1 140,30.5 138.8,33.2 139,30.3 138.9,27.1 137,25 136.3,24.3 135.4,24.3 134.6,24.7 134.2,24.9 133.9,25.3 133.7,25.6 133,26.5 132.1,25.7 131.2,26.1 129.8,26.8 129,27.9 127.3,28.3 126.4,28.5 125.6,29.6 125.5,30.4 125,33.2 126.4,35.3 128.3,37 125.7,36.3 122.8,36.7 120.7,38.6 119.7,39.5 119.7,41.4 120.3,42.5 120.4,42.7 122,44.6 121.9,44.8 121.5,45.3 121.1,46.1 121.2,46.8 121.3,47.2 121.3,47.7 121.6,48 121.7,48.1 121.2,49.4 121.2,49.6 121,51.1 122.1,52.3 123.4,53 126.1,54.4 128.5,52.3 130.4,49.9 129.6,52.3 129.1,54.8 129.8,57 130.3,58.5 131.1,59.4 132.5,60.1 133.9,60.8 135.2,59.8 136.7,60.1 137.2,60.2 137.7,60 138.1,59.8 139.2,59.3 139.6,59.5 140.6,59.4 142.1,59.3 141.5,58.5 142.9,58.2 146.6,57.6 146.3,55.1 145.2,52.6 145.9,53.5 146.9,54.2 148.8,54.4 149.8,54.5 151.8,54.6 152.2,53.4 152.3,53.2 152,51.2 152,51.2 152.5,51.1 152.8,50.7 153,50.4 153.7,49.5 153,49.2 154.1,48.4 155.2,47.8 157,46.5 156.6,45.4 Z M 156.6,45.4" />
            <path fill="rgb(173, 216, 219)" d="M 151.2,44.1 C 151.3,44 151.3,43.9 151.3,43.8 150.3,42.4 148.4,42.4 146.8,42.4 144.3,42.3 141.8,42.3 139.3,42.6 L 139.3,42.6 C 139.3,42.3 139.2,41.9 139,41.7 141.5,41 144.1,40.2 146.6,39.4 147.2,39.2 150.1,38.4 149.2,37.3 148.5,36.4 145.6,37.7 144.9,38 143.1,38.8 141.5,39.8 139.8,40.7 141.4,39.5 143.2,38.5 144.8,37.2 145.4,36.8 147.2,35.2 146.7,34.3 146.2,33.4 143.6,35.8 141.4,38.1 142.1,37.1 142.9,36.1 143.6,35.1 143.9,34.6 145.4,32.9 144.1,32.5 143,32.2 141.6,34.7 141.2,35.3 140,37.1 139,39.1 138.4,41.2 138.3,41.2 138.3,41.2 138.2,41.2 L 138.1,41.2 C 137.6,38.8 137.1,36.4 136.6,34 136.4,33.1 136.4,30.9 135.1,30.8 135,30.8 134.9,30.9 134.9,31 134.4,34.5 136.4,37.3 137.3,40.5 136.3,38.8 135.4,37 134.4,35.3 133.7,34.1 133.1,32.2 131.7,31.6 131.6,31.5 131.4,31.7 131.4,31.8 131.1,33.5 132.7,35.2 133.6,36.5 134.6,37.9 135.6,39.2 136.7,40.5 136.8,40.6 136.8,40.7 136.9,40.8 135.5,39.4 134.1,38.1 132.8,36.8 131.6,35.7 130.4,34 128.7,33.8 128.6,33.8 128.5,33.9 128.5,34 128.5,35.7 130.1,36.8 131.3,37.8 133.1,39.2 135,40.5 137,41.7 136.8,41.9 136.7,42.2 136.7,42.5 134.3,42.4 131.9,42.3 129.4,42.2 128.5,42.2 126.3,41.7 125.9,42.9 125.9,43 125.9,43.1 126,43.2 129.3,44.5 132.5,43.3 135.8,43.2 133.9,43.7 132,44.2 130.1,44.8 128.7,45.2 126.8,45.3 125.8,46.5 125.7,46.6 125.8,46.8 125.9,46.8 127.5,47.5 129.5,46.3 131,45.8 132.6,45.2 134.1,44.5 135.6,43.7 135.7,43.7 135.8,43.6 136,43.6 134.4,44.6 132.7,45.6 131.1,46.7 129.8,47.6 127.8,48.4 127.2,49.9 127.2,50 127.2,50.2 127.3,50.2 129,50.7 130.4,49.3 131.6,48.4 133.4,47 135.2,45.4 136.8,43.7 136.8,43.9 136.9,44 137,44.1 L 137.1,44.2 C 136.1,46.3 135,48.3 134,50.4 133.6,51.2 132.2,53 133.2,53.8 133.3,53.9 133.4,53.9 133.5,53.8 136,51.4 136.3,47.9 137.6,44.9 137.3,46.9 137,48.8 136.6,50.8 136.4,52.2 135.7,54 136.4,55.4 136.5,55.5 136.6,55.5 136.7,55.4 138,54.2 137.8,51.9 137.9,50.3 138,48.6 138.1,46.9 137.9,45.3 137.9,45.2 137.9,45.1 138,44.9 138.2,46.8 138.5,48.7 138.7,50.6 138.9,52.2 138.8,54.3 140,55.5 140.1,55.6 140.2,55.6 140.3,55.5 141.4,54.2 140.8,52.3 140.4,50.8 139.9,48.5 139.2,46.2 138.3,44 138.5,43.9 138.7,43.8 138.8,43.6 140.6,45.3 142.5,47 144.3,48.7 145,49.3 146.3,51.1 147.4,50.4 147.5,50.3 147.5,50.2 147.5,50.1 145.9,47 142.6,45.8 140,43.7 141.8,44.6 143.6,45.4 145.4,46.3 146.7,46.9 148.3,48.1 149.8,47.8 149.9,47.8 150,47.6 149.9,47.5 149.1,45.9 146.9,45.5 145.4,45 143.8,44.4 142.2,43.9 140.6,43.6 140.5,43.5 140.4,43.5 140.3,43.4 142.2,43.7 144.1,44 146,44.3 147.7,44.2 149.7,44.8 151.2,44.1 Z M 151.2,44.1" />
            <path fill="rgb(69, 69, 69)" d="M 144.5,45.6 C 144.4,45.5 144.2,45.6 144.1,45.7 143.7,45.5 143.3,45.4 142.9,45.2 143,44.9 143,44.6 143,44.3 143.4,44.4 143.8,44.4 144.1,44.6 L 144.1,44.6 C 144.1,44.8 144.2,45 144.4,45 144.6,45 144.8,44.9 144.8,44.7 144.8,44.5 144.7,44.3 144.5,44.3 144.3,44.3 144.2,44.4 144.1,44.5 143.7,44.3 143.3,44.3 142.9,44.2 142.9,43.9 142.9,43.6 142.8,43.3 L 142.8,43.3 C 143.3,43.2 143.7,43.2 144.2,43 144.3,43.1 144.4,43.2 144.5,43.2 144.7,43.2 144.8,43 144.8,42.8 144.8,42.6 144.6,42.5 144.4,42.5 144.2,42.5 144.1,42.7 144.1,42.9 L 144.1,42.9 C 143.7,43 143.2,43.1 142.7,43.1 142.7,42.9 142.6,42.8 142.6,42.6 142.5,42.4 142.5,42.3 142.4,42.1 143,42 143.6,41.8 144.1,41.6 144.2,41.7 144.3,41.8 144.4,41.7 144.6,41.7 144.7,41.5 144.7,41.3 144.7,41.1 144.5,41 144.3,41 144.1,41 144,41.2 144,41.4 L 144,41.5 C 143.4,41.7 142.8,41.8 142.2,41.9 142.1,41.6 142,41.4 141.9,41.1 142.4,40.9 143,40.7 143.5,40.6 L 143.5,40.6 C 143.6,40.8 143.8,40.9 144,40.8 144.2,40.7 144.3,40.5 144.2,40.3 144.1,40.1 143.9,40 143.7,40.1 143.6,40.2 143.5,40.3 143.5,40.5 143,40.5 142.6,40.7 142.2,40.8 142.1,40.8 142,40.9 141.9,40.9 141.8,40.7 141.7,40.6 141.7,40.4 142,40 142.4,39.6 142.8,39.3 L 142.8,39.3 C 142.9,39.4 143.2,39.4 143.3,39.3 143.4,39.2 143.4,38.9 143.3,38.8 143.2,38.7 142.9,38.7 142.8,38.8 142.7,38.9 142.7,39 142.7,39.2 142.3,39.5 141.9,39.9 141.6,40.3 141.4,40.1 141.3,39.9 141.1,39.7 141.2,39.6 141.2,39.5 141.3,39.5 141.6,39.1 141.9,38.8 142.1,38.4 142.2,38.5 142.4,38.4 142.5,38.3 142.6,38.2 142.6,37.9 142.5,37.8 142.4,37.7 142.1,37.7 142,37.8 141.9,37.9 141.9,38.2 142,38.3 L 142,38.3 C 141.7,38.8 141.4,39.2 141,39.6 L 141,39.6 140.9,39.5 C 140.7,39.4 140.5,39.2 140.3,39.1 140.7,38.6 141.1,38 141.4,37.3 141.5,37.3 141.7,37.2 141.7,37.1 141.8,36.9 141.7,36.7 141.6,36.6 141.4,36.5 141.2,36.6 141.1,36.7 141,36.9 141.1,37.1 141.2,37.2 L 141.2,37.2 C 140.9,37.8 140.5,38.4 140.1,38.9 139.9,38.8 139.7,38.7 139.5,38.6 L 139.5,38.6 C 139.7,37.9 139.9,37.3 140.1,36.6 L 140.2,36.6 C 140.4,36.6 140.6,36.5 140.6,36.3 140.6,36.1 140.5,35.9 140.3,35.9 140.1,35.9 139.9,36 139.9,36.2 139.9,36.3 139.9,36.4 140,36.5 139.7,37.1 139.5,37.8 139.3,38.5 139,38.4 138.6,38.2 138.3,38.1 L 138.3,38 C 138.4,37.5 138.6,36.9 138.8,36.4 L 138.8,36.4 C 139,36.4 139.2,36.3 139.2,36.1 139.2,35.9 139.1,35.7 138.9,35.7 138.7,35.7 138.5,35.8 138.5,36 138.5,36.2 138.5,36.3 138.7,36.4 138.5,36.8 138.3,37.3 138.2,37.7 138.2,37.8 138.1,38 138.1,38.1 137.9,38 137.7,38 137.5,37.9 137.5,37.8 137.5,37.7 137.5,37.6 137.4,37.1 137.4,36.7 137.2,36.2 137.3,36.1 137.4,36 137.4,35.9 137.4,35.7 137.2,35.6 137,35.6 136.8,35.6 136.7,35.8 136.7,36 136.7,36.2 136.9,36.3 137.1,36.3 L 137.1,36.3 C 137.3,36.8 137.3,37.3 137.4,37.9 137.2,37.9 137.1,37.8 137.1,37.8 L 137,37.8 C 136.8,37.8 136.7,37.8 136.5,37.8 136.4,37.3 136.2,36.8 136,36.3 136.1,36.2 136.1,36.1 136.1,36 136.1,35.8 135.9,35.7 135.7,35.7 135.5,35.7 135.4,35.9 135.4,36.1 135.4,36.3 135.6,36.4 135.8,36.4 L 135.9,36.4 C 136.1,36.9 136.2,37.4 136.4,37.9 136.1,37.9 135.8,38 135.5,38.1 135.3,37.7 135.2,37.4 135.1,37 L 135.1,37 C 135.3,36.9 135.3,36.7 135.2,36.5 135.1,36.3 134.9,36.3 134.7,36.4 134.5,36.5 134.5,36.7 134.6,36.9 134.7,37 134.8,37.1 135,37.1 135.1,37.5 135.2,37.9 135.4,38.2 135.2,38.3 135,38.4 134.8,38.5 134.5,38.1 134.1,37.8 133.8,37.5 133.8,37.4 133.8,37.3 133.8,37.2 133.7,37 133.5,37 133.3,37.1 133.1,37.2 133.1,37.4 133.2,37.6 133.3,37.8 133.5,37.8 133.7,37.7 L 133.8,37.6 C 134.1,37.9 134.4,38.3 134.7,38.6 134.3,38.8 134,39.2 133.7,39.5 133.4,39.2 133.1,38.9 132.7,38.7 132.8,38.6 132.8,38.4 132.7,38.3 132.6,38.2 132.3,38.1 132.2,38.3 132.1,38.4 132,38.7 132.2,38.8 132.3,38.9 132.6,39 132.7,38.8 L 132.7,38.8 C 133.1,39 133.4,39.3 133.7,39.7 133.5,39.9 133.4,40.1 133.3,40.4 132.9,40.1 132.4,39.8 131.9,39.6 131.9,39.5 131.9,39.4 131.8,39.3 131.7,39.2 131.4,39.2 131.3,39.3 131.2,39.4 131.2,39.7 131.3,39.8 131.4,39.9 131.7,39.9 131.8,39.8 131.8,39.8 131.8,39.7 131.9,39.7 132.4,40 132.8,40.2 133.3,40.6 133.2,40.8 133.1,41.1 133,41.4 132.5,41.3 132,41.1 131.5,40.9 L 131.5,40.9 C 131.6,40.7 131.5,40.5 131.3,40.4 131.1,40.3 130.9,40.4 130.8,40.6 130.7,40.8 130.8,41 131,41.1 131.1,41.2 131.3,41.1 131.4,41 131.9,41.2 132.4,41.4 132.9,41.6 132.8,41.9 132.7,42.3 132.7,42.6 132.2,42.5 131.8,42.4 131.3,42.1 L 131.3,42.1 C 131.3,41.9 131.2,41.7 131,41.7 130.8,41.7 130.6,41.8 130.6,42 130.6,42.2 130.7,42.4 130.9,42.4 131.1,42.4 131.2,42.4 131.3,42.2 131.7,42.4 132.2,42.6 132.6,42.7 L 132.7,42.7 C 132.7,42.9 132.7,43.1 132.7,43.2 132.6,43.2 132.6,43.2 132.5,43.2 132,43.2 131.6,43.2 131.1,43.3 131.1,43.2 130.9,43.1 130.8,43 130.6,43 130.4,43.1 130.4,43.3 130.4,43.5 130.5,43.7 130.7,43.7 130.9,43.7 131.1,43.6 131.1,43.4 L 131.1,43.4 C 131.6,43.3 132.1,43.3 132.6,43.3 132.6,43.6 132.6,43.9 132.7,44.2 132.1,44.2 131.5,44.3 130.9,44.4 130.8,44.3 130.7,44.2 130.6,44.2 130.4,44.2 130.2,44.3 130.2,44.5 130.2,44.7 130.3,44.9 130.5,44.9 130.7,44.9 130.9,44.8 130.9,44.6 L 130.9,44.5 C 131.5,44.4 132.1,44.3 132.6,44.3 132.6,44.6 132.7,44.9 132.8,45.2 132.4,45.4 131.9,45.6 131.4,45.7 L 131.4,45.7 C 131.3,45.5 131.1,45.5 130.9,45.6 130.7,45.7 130.7,45.9 130.8,46.1 130.9,46.3 131.1,46.3 131.3,46.2 131.4,46.1 131.5,46 131.5,45.8 132,45.7 132.4,45.5 132.8,45.3 132.8,45.3 132.9,45.3 132.9,45.2 133,45.4 133.1,45.7 133.2,45.9 132.8,46.2 132.5,46.6 132.2,47 132.1,47 132,47 131.9,47 131.7,47.1 131.7,47.3 131.8,47.5 131.9,47.7 132.1,47.7 132.3,47.6 132.5,47.5 132.5,47.3 132.4,47.1 L 132.3,47 C 132.6,46.6 133,46.3 133.3,46 133.4,46.2 133.6,46.5 133.8,46.7 L 133.8,46.7 C 133.8,46.8 133.9,46.8 134,46.9 133.7,47.2 133.4,47.6 133.1,47.9 133,47.8 132.8,47.8 132.7,47.9 132.6,48 132.5,48.3 132.7,48.4 132.8,48.5 133.1,48.6 133.2,48.4 133.3,48.3 133.4,48 133.2,47.9 L 133.2,47.9 C 133.4,47.5 133.7,47.2 134.1,46.9 134.3,47.1 134.6,47.3 134.8,47.4 134.6,47.7 134.4,48.1 134.2,48.5 134.1,48.5 134,48.5 133.9,48.6 133.8,48.8 133.8,49 134,49.1 134.2,49.2 134.4,49.2 134.5,49 134.6,48.8 134.6,48.6 134.4,48.5 134.4,48.5 134.3,48.5 134.3,48.4 134.5,48.1 134.7,47.7 134.9,47.4 135.2,47.6 135.5,47.7 135.8,47.8 135.7,48.1 135.6,48.5 135.4,48.8 L 135.4,48.8 C 135.2,48.7 135,48.8 134.9,49 134.8,49.2 134.9,49.4 135.1,49.5 135.3,49.6 135.5,49.5 135.6,49.3 135.6,49.2 135.6,49 135.5,48.9 135.7,48.6 135.8,48.2 135.9,47.9 136.1,48 136.2,48 136.3,48 136.3,48 136.4,48 136.5,48 136.4,48.5 136.4,48.9 136.2,49.3 L 136.2,49.3 C 136,49.3 135.8,49.4 135.8,49.6 135.8,49.8 135.9,50 136.1,50 136.3,50 136.5,49.9 136.5,49.7 136.5,49.5 136.4,49.4 136.3,49.3 136.5,48.9 136.6,48.4 136.6,48 L 136.6,48 C 136.7,48 136.9,48.1 137,48.1 137.2,48.1 137.5,48.1 137.7,48.1 L 137.7,48.1 C 137.7,48.6 137.7,49 137.8,49.5 137.7,49.5 137.6,49.7 137.5,49.8 137.5,50 137.6,50.2 137.8,50.2 138,50.2 138.2,50.1 138.2,49.9 138.2,49.7 138.1,49.5 137.9,49.5 L 137.9,49.5 C 137.8,49.1 137.8,48.6 137.8,48.1 138,48.1 138.3,48.1 138.5,48 138.6,48.5 138.8,49.1 139,49.6 138.9,49.7 138.9,49.8 138.9,49.9 138.9,50.1 139.1,50.2 139.3,50.2 139.5,50.2 139.6,50 139.6,49.8 139.6,49.6 139.4,49.5 139.2,49.5 L 139.1,49.5 C 138.9,49 138.7,48.5 138.6,47.9 138.9,47.8 139.3,47.7 139.6,47.6 139.8,48 139.9,48.4 139.9,48.9 L 139.9,48.9 C 139.7,49 139.6,49.2 139.7,49.4 139.8,49.6 140,49.7 140.2,49.6 140.4,49.5 140.5,49.3 140.4,49.1 140.3,49 140.2,48.9 140,48.9 140,48.5 139.8,48 139.7,47.6 139.9,47.5 140.1,47.4 140.3,47.4 140.6,47.9 140.9,48.4 141.3,48.8 141.2,48.9 141.2,49 141.3,49.1 141.4,49.3 141.6,49.3 141.8,49.3 142,49.2 142,49 142,48.8 141.9,48.6 141.7,48.6 141.5,48.6 141.5,48.6 141.4,48.6 141.4,48.7 141.1,48.2 140.7,47.8 140.5,47.3 140.8,47.1 141.1,46.9 141.4,46.7 141.7,46.9 142,47.2 142.4,47.3 142.3,47.4 142.4,47.6 142.5,47.7 142.6,47.8 142.9,47.8 143,47.7 143.1,47.6 143.1,47.3 143,47.2 142.9,47.1 142.6,47.1 142.5,47.2 L 142.5,47.2 C 142.2,47 141.9,46.8 141.6,46.6 141.9,46.4 142.1,46.1 142.3,45.9 142.7,46.1 143.1,46.4 143.5,46.6 143.5,46.7 143.5,46.8 143.6,46.9 143.7,47 144,47 144.1,46.9 144.2,46.8 144.2,46.5 144.1,46.4 144,46.3 143.7,46.3 143.6,46.4 143.6,46.4 143.6,46.5 143.5,46.5 143.1,46.3 142.8,46.1 142.4,45.8 142.6,45.5 142.7,45.3 142.8,44.9 143.2,45 143.6,45.2 143.9,45.3 L 143.9,45.3 C 143.8,45.5 143.9,45.7 144.1,45.8 144.3,45.9 144.5,45.8 144.6,45.6 144.7,45.9 144.6,45.7 144.5,45.6 Z M 144.5,45.6" />
            <path fill="rgb(226, 226, 226)" d="M 135.9,40.3 C 135.4,40.2 135.2,41 135.8,41.1 136.3,41.2 136.5,40.4 135.9,40.3 Z M 135.9,40.3" />
            <path fill="rgb(226, 226, 226)" d="M 137.6,39.8 C 137.1,39.7 136.9,40.5 137.4,40.6 138,40.7 138.2,39.9 137.6,39.8 Z M 137.6,39.8" />
            <path fill="rgb(226, 226, 226)" d="M 139.3,40.5 C 138.7,40.4 138.6,41.3 139.1,41.4 139.7,41.5 139.9,40.6 139.3,40.5 Z M 139.3,40.5" />
            <path fill="rgb(226, 226, 226)" d="M 140.7,41.7 C 140.2,41.6 140,42.4 140.5,42.5 141.1,42.6 141.3,41.8 140.7,41.7 Z M 140.7,41.7" />
            <path fill="rgb(226, 226, 226)" d="M 141.4,43.5 C 141.2,43.3 140.9,43.3 140.7,43.4 L 140.7,43.4 140.6,43.5 C 140.6,43.5 140.6,43.5 140.6,43.6 140.5,43.9 140.7,44.3 141,44.2 141,44.2 141,44.2 141.1,44.2 141.4,44.2 141.6,43.8 141.4,43.5 Z M 141.4,43.5" />
            <path fill="rgb(226, 226, 226)" d="M 140.7,45.1 C 140.1,45 139.9,46 140.5,46.1 141.2,46.3 141.4,45.3 140.7,45.1 Z M 140.7,45.1" />
            <path fill="rgb(226, 226, 226)" d="M 138.8,46.1 C 138.2,46 138.1,46.9 138.6,47 139.2,47 139.3,46.2 138.8,46.1 Z M 138.8,46.1" />
            <path fill="rgb(226, 226, 226)" d="M 136.7,45.6 C 136.2,45.5 136,46.3 136.6,46.4 137.1,46.5 137.2,45.7 136.7,45.6 Z M 136.7,45.6" />
            <path fill="rgb(226, 226, 226)" d="M 135.2,44.7 C 134.7,44.6 134.6,45.4 135.1,45.5 135.5,45.6 135.7,44.8 135.2,44.7 Z M 135.2,44.7" />
            <path fill="rgb(226, 226, 226)" d="M 134.6,43.1 C 134.1,43 133.9,43.8 134.4,43.9 135,44 135.1,43.2 134.6,43.1 Z M 134.6,43.1" />
            <path fill="rgb(226, 226, 226)" d="M 134.9,41.4 C 134.4,41.3 134.2,42.1 134.8,42.2 135.3,42.3 135.5,41.5 134.9,41.4 Z M 134.9,41.4" />
            <path fill="rgb(226, 226, 226)" d="M 136.4,41.9 C 135.9,41.8 135.7,42.6 136.3,42.7 136.8,42.9 136.9,42 136.4,41.9 Z M 136.4,41.9" />
            <path fill="rgb(226, 226, 226)" d="M 137.9,41.1 C 137.3,41 137.1,41.9 137.7,42 138.3,42.1 138.5,41.2 137.9,41.1 Z M 137.9,41.1" />
            <path fill="rgb(226, 226, 226)" d="M 139.4,42.6 C 138.9,42.5 138.7,43.4 139.2,43.5 139.8,43.6 139.9,42.7 139.4,42.6 Z M 139.4,42.6" />
            <path fill="rgb(226, 226, 226)" d="M 139.2,44.1 C 138.6,44 138.5,44.9 139,45 139.6,45.1 139.8,44.2 139.2,44.1 Z M 139.2,44.1" />
            <path fill="rgb(226, 226, 226)" d="M 136.1,43.5 C 135.5,43.4 135.4,44.3 135.9,44.4 136.5,44.5 136.7,43.6 136.1,43.5 Z M 136.1,43.5" />
            <path fill="rgb(226, 226, 226)" d="M 137.7,44.3 C 137.2,44.2 137,45 137.6,45.1 138.1,45.2 138.2,44.4 137.7,44.3 Z M 137.7,44.3" />
            <path fill="rgb(226, 226, 226)" d="M 137.6,42.9 C 137.4,42.9 137.1,43 137.1,43.2 137.1,43.4 137.2,43.7 137.4,43.7 137.6,43.7 137.9,43.6 137.9,43.4 138,43.1 137.9,42.9 137.6,42.9 Z M 137.6,42.9" />
        </g>
    </g>
</svg>
