<?xml version="1.0" encoding="UTF-8"?>
<!DOCTYPE svg PUBLIC "-//W3C//DTD SVG 1.1//EN" "http://www.w3.org/Graphics/SVG/1.1/DTD/svg11.dtd">
<svg version="1.1" xmlns="http://www.w3.org/2000/svg" xmlns:xlink="http://www.w3.org/1999/xlink" width="179" height="138"  xml:space="preserve">
    <g id="blueberries-group">
        <g id="blossom3">
            <path fill="rgb(69, 69, 69)" d="M 4.2,109.8 C 4.3,110.1 4.7,109.9 4.6,109.6 5.7,109.1 6.9,108.6 8,108 8.1,108 8,107.8 7.9,107.9 6.7,108.3 5.6,109 4.5,109.5 4.5,109.4 4.1,109.6 4.2,109.8 Z M 4.2,109.8" />
            <path fill="rgb(69, 69, 69)" d="M 4.1,108.6 C 3.9,108.5 3.7,108.7 3.8,108.9 3.9,109.2 4.3,109 4.2,108.8 5.3,108.2 6.5,107.6 7.6,107 7.7,106.9 7.6,106.8 7.5,106.8 6.4,107.3 5.3,107.9 4.1,108.6 Z M 4.1,108.6" />
            <path fill="rgb(69, 69, 69)" d="M 3.6,107.7 C 3.5,107.6 3.5,107.6 3.4,107.6 L 3.4,107.6 C 3.2,107.6 3.1,107.8 3.3,108 L 3.3,108 C 3.4,108.1 3.6,108.1 3.7,107.9 3.7,107.9 3.7,107.9 3.7,107.8 4.8,107.3 6,106.7 7,106 7.1,105.9 7,105.8 6.9,105.9 5.8,106.4 4.7,107.1 3.6,107.7 Z M 3.6,107.7" />
            <path fill="rgb(69, 69, 69)" d="M 2.7,106.8 C 2.8,107.1 3.2,106.9 3.2,106.7 4.3,106.1 5.4,105.7 6.5,105.1 6.6,105 6.5,104.9 6.4,105 5.3,105.4 4.2,106 3.1,106.6 3,106.3 2.6,106.5 2.7,106.8 Z M 2.7,106.8" />
            <path fill="rgb(69, 69, 69)" d="M 2.2,105.8 C 2.3,106 2.7,105.9 2.7,105.7 3.8,105.2 4.9,104.8 6,104.3 6.1,104.3 6,104.1 6,104.1 4.9,104.4 3.7,104.9 2.7,105.5 2.4,105.3 2.1,105.5 2.2,105.8 Z M 2.2,105.8" />
            <path fill="rgb(69, 69, 69)" d="M 1.9,104.8 C 2,105.1 2.4,104.9 2.4,104.6 3.5,104.1 4.6,103.7 5.7,103.2 5.8,103.2 5.7,103 5.7,103.1 4.5,103.4 3.4,103.9 2.3,104.5 2.1,104.3 1.7,104.5 1.9,104.8 Z M 1.9,104.8" />
            <path fill="rgb(69, 69, 69)" d="M 1.4,103.7 C 1.4,104 2,104 1.9,103.6 L 1.9,103.6 C 3.1,103.1 4.3,102.7 5.5,102.1 5.6,102.1 5.5,101.9 5.5,102 4.3,102.2 3,102.9 1.9,103.4 1.6,103.3 1.4,103.4 1.4,103.7 Z M 1.4,103.7" />
            <path fill="rgb(69, 69, 69)" d="M 0.9,102.8 C 1,103.1 1.6,102.9 1.4,102.6 2.5,102 3.7,101.6 4.8,101.1 4.9,101.1 4.8,101 4.8,101 3.6,101.3 2.4,101.9 1.3,102.5 1.1,102.3 0.8,102.5 0.9,102.8 Z M 0.9,102.8" />
            <path fill="rgb(69, 69, 69)" d="M 0.3,101.7 C 0.4,102 0.8,101.8 0.8,101.6 1.9,101.1 3.1,100.6 4.1,100 4.2,99.9 4.1,99.7 4,99.8 2.9,100.4 1.8,100.9 0.7,101.5 0.6,101.2 0.1,101.4 0.3,101.7 Z M 0.3,101.7" />
            <path fill="rgb(69, 69, 69)" d="M 4.5,110.7 C 4.6,111 5,110.8 5,110.5 6.2,110 7.4,109.5 8.6,109 8.7,108.9 8.6,108.8 8.5,108.8 7.3,109.3 6.1,109.8 5,110.4 4.7,110.2 4.3,110.4 4.5,110.7 Z M 4.5,110.7" />
            <path fill="rgb(255, 236, 153)" d="M 8.7,106.6 C 8.3,105.4 7.9,104.3 7.4,103.1 6.8,101.7 5.6,99.2 3.8,99 3.7,98.9 3.6,98.9 3.5,99 2.5,101 3,103.8 4,105.6 5,107.4 6.6,109 8.7,109.2 8.8,109.3 9,109.3 9,109.1 9.3,108.3 9,107.5 8.7,106.6 Z M 8.7,106.6" />
            <path fill="rgb(254, 214, 92)" d="M 17.7,100.2 C 17.9,97.1 13.6,95.8 13.3,95.8 8.7,95 4.9,96.5 1.2,98.7 0.9,98.9 0.9,99.3 1.2,99.5 2.2,100 3.3,100.4 4.4,100.8 4.8,100.9 5,101.3 4.7,101.7 3.9,102.8 2.5,104.4 3.3,105.7 4.2,107.3 6,107 7.8,106.9 7.9,106.9 8,107 7.9,107.1 7.2,108.5 6.8,110 6.6,111.5 6.6,111.8 6.9,112.1 7.2,111.9 9.2,111 11.2,110.1 12.9,108.8 14.9,107.4 16.1,105.6 17.2,103.6 L 17.2,103.5 C 17.5,102.5 17.6,101.4 17.7,100.2 Z M 17.7,100.2" />
            <path fill="rgb(255, 236, 153)" d="M 7.4,98.1 C 7.2,98.2 7.3,98.5 7.5,98.4 9.9,97.1 13.4,97.6 15.7,99.2 14.8,99 13.6,99.3 12.6,99.5 11.2,99.9 9.8,100.4 8.4,101 8.2,101.1 8.3,101.3 8.5,101.3 9.7,100.8 10.9,100.3 12.2,99.9 13.3,99.6 14.6,99.2 15.8,99.5 14.3,101.5 12.5,103.1 10.3,104.3 10.1,104.4 10.2,104.7 10.4,104.6 12.6,103.4 14.5,101.8 16,99.8 15.6,102.8 13.8,105.2 11.3,106.9 11.1,107 11.3,107.3 11.5,107.2 14.5,105.1 16.1,102.6 16.4,99.3 16.4,99.1 11.9,95.6 7.4,98.1 Z M 7.4,98.1" />
        </g>
        <g id="blossom2">
            <path fill="rgb(69, 69, 69)" d="M 9.6,134.6 C 9.8,134.8 10.1,134.5 10,134.3 10.9,133.5 11.9,132.8 12.7,131.9 12.8,131.8 12.7,131.7 12.6,131.8 11.7,132.5 10.8,133.4 9.9,134.2 9.6,134.2 9.4,134.4 9.6,134.6 Z M 9.6,134.6" />
            <path fill="rgb(69, 69, 69)" d="M 9.1,133.5 C 8.9,133.5 8.7,133.7 8.9,133.9 9.1,134.1 9.4,133.9 9.2,133.6 10.1,132.7 10.9,131.9 11.8,131.1 11.9,131 11.8,130.9 11.7,131 10.8,131.7 10,132.6 9.1,133.5 Z M 9.1,133.5" />
            <path fill="rgb(69, 69, 69)" d="M 8.4,132.8 C 8.3,132.7 8.2,132.7 8.2,132.8 L 8.2,132.8 C 8.1,132.9 8,133.1 8.2,133.2 L 8.2,133.2 C 8.3,133.3 8.5,133.2 8.6,133 8.6,133 8.6,133 8.6,132.9 9.5,132.1 10.4,131.3 11.2,130.4 11.3,130.3 11.1,130.2 11.1,130.3 10.1,131.1 9.2,132 8.4,132.8 Z M 8.4,132.8" />
            <path fill="rgb(69, 69, 69)" d="M 7.3,132.3 C 7.5,132.5 7.8,132.3 7.7,132 8.5,131.2 9.4,130.5 10.2,129.6 10.3,129.5 10.2,129.4 10.1,129.5 9.2,130.2 8.3,131 7.5,131.8 7.4,131.8 7.1,132.1 7.3,132.3 Z M 7.3,132.3" />
            <path fill="rgb(69, 69, 69)" d="M 6.6,131.5 C 6.8,131.7 7.1,131.5 7,131.3 7.9,130.6 8.8,129.9 9.6,129.1 9.7,129 9.6,128.9 9.5,129 8.6,129.5 7.7,130.4 6.9,131.1 6.7,131 6.4,131.3 6.6,131.5 Z M 6.6,131.5" />
            <path fill="rgb(69, 69, 69)" d="M 6,130.7 C 6.2,130.9 6.5,130.7 6.4,130.4 7.3,129.7 8.2,129 9.1,128.2 9.2,128.1 9.1,128 9,128.1 8,128.7 7.1,129.5 6.3,130.3 6.1,130.2 5.8,130.4 6,130.7 Z M 6,130.7" />
            <path fill="rgb(69, 69, 69)" d="M 5.3,129.8 C 5.4,130.1 5.9,129.9 5.7,129.6 L 5.7,129.6 C 6.6,128.8 7.6,128.1 8.6,127.3 8.7,127.2 8.6,127.1 8.5,127.2 7.4,127.8 6.4,128.7 5.6,129.5 5.4,129.4 5.2,129.6 5.3,129.8 Z M 5.3,129.8" />
            <path fill="rgb(69, 69, 69)" d="M 4.6,129.1 C 4.8,129.4 5.2,129 5,128.7 5.9,127.9 6.8,127.2 7.7,126.4 7.8,126.4 7.7,126.3 7.6,126.3 6.6,126.9 5.6,127.8 4.8,128.6 4.6,128.6 4.4,128.9 4.6,129.1 Z M 4.6,129.1" />
            <path fill="rgb(69, 69, 69)" d="M 3.7,128.3 C 3.9,128.5 4.2,128.3 4.1,128.1 5,127.4 5.9,126.5 6.7,125.7 6.8,125.6 6.7,125.4 6.6,125.5 5.8,126.3 4.9,127.1 4,127.9 3.8,127.8 3.5,128.1 3.7,128.3 Z M 3.7,128.3" />
            <path fill="rgb(69, 69, 69)" d="M 10,135.3 C 10.2,135.5 10.5,135.3 10.4,135 11.4,134.3 12.3,133.4 13.3,132.6 13.4,132.5 13.3,132.4 13.2,132.5 12.3,133.3 11.3,134.1 10.4,134.9 10.1,134.8 9.8,135.1 10,135.3 Z M 10,135.3" />
            <path fill="rgb(255, 236, 153)" d="M 12.8,130.4 C 12.1,129.4 11.4,128.5 10.7,127.6 9.7,126.5 8,124.6 6.3,124.9 6.2,124.9 6.1,124.9 6.1,125 5.8,127 6.9,129.5 8.4,130.9 9.8,132.2 11.7,133.3 13.7,132.9 13.8,133 14,132.9 14,132.8 13.7,131.8 13.3,131.1 12.8,130.4 Z M 12.8,130.4" />
            <path fill="rgb(254, 214, 92)" d="M 19.2,122.1 C 18.5,119.2 14.2,119.3 13.9,119.3 9.5,119.8 6.4,122.3 3.6,125.3 3.4,125.5 3.5,125.9 3.8,126 4.9,126.2 6,126.3 7.1,126.3 7.5,126.3 7.8,126.6 7.6,127 7.1,128.2 6.3,130 7.4,131.1 8.7,132.3 10.2,131.5 11.9,131 12,131 12.1,131.1 12.1,131.1 11.8,132.6 11.9,134.1 12.2,135.5 12.3,135.8 12.6,135.9 12.9,135.7 14.5,134.4 16,133 17.3,131.3 18.7,129.4 19.4,127.5 19.8,125.4 L 19.8,125.3 C 19.7,124.3 19.5,123.2 19.2,122.1 Z M 19.2,122.1" />
            <path fill="rgb(255, 236, 153)" d="M 9.2,123 C 9.1,123.1 9.3,123.4 9.4,123.2 11.3,121.3 14.6,120.8 17.1,121.6 16.2,121.6 15.2,122.2 14.3,122.8 13.1,123.5 12,124.4 10.9,125.3 10.8,125.4 10.9,125.6 11.1,125.5 12.1,124.7 13,123.9 14.1,123.2 15,122.6 16.1,121.9 17.2,121.8 16.4,124 15.2,126 13.5,127.7 13.4,127.8 13.6,128.1 13.7,127.9 15.4,126.2 16.6,124.2 17.5,122 17.9,124.8 17,127.6 15.2,129.8 15.1,130 15.3,130.1 15.5,130 17.7,127.2 18.5,124.5 17.8,121.5 17.7,121.5 12.7,119.5 9.2,123 Z M 9.2,123" />
        </g>
        <g id="blossom1">
            <path fill="rgb(69, 69, 69)" d="M 39.9,137.6 C 40.1,137.6 40.2,137.3 39.9,137.2 40,136.2 40.1,135.2 40.1,134.2 40.1,134.1 40,134.1 40,134.2 39.9,135.2 39.9,136.2 39.9,137.2 39.7,137.3 39.7,137.6 39.9,137.6 Z M 39.9,137.6" />
            <path fill="rgb(69, 69, 69)" d="M 39,137.2 C 38.9,137.3 38.9,137.5 39.1,137.5 39.3,137.5 39.4,137.2 39.2,137.1 39.2,136.1 39.2,135.1 39.2,134.1 39.2,134 39.1,134 39.1,134.1 38.9,135.1 38.9,136.2 39,137.2 Z M 39,137.2" />
            <path fill="rgb(69, 69, 69)" d="M 38.1,137.2 C 38,137.2 38,137.2 37.9,137.3 L 37.9,137.3 C 37.9,137.4 38,137.6 38.1,137.5 L 38.1,137.5 C 38.2,137.5 38.3,137.3 38.2,137.2 L 38.2,137.2 C 38.2,136.2 38.3,135.2 38.2,134.2 38.2,134.1 38.1,134.1 38.1,134.2 38.1,135.2 38.1,136.2 38.1,137.2 Z M 38.1,137.2" />
            <path fill="rgb(69, 69, 69)" d="M 37.2,137.5 C 37.4,137.5 37.5,137.2 37.3,137.1 37.3,136.1 37.4,135.2 37.4,134.2 37.4,134.1 37.3,134.1 37.3,134.2 37.1,135.1 37.2,136.1 37.2,137.1 36.9,137.2 36.9,137.5 37.2,137.5 Z M 37.2,137.5" />
            <path fill="rgb(69, 69, 69)" d="M 36.3,137.5 C 36.5,137.5 36.6,137.2 36.4,137.1 36.5,136.2 36.6,135.2 36.7,134.3 36.7,134.2 36.6,134.2 36.6,134.3 36.4,135.2 36.3,136.2 36.3,137.1 36,137.1 36,137.5 36.3,137.5 Z M 36.3,137.5" />
            <path fill="rgb(69, 69, 69)" d="M 35.4,137.3 C 35.6,137.3 35.7,137 35.5,136.9 35.6,135.9 35.7,135 35.8,134 35.8,133.9 35.7,133.9 35.7,134 35.5,134.9 35.4,135.9 35.4,136.9 35.2,137 35.2,137.3 35.4,137.3 Z M 35.4,137.3" />
            <path fill="rgb(69, 69, 69)" d="M 34.5,137.2 C 34.7,137.3 34.9,136.9 34.6,136.8 L 34.6,136.8 C 34.7,135.8 34.9,134.8 34.9,133.7 34.9,133.6 34.8,133.6 34.8,133.7 34.5,134.7 34.4,135.8 34.4,136.8 34.3,137 34.3,137.2 34.5,137.2 Z M 34.5,137.2" />
            <path fill="rgb(69, 69, 69)" d="M 33.7,137.3 C 34,137.3 34,136.9 33.7,136.8 33.7,135.8 33.9,134.8 33.9,133.8 33.9,133.7 33.8,133.7 33.8,133.8 33.5,134.8 33.5,135.8 33.5,136.8 33.4,137 33.4,137.2 33.7,137.3 Z M 33.7,137.3" />
            <path fill="rgb(69, 69, 69)" d="M 32.7,137.3 C 32.9,137.3 33,137 32.8,136.9 32.9,135.9 32.9,134.9 32.9,133.9 32.9,133.8 32.7,133.8 32.7,133.9 32.7,134.9 32.7,135.9 32.6,136.8 32.4,136.9 32.4,137.3 32.7,137.3 Z M 32.7,137.3" />
            <path fill="rgb(69, 69, 69)" d="M 40.5,137.8 C 40.8,137.8 40.8,137.5 40.6,137.4 40.7,136.4 40.8,135.3 40.9,134.3 40.9,134.2 40.7,134.2 40.7,134.3 40.6,135.3 40.5,136.4 40.5,137.4 40.3,137.4 40.3,137.7 40.5,137.8 Z M 40.5,137.8" />
            <path fill="rgb(255, 236, 153)" d="M 41.3,133.9 C 40.7,133.4 40,133.3 39.3,133.2 38.3,133 37.4,132.9 36.4,132.8 35.2,132.7 33,132.6 32.2,133.8 32.1,133.8 32.1,133.9 32.1,134 33.1,135.4 35.3,136.2 36.9,136.1 38.5,136 40.3,135.6 41.2,134.2 41.3,134.2 41.4,134 41.3,133.9 Z M 41.3,133.9" />
            <path fill="rgb(254, 214, 92)" d="M 38.2,124.5 C 36.1,123.1 33.6,125.7 33.4,125.9 31.1,128.8 30.7,132.1 30.9,135.5 30.9,135.8 31.2,135.9 31.4,135.8 32.1,135.3 32.8,134.7 33.5,134 33.8,133.8 34.1,133.8 34.2,134.1 34.7,135.1 35.2,136.6 36.5,136.6 37.9,136.6 38.4,135.2 39.1,133.9 39.1,133.8 39.2,133.8 39.3,133.9 40,135 40.9,135.8 41.9,136.5 42.1,136.6 42.4,136.5 42.4,136.2 42.5,134.5 42.7,132.7 42.4,131 42.1,129.1 41.4,127.5 40.4,126.1 40.4,126.1 40.4,126.1 40.3,126 39.8,125.5 39,125 38.2,124.5 Z M 38.2,124.5" />
            <path fill="rgb(255, 236, 153)" d="M 32.8,130.9 C 32.8,131.1 33.1,131.1 33.1,130.9 33.1,128.7 34.8,126.4 36.7,125.5 36.2,126 36,127 35.8,127.8 35.5,128.9 35.4,130.1 35.3,131.3 35.3,131.5 35.5,131.5 35.5,131.3 35.6,130.3 35.7,129.2 35.9,128.2 36.1,127.3 36.3,126.3 36.9,125.5 37.7,127.3 38.2,129.2 38.2,131.2 38.2,131.4 38.5,131.4 38.5,131.2 38.5,129.2 38.1,127.3 37.2,125.5 39.1,126.9 40.2,129.1 40.4,131.5 40.4,131.7 40.7,131.6 40.7,131.4 40.3,128.5 39.3,126.4 37,125 36.9,125 32.8,126.8 32.8,130.9 Z M 32.8,130.9" />
        </g>
        <g id="stem">
            <path fill="rgb(124, 120, 43)" d="M 49.8,70.5 C 49.2,70.4 48.5,70.3 47.9,70.3 46.8,72.4 45.7,75.9 45.1,77.4 41.9,82.5 39.5,85.4 34.7,89.1 30.7,92.2 20.7,97.5 20.3,97.7 17.6,99.2 17.2,94.8 16.3,94.7 15,94.6 14.5,96.6 15.2,97.6 13.6,98.7 13.3,101 15,102.2 16.1,103 17.2,101.8 17.5,102.5 18.7,105.1 20.5,103.3 20.5,103.2 20.5,102.6 20,102.7 19.8,102.1 19.1,99.2 20.1,98.7 21.6,97.8 30.1,93.1 36.7,90.7 43.4,82.1 L 43.4,82.1 C 40.7,87.4 38.6,92.1 35.5,97.1 32.8,101.5 29.9,105.7 26.9,110 24.8,113 21.8,116.3 19.4,119 17,120.7 12.5,116.9 12.4,117.1 12.1,117.7 11.9,118.2 12,118.9 12.1,119.6 12.8,120 12.9,120.5 13.2,121.7 12.2,123 13.3,124.1 15.6,126.3 16.1,125 17.8,125.1 19.6,125.2 19.3,127.7 21.5,125.4 21.6,125.3 18.6,122.5 19.5,120.6 19.7,120.2 20.6,119.2 20.8,119 20.9,118.9 21.3,118.5 21.3,118.5 25.5,114 30,107.7 33.3,102.8 36.4,98.2 39.6,92.8 41.6,88.5 34.7,102.8 36.9,118.8 36.9,119 37.2,123.3 31.6,125.6 31.4,125.8 30.7,126.3 30.1,128.4 33.1,128.8 34,128.9 34.8,127.5 35.6,127.8 36.2,128 35.8,130.1 37.5,130.2 38.9,130.3 39.4,127.4 40.7,127.3 42.4,127.2 43.6,127.1 43.6,125 43.6,123.9 38.8,123.4 37.8,121 36.3,106.7 40,93.9 45,81.1 46.9,77.6 48.4,74.1 49.8,70.5 Z M 49.8,70.5" />
        </g>
        <g id="blueberries">
            <path fill="rgb(69, 69, 69)" d="M 47.2,72.6 C 47,73.3 46.9,74 46.7,74.7 46.1,76.8 45.4,78.9 44.8,80.9 35.9,84.4 26.7,86.4 17.2,87.9 16.7,88 16.8,88.7 17.3,88.7 26.3,88.2 35.4,86.1 44.2,82.8 40.6,93 35.7,102.5 30.3,112 30,112.6 30.8,113 31.2,112.5 39.7,100.8 45.7,87 49.4,72.5 L 47.2,72.6 Z M 47.2,72.6" />
            <path fill="rgb(173, 216, 219)" d="M 33.3,109.1 C 35.7,109.5 38,107.9 38.4,105.5 38.8,103.1 37.2,100.8 34.8,100.4 32.4,100 30.1,101.6 29.7,104 29.3,106.3 30.9,108.7 33.3,109.1 Z M 33.3,109.1" />
            <path fill="rgb(173, 216, 219)" d="M 35.6,95.6 C 41,96.5 42.5,88.1 37,87.2 31.6,86.3 30.2,94.7 35.6,95.6 Z M 35.6,95.6" />
            <path fill="rgb(211, 104, 149)" d="M 28.7,100 L 28.7,100 C 28.6,100 28.5,100 28.5,100.1 28.6,100.1 28.6,100 28.7,100 Z M 28.7,100" />
            <path fill="rgb(143, 184, 189)" d="M 27.2,100.9 C 28,101.5 28.9,102 30,101.7 30.5,101.6 31.1,101.4 31.5,101.1 31.8,100.9 32.1,100.6 32.3,100.3 34,98.7 33.4,95.9 31.4,94.8 31.3,94.8 31.2,94.7 31.2,94.7 30.4,94.3 29.3,94.3 28.4,94.6 27.1,95.1 26.5,96.1 26.1,97.3 26.1,97.4 26,97.5 26,97.6 25.7,98.7 26.3,100.2 27.2,100.9 Z M 27.2,100.9" />
            <path fill="rgb(143, 184, 189)" d="M 38.6,102.9 C 39.4,105 42,105.4 43.4,103.7 44.1,103.1 44.6,102.2 44.4,101.1 44.3,99.7 43.2,98.5 41.8,98.3 40.4,98.1 39,98.8 38.4,100.1 38.1,101.1 38.2,102.1 38.6,102.9 Z M 38.6,102.9" />
            <path fill="rgb(143, 184, 189)" d="M 45.4,96.3 C 49.7,97 50.8,90.4 46.5,89.7 42.2,89 41.1,95.6 45.4,96.3 Z M 45.4,96.3" />
            <path fill="rgb(184, 223, 195)" d="M 33.5,101.2 C 35.3,101.5 37,100.3 37.3,98.5 37.6,96.7 36.4,95 34.6,94.7 32.8,94.4 31.1,95.6 30.8,97.4 30.5,99.2 31.7,100.9 33.5,101.2 Z M 33.5,101.2" />
            <path fill="rgb(184, 223, 195)" d="M 27.8,108.7 C 29.5,109 31.2,107.8 31.4,106.1 31.7,104.4 30.5,102.7 28.8,102.5 27.1,102.2 25.4,103.4 25.2,105.1 24.9,106.8 26.1,108.4 27.8,108.7 Z M 27.8,108.7" />
            <path fill="rgb(184, 223, 195)" d="M 38.9,97.4 C 42.3,98 43.3,92.7 39.8,92.1 36.4,91.5 35.5,96.9 38.9,97.4 Z M 38.9,97.4" />
            <path fill="rgb(184, 223, 195)" d="M 42.1,90.6 L 42.2,90.6 C 44,89.9 44.4,87.5 42.9,86.3 41.3,85 39.2,86 38.7,87.8 L 38.7,87.9 C 38.3,89.7 40.5,91.3 42.1,90.6 Z M 42.1,90.6" />
            <path fill="rgb(143, 184, 189)" d="M 36.5,103.1 C 39.8,103.7 40.7,98.5 37.4,97.9 34.1,97.3 33.2,102.5 36.5,103.1 Z M 36.5,103.1" />
            <path fill="rgb(184, 223, 195)" d="M 28.1,116 C 29.9,116.3 31.6,115.1 31.9,113.3 32.2,111.5 31,109.8 29.2,109.5 27.4,109.2 25.7,110.4 25.4,112.2 25.1,114 26.4,115.7 28.1,116 Z M 28.1,116" />
            <path fill="rgb(184, 223, 195)" d="M 36.4,112 C 39.8,112.6 40.8,107.3 37.3,106.7 33.9,106.1 32.9,111.5 36.4,112 Z M 36.4,112" />
            <path fill="rgb(143, 184, 189)" d="M 31.1,117.9 C 34.4,118.5 35.3,113.3 32,112.7 28.7,112.1 27.8,117.3 31.1,117.9 Z M 31.1,117.9" />
            <path fill="rgb(143, 184, 189)" d="M 32.2,86.1 C 32.5,89.5 38,89.1 37.6,85.6 37.5,84.4 36.6,83.3 35.3,83.1 33.6,82.8 32,84.3 32.2,86.1 Z M 32.2,86.1" />
            <path fill="rgb(143, 184, 189)" d="M 29,92.2 C 29.3,95.6 34.8,95.2 34.4,91.7 34.3,90.5 33.4,89.4 32.1,89.2 30.4,89 28.8,90.5 29,92.2 Z M 29,92.2" />
            <path fill="rgb(173, 216, 219)" d="M 20.5,89.1 C 21.3,90.6 23.3,91.1 24.7,90.3 26.2,89.5 26.7,87.5 25.9,86.1 25.1,84.6 23.1,84.1 21.7,84.9 20.3,85.7 19.7,87.6 20.5,89.1 Z M 20.5,89.1" />
            <path fill="rgb(173, 216, 219)" d="M 28.9,84.4 C 30.8,87.8 36,84.8 34.1,81.5 32.2,78.1 27,81 28.9,84.4 Z M 28.9,84.4" />
            <path fill="rgb(211, 104, 149)" d="M 23.5,82.6 C 23.4,82.6 23.4,82.6 23.5,82.6 23.4,82.5 23.4,82.5 23.4,82.5 23.4,82.5 23.4,82.6 23.5,82.6 Z M 23.5,82.6" />
            <path fill="rgb(143, 184, 189)" d="M 22.3,82.1 C 22.3,82.8 22.5,83.5 23.1,84 23.4,84.3 23.7,84.5 24.1,84.6 24.4,84.7 24.6,84.7 24.9,84.7 26.5,84.9 27.8,83.3 27.5,81.8 27.5,81.7 27.5,81.7 27.5,81.6 27.4,81 26.9,80.4 26.3,80 25.5,79.5 24.7,79.6 23.8,80 23.7,80 23.7,80.1 23.6,80.1 22.8,80.3 22.3,81.4 22.3,82.1 Z M 22.3,82.1" />
            <path fill="rgb(184, 223, 195)" d="M 24.9,85.7 C 25.5,86.8 26.9,87.2 28,86.6 29.1,86 29.5,84.6 28.9,83.5 28.3,82.4 26.9,82 25.8,82.6 24.7,83.2 24.3,84.6 24.9,85.7 Z M 24.9,85.7" />
            <path fill="rgb(184, 223, 195)" d="M 18.3,85.9 C 18.9,87 20.3,87.3 21.3,86.8 22.4,86.2 22.7,84.8 22.2,83.8 21.6,82.7 20.2,82.4 19.2,82.9 18.1,83.5 17.7,84.9 18.3,85.9 Z M 18.3,85.9" />
            <path fill="rgb(184, 223, 195)" d="M 29.4,87 C 30.6,89.1 33.9,87.3 32.7,85.1 31.5,83 28.2,84.9 29.4,87 Z M 29.4,87" />
            <path fill="rgb(184, 223, 195)" d="M 34.5,85.7 C 34.5,85.8 34.6,85.8 34.5,85.7 35.7,86.4 37.3,85.6 37.3,84.2 37.3,82.8 35.8,82.1 34.6,82.6 L 34.5,82.6 C 33.3,83.3 33.4,85.1 34.5,85.7 Z M 34.5,85.7" />
            <path fill="rgb(143, 184, 189)" d="M 25.2,88.2 C 26.4,90.3 29.6,88.5 28.4,86.4 27.3,84.3 24.1,86.1 25.2,88.2 Z M 25.2,88.2" />
            <path fill="rgb(184, 223, 195)" d="M 14.5,89.3 C 15.1,90.4 16.5,90.8 17.6,90.2 18.7,89.6 19.1,88.2 18.5,87.1 17.9,86 16.5,85.6 15.4,86.2 14.2,86.8 13.8,88.2 14.5,89.3 Z M 14.5,89.3" />
            <path fill="rgb(184, 223, 195)" d="M 20.3,92.1 C 21.5,94.2 24.8,92.4 23.6,90.2 22.4,88.1 19.1,89.9 20.3,92.1 Z M 20.3,92.1" />
            <path fill="rgb(143, 184, 189)" d="M 14.8,91.8 C 16,93.9 19.2,92.1 18,90 16.8,87.9 13.6,89.7 14.8,91.8 Z M 14.8,91.8" />
            <path fill="rgb(143, 184, 189)" d="M 27.8,79.3 C 26.1,81 28.7,83.8 30.4,82.1 31,81.5 31.2,80.6 30.8,79.8 30.2,78.7 28.7,78.4 27.8,79.3 Z M 27.8,79.3" />
            <path fill="rgb(143, 184, 189)" d="M 38.3,86.1 C 38.7,87.7 40.5,88.5 42,87.7 43.2,87 43.6,85.5 43,84.3 42.3,83.1 40.9,82.7 39.7,83.3 38.6,83.7 38,85 38.3,86.1 Z M 38.3,86.1" />
        </g>
        <g id="leaves">
            <path fill="rgb(124, 120, 43)" d="M 48.7,72.6 L 48.7,72.6 C 48.9,72.4 43.8,71.4 41.8,71.4 39.3,71.3 36.7,72.1 34.2,72.8 34.1,72.8 34,72.9 33.9,72.9 32.3,73.1 30.9,73.9 29.6,75 27.4,76.5 23.9,82.5 24.2,82.7 28.7,85.2 34.6,84.9 39.6,82.7 38.9,83.8 38.6,85 38.6,86.3 38.2,88.7 40,94.5 40.3,94.4 48.4,91.8 53.5,80 48.7,72.6 Z M 48.7,72.6" />
            <path fill="rgb(172, 171, 62)" d="M 46.1,73.6 L 46.1,73.6 C 46,73.5 45.9,73.5 45.9,73.6 44.8,74.4 43.7,75.1 42.6,75.7 41.4,75.5 40.2,74.8 39.3,73.7 39.3,73.7 39.3,73.7 39.2,73.7 39.1,73.7 39.1,73.7 39,73.7 38.9,73.8 38.9,73.9 39,73.9 39.9,75 40.9,75.6 42.1,75.9 42,75.9 42,76 41.9,76 L 41.8,76 C 41.8,76 41.8,76 41.8,76.1 41.2,76.4 40.6,76.7 39.9,77 37.9,76.8 36.5,76.1 35.4,74.9 35.4,74.9 35.4,74.9 35.3,74.9 35.2,74.9 35.2,74.9 35.1,74.9 35,75 35,75.1 35.1,75.1 36.1,76.2 37.5,76.9 39.3,77.2 38.4,77.6 37.5,78 36.6,78.3 35.2,78.1 34.1,77.9 33.1,76.8 33.1,76.8 33.1,76.8 33,76.8 32.9,76.8 32.9,76.8 32.8,76.8 32.7,76.9 32.7,77 32.8,77 33.7,78 34.6,78.3 35.8,78.5 34.1,79.1 32.3,79.6 30.6,79.9 30.5,79.9 30.5,80 30.5,80.1 30.5,80.2 30.6,80.3 30.7,80.2 31.9,80 33.1,79.7 34.3,79.3 33.8,79.9 33.5,80.6 33.2,81.2 33.1,81.4 33,81.6 33,81.7 33,81.8 33,81.9 33.1,81.9 33.2,81.9 33.3,81.9 33.3,81.8 33.4,81.6 33.5,81.5 33.5,81.3 33.8,80.6 34.2,79.7 35,79.1 L 35,79.1 C 36,78.8 37,78.4 38,78 37.4,78.8 36.7,80.1 36.6,81.1 36.6,81.2 36.7,81.3 36.8,81.3 36.9,81.3 37,81.2 37,81.1 37,79.9 38.2,78.2 38.7,77.7 39.1,77.5 39.6,77.3 40,77.1 L 40.1,77.1 C 40.5,76.9 40.8,76.7 41.2,76.6 40.3,77.8 39.6,79.5 39.9,80.1 39.9,80.2 40,80.2 40.1,80.2 40.2,80.2 40.2,80.1 40.2,80 40,79.6 40.9,77.3 42.1,76.3 42.3,76.2 42.5,76.1 42.7,75.9 L 42.7,75.9 C 43.9,75.2 45,74.5 46.1,73.8 46.1,73.8 46.2,73.7 46.1,73.6 Z M 46.1,73.6" />
            <path fill="rgb(172, 171, 62)" d="M 48.3,82.6 C 47.9,82.4 47,80.5 47,79.1 47.1,78.9 47.1,78.7 47.2,78.5 L 47.2,78.5 C 47.5,77.4 47.7,76.2 47.9,75 47.9,74.9 47.9,74.8 47.8,74.8 L 47.7,74.8 47.6,74.9 C 47.4,76 47.2,77.2 46.9,78.3 46,79 44.9,79.3 43.6,79.2 43.6,79.2 43.6,79.2 43.5,79.2 L 43.4,79.3 C 43.4,79.4 43.5,79.5 43.5,79.5 44.7,79.6 45.8,79.3 46.7,78.7 46.7,78.8 46.7,78.8 46.7,78.9 46.7,78.9 46.7,78.9 46.7,79 46.7,79 46.7,79 46.7,79.1 46.5,79.7 46.4,80.3 46.2,80.9 44.9,82 43.5,82.5 42.1,82.5 42.1,82.5 42.1,82.5 42,82.5 L 41.9,82.6 C 41.9,82.7 42,82.7 42.1,82.8 43.4,82.8 44.7,82.4 46,81.4 45.7,82.2 45.4,83 45.1,83.8 44.2,84.6 43.3,85.2 42,85.1 42,85.1 42,85.1 41.9,85.1 L 41.8,85.2 C 41.8,85.3 41.9,85.4 42,85.4 43.2,85.5 44,85 44.8,84.4 44.1,85.9 43.4,87.3 42.5,88.6 42.5,88.7 42.5,88.8 42.5,88.8 42.6,88.8 42.7,88.8 42.7,88.8 43.3,87.9 43.8,86.9 44.3,86 44.4,86.7 44.6,87.3 44.9,87.8 45,88 45,88.1 45.1,88.3 45.1,88.4 45.2,88.4 45.3,88.4 45.4,88.4 45.4,88.3 45.4,88.2 45.3,88.1 45.3,87.9 45.2,87.7 44.9,87.1 44.6,86.2 44.7,85.4 45.1,84.6 45.5,83.7 45.8,82.8 45.9,83.6 46.3,84.9 47,85.6 47.1,85.7 47.1,85.7 47.2,85.6 47.3,85.5 47.3,85.5 47.2,85.4 46.5,84.6 46.1,82.8 46.1,82.3 46.2,81.9 46.4,81.5 46.5,81.1 46.5,81.1 46.5,81.1 46.5,81 46.6,80.7 46.7,80.3 46.8,80 47,81.3 47.7,82.8 48.2,83 48.3,83 48.4,83 48.4,82.9 48.4,82.7 48.4,82.6 48.3,82.6 Z M 48.3,82.6" />
        </g>
    </g>
    <g id="pink-flower-group">
        <g id="pink-flower">
            <path fill="rgb(69, 69, 69)" d="M 85.8,103.5 C 85.5,103.5 85.2,103.5 84.9,103.6 85,104 85.1,104.4 85.3,104.8 85.5,105.6 86.4,117.5 86.6,118.3 87,120 87.3,121.7 87.6,123.4 88,126.3 88.2,129.3 88.2,132.2 88,132.2 87.9,132.2 87.7,132.2 86.9,132.4 86.4,133.1 86.5,133.9 86.7,134.7 87.4,135.2 88.2,135.1 89,134.9 89.5,134.2 89.4,133.4 89.3,132.9 88.9,132.5 88.5,132.3 88.7,126.3 87.4,109.3 85.8,103.5 Z M 85.8,103.5" />
            <path fill="rgb(69, 69, 69)" d="M 84.1,129.5 C 84.1,124.5 82.7,108.9 81.5,104.1 81.2,104.1 81,104.2 80.7,104.2 80.8,104.5 80.9,104.8 81,105.1 81.5,107 82.4,119.4 82.8,121.4 83.2,124.1 83.4,126.8 83.6,129.5 82.6,129.7 82,130.7 82.2,131.6 82.4,132.6 83.4,133.2 84.3,133 85.2,132.8 85.9,131.8 85.7,130.9 85.6,130.2 84.9,129.6 84.1,129.5 Z M 84.1,129.5" />
            <path fill="rgb(69, 69, 69)" d="M 79.8,131.4 L 79.8,131.4 C 78.5,126.1 77.5,109.7 78.2,104.2 77.9,104.3 77.6,104.3 77.3,104.3 76.7,109.7 77.7,126.3 79.2,131.6 78.7,131.9 78.5,132.5 78.6,133.1 78.8,133.9 79.5,134.4 80.3,134.3 81.1,134.1 81.6,133.4 81.5,132.6 81.4,131.8 80.6,131.3 79.8,131.4 Z M 79.8,131.4" />
            <path fill="rgb(69, 69, 69)" d="M 76.5,132.3 C 75.7,129.9 75,127.5 74.8,124.9 74.6,123.4 74.7,121.9 74.8,120.3 74.8,119.5 74.8,108.6 74.9,107.8 74.9,107.8 75,107 75,106.5 74.8,106.6 74.5,106.6 74.3,106.7 74.3,106.8 74.3,106.9 74.3,107 74.1,108.8 74.1,120.8 74.1,122.6 74.2,125.9 74.7,129.3 76,132.4 75.3,132.7 74.8,133.5 75,134.3 75.1,135.3 76,136 77,135.8 78,135.7 78.7,134.8 78.5,133.8 78.3,132.8 77.4,132.2 76.5,132.3 Z M 76.5,132.3" />
            <path fill="rgb(69, 69, 69)" d="M 89.2,103.4 C 88.8,103.4 88.4,103.5 88.1,103.5 88.9,106.1 90.5,119.7 91,122.4 91.6,125.4 91.9,128.5 91.6,131.6 L 91.5,131.6 C 90.4,131.8 89.8,132.8 90,133.9 90.2,135 91.2,135.6 92.3,135.4 93.4,135.2 94,134.2 93.8,133.1 93.6,132.3 93,131.7 92.2,131.6 92.5,129.1 92.3,126.5 92,124 91.6,120.9 90.3,106.5 89.2,103.4 Z M 89.2,103.4" />
            <path fill="rgb(69, 69, 69)" d="M 91.7,103.2 C 91.4,103.3 91,103.3 90.6,103.3 91.6,105.7 93.9,118.2 94.6,120.7 95.3,123.4 95.8,126.3 95.8,129.2 L 95.7,129.2 C 94.7,129.5 94.2,130.5 94.4,131.4 94.7,132.4 95.7,132.9 96.6,132.7 97.5,132.5 98.1,131.4 97.9,130.5 97.7,129.7 97,129.2 96.3,129.2 96.4,126.8 96,124.4 95.6,122.1 95.1,119.3 92.9,105.9 91.7,103.2 Z M 91.7,103.2" />
            <path fill="rgb(220, 82, 99)" d="M 106.5,101.9 C 103.5,97.3 98.9,93 93.8,90.4 79.5,83.2 71.6,97.6 67.1,103.8 63.6,108.4 61.9,114.3 64.3,119.8 64.9,121.1 66.3,123 68,122.7 69.8,122.4 70.9,120.8 72.6,120.3 75.3,119.5 77.8,122.6 79.5,124.2 84.2,128.3 87.8,124 90.4,120.2 95.5,112.7 103.9,123.7 108.5,117.7 111.6,113.6 108.9,105.6 106.5,101.9 Z M 106.5,101.9" />
            <path fill="rgb(247, 178, 179)" d="M 64.4,119.8 C 65,121.1 66.4,123 68.1,122.7 69.9,122.4 71,120.8 72.7,120.3 75.4,119.5 77.9,122.6 79.6,124.2 84.3,128.3 87.9,124 90.5,120.2 95.6,112.7 104,123.7 108.6,117.7 111.7,113.7 109,105.7 106.6,102 103.6,97.4 99,93.1 93.9,90.5 91.7,89.4 89.6,88.8 87.7,88.6 90.4,90.1 92.8,92.1 94.9,94.1 98.5,97.6 102,101.9 103.6,106.7 103.7,106.9 103.3,107.1 103.2,106.8 101,102.1 98.1,97.9 94.2,94.3 92.8,93 91.4,91.9 89.9,91 95,96.1 98.4,103.3 98.9,110 98.9,110.2 98.7,110.2 98.7,110 98,104.8 96.1,100 93.1,95.8 90.9,92.8 88.4,90.5 85.5,88.6 85.4,88.6 85.4,88.6 85.3,88.6 L 85.2,88.7 C 87,91.3 87.9,94.5 88.5,97.4 89.5,102.1 89.7,106.9 89.9,111.7 89.9,111.8 89.7,111.9 89.7,111.7 88.5,104.1 88.6,96.5 84.9,89.8 82.9,97.5 82.5,106.1 83.1,113.9 83.1,114.2 82.7,114.2 82.7,113.9 82.1,109.1 82.4,104.2 82.8,99.4 83,96.6 83.2,93.5 83.8,90.7 82.1,93.6 80.6,96.6 79.6,100 78.3,104.5 77.8,109.1 78.1,113.8 78.1,114 77.8,114.1 77.7,113.8 76.9,109.2 77.8,104.2 79,99.8 80.1,96.1 81.6,91.9 84.1,88.7 84.1,88.6 84,88.6 84,88.5 83.5,88.6 83.1,88.7 82.6,88.8 79.5,91.5 76.7,94.5 74.4,98.1 71.4,102.8 68.6,108 68.9,113.8 68.9,114 68.6,114.1 68.6,113.8 67.7,108.4 70.9,102.8 73.6,98.4 75.5,95.3 77.8,92.2 80.5,89.5 74.2,92.4 69.9,99.6 67,103.5 63.7,108.4 62,114.3 64.4,119.8 Z M 64.4,119.8" />
            <path fill="rgb(232, 123, 126)" d="M 73.1,117.2 C 74.2,119.3 75.9,121 77.5,122.8 78.1,123.3 78.7,123.8 79.2,124.2 84.6,128.2 88.9,123.8 92.1,119.8 92.8,118.9 99.2,107.1 93.1,98.8 91.6,96.7 88.7,89.8 85.4,88.8 87,91.3 87.9,94.4 88.5,97.2 89.5,101.9 89.7,106.7 89.9,111.5 89.9,111.6 89.7,111.7 89.7,111.5 88.5,103.9 88.6,96.3 84.9,89.6 82.9,97.3 82.5,105.9 83.1,113.7 83.1,114 82.7,114 82.7,113.7 82.1,108.9 82.4,104 82.8,99.2 83,96.4 83.2,93.3 83.8,90.5 82.1,93.4 80.6,96.4 79.6,99.8 78.3,104.3 77.8,108.9 78.1,113.6 78.1,113.8 77.8,113.9 77.7,113.6 76.9,109 77.8,104 79,99.6 80.1,95.9 81.6,91.7 84.1,88.5 83.2,88.6 82.3,89.2 81.3,90.4 77.5,95.4 73.1,100.6 71.9,106.6 71.4,110.4 71.4,114.2 73.1,117.2 Z M 73.1,117.2" />
        </g>
        <g id="pink-flower-leaves1">
            <path fill="rgb(174, 173, 86)" d="M 50.2,103.6 C 52.3,94.3 54.9,84.4 63.3,78.9 66.9,76.5 71.2,75.1 75.6,74.9 77.8,74.8 79.9,75 82.1,75.5 83.7,75.9 85.2,76.5 86.8,76.2 87,85.2 84.2,94.6 76.4,99.8 69,104.6 58.7,103.8 50.2,103.6 Z M 50.2,103.6" />
            <path fill="rgb(124, 120, 43)" d="M 49.7,104.5 C 58.9,104.7 70.2,105.6 77.9,99.6 85.1,94.1 87.8,84.8 87.3,76 87.3,76 81.7,74.2 79.2,73.9 77.2,73.7 75.1,73.8 73.1,74.1 69,74.7 65.2,76.6 61.6,78.8 50.4,86 49.4,104.5 49.7,104.5 Z M 56.9,100 C 57,100.6 57,101.1 56.9,101.7 56.8,102.4 56.5,103.1 56.2,103.7 54.5,103.7 52.8,103.6 51.1,103.6 52.8,102.2 54.8,101.1 56.9,100 Z M 56.6,103.8 C 57.4,102.7 57.7,101.1 57.5,99.7 58.8,99.1 60,98.4 61.3,97.8 61.4,97.7 61.6,97.7 61.7,97.6 61.4,98.5 61.2,99.5 60.9,100.4 60.5,101.6 60,102.7 59.5,103.8 58.4,103.8 57.5,103.8 56.6,103.8 Z M 59.9,103.8 C 61,101.9 62.2,99.4 62.3,97.2 63.6,96.5 65,95.8 66.3,95.1 65.7,97.9 65.1,100.9 63.9,103.6 62.6,103.7 61.2,103.7 59.9,103.8 Z M 64.4,103.5 C 65,102.5 65.2,101.3 65.6,100.2 66.1,98.4 66.6,96.6 67,94.8 L 67,94.8 C 68.1,94.2 69.3,93.6 70.4,92.9 69.8,96.4 69,99.7 68,103 66.7,103.2 65.6,103.4 64.4,103.5 Z M 68.3,102.9 C 69.5,99.5 70.4,96 70.9,92.5 71.4,92.2 72,91.9 72.5,91.5 73.1,91.1 73.7,90.7 74.4,90.3 73.6,94.2 72.9,98.1 71.9,101.9 70.7,102.3 69.6,102.7 68.3,102.9 Z M 72.3,101.8 C 73.7,98.1 74.7,93.9 74.9,90 76.2,89 77.5,88 78.7,86.9 78.3,89.1 78.1,91.4 77.6,93.6 77.1,95.9 76.4,98.1 75.7,100.3 74.6,100.8 73.4,101.3 72.3,101.8 Z M 76.3,99.8 C 76.3,99.8 76.2,99.8 76.2,99.9 77.8,95.7 79.1,90.8 79.2,86.3 79.5,86 79.8,85.7 80,85.5 L 80.1,85.4 C 81.1,84.4 82,83.3 82.9,82.2 82.2,87.4 80.9,92.3 79.4,97.3 78.5,98.1 77.5,99 76.3,99.8 Z M 80.1,96.5 C 82.1,91.7 83.2,86.4 83.7,81.3 83.7,81.2 83.7,81.2 83.7,81.1 84.8,79.7 85.8,78.1 86.7,76.6 86.8,83.7 85,91.2 80.1,96.5 Z M 75.6,74.9 C 77.8,74.8 79.9,75 82.1,75.5 83.5,75.8 84.8,76.3 86.2,76.3 85.3,77.8 84.4,79.2 83.4,80.6 79.7,78 74.8,76.2 70.3,75.9 71.9,75.3 73.7,75 75.6,74.9 Z M 69.4,76 C 71.9,76.5 74.4,76.9 76.8,77.9 78.9,78.7 80.9,79.9 82.9,81 81.9,82.3 80.9,83.5 79.8,84.7 75.6,80.9 70.1,78.6 64.4,78.3 65.9,77.4 67.6,76.6 69.4,76 Z M 63.3,78.9 C 63.3,78.9 63.4,78.9 63.3,78.9 63.4,78.9 63.5,78.9 63.5,78.9 69.4,79.2 74.8,81.2 79.3,85 78.2,86.2 77,87.2 75.7,88.3 73.2,86.3 70.2,85 67.2,84 64.8,83.2 61.9,82 59.3,82.1 60.5,81 61.8,79.9 63.3,78.9 Z M 58.8,82.8 C 64.5,83.1 70.8,85.3 75.4,88.5 74.4,89.3 73.4,90 72.3,90.7 67.6,87.8 62.1,86 56.6,85.6 57.3,84.7 58,83.8 58.8,82.8 Z M 56.3,86.3 C 61.9,87 66.9,88.4 71.8,91.1 71.2,91.5 70.7,91.8 70.1,92.1 69.4,92.5 68.7,92.9 67.9,93.3 64.7,92.4 61.5,91.7 58.2,90.9 56.7,90.5 55.3,90.2 53.9,90.7 54.6,89.2 55.4,87.7 56.3,86.3 Z M 53.6,91.7 C 55.7,90.6 58.7,91.8 60.7,92.3 62.9,92.8 65.1,93.3 67.3,93.8 65.9,94.6 64.6,95.3 63.2,96 61.3,95.2 59.1,94.8 57.1,94.5 55.6,94.3 54.1,94 52.6,94.3 53,93.4 53.3,92.5 53.6,91.7 Z M 52.5,94.9 C 56.1,94.7 58.8,96 62.3,96.5 61.1,97.1 60.5,97.5 59.3,98.1 58.7,98.4 58,98.8 57.3,99.1 57.2,98.9 53.2,98.7 51.3,98.8 51.7,97.5 52.1,96.2 52.5,94.9 Z M 51.2,99.4 C 52.8,99.4 54.4,99.4 56,99.7 53.9,100.8 51.8,102 50.2,103.6 L 50.2,103.6 C 50.5,102.2 50.9,100.8 51.2,99.4 Z M 51.2,99.4" />
            <path fill="rgb(174, 173, 86)" d="M 114.7,92.9 C 112.1,85.4 109.1,77.4 101.6,73.6 98.4,71.9 94.7,71.2 91,71.4 89.2,71.5 87.4,71.9 85.7,72.5 84.4,73 83.2,73.6 81.9,73.5 82.6,81 85.7,88.5 92.7,92.1 99.2,95.5 107.7,93.9 114.7,92.9 Z M 114.7,92.9" />
            <path fill="rgb(124, 120, 43)" d="M 103,73.4 C 99.9,71.9 96.5,70.7 93,70.5 91.3,70.4 89.6,70.6 87.9,70.9 85.9,71.3 81.3,73.4 81.4,73.4 81.8,80.7 84.9,88.2 91.4,92.2 98.4,96.4 107.7,94.7 115.3,93.6 115.5,93.6 113,78.3 103,73.4 Z M 114.1,93 C 112.7,93.2 111.3,93.4 109.9,93.6 109.6,93.1 109.3,92.6 109.1,92 109,91.5 108.9,91 108.9,90.6 110.7,91.2 112.5,92 114.1,93 Z M 107.2,93.9 C 106.7,93 106.1,92.1 105.7,91.2 105.3,90.5 105.1,89.7 104.7,88.9 104.8,88.9 104.9,89 105.1,89 106.2,89.4 107.3,89.8 108.4,90.3 108.4,91.5 108.7,92.7 109.5,93.6 108.7,93.7 108,93.8 107.2,93.9 Z M 103.3,94.1 C 102.1,92 101.3,89.6 100.5,87.3 101.7,87.8 102.9,88.2 104.1,88.7 104.4,90.5 105.6,92.5 106.7,93.9 105.6,94 104.5,94.1 103.3,94.1 Z M 100,94 C 98.8,91.3 97.8,88.6 97,85.8 98,86.2 99,86.6 100,87 L 100,87 C 100.5,88.5 101.1,90 101.7,91.4 102.1,92.3 102.4,93.2 103,94 102,94.1 101,94.1 100,94 Z M 96.6,93.5 C 95.4,90.4 94.5,87.2 93.5,84.1 94,84.4 94.6,84.7 95.2,85 95.7,85.2 96.1,85.4 96.6,85.6 97.4,88.5 98.4,91.3 99.7,94 98.6,93.9 97.6,93.7 96.6,93.5 Z M 93.3,92.4 C 92.5,90.6 91.8,88.8 91.1,87 90.5,85.2 90.1,83.4 89.6,81.6 90.7,82.4 91.8,83.2 93,83.9 93.5,87.2 94.8,90.6 96.2,93.5 95.3,93.2 94.3,92.8 93.3,92.4 Z M 89.9,90.2 C 88.2,86.2 86.6,82.2 85.6,78 86.4,78.9 87.3,79.7 88.2,80.4 L 88.3,80.5 C 88.6,80.7 88.8,80.9 89.1,81.1 89.6,84.8 91.1,88.7 92.9,92.1 L 92.8,92.1 C 91.7,91.6 90.7,90.9 89.9,90.2 Z M 81.9,73.7 C 82.8,74.9 83.8,76.1 84.8,77.2 L 84.8,77.3 C 85.7,81.5 87.1,85.8 89.2,89.6 84.7,85.8 82.5,79.8 81.9,73.7 Z M 95.6,71.6 C 91.8,72.3 88,74.2 85.1,76.7 84.1,75.7 83.2,74.6 82.4,73.4 83.5,73.3 84.6,72.8 85.7,72.4 87.4,71.8 89.2,71.4 91,71.3 92.6,71.3 94.1,71.4 95.6,71.6 Z M 100.7,73.1 C 96,73.9 91.7,76.2 88.5,79.8 87.5,78.9 86.5,78 85.6,77.1 87.1,76 88.7,74.9 90.4,74 92.3,73 94.3,72.4 96.4,71.7 97.8,72 99.3,72.5 100.7,73.1 Z M 105.2,75.9 C 103,76.1 100.7,77.3 98.8,78.2 96.4,79.3 94,80.6 92.1,82.5 91,81.8 89.9,81 88.8,80.1 92.2,76.5 96.5,74.3 101.4,73.5 101.4,73.5 101.5,73.5 101.5,73.4 101.5,73.4 101.5,73.4 101.6,73.4 102.9,74.3 104.1,75 105.2,75.9 Z M 107.8,78.6 C 103.3,79.4 98.9,81.5 95.2,84.3 94.2,83.8 93.3,83.3 92.4,82.7 96,79.6 101,77.1 105.7,76.4 106.5,77.1 107.1,77.9 107.8,78.6 Z M 110.4,82.6 C 109.2,82.4 108.1,82.7 106.9,83.2 104.3,84.1 101.7,85.1 99.1,86.1 98.5,85.8 97.8,85.6 97.2,85.3 96.7,85.1 96.2,84.8 95.7,84.6 99.6,81.9 103.6,80.2 108.2,79.2 109,80.2 109.8,81.4 110.4,82.6 Z M 111.8,85.3 C 110.6,85.2 109.3,85.6 108.1,85.9 106.4,86.3 104.7,86.8 103.2,87.7 102,87.2 100.8,86.7 99.6,86.2 101.4,85.6 103.2,85 105,84.4 106.7,83.8 109.1,82.6 110.9,83.3 111.2,84 111.5,84.6 111.8,85.3 Z M 113.3,89 C 111.8,89 108.4,89.6 108.4,89.8 107.8,89.6 107.2,89.4 106.7,89.1 105.6,88.7 105.1,88.5 104,88 106.9,87.3 109,85.9 112,85.8 112.5,86.9 112.9,87.9 113.3,89 Z M 114.7,92.9 L 114.7,92.9 C 113.2,91.7 111.4,90.9 109.5,90.2 110.8,89.8 112.1,89.6 113.5,89.5 114,90.6 114.4,91.8 114.7,92.9 Z M 114.7,92.9" />
            <path fill="rgb(174, 173, 86)" d="M 98.2,104.8 C 99.2,97 100,88.5 95,81.8 92.8,78.9 89.9,76.6 86.5,75.2 84.8,74.5 83.1,74 81.3,73.8 79.9,73.6 78.6,73.7 77.4,73 74.7,80 74.2,88.1 78.9,94.4 83.2,100.2 91.5,102.6 98.2,104.8 Z M 98.2,104.8" />
            <path fill="rgb(124, 120, 43)" d="M 96.2,82.2 C 94.1,79.4 91.6,76.9 88.6,75.2 87.1,74.4 85.5,73.8 83.9,73.4 81.9,72.9 77,72.7 77,72.7 74.1,79.4 73.6,87.5 77.7,93.8 82.1,100.7 91.2,103.2 98.4,105.6 98.6,105.7 103.1,91 96.2,82.2 Z M 97.6,104.6 C 96.3,104.2 95,103.7 93.6,103.3 93.6,102.7 93.5,102.1 93.6,101.5 93.7,101 93.9,100.6 94.1,100.1 95.3,101.5 96.6,102.9 97.6,104.6 Z M 91,102.3 C 90.9,101.3 90.8,100.3 90.8,99.2 90.8,98.4 90.9,97.6 90.9,96.8 91,96.9 91.1,97 91.2,97.1 92,98 92.8,98.8 93.6,99.7 93.1,100.7 92.8,102 93.1,103.1 92.5,102.9 91.7,102.6 91,102.3 Z M 87.5,100.8 C 87.3,98.4 87.7,95.9 88,93.5 88.8,94.4 89.7,95.4 90.6,96.3 90.1,98 90.3,100.3 90.6,102.1 89.5,101.7 88.5,101.3 87.5,100.8 Z M 84.6,99.3 C 84.7,96.4 85,93.5 85.6,90.7 86.3,91.5 87,92.3 87.7,93.1 L 87.7,93.1 C 87.5,94.6 87.3,96.2 87.2,97.8 87.1,98.8 87,99.7 87.2,100.7 86.3,100.3 85.4,99.8 84.6,99.3 Z M 81.7,97.3 C 82,94 82.6,90.8 83,87.5 83.4,88 83.7,88.5 84.1,89 84.4,89.4 84.7,89.8 85.1,90.2 84.5,93.1 84.2,96.1 84.2,99.1 83.4,98.5 82.5,98 81.7,97.3 Z M 79.3,94.9 C 79.4,93 79.5,91 79.7,89.1 79.9,87.2 80.4,85.4 80.7,83.6 81.3,84.8 82,86 82.8,87.1 81.8,90.2 81.4,93.8 81.5,97.1 80.7,96.4 80,95.7 79.3,94.9 Z M 77.2,91.5 C 77.4,87.2 77.8,82.9 78.7,78.7 79.1,79.8 79.5,80.9 80,82 80,82 80,82.1 80.1,82.1 80.2,82.4 80.4,82.7 80.5,83 79.3,86.6 78.9,90.7 79,94.5 79,94.5 79,94.4 78.9,94.4 78.2,93.4 77.6,92.5 77.2,91.5 Z M 77.3,73.2 C 77.6,74.7 77.9,76.2 78.3,77.6 L 78.2,77.7 C 77.2,81.9 76.5,86.3 76.7,90.6 74.5,85.2 75.2,78.9 77.3,73.2 Z M 90.5,77.4 C 86.9,76.4 82.5,76.4 78.9,77.4 78.5,76 78.2,74.7 77.9,73.2 79,73.6 80.1,73.6 81.3,73.7 83.1,73.9 84.8,74.4 86.5,75.1 87.9,75.7 89.3,76.5 90.5,77.4 Z M 94.3,81 C 89.8,79.6 84.9,79.8 80.4,81.6 79.9,80.4 79.4,79.1 79,77.9 80.9,77.6 82.7,77.2 84.6,77.2 86.8,77.2 88.8,77.5 90.9,77.8 92.2,78.7 93.3,79.8 94.3,81 Z M 97.1,85.4 C 95.1,84.6 92.5,84.7 90.4,84.6 87.7,84.5 85.1,84.6 82.5,85.5 81.8,84.3 81.2,83.2 80.6,81.9 85.2,80.2 90,80.1 94.7,81.6 L 94.8,81.6 C 94.8,81.6 94.8,81.6 94.8,81.7 95.8,82.9 96.5,84.1 97.1,85.4 Z M 98.3,89 C 93.9,87.7 89.1,87.6 84.6,88.6 84,87.7 83.4,86.9 82.8,86 87.4,84.8 92.9,84.8 97.4,86.2 97.7,87 98,88 98.3,89 Z M 98.9,93.7 C 98,93 96.7,92.8 95.5,92.7 92.8,92.4 90,92.1 87.3,91.8 86.8,91.3 86.4,90.8 86,90.2 85.6,89.8 85.3,89.3 85,88.9 89.6,88.2 94,88.5 98.5,89.5 98.7,90.9 98.8,92.3 98.9,93.7 Z M 98.9,96.7 C 97.8,96.1 96.5,95.9 95.3,95.6 93.6,95.3 91.8,94.9 90.1,95 89.2,94 88.4,93.1 87.5,92.1 89.4,92.4 91.2,92.6 93.1,92.8 94.9,93 97.5,93 98.8,94.4 99,95.2 98.9,96 98.9,96.7 Z M 98.7,100.7 C 97.3,100.1 94.1,99.1 94,99.2 93.6,98.7 93.1,98.3 92.7,97.8 91.9,97 91.5,96.5 90.8,95.7 93.7,96.3 96.2,96.1 99,97.3 98.9,98.4 98.8,99.5 98.7,100.7 Z M 98.2,104.8 L 98.2,104.8 C 97.4,103 96.1,101.5 94.8,100.1 96.1,100.3 97.4,100.7 98.7,101.2 98.5,102.4 98.4,103.6 98.2,104.8 Z M 98.2,104.8" />
        </g>
    </g>
    <g id="yellow-flower-group">
        <g id="branch3">
            <path fill="rgb(204, 68, 111)" d="M 139,95.6 C 138.9,95.1 138.5,94.7 137.8,94.6 136.4,94.4 135.3,96.4 135.4,97.6 135.5,99.1 137.5,99.4 138.5,98.6 139,98.2 139.3,97.6 139.4,96.9 139.4,96.6 139.3,96 139,95.6 Z M 139,95.6" />
            <path fill="rgb(204, 68, 111)" d="M 131.7,90.3 C 131.6,89.8 131.2,89.4 130.5,89.3 129.1,89.1 128,91.1 128.1,92.3 128.2,93.8 130.2,94.1 131.2,93.3 131.7,92.9 132,92.3 132.1,91.6 132.1,91.3 132,90.7 131.7,90.3 Z M 131.7,90.3" />
            <path fill="rgb(204, 68, 111)" d="M 137.7,81.2 C 137.6,80.7 137.2,80.3 136.5,80.2 135.1,80 134,82 134.1,83.2 134.2,84.7 136.2,85 137.2,84.2 137.7,83.8 138,83.2 138.1,82.5 138.2,82.1 138,81.5 137.7,81.2 Z M 137.7,81.2" />
            <path fill="rgb(204, 68, 111)" d="M 129.1,78.5 C 129,78 128.6,77.6 127.9,77.5 126.5,77.3 125.4,79.3 125.5,80.5 125.6,82 127.6,82.3 128.6,81.5 129.1,81.1 129.4,80.5 129.5,79.8 129.5,79.4 129.4,78.8 129.1,78.5 Z M 129.1,78.5" />
            <path fill="rgb(173, 216, 219)" d="M 131,98.7 C 130.7,98 130.4,97.1 130.5,96.3 130.7,95.4 131.5,94.7 132.2,94 133.4,92.8 134.5,91.4 134.9,89.8 136.7,91.7 137.6,94.4 138.2,96.9 138.3,97.5 138.5,98.1 138.4,98.7 138.3,99.4 138,100.1 137.6,100.8 136.8,102.1 135.9,103.2 134.7,104.2 133.2,102.6 131.9,100.7 131,98.7 Z M 131,98.7" />
            <path fill="rgb(173, 216, 219)" d="M 122.1,92.9 C 122.3,94.7 123,96.4 123.3,98.1 125.9,97.4 128.2,95.7 129.6,93.4 131,91.1 131.4,88.2 130.8,85.6 130.4,84.1 129.8,82.6 130.2,81.2 128,82.5 125.9,84 124.3,85.9 122.9,87.9 121.9,90.4 122.1,92.9 Z M 122.1,92.9" />
            <path fill="rgb(173, 216, 219)" d="M 146.9,98.6 C 147.1,96.4 146.6,94.1 145.3,92.3 144,90.5 142,89.1 139.8,88.9 138.1,88.7 136.3,89.2 134.6,88.7 134.9,89.7 135.2,90.7 135.5,91.7 135.7,92.3 135.9,92.9 136.2,93.4 136.7,94.2 137.5,94.7 138.2,95.2 140.9,96.8 143.9,98 146.9,98.6 Z M 146.9,98.6" />
            <path fill="rgb(173, 216, 219)" d="M 139.9,74.3 C 137.7,74.2 135.3,74.4 133.7,75.9 132.5,77 131.8,78.8 130.3,79.4 132.1,81.8 135.2,82.8 138.2,82.8 141.2,82.7 145.8,76.7 144.2,75.5 142.9,74.6 141.3,74.4 139.9,74.3 Z M 139.9,74.3" />
            <path fill="rgb(69, 69, 69)" d="M 138.5,90.9 C 136.8,89.8 135.2,88.9 134,87.4 133.3,85.7 132.3,83.9 131.3,82 130.9,81.2 130.4,80.5 130,79.7 130.4,79.8 130.7,79.9 131.1,80 132,80.2 133,80 133.9,79.6 134.2,79.5 134,78.9 133.6,79.1 132.7,79.5 131.7,79.6 130.7,79.4 130.3,79.3 129.9,79.1 129.5,78.9 128.6,77.4 127.7,75.9 126.8,74.4 126.1,73.1 125.4,71.7 124.8,70.4 124.5,69.8 124.3,69.2 124.1,68.6 L 122.8,68.3 C 122.8,68.4 122.9,68.6 122.9,68.7 123.2,69.4 123.5,70.1 123.8,70.8 124.2,71.7 125.8,74.6 126,74.8 127.4,77.1 128.8,79.3 130.1,81.4 129.6,82 129.2,82.7 128.9,83.4 128.6,84 128.2,84.7 128.2,85.4 128.2,85.5 128.4,85.6 128.5,85.5 128.9,84.9 129.1,84 129.4,83.4 129.7,82.9 130,82.3 130.3,81.8 130.4,82 130.6,82.2 130.7,82.4 132.2,84.8 133.4,87.2 134.2,89.3 134.6,90.4 134.9,91.3 135.1,92.2 135.3,93.1 135.5,93.9 135.6,94.5 135.7,95 135.7,95.3 135.7,95.7 135.8,95.8 135.8,95.8 135.9,95.9 L 136,95.9 136,95.9 C 136.1,95.7 136.2,95.5 136.2,95.3 136.2,95.1 136.1,94.8 136.1,94.5 136,93.8 135.9,93 135.7,92.1 135.5,91.2 135.2,90.2 134.8,89.1 L 134.8,89.1 C 135.8,90 137.2,90.7 138.4,91.5 138.5,91.6 138.8,91.1 138.5,90.9 Z M 138.5,90.9" />
        </g>
        <g id="branch2">
            <path fill="rgb(204, 68, 111)" d="M 161.6,14.9 C 161.5,14.2 161.1,13.7 160.5,13.3 159.4,12.7 157.4,13.2 157.5,14.7 157.6,15.9 158.9,17.8 160.2,17.4 160.8,17.2 161.1,16.8 161.2,16.3 161.6,15.9 161.7,15.3 161.6,14.9 Z M 161.6,14.9" />
            <path fill="rgb(204, 68, 111)" d="M 167.2,18.3 C 167.1,17.6 166.7,17.1 166.1,16.7 165,16.1 163,16.6 163.1,18.1 163.2,19.3 164.5,21.2 165.8,20.8 166.4,20.6 166.7,20.2 166.8,19.7 167.2,19.3 167.2,18.7 167.2,18.3 Z M 167.2,18.3" />
            <path fill="rgb(204, 68, 111)" d="M 163,25.4 C 162.9,24.7 162.5,24.2 161.9,23.8 160.8,23.2 158.8,23.7 158.9,25.2 159,26.4 160.3,28.3 161.6,27.9 162.2,27.7 162.5,27.3 162.6,26.8 163,26.4 163.1,25.8 163,25.4 Z M 163,25.4" />
            <path fill="rgb(173, 216, 219)" d="M 168.2,24.8 C 167.5,25.1 166.8,25.4 166.1,25.2 165.3,25 164.7,24.3 164.1,23.7 163.1,22.6 161.8,21.7 160.4,21.4 162.1,19.8 164.4,19 166.7,18.5 167.2,18.4 167.7,18.2 168.3,18.3 168.9,18.3 169.6,18.6 170.1,19 171.2,19.7 172.3,20.5 173.1,21.5 171.6,22.8 170,24 168.2,24.8 Z M 168.2,24.8" />
            <path fill="rgb(173, 216, 219)" d="M 163.1,32.6 C 164.7,32.5 166.2,31.8 167.7,31.5 167.1,29.2 165.6,27.2 163.5,25.9 161.4,24.6 158.9,24.3 156.6,24.9 155.3,25.2 154,25.8 152.7,25.4 153.8,27.3 155.1,29.2 156.9,30.5 158.7,32 160.9,32.8 163.1,32.6 Z M 163.1,32.6" />
            <path fill="rgb(173, 216, 219)" d="M 168.1,10.8 C 166.2,10.6 164.1,11.1 162.5,12.2 160.9,13.3 159.7,15.1 159.5,17 159.3,18.5 159.8,20.1 159.3,21.6 160.2,21.3 161.1,21.1 161.9,20.8 162.4,20.6 162.9,20.5 163.4,20.2 164.1,19.8 164.6,19.1 165,18.4 166.5,16 167.6,13.4 168.1,10.8 Z M 168.1,10.8" />
            <path fill="rgb(69, 69, 69)" d="M 165.6,20.4 C 165.5,20.3 165.3,20.3 165.1,20.2 164.9,20.2 164.6,20.3 164.4,20.3 163.8,20.4 163.1,20.5 162.3,20.7 161.5,20.9 160.6,21.2 159.7,21.5 L 159.7,21.5 C 160.5,20.6 161.1,19.4 161.8,18.4 162,18.1 161.5,17.9 161.4,18.2 160.5,19.7 159.7,21.1 158.3,22.2 156.8,22.8 155.2,23.7 153.5,24.6 152.8,25 149.6,27 149,27.3 L 150.4,27.3 C 151.3,26.7 152.1,26.2 153,25.7 153.5,26.1 154.2,26.5 154.8,26.7 155.4,26.9 156,27.3 156.6,27.3 156.7,27.3 156.8,27.1 156.7,27.1 156.1,26.7 155.4,26.6 154.8,26.3 154.3,26.1 153.8,25.8 153.4,25.5 153.6,25.4 153.8,25.3 153.9,25.2 156,23.9 158.1,22.8 160,22.1 160.9,21.7 161.8,21.5 162.6,21.3 163.4,21.1 164.1,21 164.6,20.9 165,20.8 165.3,20.8 165.6,20.8 165.7,20.7 165.7,20.7 165.8,20.6 165.7,20.5 165.7,20.5 165.6,20.4 165.6,20.5 165.6,20.4 165.6,20.4 Z M 165.6,20.4" />
        </g>
        <g id="branch1">
            <path fill="rgb(204, 68, 111)" d="M 150.7,15.1 C 150.6,14.4 150.2,13.9 149.6,13.6 149.2,13.4 148.6,13.2 148.1,13.4 147.6,13.3 147.1,13.5 146.7,14 145.9,15.2 147.2,17 148.4,17.5 149.8,18 150.9,16.4 150.7,15.1 Z M 150.7,15.1" />
            <path fill="rgb(204, 68, 111)" d="M 143.9,18.9 C 143.8,18.2 143.4,17.7 142.8,17.4 142.4,17.2 141.8,17 141.3,17.2 140.8,17.1 140.3,17.3 139.9,17.8 139.1,19 140.4,20.8 141.6,21.3 143,21.8 144.1,20.1 143.9,18.9 Z M 143.9,18.9" />
            <path fill="rgb(204, 68, 111)" d="M 149.4,8.7 C 149.3,8 148.9,7.5 148.3,7.2 147.9,7 147.3,6.8 146.8,7 146.3,6.9 145.8,7.1 145.4,7.6 144.6,8.8 145.9,10.6 147.1,11.1 148.5,11.7 149.6,10 149.4,8.7 Z M 149.4,8.7" />
            <path fill="rgb(204, 68, 111)" d="M 141.2,10.3 C 141.1,9.6 140.7,9.1 140.1,8.8 139.7,8.6 139.1,8.4 138.6,8.6 138.1,8.5 137.6,8.7 137.2,9.2 136.4,10.4 137.7,12.2 138.9,12.7 140.4,13.3 141.5,11.6 141.2,10.3 Z M 141.2,10.3" />
            <path fill="rgb(204, 68, 111)" d="M 134.3,15.8 C 134.2,15.1 133.8,14.6 133.2,14.3 132.8,14.1 132.2,13.9 131.7,14.1 131.2,14 130.7,14.2 130.3,14.7 129.5,15.9 130.8,17.7 132,18.2 133.4,18.8 134.5,17.1 134.3,15.8 Z M 134.3,15.8" />
            <path fill="rgb(173, 216, 219)" d="M 142.4,4.1 C 141.9,4.6 141.4,5.2 141.3,5.9 141.2,6.7 141.6,7.5 142,8.3 142.7,9.6 143.2,11.1 143,12.6 145.1,11.5 146.5,9.6 147.8,7.6 148.1,7.2 148.4,6.7 148.5,6.2 148.7,5.6 148.6,4.9 148.5,4.3 148.2,3 147.8,1.8 147.1,0.6 145.4,1.5 143.7,2.7 142.4,4.1 Z M 142.4,4.1" />
            <path fill="rgb(173, 216, 219)" d="M 133.3,6.3 C 134,4.9 135.1,3.7 135.9,2.3 137.9,3.6 139.3,5.7 139.8,8.1 140.3,10.5 139.8,12.9 138.5,14.9 137.8,16 136.8,17.1 136.7,18.4 135.3,16.7 133.9,14.9 133.2,12.8 132.5,10.7 132.4,8.3 133.3,6.3 Z M 133.3,6.3" />
            <path fill="rgb(173, 216, 219)" d="M 155.6,8.8 C 155.1,10.7 154,12.5 152.5,13.6 151,14.7 148.9,15.3 146.9,14.8 145.4,14.4 144.1,13.5 142.5,13.5 143,12.8 143.6,12 144.1,11.3 144.4,10.9 144.7,10.4 145.2,10.1 145.8,9.6 146.6,9.4 147.4,9.2 150.1,8.5 152.9,8.4 155.6,8.8 Z M 155.6,8.8" />
            <path fill="rgb(173, 216, 219)" d="M 142.6,26.9 C 140.7,26.4 138.8,25.5 137.9,23.8 137.2,22.5 137.2,20.9 136.1,19.9 138.3,18.4 141.2,18.5 143.6,19.4 146,20.3 148.1,22 150.1,23.7 149.2,25.1 148.1,26.7 146.5,27.2 145.3,27.6 143.9,27.3 142.6,26.9 Z M 142.6,26.9" />
            <path fill="rgb(173, 216, 219)" d="M 126.1,20.1 C 125.5,19.1 125.2,18 124.9,16.8 124.5,15 124.2,13.2 124,11.3 126.7,12 129.6,13.4 130.7,15.9 131.7,18.1 131.2,20.7 130.6,23.1 128.9,22.5 127.2,21.6 126.1,20.1 Z M 126.1,20.1" />
            <path fill="rgb(69, 69, 69)" d="M 146.3,12.3 C 145.1,12.6 143.8,12.7 142.6,13.2 L 142.6,13.2 C 143.2,12.4 143.8,11.7 144.2,11 144.7,10.3 145,9.7 145.3,9.1 145.4,8.9 145.5,8.6 145.6,8.5 145.6,8.3 145.7,8.2 145.6,8 L 145.6,8 C 145.6,8 145.6,8 145.5,8 145.4,8 145.3,8.1 145.3,8.1 145.2,8.4 145.1,8.7 144.9,9 144.6,9.5 144.3,10.1 143.8,10.8 143.4,11.5 142.8,12.2 142.2,13 140.9,14.5 139.2,16.1 137.3,17.7 137.1,17.8 137,18 136.8,18.1 136.7,17.6 136.6,17 136.6,16.5 136.5,15.8 136.6,15.1 136.4,14.4 136.4,14.3 136.2,14.3 136.2,14.4 136,15 136.1,15.6 136.2,16.3 136.3,17 136.4,17.7 136.6,18.3 134.9,19.7 133,21.1 131.2,22.6 131,22.8 130.8,23 130.6,23.1 130.6,22.6 130.6,22.1 130.5,21.6 130.4,21 130.1,19.5 129.5,19.2 129.4,19.2 129.3,19.3 129.3,19.4 129.4,20.1 129.8,20.7 130,21.4 130.2,22.1 130.3,22.9 130.1,23.6 129.5,24.2 128.8,24.7 128.2,25.3 127.7,25.8 127.3,26.3 126.8,26.8 126.6,27.1 126.4,27.3 126.2,27.5 126,27.8 125.8,28 125.6,28.3 125.5,28.4 125.3,28.8 125,29.4 L 126.2,29.4 C 126.3,29.1 126.4,29 126.4,28.9 126.6,28.7 126.8,28.4 126.9,28.2 127.1,27.9 127.3,27.7 127.5,27.5 127.9,27 128.3,26.5 128.8,26.1 129.7,25.2 130.7,24.2 131.7,23.4 132.9,22.4 134.1,21.4 135.3,20.4 135.7,20.4 136.1,20.3 136.5,20.3 137.4,20.4 138.2,20.8 138.8,21.3 139,21.5 139.4,21.2 139.2,21 138.6,20.4 137.9,20 137,19.9 136.7,19.9 136.4,19.8 136,19.8 136.6,19.3 137.2,18.8 137.8,18.3 139.2,17.1 140.6,15.8 141.7,14.6 143.1,13.7 144.7,13.4 146.5,13 146.7,12.7 146.6,12.2 146.3,12.3 Z M 146.3,12.3" />
        </g>
        <g id="yellow-flower">
            <path fill="rgb(255, 233, 175)" d="M 140.8,56.7 C 132.6,62.3 114.8,59.2 111.2,57.9 110.7,57.7 118.2,51 122.9,50.4 127.6,49.7 133.9,50.9 138.6,51.8 128.8,51.3 115.2,44.7 113.9,36.2 120.2,36.1 124.7,38 129.6,39.9 133.7,41.5 137.1,44.5 140.5,47.4 136.5,42.6 132.4,37.2 132.4,31 132.4,26.9 134.4,22.9 137.4,20 144.2,27 145.1,38 142.7,47.5 143.4,43.9 144.1,40.2 144.7,36.6 145.6,31.7 146.9,26.2 151.2,23.5 153.2,22.3 155.5,21.9 157.8,21.5 158.2,28.6 158.3,36.3 153.9,41.8 151.8,44.4 148.8,46.3 147.3,49.4 149.8,44.3 152.7,38.8 157.7,36.2 161.6,34.1 166.3,34.1 170.7,34.8 164.7,40.8 157.9,46 150.5,50.1 159.5,46 170.7,47.4 178.3,53.7 173.6,54.2 169.5,57.2 164.8,58.1 158.7,59.2 152.7,56.7 147,54.1 149.8,55.5 152.4,57.2 154.9,59.1 157.9,61.4 160.7,64.2 162.1,67.8 163.5,71.3 163.4,75.3 163.2,79.1 158.1,78.7 153.7,75 150.5,71 147.3,67 145.3,62.6 146.1,57.5 146,62.7 145.4,68 143.1,72.7 140.8,77.4 137.2,82.7 132.1,83.8 131.9,79.6 131.7,74.3 132.3,70.2 133.1,64.3 135.9,59.7 140.8,56.7 Z M 140.8,56.7" />
            <path fill="rgb(254, 214, 92)" d="M 123.5,33.1 C 132.3,34.1 140.2,40.7 142.7,49.2 141.9,46.5 141.2,43.8 140.4,41 139.8,38.8 139.7,29.8 147.7,25.6 150.5,33.9 149.5,43.3 145.1,50.9 148.4,48.1 151.9,45.3 156,44.1 161.2,42.6 166.6,42.7 171.8,44.1 170,45.7 167.7,47 165.5,48.8 163.3,50.5 160.3,52.3 157.7,53.4 155.2,54.5 152.4,54.8 149.8,54.2 153.1,54.3 156.4,54.4 159.7,55.1 162.9,55.8 165.1,58.2 167.4,60.5 169.9,63 171.3,64.2 173.5,66.9 166.8,66.6 160.7,67.4 154.7,64.5 151.5,62.9 148.8,60.3 147.2,57.1 150,60.2 151.7,64.4 151.7,68.6 151.7,72.8 150.6,78.5 147.8,81.6 145.6,78.6 142.9,73.9 142.2,70.2 141.4,66.6 142.2,62.8 143.5,59.3 138.9,67.7 129.5,73.1 120,73 120.3,69.3 121.4,65.6 123.5,62.4 125.6,59.3 128.6,56.7 132.1,55.6 135.3,54.6 138.7,54.6 142.1,54.7 137.4,52.8 133.7,49.2 130.2,45.5 126.8,42.1 123.4,37.9 123.5,33.1 Z M 123.5,33.1" />
            <path fill="rgb(69, 69, 69)" d="M 151,53.1 C 151.1,53.5 151.5,53.8 151.9,53.7 152.3,53.6 152.6,53.2 152.5,52.8 152.4,52.4 152,52.1 151.6,52.2 151.3,52.3 151,52.5 151,52.9 149.9,52.9 148.7,53 147.5,53.2 148.7,52.5 149.8,51.6 150.7,50.6 150.9,50.7 151.1,50.7 151.3,50.5 151.5,50.3 151.6,49.9 151.3,49.7 151.1,49.5 150.7,49.4 150.5,49.7 150.3,50 150.2,50.3 150.5,50.5 L 150.5,50.5 C 149.4,51.6 148.2,52.5 146.8,53.2 146.6,52.9 146.4,52.6 146.1,52.3 146.9,51.6 147.7,51 148.5,50.4 148.8,50.7 149.3,50.7 149.6,50.4 149.9,50.1 149.9,49.6 149.6,49.3 149.3,49 148.8,49 148.5,49.3 148.3,49.5 148.2,49.9 148.4,50.2 147.5,50.8 146.7,51.4 145.9,52.1 145.8,52 145.8,52 145.7,52 145.8,51.9 145.8,51.7 145.9,51.6 146.5,50.6 147.2,49.6 148,48.7 L 148,48.7 C 148.4,48.9 148.8,48.8 149,48.4 149.2,48 149.1,47.6 148.7,47.4 148.3,47.2 147.9,47.3 147.7,47.7 147.5,48 147.6,48.3 147.8,48.6 147.1,49.3 146.5,50.1 145.9,50.9 145.7,51.2 145.5,51.6 145.3,51.9 L 145.3,51.9 145.3,51.8 C 145.5,50.6 145.8,49.4 146.2,48.4 L 146.2,48.4 C 146.6,48.5 147,48.2 147.1,47.8 147.2,47.4 146.9,47 146.5,46.9 146.1,46.8 145.7,47.1 145.6,47.5 145.6,47.8 145.7,48.1 146,48.3 145.6,49.2 145.3,50.2 145.1,51.1 145,51.3 145,51.6 145,51.8 L 145,51.8 C 145,50.2 144.8,48.5 144.3,47 144.5,46.9 144.6,46.6 144.5,46.4 144.4,46.1 144.1,45.9 143.8,46 143.5,46.1 143.3,46.4 143.4,46.7 143.5,47 143.8,47.2 144.1,47.1 L 144.1,47.1 C 144.5,48.7 144.7,50.2 144.7,51.8 144.3,51.8 144,51.8 143.6,51.9 143.4,51 143.3,50.1 143.2,49.3 143.6,49.2 143.8,48.8 143.7,48.4 143.6,48 143.2,47.8 142.8,47.9 142.4,48 142.2,48.4 142.3,48.8 142.4,49.1 142.7,49.3 143,49.4 143.1,50.3 143.2,51.2 143.4,52.1 143.3,52.2 143.1,52.2 143,52.3 143,52.3 143,52.2 142.9,52.2 142.3,51.2 141.8,50.1 141.5,48.9 L 141.5,48.9 C 141.9,48.7 142,48.2 141.8,47.9 141.6,47.5 141.1,47.4 140.8,47.6 140.4,47.8 140.3,48.3 140.5,48.6 140.7,48.9 141,49 141.3,49 141.5,50 141.9,50.9 142.4,51.7 142.4,51.8 142.5,51.9 142.5,51.9 141.5,51.2 140.3,50.6 139.2,50.2 139.2,50 139.1,49.8 138.9,49.7 138.6,49.6 138.3,49.7 138.1,50 138,50.3 138.1,50.6 138.4,50.8 138.7,50.9 139,50.8 139.2,50.5 L 139.2,50.5 C 140.5,51 141.7,51.7 142.8,52.5 142.5,52.8 142.2,53.2 142.1,53.6 141.4,53.3 140.7,52.9 140,52.5 140.1,52.1 140,51.7 139.6,51.5 139.2,51.3 138.8,51.5 138.6,51.9 138.4,52.3 138.6,52.7 139,52.9 139.3,53 139.7,52.9 139.9,52.7 140.6,53.1 141.3,53.5 142,53.9 142,54 142,54.1 141.9,54.2 141.9,54.3 141.9,54.4 141.9,54.4 141.6,54.4 141.4,54.4 141.1,54.4 139.9,54.3 138.7,54 137.6,53.6 L 137.6,53.6 C 137.6,53.2 137.3,52.8 136.9,52.8 136.5,52.8 136.1,53.1 136.1,53.5 136.1,53.9 136.4,54.3 136.8,54.3 137.1,54.3 137.4,54.2 137.6,53.9 138.5,54.3 139.5,54.5 140.4,54.7 140.9,54.8 141.4,54.9 141.9,54.9 141.9,55 141.9,55.2 142,55.3 L 142,55.3 C 140.9,55.7 139.9,55.9 138.8,56.2 138.6,55.8 138.2,55.6 137.8,55.8 137.4,55.9 137.2,56.4 137.4,56.8 137.5,57.2 138,57.4 138.4,57.2 138.7,57.1 138.9,56.8 138.9,56.4 140,56.2 141.1,55.9 142.2,55.5 142.2,55.6 142.3,55.7 142.3,55.7 141,56.5 139.7,57.4 138.6,58.5 138.4,58.4 138.1,58.4 138,58.6 137.8,58.8 137.7,59.2 137.9,59.4 138.1,59.6 138.5,59.7 138.7,59.5 138.9,59.3 139,58.9 138.8,58.7 L 138.8,58.7 C 139.9,57.7 141.1,56.8 142.5,56.1 142.7,56.4 143,56.7 143.4,56.9 142.6,57.6 141.7,58.3 140.8,58.9 140.5,58.6 140,58.6 139.7,58.9 139.4,59.2 139.4,59.7 139.7,60 140,60.3 140.5,60.3 140.8,60 141,59.8 141.1,59.4 141,59.1 142,58.5 142.9,57.8 143.7,57 143.8,57 143.8,57.1 143.9,57.1 143.8,57.3 143.7,57.6 143.5,57.8 142.9,58.8 142.2,59.8 141.3,60.6 L 141.3,60.6 C 140.9,60.4 140.5,60.5 140.3,60.9 140.1,61.3 140.2,61.7 140.6,61.9 141,62.1 141.4,62 141.6,61.6 141.8,61.3 141.7,61 141.5,60.7 142.2,60.1 142.8,59.3 143.4,58.5 143.7,58.1 144,57.6 144.3,57.2 144.3,57.2 144.3,57.2 144.4,57.2 144.4,57.3 144.4,57.4 144.4,57.5 144.4,58.7 144.2,59.9 143.9,61 L 143.9,61 C 143.5,61 143.1,61.3 143.1,61.7 143.1,62.1 143.4,62.5 143.8,62.5 144.2,62.5 144.6,62.2 144.6,61.8 144.6,61.5 144.4,61.2 144.1,61.1 144.4,60.2 144.6,59.2 144.7,58.2 144.7,57.9 144.8,57.6 144.8,57.2 144.9,57.2 144.9,57.2 145,57.2 145,58.9 145.2,60.6 145.7,62.3 145.5,62.4 145.4,62.7 145.5,62.9 145.6,63.2 145.9,63.4 146.2,63.3 146.5,63.2 146.7,62.9 146.6,62.6 146.5,62.3 146.2,62.1 145.9,62.2 L 145.9,62.2 C 145.5,60.5 145.3,58.9 145.4,57.2 145.7,57.1 146,57 146.3,56.9 146.5,58 146.7,59 146.8,60.1 146.4,60.2 146.2,60.6 146.3,61 146.4,61.4 146.8,61.6 147.2,61.5 147.6,61.4 147.8,61 147.7,60.6 147.6,60.3 147.3,60.1 147,60 146.9,58.9 146.7,57.8 146.5,56.6 L 146.6,56.5 C 146.7,56.7 146.9,56.9 147,57.1 147.6,58.1 148.1,59.2 148.4,60.4 L 148.4,60.4 C 148,60.6 147.9,61.1 148.1,61.4 148.3,61.8 148.8,61.9 149.1,61.7 149.5,61.5 149.6,61 149.4,60.7 149.2,60.4 148.9,60.3 148.6,60.3 148.4,59.3 148,58.4 147.5,57.6 147.3,57.2 147,56.7 146.8,56.2 L 146.9,56.1 C 147.9,57 148.9,57.9 150,58.5 150,58.7 150,58.9 150.2,59.1 150.5,59.3 150.8,59.2 151,59 151.2,58.7 151.1,58.4 150.9,58.2 150.6,58 150.3,58.1 150.1,58.3 L 150.1,58.3 C 149,57.6 148,56.8 147,55.8 147.1,55.6 147.2,55.3 147.3,55.1 148.1,55.5 148.9,55.9 149.6,56.3 149.5,56.7 149.6,57.1 150,57.3 150.4,57.5 150.8,57.3 151,56.9 151.2,56.5 151,56.1 150.6,55.9 150.3,55.8 149.9,55.9 149.7,56.1 148.9,55.6 148.1,55.2 147.3,54.8 147.3,54.7 147.3,54.5 147.3,54.4 L 147.4,54.4 C 148.6,54.5 149.8,54.8 150.9,55.2 L 150.9,55.2 C 150.9,55.6 151.2,56 151.6,56 152,56 152.4,55.7 152.4,55.3 152.4,54.9 152.1,54.5 151.7,54.5 151.4,54.5 151.1,54.6 150.9,54.9 150,54.5 149,54.3 148.1,54.1 147.8,54 147.5,54 147.2,53.9 147.2,53.8 147.2,53.8 147.2,53.7 147.4,53.7 147.6,53.6 147.8,53.6 148.8,53.2 149.9,53.2 151,53.1 Z M 151,53.1" />
        </g>
        <g id="dark-leaves">
            <path fill="rgb(124, 120, 43)" d="M 139.6,49.5 C 136.7,47.1 133.6,44.3 130.1,42.4 134.8,36.4 137,24.3 136.5,24.3 129.9,23.8 122,22.5 116.5,27.1 111.3,31.5 108,40.3 107.3,45.6 106.6,50.9 104.7,66.4 108.3,71.8 112.3,77.8 120.3,78.6 126.8,80 127.3,80.1 128.5,67.2 125.4,60.2 132.3,57.4 139.9,49.8 139.6,49.5 Z M 139.6,49.5" />
            <path fill="rgb(174, 173, 86)" d="M 124.3,77.4 L 124.3,77.4 C 124.4,77.3 124.4,77.1 124.4,77 122.2,73.6 121.5,73.3 119,69.7 115.2,64.3 112,58.5 110.1,53.9 109.9,53.7 109.6,53.6 109.4,53.9 109.3,54 109.3,54.1 109.3,54.2 114.5,64.9 119.7,71.8 124.3,77.4 Z M 124.3,77.4" />
            <path fill="rgb(174, 173, 86)" d="M 133.4,26.2 L 133.4,26.2 C 133.5,26.3 133.4,26.5 133.4,26.6 130.3,29.3 129.6,29.4 126.1,32.1 121,36.3 116.3,40.9 113.2,44.9 112.9,45 112.7,45 112.6,44.8 112.6,44.7 112.6,44.6 112.6,44.5 120.6,35.5 127.4,30.3 133.4,26.2 Z M 133.4,26.2" />
            <path fill="rgb(174, 173, 86)" d="M 137,49.9 C 137,50 137,50 137,49.9 137,50 136.8,50.1 136.7,50.2 132.6,50.2 132,49.7 127.6,49.5 121,49.2 114.4,49.6 109.5,50.5 109.2,50.4 109,50.3 109.1,50 109.1,49.9 109.2,49.8 109.3,49.8 121.3,48.4 129.9,49.1 137,49.9 Z M 137,49.9" />
        </g>
    </g>
</svg>
