<?xml version="1.0" encoding="utf-8"?>
<!-- Generator: Adobe Illustrator 19.2.1, SVG Export Plug-In . SVG Version: 6.00 Build 0)  -->
<svg version="1.1" id="Layer_1" xmlns="http://www.w3.org/2000/svg" xmlns:xlink="http://www.w3.org/1999/xlink" x="0px" y="0px"
	 viewBox="0 0 42.5 42.5" style="enable-background:new 0 0 42.5 42.5;" xml:space="preserve">
<style type="text/css">
	.st0{fill:#B9DEBC;stroke:#000000;stroke-linecap:round;stroke-linejoin:round;stroke-miterlimit:10;}
	.st1{fill:#F7FAF6;stroke:#000000;stroke-width:0.75;stroke-linecap:round;stroke-linejoin:round;stroke-miterlimit:10;}
	.st2{fill:#FFFFFF;stroke:#000000;stroke-linecap:round;stroke-linejoin:round;stroke-miterlimit:10;}
	.st3{fill:#CFD87A;stroke:#000000;stroke-linecap:round;stroke-linejoin:round;stroke-miterlimit:10;}
	.st4{fill:#D0D87A;stroke:#000000;stroke-linecap:round;stroke-linejoin:round;stroke-miterlimit:10;}
	.st5{fill:#C8C298;stroke:#000000;stroke-linecap:round;stroke-linejoin:round;stroke-miterlimit:10;}
</style>
<g>
	<rect x="6.8" y="6.8" transform="matrix(0.7071 -0.7071 0.7071 0.7071 -8.8061 21.2598)" class="st0" width="29" height="29"/>
	
		<rect x="13.3" y="14.1" transform="matrix(0.7071 -0.7071 0.7071 0.7071 -9.3929 21.5029)" class="st1" width="15.9" height="15.9"/>
	<line class="st2" x1="21.3" y1="1.1" x2="21.3" y2="41.6"/>
	
		<rect x="13.2" y="11.4" transform="matrix(0.7071 -0.7071 0.7071 0.7071 -7.4737 20.6363)" class="st0" width="15.9" height="15.9"/>
	<ellipse class="st3" cx="21.2" cy="15.1" rx="11.6" ry="8.1"/>
	
		<ellipse transform="matrix(0.9977 -6.731766e-02 6.731766e-02 0.9977 -1.3261 1.4491)" class="st0" cx="20.8" cy="20.4" rx="7.2" ry="5.6"/>
	<path class="st4" d="M24.7,19.3c2.6-1.8-5.3,8.3-17.7,6.4c-6.3-2.7-3.9-8.4,0-8.9C14.5,15.5,19.8,19.5,24.7,19.3z"/>
	<path class="st4" d="M18.7,24c-2.7,1.8,7.2,5.5,18.4,0.7c4.2-2.8,1.1-7.5-2.5-7.4C29,17.4,20.5,22.8,18.7,24z"/>
	<path class="st5" d="M31.3,17.6c0,0-7.7-0.4-15.9,5.3c-3.9,2.6-0.6,6.2,2.3,4.3C21.3,25.8,31.3,17.6,31.3,17.6z"/>
</g>
</svg>
