<?xml version="1.0" encoding="UTF-8"?>
<!DOCTYPE svg PUBLIC "-//W3C//DTD SVG 1.1//EN" "http://www.w3.org/Graphics/SVG/1.1/DTD/svg11.dtd">
<svg version="1.1" xmlns="http://www.w3.org/2000/svg" xmlns:xlink="http://www.w3.org/1999/xlink" width="256" height="47"  xml:space="preserve">
    <g id="ups" fill="white">
        <path d="M 100.7,22 L 100.7,22 C 100.3,21.8 99.9,21.9 99.7,22.3 98.8,23.9 97.9,25.2 97,26.2 96.2,27.1 95.2,27.9 94.3,28.4 93.3,29 92.2,29.5 91,29.9 L 87.1,31.2 C 86.8,30.6 86.3,30.1 85.6,29.4 84.9,28.6 84.1,27.9 83.4,27.1 82.7,26.3 82,25.6 81.5,24.9 81.1,24.3 80.9,23.9 81,23.5 81,23.2 81.2,22.9 81.4,22.7 81.7,22.5 82.2,22.3 82.6,22.2 83.5,22 84.6,22 85.1,22.2 85.5,22.4 85.8,22.7 86,23.3 86.2,23.8 86.2,24.3 85.9,24.6 L 85.8,24.8 85.8,24.8 C 85.7,25.1 85.7,25.3 85.8,25.4 85.9,25.6 86,25.8 86.3,25.9 86.7,26.1 87.1,25.9 87.4,25.5 87.8,24.6 87.8,23.7 87.4,22.8 87,21.9 86.4,21.3 85.6,20.9 85.1,20.7 84.5,20.6 83.8,20.5 83.1,20.5 82.5,20.6 81.8,20.8 81.1,21 80.6,21.3 80.1,21.7 79.7,22 79.3,22.4 79.1,22.9 78.6,23.8 78.1,24.6 77.5,25.4 76.9,26.3 76.1,27.1 75.3,27.9 75,28.2 74.6,28.5 74.2,28.8 73.7,29.1 73.2,29.3 72.7,29.5 72.2,29.7 71.6,29.9 71,30 70.4,30.1 69.9,30.1 69.3,30.1 68.8,30.1 68.2,30.1 67.7,30 67.4,29.9 67.1,29.9 66.8,29.8 66.8,29.7 66.9,29.7 66.9,29.6 67.1,29.3 67.3,28.9 67.4,28.6 67.8,27.8 67.9,27 67.7,26.2 67.6,25.4 67.3,24.7 66.9,24.1 66.5,23.4 66,22.9 65.3,22.4 64.7,21.9 64,21.6 63.4,21.5 62.7,21.3 62,21.3 61.3,21.3 60.6,21.4 60,21.5 59.4,21.6 58.9,21.7 58.4,21.9 57.9,22 57.8,22 57.7,22.1 57.7,22.1 L 57.8,21.9 C 58,21.6 58.1,21.4 58.4,21.1 58.7,20.6 58.7,20.1 58.4,19.7 L 58.3,19.6 C 57.8,19.1 57.2,19.1 56.8,19.6 56.4,20 56.1,20.4 55.9,20.8 55.7,21.2 55.5,21.6 55.3,22 55.2,22.3 55,22.5 54.9,22.8 53.9,24.2 53,25.6 52.1,26.9 51.2,28.2 50.1,29.5 48.9,30.7 48.5,31.1 48,31.5 47.6,31.9 47.2,32.2 46.7,32.5 46.3,32.8 46.2,32.9 46,32.9 45.9,32.9 45.7,32.9 45.7,32.8 45.7,32.9 45.5,32.7 45.3,32.3 45.2,31.8 45,31.3 44.9,30.8 44.8,30.3 44.7,29.7 44.7,29.2 44.7,28.6 44.7,28.2 44.7,27.9 44.7,27.8 45,27.3 45.2,26.8 45.5,26.3 45.7,25.8 46,25.2 46.2,24.6 46.3,24.3 46.4,24.1 46.5,23.8 46.6,23.5 46.7,23.2 46.8,22.9 L 46.8,22.8 C 46.8,22.6 46.8,22.5 46.8,22.4 46.9,22.1 46.8,21.9 46.7,21.6 46.6,21.4 46.5,21.2 46.3,21 46.1,20.8 45.7,20.7 45.5,20.7 45.3,20.7 45.1,20.7 44.9,20.8 44.8,20.9 44.6,21 44.6,21.1 44.2,21.4 44,21.8 43.8,22.1 43.7,22.4 43.6,22.7 43.5,23 43.4,23.3 43.3,23.7 43.2,24 43.1,24.3 43.1,24.6 43,24.9 42.9,25.4 42.9,26 42.8,26.5 L 42.7,28 C 42.5,28.4 42.3,28.8 42,29.1 41.8,29.5 41.5,29.8 41.2,30.2 40.9,30.7 40.5,31.1 40.1,31.5 39.7,31.9 39.3,32.2 38.9,32.4 38.5,32.6 38.4,32.6 38.3,32.6 38.2,32.6 38,32.7 37.6,32.7 37.4,32.7 37.2,32.6 37,32.6 36.8,32.6 36.7,32.5 36.6,32.4 36.4,32.2 36.2,31.9 36.1,31.5 36,31.1 36,30.6 36,30 36,28.9 36.1,27.8 36.4,26.7 36.7,25.6 37.1,24.5 37.5,23.4 L 37.5,23.3 C 37.6,23.1 37.6,22.8 37.4,22.5 37.3,22.3 37.1,22.1 36.9,22 36.5,21.9 36.2,21.9 36,22 35.8,22.1 35.6,22.3 35.6,22.6 35.4,23.2 35.2,23.7 35,24.3 34.8,24.9 34.6,25.5 34.5,26.1 34.3,26.7 34.1,27.3 34,28 33.9,28.6 33.8,29.2 33.7,30 33.7,30.3 33.7,30.7 33.7,31 33.7,31.4 33.8,31.7 33.9,32.1 34,32.5 34.2,32.8 34.4,33.2 34.6,33.6 35,34 35.4,34.2 35.8,34.5 36.2,34.7 36.7,34.7 37.1,34.8 37.5,34.8 37.9,34.7 38.3,34.7 38.6,34.6 38.9,34.5 39.3,34.4 39.7,34.2 40,34 40.8,33.4 41.5,32.7 42.1,32 42.4,31.7 42.7,31.3 42.9,30.9 L 42.9,31 C 43,31.5 43.1,32.1 43.2,32.5 43.3,32.9 43.4,33.2 43.6,33.6 43.8,34 44.1,34.3 44.5,34.7 44.8,34.9 45.2,35 45.6,35 45.8,35 45.9,35 46.1,35 46.3,35 46.5,34.9 46.7,34.8 46.8,34.7 47,34.7 47.2,34.6 47.8,34.3 48.3,33.9 48.8,33.5 49.2,33.1 49.7,32.7 50.1,32.2 51.3,31 52.5,29.7 53.5,28.3 53.4,28.7 53.3,29.1 53.2,29.6 52.5,32.9 52.2,36.2 52.3,39.4 52.3,40.6 52.4,41.3 53.1,42.7 53.8,44.1 54.8,45.2 56.1,45.9 56.5,46.2 57,46.4 57.5,46.5 57.8,46.6 58.2,46.7 58.5,46.7 58.7,46.7 58.9,46.7 59.1,46.6 59.5,46.5 59.8,46.4 59.9,46.1 60,46 60.1,45.7 60,45.4 60,45.1 59.9,44.8 59.7,44.6 59.5,44.4 59.2,44.3 58.8,44.4 58,44.5 57.3,44.3 56.7,43.8 56.1,43.3 55.5,42.5 55,41.6 54.5,40.7 54.6,39.8 54.6,39.3 54.6,37.8 54.6,36.2 54.7,34.6 54.8,33.6 54.9,32.6 55.1,31.6 55.2,31.8 55.3,32 55.5,32.2 55.9,32.7 56.6,33.1 57.3,33.4 58.5,33.8 59.9,33.9 61.3,33.7 62.6,33.4 63.8,32.9 64.9,32.1 65.1,32 65.2,31.9 65.3,31.8 65.4,31.7 65.4,31.7 65.5,31.6 66.1,31.7 66.7,31.9 67.2,31.9 67.9,32 68.5,32.1 69.2,32.1 70.5,32.1 71.8,31.9 73,31.5 74.2,31 75.3,30.4 76.3,29.5 77.2,28.7 78.1,27.7 78.8,26.7 78.9,26.5 79,26.3 79.1,26.1 79.1,26.2 79.2,26.2 79.2,26.3 79.7,27.1 80.2,27.8 80.7,28.4 82,29.7 82.9,30.6 83.4,31.2 83.8,31.6 84.1,32.1 84.4,32.5 84.1,32.6 83.7,32.8 83.3,33 82.6,33.4 81.8,33.8 81,34.3 80.2,34.8 79.4,35.4 78.7,36.1 78,36.8 77.4,37.4 77,38.1 76.6,38.8 76.4,39.5 76.5,40.1 76.6,40.8 77.2,41.4 78.3,41.7 78.7,41.8 79.1,41.9 79.5,42 79.9,42 80.3,42.1 80.7,42.1 L 80.7,42.1 C 81.5,42.1 82.3,41.9 83.1,41.7 83.9,41.4 84.6,41.1 85.3,40.6 85.9,40.1 86.5,39.5 86.9,38.8 87.3,38.1 87.6,37.2 87.7,36.4 87.8,36.2 87.8,35.9 87.7,35.5 87.7,35.1 87.6,34.7 87.6,34.4 87.5,34 87.5,33.7 87.4,33.4 87.4,33.4 87.4,33.4 87.4,33.3 89,32.8 90.4,32.3 91.5,31.9 92.8,31.5 94,30.9 95,30.3 96.1,29.7 97,28.8 97.9,27.8 98.8,26.8 99.7,25.4 100.6,23.7 101.3,22.6 101.2,22.2 100.7,22 Z M 85.4,33.3 C 85.5,33.6 85.6,33.9 85.7,34.2 85.8,34.6 85.8,35 85.7,35.4 L 85.7,35.5 C 85.6,36.7 85.1,37.6 84.2,38.3 83.2,39 82.1,39.4 81,39.6 80.4,39.6 79.8,39.6 79.3,39.5 79.1,39.4 78.7,39.3 78.7,39.1 78.7,38.8 78.9,38.4 79.2,38 79.6,37.5 80.1,37 80.7,36.5 81.3,36 82,35.5 82.7,35 83.4,34.6 84,34.2 84.6,33.9 85,33.5 85.2,33.4 85.4,33.3 Z M 55.9,27.1 C 56.1,26.4 56.3,25.6 56.5,24.9 56.6,24.7 56.7,24.5 56.7,24.4 56.7,24.3 56.8,24.2 56.8,24.1 57.3,23.9 57.7,23.8 58.2,23.6 58.7,23.4 59.3,23.3 59.8,23.2 60.3,23.1 60.9,23.1 61.4,23.1 61.9,23.1 62.4,23.2 62.8,23.4 63.2,23.5 63.6,23.8 64,24.1 64.4,24.4 64.7,24.8 64.9,25.1 65.1,25.5 65.3,25.9 65.4,26.3 65.5,26.7 65.5,27.1 65.3,27.5 65.1,28 64.8,28.5 64.4,28.9 L 62.6,28.3 C 62,28.1 61.5,27.9 60.9,27.7 60.3,27.5 59.7,27.4 59,27.3 58.7,27.2 58.4,27.2 58.1,27.2 57.7,27.2 57.3,27.3 56.8,27.4 56.3,27.6 55.8,27.8 55.5,28.2 55.8,27.7 55.9,27.4 55.9,27.1 Z M 56.7,29.7 C 56.8,29.4 57.1,29.2 57.6,29.1 57.8,29 58.1,29 58.4,29 58.6,29 58.7,29 58.9,29 59.4,29.1 60,29.2 60.5,29.4 61.1,29.6 61.6,29.8 62.2,30 62.5,30.1 62.8,30.2 63.1,30.3 L 63.1,30.3 C 62.9,30.5 62.6,30.6 62.3,30.8 61.9,31.1 61.4,31.3 60.9,31.4 59.9,31.6 58.8,31.7 57.9,31.3 57.5,31.1 57.1,30.9 56.8,30.5 56.5,30.1 56.6,29.9 56.7,29.7 Z M 56.7,29.7" />
    </g>
</svg>
