<?xml version="1.0" encoding="UTF-8"?>
<!DOCTYPE svg PUBLIC "-//W3C//DTD SVG 1.1//EN" "http://www.w3.org/Graphics/SVG/1.1/DTD/svg11.dtd">
<svg version="1.1" xmlns="http://www.w3.org/2000/svg" xmlns:xlink="http://www.w3.org/1999/xlink" width="256" height="47"  xml:space="preserve">
    <g id="wer-bist-du" fill="white">
        <path id="wer" d="M 127.9,19.9 L 127.9,19.4 C 127.9,18.6 128.4,18.1 129.2,18.1 130,18.1 130.5,18.6 130.5,19.4 L 130.5,19.9 C 130.5,20.7 130,21.2 129.2,21.2 128.4,21.2 127.9,20.7 127.9,19.9 Z M 198.7,9.9 C 199,10.3 199,10.6 198.9,10.8 L 198.9,10.8 198.8,11 C 198.5,11.4 198.2,11.7 197.9,12.2 197.5,12.7 197.1,13.1 196.7,13.4 195.3,14.3 193.7,15 191.9,15.3 190.2,15.6 188.3,15.8 186.5,15.8 184.7,15.8 182.8,15.8 180.9,15.7 179.1,15.6 177.4,15.6 175.8,15.6 174,15.7 172.2,15.9 170.3,16 168.6,16.1 166.9,16.4 165.2,16.7 165.1,17.2 165,17.7 164.9,18.2 164.8,18.8 164.7,19.4 164.6,20 164.4,21.3 164.2,22.6 164.1,24 164,25.3 163.9,26.6 163.9,27.9 163.9,29.3 163.8,30.6 163.9,31.9 163.9,33.2 164,34.5 164.2,35.8 164.3,37.2 164.6,38.3 165.1,39.4 165.6,40.4 166.4,41.2 167.5,41.5 167.7,41.6 167.8,41.6 167.9,41.7 168,41.7 168,41.7 168.1,41.7 L 168.2,41.7 C 168.4,41.7 168.7,41.8 169.2,41.8 169.6,41.8 170.2,41.6 170.8,41.4 171.4,41.1 172,40.8 172.5,40.5 173,40.2 173.6,39.8 174.1,39.4 176.2,37.8 178.1,35.9 179.8,33.9 181.5,31.9 183.2,29.7 184.8,27.5 185,27.2 185.4,27 185.8,27.2 186.1,27.4 186.2,27.6 186.3,27.8 186.3,27.9 186.3,28.1 186.1,28.4 185.4,29.5 184.6,30.6 183.8,31.7 183,32.8 182.2,33.9 181.3,34.9 180.4,36 179.4,37 178.4,38 177.4,39 176.4,39.9 175.3,40.8 174.7,41.3 174.1,41.7 173.6,42 173,42.4 172.4,42.7 171.7,43.1 171.3,43.2 171,43.4 170.6,43.5 170.2,43.6 169.8,43.7 169.4,43.7 169.2,43.7 169,43.7 168.8,43.7 168.6,43.7 168.4,43.7 168.2,43.7 168.1,43.7 168,43.7 167.9,43.7 167.8,43.7 167.8,43.7 167.7,43.7 L 167.5,43.7 167,43.5 C 166.3,43.3 165.6,42.9 164.9,42.4 164.2,41.9 163.7,41.3 163.3,40.6 162.9,39.9 162.6,39.2 162.4,38.5 162.2,37.8 162,37.1 161.9,36.4 161.7,35 161.5,33.6 161.4,32.2 161.4,31.8 161.4,31.3 161.4,30.9 161,31.5 160.6,32.1 160.2,32.5 159.3,33.5 158.3,34.3 157.3,35 156.3,35.6 155.1,36.2 153.8,36.6 152.6,37 151.3,37.5 149.7,38 149.7,38 149.7,38 149.7,38.1 149.8,38.4 149.9,38.8 149.9,39.1 150,39.5 150,39.9 150,40.2 150,40.6 150,40.9 150,41.1 149.9,41.9 149.7,42.8 149.2,43.5 148.8,44.2 148.2,44.8 147.6,45.3 147,45.8 146.2,46.2 145.4,46.4 144.6,46.7 143.8,46.8 143,46.8 L 143,46.8 C 142.6,46.8 142.2,46.8 141.8,46.7 141.4,46.7 141,46.6 140.6,46.4 139.5,46 138.9,45.5 138.8,44.8 138.7,44.2 138.8,43.5 139.3,42.8 139.7,42.2 140.2,41.5 141,40.8 141.7,40.1 142.5,39.5 143.3,39 144.1,38.5 144.9,38 145.6,37.7 146,37.5 146.4,37.3 146.7,37.2 146.4,36.8 146.1,36.4 145.7,35.9 145.1,35.2 144.2,34.3 143,33.1 142.5,32.6 141.9,31.9 141.5,31 141.4,30.9 141.4,30.8 141.3,30.7 141.2,30.9 141,31.1 140.9,31.3 140.2,32.3 139.5,33.2 138.6,34.1 138.2,34.6 137.8,35 137.3,35.4 136.8,35.8 136.3,36.2 135.8,36.5 135.3,36.8 134.7,37.1 134.1,37.4 133.6,37.6 133.1,37.7 132.5,37.7 132.3,37.7 132.1,37.7 131.9,37.7 131,37.6 130.3,37.3 129.7,36.7 129.2,36.2 128.8,35.6 128.5,34.9 128.2,34.2 128.1,33.6 128,32.9 127.9,32.2 127.9,31.6 128,31 128,30.8 128,30.6 128,30.4 128,30.5 127.9,30.5 127.9,30.6 127.4,31.4 126.8,32.1 126.2,32.8 125.6,33.5 124.8,34.1 124,34.7 123.1,35.3 122.2,35.6 121.2,35.8 120.6,35.9 120,35.9 119.4,36 118.9,36 118.4,36 117.9,36 L 117.8,36.1 C 117,37 116,37.7 115,38.3 114,38.8 112.8,39.2 111.7,39.4 111.3,39.4 111,39.5 110.7,39.5 110.4,39.5 110,39.5 109.6,39.4 109.3,39.4 108.9,39.2 108.6,39 108.3,38.8 108.1,38.5 107.9,38.2 107.9,38.3 107.9,38.4 107.9,38.4 107.9,38.6 107.9,38.8 107.8,39 107.7,39.3 107.5,39.6 107.2,39.7 107,39.9 106.7,39.9 106.6,39.9 106.5,39.9 106.4,39.9 106.3,39.8 106.1,39.8 105.9,39.7 105.7,39.6 L 105.6,39.5 105.5,39.4 C 105.4,39.4 105.4,39.3 105.3,39.3 105.1,39.1 104.9,38.9 104.7,38.5 104.5,38.2 104.3,37.9 104.2,37.6 104.1,37.4 103.9,37.1 103.8,36.8 103.5,36.2 103.3,35.7 103.1,35.2 102.9,34.7 102.7,34.1 102.5,33.6 102.1,32.5 101.8,31.5 101.5,30.4 101.2,29.3 101,28.2 100.8,27 100.4,24.7 100.3,22.5 100.4,20.2 100.5,18 100.7,15.7 101,13.5 101.2,12.4 101.4,11.2 101.7,10.1 101.9,9 102.3,7.9 102.8,6.8 103.1,6.2 103.4,5.7 103.7,5.2 104,4.7 104.5,4.2 105,3.8 105.6,3.3 106.3,3 106.9,2.8 107.4,2.7 107.7,2.7 107.9,2.7 108.2,2.7 108.6,2.7 109,2.7 109.9,2.8 110.6,3.3 111.2,4 111.5,4.4 111.6,4.8 111.7,5.1 111.8,5.4 111.9,5.7 112,6.1 112.1,6.8 112.1,7.5 112,8.1 111.9,8.7 111.9,9.3 111.8,9.9 111.3,12.1 110.5,14.2 109.5,16.3 108.6,18.2 107.6,20.1 106.5,21.9 105.5,23.7 104.5,25.4 103.4,27.2 103.6,28.1 103.8,29 104,29.9 104.2,30.8 104.5,31.8 104.8,32.6 105,33.1 105.2,33.6 105.4,34.1 105.5,34.4 105.7,34.8 105.8,35.1 105.9,34.7 106,34.3 106.1,33.9 106.3,33 106.6,32.1 107,31.2 107.2,30.7 107.5,30.1 107.7,29.6 108,29.1 108.3,28.5 108.7,28.1 109.1,27.6 109.6,27.2 110.1,26.8 110.6,26.4 111.2,26.1 111.9,25.8 112.6,25.6 113.2,25.5 113.9,25.6 114.5,25.7 115.2,25.8 115.8,26 116.4,26.2 117,26.5 117.5,26.9 118,27.3 118.5,27.8 118.8,28.5 119.2,29.1 119.4,29.8 119.4,30.5 119.4,31.1 119.4,31.8 119.3,32.3 119.2,32.7 119.1,33 119.1,33.2 119,33.5 118.9,33.8 118.8,34.1 118.8,34.1 118.8,34.1 118.8,34.2 119,34.2 119.3,34.2 119.5,34.2 120,34.2 120.5,34.1 120.9,34.1 121.7,34 122.4,33.6 123.1,33.1 123.8,32.6 124.4,32 125,31.4 125.5,30.8 126,30.2 126.5,29.5 127,28.8 127.4,28 127.9,27.3 L 128,27.2 C 128.1,27.1 128.2,27.1 128.3,27 128.5,26.7 128.8,26.5 129.3,26.5 L 129.4,26.5 C 130,26.6 130.4,27 130.4,27.6 L 130.4,28.8 C 130.4,29 130.4,29.2 130.4,29.3 130.4,29.4 130.4,29.6 130.3,29.7 130.3,29.9 130.3,30.2 130.3,30.8 130.3,31.4 130.3,31.9 130.3,32.4 130.3,32.9 130.4,33.4 130.6,33.8 130.7,34.2 131,34.6 131.2,34.9 131.5,35.2 131.8,35.3 132.1,35.4 132.5,35.5 132.9,35.4 133.4,35.3 133.9,35.1 134.3,34.9 134.7,34.7 135.2,34.4 135.6,34.1 136,33.7 136.4,33.4 136.8,33 137.2,32.6 138,31.8 138.7,31 139.4,30.1 140,29.3 140.5,28.6 141.1,27.8 141.3,27.3 141.6,26.9 142.1,26.5 142.6,26.1 143.2,25.8 143.8,25.6 144.4,25.4 145.1,25.3 145.8,25.3 146.5,25.3 147.1,25.4 147.6,25.7 148.4,26.1 149,26.7 149.4,27.6 149.8,28.5 149.8,29.4 149.4,30.3 149.1,30.8 148.7,30.9 148.3,30.7 148,30.6 147.8,30.4 147.8,30.2 147.7,30.1 147.7,29.9 147.8,29.6 L 147.8,29.6 147.9,29.4 C 148.1,29.1 148.2,28.6 148,28.1 147.8,27.6 147.5,27.2 147.1,27 146.6,26.8 145.6,26.8 144.6,27 144.1,27.1 143.7,27.3 143.4,27.5 143.1,27.7 143,27.9 143,28.3 142.9,28.7 143.1,29.2 143.5,29.7 144,30.4 144.7,31.1 145.4,31.9 146.1,32.7 146.9,33.4 147.6,34.2 148.2,34.9 148.7,35.5 149.1,36 L 153,34.7 C 154.2,34.3 155.3,33.8 156.3,33.2 157.3,32.6 158.2,31.9 159,31 159.8,30.1 160.6,28.9 161.5,27.4 L 161.5,27.4 C 161.5,26 161.6,24.6 161.7,23.2 161.9,21.8 162.1,20.4 162.4,19 162.5,18.5 162.6,17.9 162.7,17.4 162.8,17.1 162.8,16.9 162.9,16.6 161.4,16.9 159.8,17.2 158.4,17.7 156.7,18.2 155.1,18.9 153.6,19.7 153.4,19.9 153.1,19.9 152.9,19.8 152.8,19.8 152.6,19.6 152.5,19.4 152.3,19.2 152.3,19 152.4,18.8 152.4,18.6 152.6,18.4 152.8,18.2 153.7,17.6 154.6,17.1 155.6,16.8 156.5,16.4 157.5,16.1 158.4,15.8 159.3,15.5 160.3,15.2 161.2,15 162,14.8 162.8,14.7 163.6,14.5 163.9,13.3 164.2,12.1 164.6,11 165,9.6 165.6,8.3 166.1,7.1 166.4,6.5 166.8,5.8 167.1,5.2 167.5,4.5 168.1,3.9 168.7,3.4 168.9,3.2 169.4,3.1 169.9,3.5 L 170,3.6 C 170.3,4.1 170.2,4.6 169.7,4.9 169.3,5.2 168.9,5.6 168.7,6.2 168.4,6.8 168.1,7.4 167.8,8 167.6,8.6 167.3,9.2 167.1,9.8 166.9,10.4 166.7,11.1 166.5,11.7 166.3,12.2 166.2,12.7 166.1,13.2 166,13.5 166,13.7 165.9,14 167.5,13.7 169,13.5 170.5,13.4 172.2,13.2 174.1,13.1 175.9,13 177.3,12.9 178.9,12.9 180.7,13 184.2,13.2 188,13.3 191.4,12.8 193.1,12.6 194.5,12 195.7,11.3 196.1,11.1 196.4,10.8 196.6,10.5 196.9,10.2 197.2,9.8 197.5,9.4 197.9,9 198.3,9 198.7,9.2 L 198.7,9.9 Z M 146.2,39.2 C 145.6,39.5 144.9,39.9 144.3,40.3 143.6,40.7 143,41.2 142.3,41.8 141.7,42.3 141.2,42.9 140.8,43.3 140.5,43.7 140.3,44.1 140.3,44.4 140.3,44.6 140.7,44.8 140.9,44.8 141.5,44.9 142.1,44.9 142.6,44.9 143.7,44.8 144.8,44.4 145.8,43.6 146.7,42.9 147.2,42 147.3,40.8 L 147.3,40.7 C 147.4,40.3 147.4,39.9 147.3,39.5 147.2,39.2 147.2,38.9 147,38.6 146.9,38.9 146.6,39 146.2,39.2 Z M 110.3,38.1 C 110.5,38.1 110.8,38.1 111.1,38 112,37.8 112.9,37.5 113.7,37 114.2,36.8 114.6,36.5 115,36.1 113.4,36.1 111.8,36.4 110.2,36.8 109.9,36.9 109.7,37 109.5,37.1 109.3,37.2 109.2,37.4 109.1,37.5 109,37.6 109,37.6 109,37.7 109,37.8 109.1,38 109.5,38 109.8,38.1 110.1,38.1 110.3,38.1 Z M 104.9,21.2 C 105.7,19.5 106.5,17.7 107.2,15.8 107.4,15.3 107.6,14.8 107.7,14.3 107.8,13.8 108,13.3 108.2,12.7 108.5,11.8 108.7,10.8 108.9,9.7 109.2,8.6 109.2,7.7 109.1,6.9 109,5.9 108.6,5.6 108.3,5.5 108.2,5.5 108.1,5.5 108,5.5 107.6,5.4 107.5,5.5 107.5,5.5 107.4,5.5 107.3,5.5 107.1,5.5 106.7,5.6 106.4,5.8 106.1,6 105.7,6.3 105.4,6.6 105.1,6.9 104.8,7.3 104.5,7.7 104.3,8.1 103.9,9 103.6,10 103.3,11 103,12 102.8,13.1 102.7,14.1 L 102.7,14.1 C 102.4,16.1 102.3,18.2 102.4,20.3 102.5,21.9 102.6,23.5 102.8,25.1 103.5,23.8 104.2,22.5 104.9,21.2 Z M 108.7,35.9 C 109,35.7 109.4,35.5 109.7,35.4 110,35.3 110.2,35.3 110.6,35.2 111.4,35 112.2,34.8 113,34.7 113.8,34.6 114.6,34.5 115.4,34.5 L 116.5,34.5 C 116.6,34.3 116.7,34.1 116.8,33.8 L 117,33.1 C 117.1,32.9 117.1,32.7 117.2,32.4 117.3,31.4 117.2,30.5 116.8,29.8 116.6,29.4 116.3,29.1 116,28.8 115.7,28.5 115.3,28.3 114.9,28.2 114.5,28.1 114,28 113.5,28 113.4,28 113.4,28 113.3,28 112.9,28 112.5,28 112.2,28.1 111.4,28.4 110.7,28.9 110.2,29.7 109.6,30.6 109.1,31.5 108.7,32.4 108.2,33.7 107.9,35.1 107.7,36.6 L 107.8,36.5 C 108.1,36.4 108.4,36.1 108.7,35.9 Z M 108.7,35.9" />
        <path id="bist" d="M 254.6,28.3 C 254.4,28.3 254,28.3 253.8,28.7 252.7,30.3 251.7,31.7 250.7,33.1 249.8,34.4 248.7,35.7 247.5,36.9 247.1,37.3 246.6,37.7 246.2,38.1 245.8,38.4 245.3,38.7 244.9,39 244.8,39.1 244.6,39.1 244.5,39.1 244.3,39.1 244.3,39 244.3,39.1 244.1,38.9 243.9,38.5 243.8,38 243.6,37.5 243.5,37 243.4,36.5 243.3,35.9 243.3,35.4 243.3,34.8 243.3,34.4 243.3,34.1 243.3,34 243.6,33.5 243.8,33 244.1,32.5 244.3,32 244.6,31.4 244.8,30.8 244.9,30.5 245,30.3 245.1,30 245.2,29.7 245.3,29.4 245.4,29.1 L 245.4,29 C 245.4,28.8 245.4,28.7 245.4,28.6 245.5,28.3 245.4,28.1 245.3,27.8 245.2,27.6 245.1,27.4 244.9,27.2 244.7,27 244.3,26.9 244.1,26.9 243.9,26.9 243.7,26.9 243.5,27 243.4,27.1 243.2,27.2 243.2,27.3 242.8,27.6 242.6,28 242.4,28.3 242.3,28.6 242.2,28.9 242.1,29.2 242,29.5 241.9,29.9 241.8,30.2 241.7,30.5 241.7,30.8 241.6,31.1 241.5,31.6 241.5,32.2 241.4,32.7 L 241.3,34.2 C 241.1,34.6 240.9,35 240.6,35.3 240.4,35.7 240.1,36 239.8,36.4 239.5,36.9 239.1,37.3 238.7,37.7 238.3,38.1 237.9,38.4 237.5,38.6 237.1,38.8 237,38.8 236.9,38.8 236.8,38.8 236.6,38.9 236.2,38.9 236,38.9 235.8,38.8 235.6,38.8 235.4,38.8 235.3,38.7 235.2,38.6 235,38.4 234.8,38.1 234.7,37.7 234.6,37.3 234.6,36.8 234.6,36.2 234.6,35.1 234.7,34 235,32.9 235.3,31.8 235.7,30.7 236.1,29.6 L 236.1,29.5 C 236.2,29.3 236.2,29 236,28.7 235.9,28.5 235.7,28.3 235.5,28.2 235.1,28.1 234.8,28.1 234.6,28.2 234.5,28.3 234.4,28.4 234.3,28.6 234.2,28.6 234.1,28.7 234.1,28.8 L 233.9,29 C 233.2,30 232.6,30.9 231.9,31.7 231.3,32.5 230.5,33.4 229.7,34.2 228.9,35 228,35.8 227.1,36.5 226.2,37.2 225.3,37.8 224.3,38.3 223.3,38.8 222.3,39 221.4,39 220.4,38.9 219.6,38.6 218.8,38 218.6,37.8 218.4,37.6 218.2,37.4 218,37.2 217.8,37 217.7,36.9 L 217.2,36.2 C 217.1,36.1 217.1,36 217,35.9 216.9,35.8 216.9,35.6 216.8,35.5 216.7,35.3 216.6,35.1 216.5,34.9 216.4,34.8 216.4,34.6 216.3,34.5 216.7,34 217,33.5 217.4,33 217.8,32.4 218.1,31.8 218.4,31.2 218.7,30.6 218.9,30 219.1,29.4 219.2,28.8 219.4,28.3 219.6,27.7 219.8,27.1 219.9,26.6 220.1,26 220.2,25.4 220.4,24.8 220.5,24.3 220.7,23.1 220.9,21.9 221.1,20.8 221.3,19.6 221.4,18.4 221.5,17.3 221.6,16.1 221.6,14.9 221.6,13.7 221.6,12.5 221.4,11.2 221.1,10 221,9.4 220.8,8.8 220.6,8.2 220.4,7.6 220.1,7 219.6,6.3 219.4,6 219.2,5.8 218.9,5.5 218.6,5.2 218.3,5 218,4.8 217.3,4.4 216.5,4.2 215.7,4.3 L 215.5,4.4 215.5,4.4 C 215,4.5 214.7,4.7 214.3,5 214,5.3 213.7,5.6 213.5,5.9 213.3,6.2 213.1,6.5 213,6.8 212.9,7.1 212.7,7.4 212.6,7.7 212.4,8.3 212.2,8.9 212,9.6 211.9,10.2 211.7,10.8 211.7,11.4 211.5,12.7 211.4,13.9 211.3,15.1 211.3,16.3 211.2,17.5 211.2,18.7 211.2,19.9 211.3,21.2 211.4,22.4 211.5,23.6 211.7,24.8 211.9,26 212.1,27.2 212.3,28.4 212.6,29.6 212.8,30.8 213.2,32 213.6,33.1 213.7,33.4 213.8,33.8 213.9,34.1 214,34.3 214.1,34.5 214.1,34.7 214,34.8 213.9,34.9 213.7,35 213.4,35.2 213.2,35.4 213.1,35.6 212.1,36.3 211.2,36.7 210.2,36.8 209.2,37 208.2,36.9 207.2,36.5 206.8,36.3 206.5,36.1 206.4,35.8 206.2,35.4 206.1,35 206,34.5 205.9,34.1 205.9,33.6 206,33.2 206.1,32.7 206.2,32.3 206.4,31.9 206.6,31.5 206.8,31 207.1,30.6 207.4,30.2 207.7,30 208.1,29.7 208.9,29.2 209.7,29.1 210.7,29.4 210.8,29.5 211,29.5 211.1,29.5 211.3,29.5 211.5,29.3 211.6,29.1 211.7,28.9 211.7,28.7 211.7,28.5 211.6,28.3 211.5,28.2 211.3,28.1 L 211.2,28.1 C 210.6,27.8 210,27.6 209.3,27.5 208.6,27.4 207.8,27.6 207.1,27.9 206.4,28.2 205.8,28.6 205.3,29.1 204.8,29.6 204.4,30.2 204.1,30.9 203.8,31.5 203.6,32.2 203.5,32.9 203.4,33.7 203.4,34.4 203.6,35.2 203.8,35.9 204.2,36.5 204.8,37.2 205.3,37.7 205.9,38.1 206.7,38.4 207.3,38.6 207.9,38.8 208.6,38.8 209.3,38.9 210,38.8 210.6,38.7 211.3,38.6 211.9,38.4 212.5,38.1 213.1,37.8 213.6,37.5 214.1,37.1 214.3,36.9 214.5,36.8 214.7,36.6 214.8,36.6 214.8,36.5 214.9,36.5 215.2,37 215.5,37.5 215.8,38 216.3,38.7 216.9,39.3 217.6,39.9 218.2,40.4 218.8,40.7 219.5,41 220.1,41.2 220.7,41.3 221.4,41.3 221.5,41.3 221.6,41.3 221.7,41.3 222.4,41.3 223.1,41.2 223.8,41 224.4,40.8 225,40.6 225.6,40.3 226.7,39.7 227.8,39 228.8,38.1 229.7,37.3 230.6,36.4 231.4,35.5 232,34.8 232.6,34.1 233.2,33.3 233.1,33.6 233,33.9 233,34.2 232.9,34.8 232.8,35.4 232.7,36.2 232.7,36.5 232.7,36.9 232.7,37.2 232.7,37.6 232.8,37.9 232.9,38.3 233,38.7 233.2,39 233.4,39.4 233.6,39.8 234,40.2 234.4,40.4 234.8,40.7 235.2,40.9 235.7,40.9 236.1,41 236.5,41 236.9,40.9 237.3,40.9 237.6,40.8 237.9,40.7 238.3,40.6 238.7,40.4 239,40.2 239.8,39.6 240.5,38.9 241.1,38.2 241.4,37.9 241.7,37.5 241.9,37.1 L 241.9,37.2 C 242,37.7 242.1,38.3 242.2,38.7 242.3,39.1 242.4,39.4 242.6,39.8 242.8,40.2 243.1,40.5 243.5,40.9 243.8,41.1 244.2,41.2 244.6,41.2 244.8,41.2 244.9,41.2 245.1,41.2 245.3,41.2 245.5,41.1 245.7,41 245.8,40.9 246,40.9 246.2,40.8 246.8,40.5 247.3,40.1 247.8,39.7 248.2,39.3 248.7,38.9 249.1,38.4 250.4,37.1 251.6,35.7 252.7,34.3 253.8,32.9 254.8,31.4 255.7,29.9 255.8,29.8 255.8,29.6 255.8,29.4 255.2,28.6 254.9,28.3 254.6,28.3 Z M 217.3,28.7 C 217.1,29.2 217,29.8 216.7,30.3 216.3,31.1 215.9,31.8 215.5,32.5 L 215.4,32.3 C 214.7,30.1 214.3,27.8 214,25.5 213.7,23.2 213.5,20.9 213.4,18.5 213.4,17.4 213.4,16.2 213.4,15 213.4,13.8 213.5,12.7 213.7,11.5 213.8,10.9 213.9,10.4 214,9.8 214.1,9.3 214.2,8.7 214.4,8.2 214.6,7.7 214.8,7.3 215.1,6.8 215.3,6.5 215.5,6.3 215.7,6.3 215.8,6.3 215.9,6.3 216,6.3 216.7,6.3 217.2,6.6 217.7,7.3 218,7.7 218.2,8.1 218.4,8.6 218.6,9.1 218.7,9.6 218.9,10.1 219.2,11.2 219.3,12.3 219.4,13.4 219.5,14.5 219.5,15.6 219.4,16.8 219.4,17.9 219.3,19.1 219.1,20.2 219,21.3 218.8,22.5 218.6,23.6 L 218.2,25.3 C 218.1,25.9 217.9,26.4 217.8,26.9 L 217.3,28.7 Z M 217.3,28.7" />
        <path id="du" d="M 85.7,27.4 L 85.7,27.4 C 85.3,27.2 84.9,27.3 84.7,27.7 84,28.8 83.3,30 82.5,31.1 81.7,32.2 80.9,33.3 80,34.2 79.1,35.2 78.2,36 77.2,36.8 76.2,37.5 75.2,38.1 74,38.6 73.5,38.8 72.9,38.9 72.3,38.9 71.8,38.9 71.4,38.8 71.1,38.4 71,38.3 70.9,38.2 70.9,38 70.8,37.8 70.8,37.5 70.8,37.2 70.8,36.3 71,35.5 71.3,34.7 71.6,33.8 72.1,33 72.5,32.2 72.8,31.7 73.2,31.2 73.6,30.7 74,30.3 74.3,29.8 74.6,29.3 L 74.9,29.3 74.9,29 C 75.1,28.7 75.1,28.3 74.9,27.9 74.6,27.4 74,27.2 73.4,27.6 72.4,28.3 71.4,28.6 70.1,28.5 69,28.5 68,28.2 67.3,27.6 67.4,27.5 67.4,27.3 67.5,27.2 67.6,27 67.7,26.7 67.8,26.5 67.9,26.3 68,26 68.1,25.8 68.2,25.5 68.3,25.1 68.2,24.7 68.2,24.5 68,24 67.4,23.8 67,23.7 66.7,23.7 66.2,23.8 65.8,23.9 65.4,24 65.1,24.2 64.7,24.4 64.5,24.7 64.4,25 64.1,25.7 64.2,26.4 64.6,27 64.8,27.4 65.1,27.7 65.3,28.1 64.9,28.7 64.5,29.3 64,29.9 63.4,30.6 62.9,31.3 62.3,32 61.7,32.7 61.1,33.4 60.4,34 59.8,34.6 59.1,35.1 58.3,35.6 57.6,36 56.8,36.3 56,36.4 55.2,36.5 54.5,36.4 53.7,36.1 L 52.5,35.6 C 52.4,35.5 52.3,35.5 52.2,35.4 L 51.8,35 C 51.5,34.7 51.3,34.3 51.2,33.8 51.4,33.6 51.7,33.4 51.9,33.2 52.2,32.9 52.5,32.6 52.8,32.3 53.5,31.6 54.1,30.8 54.6,29.9 54.9,29.4 55.1,29 55.4,28.6 55.6,28.2 55.8,27.7 56,27.2 56.2,26.6 56.3,26 56.3,25.5 56.3,25.2 56.3,24.9 56.2,24.5 56.1,24 55.8,23.6 55.3,23.4 54.9,23.2 54.4,23.1 54,23.2 53.6,23.3 53.3,23.4 52.9,23.5 52.4,23.8 51.9,24.2 51.6,24.6 51.2,25 50.9,25.5 50.6,25.9 50.3,26.3 50,26.8 49.8,27.2 49.3,28.1 49,29.1 48.7,30.1 48.5,31 48.4,32 48.4,33.1 L 43,37.2 C 43,37.2 43,37.2 42.9,37.3 43,37 43.1,36.8 43.2,36.5 43.9,34.1 44.2,31.7 44,29.3 43.8,26.9 43.4,24.6 42.8,22.3 41.7,18.3 40,14.5 37.9,10.8 39,10.7 40,10.6 41.1,10.5 42.4,10.3 43.8,10.1 45.1,9.9 L 45.5,9.8 45.5,9.7 C 45.6,9.6 45.7,9.3 45.7,9 L 45.7,8.9 45.6,8.8 C 45.4,8.5 45.1,8.3 44.8,8.3 L 44.7,8.3 C 43.4,8.6 42,8.8 40.6,9 39.4,9.2 38.1,9.3 36.9,9.3 36.3,8.4 35.8,7.5 35.1,6.7 34.4,5.8 33.7,4.9 32.9,4 32.1,3 31.2,2.2 30.3,1.5 29.7,1.1 29.2,0.8 28.7,0.6 28,0.2 27.3,0.1 26.5,0.2 25.7,0.3 25,0.6 24.5,1.2 24,1.8 23.7,2.4 23.6,3.1 23.5,3.8 23.5,4.5 23.7,5.2 23.9,5.9 24.2,6.5 24.6,7 25.4,8.1 26.4,8.9 27.5,9.4 28.6,9.9 29.8,10.3 30.9,10.5 31.8,10.7 32.6,10.8 33.5,10.8 34.3,10.9 35,10.9 35.8,10.9 36.9,12.7 37.9,14.6 38.7,16.6 39.6,18.6 40.3,20.7 40.9,22.9 41.4,25.1 41.8,27.3 41.9,29.5 42,31.7 41.7,33.9 41.1,35.9 40.8,36.9 40.3,37.9 39.7,38.8 39.1,39.7 38.5,40.5 37.7,41.3 37,42 36.1,42.7 35.2,43.2 34.3,43.7 33.3,44.1 32.3,44.3 30.3,44.7 28.4,44.3 26.6,43.2 26.2,43 26.1,42.9 26,42.8 L 25.4,42.4 C 25.2,42.2 25,42 24.8,41.8 24.6,41.6 24.4,41.4 24.2,41.3 23.8,40.9 23.4,40.4 23.1,40 22.8,39.6 22.4,39.2 22.1,38.7 21.1,37.2 20.2,35.5 19.7,33.8 19.1,32.1 18.9,30.2 19.1,28.4 19.1,28.1 19.2,27.8 19.2,27.5 19.2,27.2 19.2,27 19.3,26.6 L 19.4,26.5 19.4,26.3 C 19.4,25.7 19.1,25.4 18.5,25.2 17.8,25.1 17.3,25.4 17.2,26 L 17.2,26.1 C 16.9,27.4 16.8,28.7 16.8,30 16.6,31.1 16.4,32.2 16.1,33.1 15.8,34.2 15.4,35.4 15.1,36.5 14.7,37.6 14.3,38.7 13.7,39.7 13.3,40.6 12.6,41.4 11.7,42 10.8,42.6 9.8,42.9 8.8,43 7.8,43.1 7,42.8 6.1,42.3 5.3,41.8 4.7,41 4.3,40.1 3.9,39.2 3.7,38.2 3.7,37.1 3.7,35.9 3.8,34.8 3.8,33.7 3.9,32.6 4.1,31.4 4.3,30.2 4.5,29 4.7,27.9 5,26.7 5.5,24.4 6.1,22.1 6.8,19.8 7.5,17.5 8.1,15.2 8.6,12.7 8.7,12 8.4,11.5 7.8,11.4 7.1,11.3 6.6,11.6 6.4,12.2 6.1,13.4 5.8,14.5 5.4,15.6 5.1,16.7 4.7,17.9 4.4,19 4,20.2 3.7,21.3 3.4,22.5 3.1,23.7 2.8,24.8 2.5,26 1.9,28.4 1.5,30.9 1.2,33.3 1.1,33.9 1.1,34.6 1,35.2 1,35.8 1,36.5 1,37.1 1,37.7 1.1,38.4 1.2,39.1 1.3,39.8 1.5,40.5 1.8,41.1 2.1,41.7 2.4,42.4 2.9,42.9 3.4,43.5 3.9,44 4.5,44.4 5.8,45.2 7.2,45.5 8.7,45.2 10.1,45 11.3,44.5 12.5,43.6 12.7,43.4 13,43.2 13.2,43 13.5,42.8 13.7,42.5 13.9,42.3 14.1,42 14.3,41.8 14.5,41.4 14.7,41.1 14.8,40.8 14.9,40.5 15.5,39.4 16,38.2 16.4,37.1 16.7,36.3 17,35.4 17.2,34.6 17.8,36.5 18.6,38.4 19.8,40 20.6,41.1 21.4,42 22.1,42.8 L 22.7,43.4 C 22.9,43.6 23.2,43.9 23.4,44 L 24.2,44.6 C 24.3,44.7 24.5,44.8 24.6,44.9 L 25,45.1 C 26.1,45.8 27.3,46.3 28.6,46.5 29.2,46.6 29.8,46.6 30.4,46.6 31.1,46.6 31.8,46.5 32.6,46.4 33.8,46.1 35,45.6 36.1,45 37.2,44.4 38.2,43.6 39,42.7 39.5,42.2 39.9,41.7 40.3,41.2 L 40.3,41.2 C 41.6,39.6 45.8,36.8 48.4,35.1 48.6,35.6 48.9,36.1 49.3,36.6 49.7,37 50.2,37.4 50.9,37.8 L 52.4,38.3 C 53,38.5 53.6,38.5 54.2,38.5 54.7,38.5 55.2,38.4 55.7,38.3 56.8,38 57.8,37.6 58.6,37 59.5,36.4 60.2,35.8 60.9,35.1 61.5,34.5 62.2,33.8 62.8,33 63.4,32.3 64,31.5 64.5,30.7 64.9,30.1 65.3,29.6 65.7,28.9 L 65.7,28.9 C 66.5,29.5 67.3,29.9 68.1,30 68.7,30.2 69.5,30.3 70.3,30.3 L 70,30.8 C 69.4,31.7 69,32.7 68.7,33.9 68.4,35 68.3,36.1 68.4,37.2 68.4,37.6 68.5,38 68.7,38.4 68.8,38.9 69.1,39.3 69.5,39.7 69.9,40 70.3,40.3 70.8,40.4 71.2,40.5 71.6,40.6 72.1,40.6 L 72.1,40.6 C 72.8,40.6 73.6,40.4 74.4,40.1 75.7,39.6 76.9,38.9 78,38 79.1,37.1 80.1,36.1 81.1,35.1 82,34 82.9,32.9 83.7,31.7 84.5,30.5 85.2,29.4 85.8,28.3 86.2,28.1 86.1,27.6 85.7,27.4 Z M 31.4,9.1 C 30.4,8.9 29.3,8.5 28.4,8.1 27.5,7.7 26.7,7 26,6.2 L 26,6.2 C 25.4,5.4 25.1,4.5 25.3,3.6 25.4,3.2 25.5,2.8 25.8,2.5 26.1,2.2 26.4,2 26.8,2 26.9,2 26.9,2 27,2 27.4,2 27.7,2.1 28.1,2.3 28.6,2.5 29,2.8 29.4,3.1 29.8,3.5 30.2,3.8 30.6,4.2 31,4.6 31.4,5 31.7,5.4 32.4,6.2 33,7 33.6,7.8 34,8.4 34.4,9 34.8,9.6 33.7,9.4 32.5,9.2 31.4,9.1 Z M 51.1,30.8 L 51.1,30.8 C 51.2,30.4 51.3,29.9 51.4,29.5 51.5,29.1 51.7,28.7 51.9,28.3 52.1,27.9 52.3,27.5 52.5,27.1 52.7,26.7 52.9,26.4 53.1,26.1 53.3,25.8 53.6,25.6 54,25.3 54.2,25.2 54.2,25.2 54.3,25.2 L 54.3,25.2 C 54.3,25.2 54.3,25.3 54.3,25.6 54.3,25.8 54.3,26 54.2,26.1 54.2,26.3 54.1,26.5 54,26.7 53.7,27.5 53.3,28.3 52.9,29 52.5,29.6 52,30.1 51.5,30.6 51.3,30.8 51.1,31 50.9,31.2 51,31.1 51,31 51.1,30.8 Z M 66.7,25.3 C 66.6,25.6 66.6,25.9 66.5,26 66.4,26.2 66.3,26.4 66.2,26.6 66.2,26.6 66.2,26.7 66.1,26.7 L 66.1,26.7 C 66,26.6 65.9,26.5 65.9,26.4 L 65.9,26.3 C 65.8,26.1 65.6,25.8 65.7,25.7 65.8,25.5 65.9,25.4 66.1,25.4 66.3,25.3 66.5,25.3 66.7,25.3 L 66.7,25.3 Z M 66.7,25.3" />
    </g>
</svg>
