<?xml version="1.0" encoding="utf-8"?>
<svg version="1.1" xmlns="http://www.w3.org/2000/svg" xmlns:xlink="http://www.w3.org/1999/xlink" x="0px" y="0px" viewBox="0 0 957 560" xml:space="preserve">
	<style type="text/css">
		.shirts, .clouds {fill:#FFFFFF;}
		#tobi .pants, #tobi .hair{fill:#A87F43;}
		.skin {fill:#D4A07E;}
		#tobi .sweaters, #anika .pants{fill:#1B2B4F;}
		#anika .hair {fill:#C6A459;}
	</style>
	<path class="clouds" d="M974.2,596.9c-13.5-80.8-89.9-135.4-170.6-121.9c-4.2,0.7-8.4,1.6-12.5,2.7c2-14.4,1.8-29.3-0.7-44.3c-13.5-80.8-89.8-135.4-170.6-121.9c-25.6,4.3-48.6,14.9-67.6,29.9c-46.4-29.2-103.2-31.2-161.5-21.5c-67.4,11.2-123.1,39.5-157.2,92.9c-18-6.6-37.9-8.8-58.1-5.4c-62.3,10.4-104.3,69.3-94,131.5c1.3,8,3.5,15.6,6.3,22.9c-46,54.8-68.8,128.6-56.1,204.7c23,138,153.5,231.3,291.5,208.3c70.6-11.8,129.4-51.7,167-106.3c41.8,40.6,101.7,61.5,163.7,51.2c80.5-13.4,140.7-75.6,155.3-151.3c14,1.8,28.6,1.6,43.3-0.8C933.1,754.1,987.7,677.7,974.2,596.9z"/>
	<g id="us">
		<g id="tobi">
			<path class="pants" d="M392.3,329.2c0,0,0.4,16.5,14.4,19.1c14,2.7,49.2,0.5,63-2.4c13.7-2.9,24.9-8.8,23.5-23.7L392.3,329.2z"/>
			<path class="skin" d="M412.5,165.4c0,0,9.1-17.2,7.8-26.1l39.7,2.3c0,0-3.2,21.9,0,30.1S412.5,165.4,412.5,165.4z"/>
			<path class="shirts" d="M463.5,154c0,0-20,9-30,8.5c-7.2-0.4-13.2-4.7-16.5-7.1c0.2-0.5,0.4-0.9,0.5-1.4c-2.2,0-3,0-3,0c-1.1,0.4-7.5,12.5-7.5,12.5s19,10,29,10.5s32.5-6,32.5-6L463.5,154z"/>
			<path class="sweaters" d="M397.7,167c-5.5,3.6-6.7,3.4-22.1,5.9c-15.3,2.4-20.7,43.7-20.7,63.5s0.4,32.7,3.3,40.8c2.9,8.1,8.4,12.9,10.3,14.7s12,1.2,12,1.2c0.3,2.6,0.5,7.3,0.6,9.1c0,1.9,0.6,9.8,1.2,18.8c0.6,9,6.2,17.5,11.6,16.4c5.5-2.8,23.5-2.9,30.4-3.2c6.8-0.2,19.1-1.9,25.7-2.8c6.6-0.9,19-1.4,26-2.1s16.2-3.6,16.2-3.6c9-10.7-0.3-158.7-6.4-166.6c-6-7.9-20.6-1.8-20.6-1.8c-2.3,3.1-15.8,11.3-29.9,10.9s-24-9.9-24-9.9"/>
			<path class="hair" d="M443.8,75.1c-2.1,0.1-7.8-5.9-16.4-2.4c-8.6,3.4-20.2,20.5-20.9,34.7c-0.5,6.3-3.4,13.5-3.4,17.2s5.2,17.6,10.3,19c5.2,1.4,17.6,15.2,22.8,15.9c5.2,0.7,7.9-6.9,11.4-7.6c3.4-0.7,13.1-5.5,16.6-10s17.2-23.8,15.9-35.5c-1.4-11.7-7.1-27.8-18.1-32.6C454.7,70.3,445.9,75,443.8,75.1z"/>
		</g>
		<g id="anika">
			<path class="pants" d="M619.2,311.5c-3.1-12.7-17.5-59.4-17.5-59.4l-86.9,67.2c0,0,3,21.2,27.5,22.3s40.6-4.5,47.8-9.7c6.3-4.5,7.6-8.1,9-15.5C605.6,314.4,612.3,312.7,619.2,311.5z"/>
			<path class="shirts" d="M484.3,259.7c0,0,18.8,61.6,38.5,69.4c19.7,7.8,59.7-0.1,66.9-16.9c7.2-16.8,7.8-25.4,3.1-52.6c0,0,9.5,4.2,15.3,0.9c8.7-4.4,1.6-20.1,0.4-24.2s-18.2-44.4-30.1-51.7c-11.9-7.2-42.5-13-42.5-13L484.3,259.7z"/>
			<path class="hair" d="M459.8,126.8c7-9.7,21.4-9.3,27.6-7.2s30.7,16.6,37.6,22.1c6.9,5.5,9.3,16.6,16.2,20.7c6.9,4.1,16.2,4.1,20.4,9.7s26.9,44.5,26.6,54.5c0,0-7.2-11.9-13.3-16c-6-4.1-13.5-14.1-13.5-14.1s12.1,38.6,10.2,42.9c0,0-14.1-26.2-23.6-33.8c0,0,12.9,30.5,0,48.5c0,0-8.3-23.8-12.4-26.2c0,0-17.1,31.7-16.9,42.6s0.3,12.9-0.7,14c0,0-0.3-9.5-8.1-18.3c0,0-3.3,21-2.8,24.3c0,0-9.5-24-11-25.4c0,0-10.9,46.6-14.7,50.2c0,0-1.6-33.8-5.7-39.3c0,0-8.8,16-8.6,22.6c0,0-3.6-44.2-9.8-49.7c-6.2-5.5-2.9-31.9,1.2-39.5s7.4-27.3,5.2-34.3s-13.1-17.9-12.4-25.5C451.9,141.8,457.2,130.4,459.8,126.8z"/>
		</g>
	</g>
</svg>
