<?xml version="1.0" encoding="utf-8"?>
<!-- Generator: Adobe Illustrator 19.2.1, SVG Export Plug-In . SVG Version: 6.00 Build 0)  -->
<svg version="1.1" id="Layer_1" xmlns="http://www.w3.org/2000/svg" xmlns:xlink="http://www.w3.org/1999/xlink" x="0px" y="0px"
	 viewBox="0 0 264.5 35.4" style="enable-background:new 0 0 264.5 35.4;" xml:space="preserve">
<style type="text/css">
	.st0{fill:#CFD87A;}
	.st1{fill:#B9DEBD;}
	.st2{fill:#B9DEBD;stroke:#000000;stroke-linecap:round;stroke-linejoin:round;stroke-miterlimit:10;}
	.st3{fill:#CFD87A;stroke:#000000;stroke-linecap:round;stroke-linejoin:round;stroke-miterlimit:10;}
	.st4{fill:none;stroke:#000000;stroke-linecap:round;stroke-linejoin:round;stroke-miterlimit:10;}
	.st5{fill:none;}
</style>
<rect y="-0.6" class="st0" width="130.3" height="36.6"/>
<rect x="118.7" y="-0.6" class="st1" width="146.2" height="36.6"/>
<g>
	<ellipse class="st1" cx="82.3" cy="17.7" rx="16.7" ry="18.1"/>
	<path d="M82.3,36.3c-9.5,0-17.2-8.3-17.2-18.6c0-10.3,7.7-18.6,17.2-18.6c9.5,0,17.2,8.3,17.2,18.6C99.5,28,91.8,36.3,82.3,36.3z
		 M82.3,0.1c-8.9,0-16.2,7.9-16.2,17.6c0,9.7,7.3,17.6,16.2,17.6s16.2-7.9,16.2-17.6C98.5,8,91.2,0.1,82.3,0.1z"/>
</g>
<path class="st2" d="M128.2,2.2C127.4-1.1,104-5,104,18.2s26.5,17.4,28,16.6V23.2h-12.3"/>
<g>
	<polyline class="st3" points="167.6,36 180.6,-0.5 193.7,36 	"/>
	<line class="st4" x1="192.1" y1="31.6" x2="176.2" y2="31.6"/>
	<line class="st4" x1="183.2" y1="24" x2="171.9" y2="24"/>
</g>
<g>
	<polyline class="st3" points="199.4,36 199.4,-0.4 212.3,17.8 225.4,-0.4 225.4,36 	"/>
</g>
<g>
	<g>
		<polyline class="st1" points="38,36 38,31.6 48.3,25.3 61.5,36 		"/>
		<g>
			<path class="st2" d="M38,35.5v-36c0,0,14.9,0,17.8,0c2.9,0,7.3,0.9,6.2,7.4s-7.4,13.2-13.8,18S38,31.2,38,31.2"/>
			<line class="st4" x1="48.2" y1="25" x2="61.5" y2="35.5"/>
		</g>
	</g>
</g>
<g>
	<polyline class="st0" points="138.8,36 138.8,31.6 149.2,25.3 162.4,36 	"/>
	<g>
		<path class="st3" d="M138.6,35.8V-0.5c0,0,15,0,17.9,0s7.4,0.9,6.3,7.4c-1.1,6.5-7.4,13.3-13.9,18.2s-10.3,6.3-10.3,6.3"/>
		<line class="st4" x1="148.8" y1="25.1" x2="162.2" y2="35.8"/>
	</g>
</g>
<g>
	<path class="st2" d="M7.3,35.6V-0.5c0,0,15.1,0,18.1,0s7.4,1,6.3,7.5c-1.1,6.5-7.5,13.5-14.1,18.3S7.3,31.7,7.3,31.7"/>
</g>
<rect id="SVGID_3_" x="-65.3" y="-1.6" class="st5" width="360" height="38.8"/>
<g>
	<polyline class="st3" points="231.9,36 231.9,-0.4 244.8,17.8 257.9,-0.4 257.9,36 	"/>
</g>
</svg>
