<?xml version="1.0" encoding="utf-8"?>
<!-- Generator: Adobe Illustrator 19.2.1, SVG Export Plug-In . SVG Version: 6.00 Build 0)  -->
<svg version="1.1" id="Layer_1" xmlns="http://www.w3.org/2000/svg" xmlns:xlink="http://www.w3.org/1999/xlink" x="0px" y="0px"
	 viewBox="0 0 201.1 35.4" style="enable-background:new 0 0 201.1 35.4;" xml:space="preserve">
<style type="text/css">
	.st0{fill:#B9DEBD;}
	.st1{fill:#D0D97A;}
	.st2{fill:#B9DEBD;stroke:#000000;stroke-miterlimit:10;}
	.st3{fill:none;stroke:#000000;stroke-miterlimit:10;}
	.st4{fill:none;stroke:#000000;stroke-linecap:round;stroke-miterlimit:10;}
	.st5{fill:none;stroke:#000000;stroke-linecap:round;stroke-linejoin:round;stroke-miterlimit:10;}
	.st6{fill:#B9DEBD;stroke:#000000;stroke-linecap:round;stroke-linejoin:round;stroke-miterlimit:10;}
	.st7{fill:#D0D97A;stroke:#000000;stroke-miterlimit:10;}
</style>
<rect x="102.6" y="-0.6" class="st0" width="98.8" height="36.6"/>
<rect x="0.1" y="-0.6" class="st1" width="137.2" height="36.6"/>
<rect x="26.6" y="-0.6" class="st0" width="110.6" height="36.6"/>
<rect x="137.7" y="-0.6" class="st1" width="28.4" height="36.6"/>
<polygon class="st1" points="75.5,35.9 88.5,-0.6 101.6,36 "/>
<g>
	<polyline class="st2" points="101.6,35.9 88.5,-0.6 75.5,35.9 88.5,-0.6 	"/>
	<line class="st3" x1="100" y1="31.5" x2="84.1" y2="31.5"/>
	<line class="st3" x1="91.1" y1="23.9" x2="79.8" y2="23.9"/>
</g>
<g>
	<line class="st4" x1="166.6" y1="33.4" x2="189.3" y2="33.4"/>
	<line class="st5" x1="166.3" y1="-0.6" x2="166.3" y2="36"/>
</g>
<path class="st2" d="M61.5,35.9"/>
<g>
	<polygon class="st1" points="129.3,-0.6 116.2,36 103.2,-0.5 	"/>
	<polyline class="st6" points="116.5,35.9 103.5,-0.6 116.5,35.9 129.6,-0.6 	"/>
</g>
<g>
	<line class="st4" x1="137.3" y1="14.4" x2="154.4" y2="14.4"/>
	<line class="st4" x1="137.3" y1="2.4" x2="158.6" y2="2.4"/>
	<line class="st4" x1="137.3" y1="33" x2="158.6" y2="33"/>
	<line class="st4" x1="137.3" y1="-0.6" x2="137.3" y2="36"/>
</g>
<g>
	<polyline class="st7" points="44.5,36 44.5,31.5 54.9,25.2 68.1,36.1 	"/>
	<g>
		<path class="st7" d="M44.3,35.7V-0.6c0,0,15,0,17.9,0c2.9,0,7.4,0.9,6.3,7.4s-7.4,13.4-13.9,18.3s-10.3,6.3-10.3,6.3"/>
		<line class="st5" x1="54.5" y1="25.1" x2="67.9" y2="35.7"/>
	</g>
</g>
<g>
	<line class="st4" x1="26.8" y1="-0.2" x2="26.8" y2="36"/>
	<line class="st4" x1="14" y1="2.4" x2="39.1" y2="2.4"/>
</g>
</svg>
