<?xml version="1.0" encoding="utf-8"?>
<!-- Generator: Adobe Illustrator 19.2.1, SVG Export Plug-In . SVG Version: 6.00 Build 0)  -->
<svg version="1.1" id="Layer_1" xmlns="http://www.w3.org/2000/svg" xmlns:xlink="http://www.w3.org/1999/xlink" x="0px" y="0px"
	 viewBox="0 0 267.7 35.4" style="enable-background:new 0 0 267.7 35.4;" xml:space="preserve">
<style type="text/css">
	.st0{fill:#D0D97A;}
	.st1{fill:#B9DEBD;}
	.st2{fill:#D0D97A;stroke:#000000;stroke-linecap:round;stroke-linejoin:round;stroke-miterlimit:10;}
	.st3{fill:#B9DEBD;stroke:#000000;stroke-linecap:round;stroke-linejoin:round;stroke-miterlimit:10;}
	.st4{fill:none;stroke:#000000;stroke-linecap:round;stroke-miterlimit:10;}
	.st5{fill:#D0D97A;stroke:#000000;stroke-miterlimit:10;}
	.st6{fill:none;stroke:#000000;stroke-linecap:round;stroke-linejoin:round;stroke-miterlimit:10;}
</style>
<rect x="-0.3" y="-0.6" class="st0" width="139.4" height="36.6"/>
<rect x="139.2" y="-0.6" class="st1" width="128.8" height="36.6"/>
<polygon class="st0" points="80.2,35.6 80.2,-0.6 111.1,-0.6 98.1,35.9 "/>
<rect x="44.1" y="-0.6" class="st1" width="28.6" height="36.6"/>
<rect x="89.8" y="-0.6" class="st1" width="18.2" height="36.6"/>
<rect x="178.1" y="-0.6" class="st0" width="67.7" height="36.6"/>
<g>
	<path class="st2" d="M252.9,3.7c-2.5-5-9.3-5.4-11.9-2.5s-4.4,11.3,8.8,13.6s6.9,30.7-14.8,16.8"/>
	<path class="st3" d="M254.6,4.5c-0.5-5.8-11-6.2-13.5-3.3s-3.7,12.1,8.8,13.6"/>
</g>
<g>
	<ellipse class="st1" cx="216.8" cy="17.9" rx="16.7" ry="18.1"/>
	<path d="M216.8,36.5c-9.5,0-17.2-8.3-17.2-18.6s7.7-18.6,17.2-18.6S234,7.6,234,17.9S226.3,36.5,216.8,36.5z M216.8,0.3
		c-8.9,0-16.2,7.9-16.2,17.6s7.3,17.6,16.2,17.6S233,27.6,233,17.9S225.7,0.3,216.8,0.3z"/>
</g>
<line class="st4" x1="138.9" y1="-0.6" x2="138.9" y2="35.9"/>
<g>
	<rect x="149.1" y="-0.6" class="st0" width="20.5" height="36.6"/>
	<line class="st4" x1="169.5" y1="-0.6" x2="169.5" y2="36"/>
	<line class="st4" x1="149.1" y1="-0.6" x2="149.1" y2="36"/>
	<line class="st4" x1="149" y1="-0.6" x2="169.5" y2="21.4"/>
</g>
<g>
	<path class="st5" d="M96.9,4C94.4-1,87.6-1.4,85,1.5s-4.4,11.3,8.8,13.6s6.9,30.7-14.8,16.8"/>
	<path class="st3" d="M98.6,4.8c-0.5-5.8-11-6.2-13.5-3.3s-3.7,12.1,8.8,13.6"/>
</g>
<line class="st4" x1="72.7" y1="-0.6" x2="72.7" y2="35.9"/>
<g>
	<polyline class="st3" points="13.3,36.1 13.3,31.6 23.7,25.3 36.9,36.2 	"/>
	<g>
		<path class="st3" d="M13.1,35.8V-0.5c0,0,15,0,17.9,0s7.4,0.9,6.3,7.4c-1.1,6.5-7.4,13.4-13.9,18.3s-10.3,6.3-10.3,6.3"/>
		<line class="st6" x1="23.3" y1="25.2" x2="36.7" y2="35.8"/>
	</g>
</g>
<g>
	<line class="st4" x1="43.7" y1="14.4" x2="60.8" y2="14.4"/>
	<line class="st4" x1="43.7" y1="2.4" x2="65" y2="2.4"/>
	<line class="st4" x1="43.7" y1="33" x2="65" y2="33"/>
	<line class="st4" x1="43.7" y1="-0.6" x2="43.7" y2="36"/>
</g>
<g>
	<line class="st4" x1="107.7" y1="14.4" x2="124.8" y2="14.4"/>
	<line class="st4" x1="107.7" y1="2.4" x2="129" y2="2.4"/>
	<line class="st4" x1="107.7" y1="33" x2="129" y2="33"/>
	<line class="st4" x1="107.7" y1="-0.6" x2="107.7" y2="36"/>
</g>
<g>
	<line class="st4" x1="178.1" y1="14.4" x2="195.2" y2="14.4"/>
	<line class="st4" x1="178.1" y1="2.4" x2="199.4" y2="2.4"/>
	<line class="st4" x1="178.1" y1="-0.6" x2="178.1" y2="36"/>
</g>
</svg>
