<?xml version="1.0" encoding="utf-8"?>
<!-- Generator: Adobe Illustrator 19.2.0, SVG Export Plug-In . SVG Version: 6.00 Build 0)  -->
<svg version="1.1" id="Layer_1" xmlns="http://www.w3.org/2000/svg" xmlns:xlink="http://www.w3.org/1999/xlink" x="0px" y="0px"
	 viewBox="0 0 267.7 36.6" style="enable-background:new 0 0 267.7 36.6;" xml:space="preserve">
<style type="text/css">
	.st0{fill:#D0D97A;}
	.st1{fill:#B9DEBD;}
	.st2{fill:#D0D97A;stroke:#000000;stroke-linecap:round;stroke-linejoin:round;stroke-miterlimit:10;}
	.st3{fill:#B9DEBD;stroke:#000000;stroke-linecap:round;stroke-linejoin:round;stroke-miterlimit:10;}
	.st4{fill:#B9DEBD;stroke:#000000;stroke-miterlimit:10;}
	.st5{fill:none;stroke:#000000;stroke-linecap:round;stroke-miterlimit:10;}
	.st6{fill:#D0D97A;stroke:#000000;stroke-linecap:round;stroke-miterlimit:10;}
	.st7{fill:#D0D97A;stroke:#000000;stroke-miterlimit:10;}
	.st8{fill:none;stroke:#000000;stroke-linecap:round;stroke-linejoin:round;stroke-miterlimit:10;}
</style>
<rect x="-0.3" y="0" class="st0" width="139.4" height="36.6"/>
<rect x="139.2" y="0" class="st1" width="128.8" height="36.6"/>
<polygon class="st0" points="80.2,36.2 80.2,0 111.1,0 98.1,36.5 "/>
<rect x="44.1" y="0" class="st1" width="28.6" height="36.6"/>
<rect x="89.8" y="0" class="st1" width="18.2" height="36.6"/>
<rect x="178.1" y="0" class="st0" width="67.7" height="36.6"/>
<g>
	<path class="st2" d="M252.9,4.3c-2.5-5-9.3-5.4-11.9-2.5s-4.4,11.3,8.8,13.6c13.2,2.3,6.9,30.7-14.8,16.8"/>
	<path class="st3" d="M254.6,5.1c-0.5-5.8-11-6.2-13.5-3.3s-3.7,12.1,8.8,13.6"/>
</g>
<ellipse class="st4" cx="216.8" cy="18.5" rx="16.7" ry="18.1"/>
<line class="st5" x1="138.9" y1="0" x2="138.9" y2="36.5"/>
<g>
	<rect x="149.1" y="0" class="st0" width="20.5" height="36.6"/>
	<line class="st6" x1="169.5" y1="0" x2="169.5" y2="36.6"/>
	<line class="st6" x1="149.1" y1="0" x2="149.1" y2="36.6"/>
	<line class="st6" x1="149" y1="0" x2="169.5" y2="22"/>
</g>
<g>
	<path class="st7" d="M96.9,4.6c-2.5-5-9.3-5.4-11.9-2.5s-4.4,11.3,8.8,13.6s6.9,30.7-14.8,16.8"/>
	<path class="st3" d="M98.6,5.4c-0.5-5.8-11-6.2-13.5-3.3s-3.7,12.1,8.8,13.6"/>
</g>
<line class="st5" x1="72.7" y1="0" x2="72.7" y2="36.5"/>
<g>
	<polyline class="st3" points="13.3,36.7 13.3,32.2 23.7,25.9 36.9,36.8 	"/>
	<g>
		<path class="st3" d="M13.1,36.4V0.1c0,0,15,0,17.9,0s7.4,0.9,6.3,7.4c-1.1,6.5-7.4,13.4-13.9,18.3s-10.3,6.3-10.3,6.3"/>
		<line class="st8" x1="23.3" y1="25.8" x2="36.7" y2="36.4"/>
	</g>
</g>
<g>
	<line class="st5" x1="43.7" y1="15" x2="60.8" y2="15"/>
	<line class="st5" x1="43.7" y1="3" x2="65" y2="3"/>
	<line class="st5" x1="43.7" y1="33.6" x2="65" y2="33.6"/>
	<line class="st5" x1="43.7" y1="0" x2="43.7" y2="36.6"/>
</g>
<g>
	<line class="st5" x1="107.7" y1="15" x2="124.8" y2="15"/>
	<line class="st5" x1="107.7" y1="3" x2="129" y2="3"/>
	<line class="st5" x1="107.7" y1="33.6" x2="129" y2="33.6"/>
	<line class="st5" x1="107.7" y1="0" x2="107.7" y2="36.6"/>
</g>
<g>
	<line class="st5" x1="178.1" y1="15" x2="195.2" y2="15"/>
	<line class="st5" x1="178.1" y1="3" x2="199.4" y2="3"/>
	<line class="st5" x1="178.1" y1="0" x2="178.1" y2="36.6"/>
</g>
</svg>
