<?xml version="1.0" encoding="utf-8"?>
<!-- Generator: Adobe Illustrator 19.2.1, SVG Export Plug-In . SVG Version: 6.00 Build 0)  -->
<svg version="1.1" id="Layer_1" xmlns="http://www.w3.org/2000/svg" xmlns:xlink="http://www.w3.org/1999/xlink" x="0px" y="0px"
	 viewBox="0 0 303.7 35.4" style="enable-background:new 0 0 303.7 35.4;" xml:space="preserve">
<style type="text/css">
	.st0{fill:#D0D97A;}
	.st1{fill:#B9DEBD;}
	.st2{fill:#D0D97A;stroke:#000000;stroke-linecap:round;stroke-miterlimit:10;}
	.st3{fill:#D0D97A;stroke:#000000;stroke-linecap:round;stroke-linejoin:round;stroke-miterlimit:10;}
	.st4{fill:#B9DEBD;stroke:#000000;stroke-linecap:round;stroke-linejoin:round;stroke-miterlimit:10;}
	.st5{fill:none;stroke:#000000;stroke-linecap:round;stroke-miterlimit:10;}
	.st6{fill:#B9DEBD;stroke:#000000;stroke-miterlimit:10;}
	.st7{fill:none;stroke:#000000;stroke-linecap:round;stroke-linejoin:round;stroke-miterlimit:10;}
</style>
<rect y="-0.6" class="st0" width="303.3" height="36.6"/>
<rect x="276.2" y="-0.6" class="st1" width="27.5" height="36.6"/>
<rect x="106.5" y="-0.6" class="st1" width="30.9" height="36.6"/>
<path class="st2" d="M148.8,30.1c-3.4,3.5-8.2,5.7-13.5,5.7c-10.2,0-18.5-8.1-18.5-18.1s8.3-18.1,18.5-18.1c1.8,0,3.6,0.3,5.3,0.7"
	/>
<g>
	<path class="st3" d="M108.6,4c-2.5-5-9.3-5.4-11.9-2.5s-4.4,11.3,8.8,13.6s6.9,30.7-14.8,16.8"/>
	<path class="st4" d="M110.3,4.8c-0.5-5.8-11-6.2-13.5-3.3s-3.7,12.1,8.8,13.6"/>
</g>
<g>
	<rect x="65.6" y="-0.6" class="st1" width="20.4" height="36.6"/>
	<line class="st5" x1="86" y1="-0.6" x2="86" y2="36"/>
	<line class="st5" x1="65.6" y1="-0.6" x2="65.6" y2="36"/>
	<line class="st5" x1="65.5" y1="-0.6" x2="86" y2="21.4"/>
</g>
<path class="st6" d="M109.8,35.9"/>
<g>
	<rect x="153.8" y="-0.6" class="st1" width="20.1" height="36.6"/>
	<line class="st7" x1="153.9" y1="-0.6" x2="153.9" y2="36"/>
	<line class="st7" x1="173.9" y1="-0.6" x2="173.9" y2="36"/>
	<line class="st7" x1="154.1" y1="9.5" x2="173.6" y2="9.4"/>
	<line class="st7" x1="154.1" y1="14.8" x2="173.8" y2="14.8"/>
</g>
<g>
	<line class="st5" x1="276.2" y1="14.4" x2="293.3" y2="14.4"/>
	<line class="st5" x1="276.2" y1="2.4" x2="297.5" y2="2.4"/>
	<line class="st5" x1="276.2" y1="33" x2="297.5" y2="33"/>
	<line class="st5" x1="276.2" y1="-0.6" x2="276.2" y2="36"/>
</g>
<g>
	<polygon class="st1" points="36.3,-0.6 5.1,-0.6 20.7,21.9 	"/>
	<polyline class="st4" points="5.1,-0.6 13.1,36 20.7,21.9 	"/>
	<polyline class="st4" points="36.3,-0.6 28.3,36 20.7,21.9 	"/>
	<path class="st4" d="M34.1-0.6"/>
</g>
<g>
	<polygon class="st1" points="59.3,-0.5 41.2,-0.5 50.3,35.9 	"/>
	<path class="st4" d="M41.2-0.5c0,0,0,22.2,0,26.8c0,5.8,1.9,9.6,9.1,9.6"/>
	<path class="st4" d="M59.3-0.5c0,0,0,22.2,0,26.8c0,5.8-1.9,9.6-9.1,9.6"/>
</g>
<rect x="182.2" y="-0.6" class="st1" width="29.2" height="36.6"/>
<g>
	<line class="st5" x1="182.3" y1="33" x2="205" y2="33"/>
	<line class="st7" x1="182" y1="-0.6" x2="182" y2="36"/>
</g>
<line class="st5" x1="211.6" y1="-0.6" x2="211.6" y2="35.9"/>
<rect x="230.8" y="-0.6" class="st1" width="25.3" height="36.6"/>
<g>
	<path class="st3" d="M235.4,4.3c-2.5-5-9.3-5.4-11.9-2.5s-4.4,11.3,8.8,13.6s6.9,30.7-14.8,16.8"/>
	<path class="st4" d="M237.1,5.1c-0.5-5.8-11-6.2-13.5-3.3s-3.7,12.1,8.8,13.6"/>
</g>
<g>
	<line class="st5" x1="256.1" y1="-0.4" x2="256.1" y2="35.8"/>
	<line class="st5" x1="243.3" y1="2.2" x2="268.4" y2="2.2"/>
</g>
</svg>
