<?xml version="1.0" encoding="utf-8"?>
<!-- Generator: Adobe Illustrator 19.2.0, SVG Export Plug-In . SVG Version: 6.00 Build 0)  -->
<svg version="1.1" id="Layer_1" xmlns="http://www.w3.org/2000/svg" xmlns:xlink="http://www.w3.org/1999/xlink" x="0px" y="0px"
	 viewBox="0 0 250.1 36.6" style="enable-background:new 0 0 250.1 36.6;" xml:space="preserve">
<style type="text/css">
	.st0{fill:#B9DEBD;}
	.st1{fill:#CFD87A;}
	.st2{fill:none;stroke:#000000;stroke-linecap:round;stroke-miterlimit:10;}
	.st3{fill:#B9DEBD;stroke:#000000;stroke-linecap:round;stroke-linejoin:round;stroke-miterlimit:10;}
	.st4{fill:#CFD87A;stroke:#000000;stroke-linecap:round;stroke-linejoin:round;stroke-miterlimit:10;}
	.st5{fill:none;stroke:#000000;stroke-linecap:round;stroke-linejoin:round;stroke-miterlimit:10;}
	.st6{fill:#D0D97A;stroke:#000000;stroke-linecap:round;stroke-linejoin:round;stroke-miterlimit:10;}
</style>
<rect x="96.3" y="0.2" class="st0" width="33.3" height="36.3"/>
<rect x="153.3" class="st0" width="96.7" height="36.5"/>
<rect x="129.6" y="0.2" class="st1" width="29.1" height="36.3"/>
<rect y="0.2" class="st1" width="41.5" height="36.3"/>
<rect x="41.3" y="0.2" class="st0" width="47.5" height="36.3"/>
<rect x="82.3" y="0.2" class="st1" width="24.1" height="36.3"/>
<g>
	<line class="st2" x1="158.7" y1="0.2" x2="158.7" y2="36.4"/>
	<line class="st2" x1="145.9" y1="2.8" x2="171" y2="2.8"/>
</g>
<g>
	<path class="st3" d="M134.7,4.6c-2.5-5-9.3-5.4-11.9-2.5s-4.4,11.3,8.8,13.6s6.9,30.7-14.8,16.8"/>
	<path class="st4" d="M136.4,5.4c-0.5-5.8-11-6.2-13.5-3.3s-3.7,12.1,8.8,13.6"/>
</g>
<line class="st2" x1="106.5" y1="0" x2="106.5" y2="36.5"/>
<g>
	<polyline class="st3" points="10.1,36.7 10.1,32.2 20.5,25.9 33.7,36.8 	"/>
	<g>
		<path class="st3" d="M9.9,36.4V0.1c0,0,15,0,17.9,0s7.4,0.9,6.3,7.4C33,14,26.7,20.9,20.2,25.8S9.9,32.1,9.9,32.1"/>
		<line class="st3" x1="20.1" y1="25.8" x2="33.5" y2="36.4"/>
	</g>
</g>
<g>
	<polyline class="st1" points="181.1,36.5 181.1,32.1 191.5,25.8 204.7,36.6 	"/>
	<g>
		<path class="st4" d="M180.9,36.3V0c0,0,15,0,17.9,0s7.4,0.9,6.3,7.4c-1.1,6.5-7.4,13.3-13.9,18.2s-10.3,6.3-10.3,6.3"/>
		<line class="st5" x1="191.1" y1="25.6" x2="204.5" y2="36.3"/>
	</g>
</g>
<g>
	<line class="st2" x1="41.5" y1="15" x2="58.6" y2="15"/>
	<line class="st2" x1="41.5" y1="3" x2="62.8" y2="3"/>
	<line class="st2" x1="41.5" y1="33.6" x2="62.8" y2="33.6"/>
	<line class="st2" x1="41.5" y1="0" x2="41.5" y2="36.6"/>
</g>
<path class="st6" d="M92.1,2.6c-0.8-3.3-24.2-7.2-24.2,16s26.5,17.4,28,16.6V23.6H83.6"/>
<g>
	<polyline class="st1" points="217.2,0 230,16.5 242.3,0 	"/>
	<g>
		<polyline class="st5" points="214.7,36.3 229.7,16.5 242.3,0 		"/>
		<path class="st5" d="M229.7,16.5L217.2,0L229.7,16.5z"/>
	</g>
</g>
</svg>
