<?xml version="1.0" encoding="utf-8"?>
<!-- Generator: Adobe Illustrator 19.2.1, SVG Export Plug-In . SVG Version: 6.00 Build 0)  -->
<svg version="1.1" id="Layer_1" xmlns="http://www.w3.org/2000/svg" xmlns:xlink="http://www.w3.org/1999/xlink" x="0px" y="0px"
	 viewBox="0 0 177.7 35.4" style="enable-background:new 0 0 177.7 35.4;" xml:space="preserve">
<style type="text/css">
	.st0{fill:#CFD87A;}
	.st1{fill:#B9DEBD;}
	.st2{fill:#B9DEBD;stroke:#000000;stroke-linecap:round;stroke-linejoin:round;stroke-miterlimit:10;}
	.st3{fill:none;stroke:#000000;stroke-linecap:round;stroke-linejoin:round;stroke-miterlimit:10;}
	.st4{fill:none;stroke:#000000;stroke-linecap:round;stroke-miterlimit:10;}
	.st5{fill:#CFD87A;stroke:#000000;stroke-linecap:round;stroke-linejoin:round;stroke-miterlimit:10;}
</style>
<rect class="st0" width="130.3" height="35.5"/>
<rect x="118.7" class="st1" width="59" height="35.6"/>
<ellipse class="st2" cx="87.3" cy="17.7" rx="16.7" ry="18.1"/>
<g>
	<path class="st2" d="M10.3,35.6v-36c0,0,15.1,0,18.1,0s7.4,1,6.3,7.5s-7.5,13.5-14.1,18.3s-10.3,6.3-10.3,6.3"/>
</g>
<g>
	<rect x="42.7" y="-0.6" class="st1" width="20.1" height="36.6"/>
	<line class="st3" x1="42.8" y1="-0.6" x2="42.8" y2="36"/>
	<line class="st3" x1="62.8" y1="-0.6" x2="62.8" y2="36"/>
	<line class="st3" x1="43" y1="9.5" x2="62.5" y2="9.4"/>
	<line class="st3" x1="43" y1="14.8" x2="62.7" y2="14.8"/>
</g>
<g>
	<line class="st4" x1="118.3" y1="-0.2" x2="118.3" y2="36"/>
	<line class="st4" x1="105.5" y1="2.4" x2="130.6" y2="2.4"/>
</g>
<ellipse class="st5" cx="151.3" cy="17.7" rx="16.7" ry="18.1"/>
</svg>
