<?xml version="1.0" encoding="utf-8"?>
<!-- Generator: Adobe Illustrator 19.2.1, SVG Export Plug-In . SVG Version: 6.00 Build 0)  -->
<svg version="1.1" id="Layer_1" xmlns="http://www.w3.org/2000/svg" xmlns:xlink="http://www.w3.org/1999/xlink" x="0px" y="0px"
	 viewBox="0 0 161.5 35.4" style="enable-background:new 0 0 161.5 35.4;" xml:space="preserve">
<style type="text/css">
	.st0{fill:#D0D97A;}
	.st1{fill:#B9DEBD;}
	.st2{fill:none;stroke:#000000;stroke-linecap:round;stroke-linejoin:round;stroke-miterlimit:10;}
	.st3{fill:none;stroke:#000000;stroke-linecap:round;stroke-miterlimit:10;}
</style>
<rect y="-0.6" class="st0" width="81.2" height="36.6"/>
<rect x="81.2" y="-0.6" class="st1" width="80.3" height="36.6"/>
<g>
	<ellipse class="st1" cx="52.2" cy="17.9" rx="16.7" ry="18.1"/>
	<path d="M52.2,36.5c-9.5,0-17.2-8.3-17.2-18.6S42.7-0.7,52.2-0.7c9.5,0,17.2,8.3,17.2,18.6S61.7,36.5,52.2,36.5z M52.2,0.3
		C43.3,0.3,36,8.2,36,17.9s7.3,17.6,16.2,17.6s16.2-7.9,16.2-17.6S61.1,0.3,52.2,0.3z"/>
</g>
<g>
	<rect x="7.7" y="-0.6" class="st1" width="20.1" height="36.6"/>
	<line class="st2" x1="7.8" y1="-0.6" x2="7.8" y2="36"/>
	<line class="st2" x1="27.8" y1="-0.6" x2="27.8" y2="36"/>
	<line class="st2" x1="8" y1="9.5" x2="27.5" y2="9.4"/>
	<line class="st2" x1="8" y1="14.8" x2="27.7" y2="14.8"/>
</g>
<rect x="100.7" y="-0.6" class="st0" width="30.7" height="36.6"/>
<line class="st3" x1="131.7" y1="33" x2="154.4" y2="33"/>
<g>
	<line class="st3" x1="81.3" y1="-0.2" x2="81.3" y2="36"/>
	<line class="st3" x1="68.5" y1="2.4" x2="93.6" y2="2.4"/>
</g>
<g>
	<line class="st3" x1="100.7" y1="14.4" x2="117.8" y2="14.4"/>
	<line class="st3" x1="100.7" y1="2.4" x2="122" y2="2.4"/>
	<line class="st3" x1="100.7" y1="33" x2="122" y2="33"/>
	<line class="st3" x1="100.7" y1="-0.6" x2="100.7" y2="36"/>
</g>
<line class="st2" x1="131.4" y1="-0.6" x2="131.4" y2="36"/>
</svg>
