<?xml version="1.0" encoding="utf-8"?>
<!-- Generator: Adobe Illustrator 19.2.0, SVG Export Plug-In . SVG Version: 6.00 Build 0)  -->
<svg version="1.1" id="Layer_1" xmlns="http://www.w3.org/2000/svg" xmlns:xlink="http://www.w3.org/1999/xlink" x="0px" y="0px"
	 viewBox="0 0 161.5 36.6" style="enable-background:new 0 0 161.5 36.6;" xml:space="preserve">
<style type="text/css">
	.st0{fill:#D0D97A;}
	.st1{fill:#B9DEBD;}
	.st2{fill:#B9DEBD;stroke:#000000;stroke-linecap:round;stroke-linejoin:round;stroke-miterlimit:10;}
	.st3{fill:none;stroke:#000000;stroke-linecap:round;stroke-linejoin:round;stroke-miterlimit:10;}
	.st4{fill:none;stroke:#000000;stroke-linecap:round;stroke-miterlimit:10;}
</style>
<rect y="0" class="st0" width="81.2" height="36.6"/>
<rect x="81.2" y="0" class="st1" width="80.3" height="36.6"/>
<ellipse class="st2" cx="52.2" cy="18.5" rx="16.7" ry="18.1"/>
<rect x="7.7" y="0" class="st1" width="20.1" height="36.6"/>
<line class="st3" x1="7.8" y1="0" x2="7.8" y2="36.6"/>
<line class="st3" x1="27.8" y1="0" x2="27.8" y2="36.6"/>
<line class="st3" x1="8" y1="10.1" x2="27.5" y2="10"/>
<line class="st3" x1="8" y1="15.4" x2="27.7" y2="15.4"/>
<rect x="100.7" y="0" class="st0" width="30.7" height="36.6"/>
<line class="st4" x1="100.7" y1="15" x2="117.8" y2="15"/>
<line class="st4" x1="100.7" y1="3" x2="122" y2="3"/>
<line class="st4" x1="100.7" y1="33.6" x2="122" y2="33.6"/>
<line class="st4" x1="131.7" y1="33.6" x2="154.4" y2="33.6"/>
<g>
	<line class="st4" x1="81.3" y1="0.4" x2="81.3" y2="36.6"/>
	<line class="st4" x1="68.5" y1="3" x2="93.6" y2="3"/>
</g>
<line class="st4" x1="100.7" y1="0" x2="100.7" y2="36.6"/>
<line class="st3" x1="131.4" y1="0" x2="131.4" y2="36.6"/>
</svg>
