<?xml version="1.0" encoding="utf-8"?>
<!-- Generator: Adobe Illustrator 19.2.0, SVG Export Plug-In . SVG Version: 6.00 Build 0)  -->
<svg version="1.1" id="Layer_1" xmlns="http://www.w3.org/2000/svg" xmlns:xlink="http://www.w3.org/1999/xlink" x="0px" y="0px"
	 viewBox="0 0 313.7 36.6" style="enable-background:new 0 0 313.7 36.6;" xml:space="preserve">
<style type="text/css">
	.st0{fill:#D0D97A;}
	.st1{fill:#B9DEBD;}
	.st2{fill:none;stroke:#000000;stroke-linecap:round;stroke-miterlimit:10;}
	.st3{fill:#D0D97A;stroke:#000000;stroke-miterlimit:10;}
	.st4{fill:#D0D97A;stroke:#020202;stroke-miterlimit:10;}
	.st5{fill:#B9DEBD;stroke:#000000;stroke-miterlimit:10;}
	.st6{fill:none;stroke:#000000;stroke-linecap:round;stroke-linejoin:round;stroke-miterlimit:10;}
</style>
<rect x="1.8" y="0" class="st0" width="159.1" height="36.6"/>
<rect x="160.9" y="0" class="st1" width="150" height="36.6"/>
<rect x="61.4" y="-2" class="st1" width="40.3" height="48.4"/>
<polygon class="st0" points="101.9,36.2 101.9,0 132.8,0 119.8,36.5 "/>
<g>
	<line class="st2" x1="21.1" y1="36" x2="42.4" y2="36"/>
	<polygon class="st1" points="61.3,38.3 61.3,0 20.9,0 20.9,38.7 	"/>
</g>
<path class="st3" d="M115.4,30.5c-3.4,3.5-8.2,5.7-13.5,5.7c-10.2,0-18.5-8.1-18.5-18.1S91.7,0,101.9,0c1.8,0,3.6,0.3,5.3,0.7"/>
<g>
	<line class="st2" x1="161" y1="0.4" x2="161" y2="36.6"/>
	<line class="st2" x1="148.2" y1="0.3" x2="173.3" y2="0.3"/>
</g>
<ellipse class="st4" cx="61" cy="18.1" rx="16.7" ry="18.1"/>
<rect x="184.7" y="0" class="st0" width="97.3" height="37.6"/>
<g>
	<path class="st3" d="M288.7,4.3c-2.5-5-9.3-5.4-11.9-2.5s-4.4,11.3,8.8,13.6s6.9,30.7-14.8,16.8"/>
	<path class="st5" d="M290.4,5.1c-0.5-5.8-11-6.2-13.5-3.3s-3.7,12.1,8.8,13.6"/>
</g>
<ellipse class="st5" cx="214.5" cy="18.5" rx="16.7" ry="18.1"/>
<polygon class="st1" points="119.8,36.5 132.8,0 145.9,36.6 "/>
<line class="st2" x1="184.7" y1="0" x2="184.7" y2="40"/>
<g>
	<polyline class="st5" points="145.9,36.5 132.8,0 119.8,36.5 132.8,0 	"/>
	<line class="st5" x1="144.3" y1="32.1" x2="128.4" y2="32.1"/>
	<line class="st5" x1="135.4" y1="24.5" x2="124.1" y2="24.5"/>
</g>
<g>
	<line class="st2" x1="20.9" y1="34" x2="43.6" y2="34"/>
	<line class="st6" x1="20.6" y1="0" x2="20.6" y2="36.6"/>
</g>
<rect x="241.7" y="-2" class="st1" width="20.5" height="46.2"/>
<g>
	<line class="st2" x1="262.3" y1="0" x2="262.3" y2="39"/>
	<line class="st2" x1="241.9" y1="0" x2="241.9" y2="39"/>
	<line class="st2" x1="241.8" y1="0" x2="262.3" y2="23.4"/>
</g>
<path class="st5" d="M119.8,36.5"/>
</svg>
